<?xml version="1.0" encoding="UTF-8" standalone="no"?>
<svg
        xmlns:dc="http://purl.org/dc/elements/1.1/"
        xmlns:cc="http://creativecommons.org/ns#"
        xmlns:rdf="http://www.w3.org/1999/02/22-rdf-syntax-ns#"
        xmlns="http://www.w3.org/2000/svg"
        viewBox="0 0 2560 1440"
        height="1440"
        width="2560"
        xml:space="preserve"
        id="svg2"
        version="1.1"><metadata
     id="metadata8"><rdf:RDF><cc:Work
         rdf:about=""><dc:format>image/svg+xml</dc:format><dc:type
        rdf:resource="http://purl.org/dc/dcmitype/StillImage"/><dc:title></dc:title></cc:Work></rdf:RDF></metadata>
    <defs
            id="defs6"><clipPath
       id="clipPath20"
       clipPathUnits="userSpaceOnUse"><path
         id="path18"
         d="M 0,0 H 1920 V 1080 H 0 Z" /></clipPath>
        <clipPath
                id="clipPath36"
                clipPathUnits="userSpaceOnUse"><path
         id="path34"
         d="m 853.7705,386.8041 h 375.121 v 306.3917 h -375.121 z" /></clipPath>
        <clipPath
                id="clipPath46"
                clipPathUnits="userSpaceOnUse"><path
         id="path44"
         d="m 857.5901,389.6707 h 367.4818 V 690.3293 H 857.5901 Z" /></clipPath>
        <clipPath
                id="clipPath56"
                clipPathUnits="userSpaceOnUse"><path
         id="path54"
         d="m 691.1085,386.8041 h 375.121 v 306.3917 h -375.121 z" /></clipPath>
        <clipPath
                id="clipPath66"
                clipPathUnits="userSpaceOnUse"><path
         id="path64"
         d="m 694.9283,389.6801 h 367.4813 V 690.329 H 694.9283 Z" /></clipPath></defs>
    <g
            transform="matrix(1.3333333,0,0,-1.3333333,0,1440)"
            id="g10"><g
       id="g12" />
        <g
                id="g30"><g
         clip-path="url(#clipPath36)"
         id="g32"><path
           id="path38"
           style="fill:#ffffeb;fill-opacity:1;fill-rule:nonzero;stroke:none"
           d="m 1051.764,692.1873 3.883,-0.0304 143.879,-0.8797 h 0.061 l 3.822,-0.0303 c 7.11,0.0963 13.957,-2.9564 18.626,-8.3422 3.859,-4.4514 5.927,-10.1533 5.855,-16.0473 l -1.092,-252.6617 c 0.209,-6.7821 -2.247,-13.4191 -6.886,-18.3527 -5.033,-5.3518 -12.119,-8.2439 -19.445,-7.9782 l -147.551,-0.0607 c -0.113,0.009 -0.22,0.0506 -0.333,0.0607 h -3.549 c -8.042,0.6337 -15.537,4.3203 -20.932,10.3443 -5.913,6.6022 -8.815,15.4045 -7.978,24.2378 l -48.4148,1.0011 c -13.9423,0.0397 -27.7424,2.6609 -40.7402,7.7051 -43.8151,17.0044 -73.7054,58.2263 -76.0502,105.3541 -1.2236,24.5946 5.1676,48.2902 17.6247,68.1631 12.5611,20.039 31.2299,36.1013 54.0269,45.5938 13.8923,5.7845 28.8165,8.6879 43.8647,8.5848 h 49.3249 c -0.527,9.1214 2.898,18.037 9.404,24.4198 6.034,5.9199 14.182,9.1151 22.6,8.9186 z" /></g></g>
        <g
                id="g40"><g
         clip-path="url(#clipPath46)"
         id="g42"><path
           id="path48"
           style="fill:#18679a;fill-opacity:1;fill-rule:nonzero;stroke:none"
           d="m 1054.985,689.316 c -8.273,0.2444 -16.315,-2.8831 -22.208,-8.7126 -6.579,-6.5071 -9.809,-15.6678 -8.841,-24.8566 l -48.8165,0.4271 c -66.0513,0.7637 -119.2151,-54.0579 -116.4243,-120.0547 2.6444,-62.536 55.1454,-111.2842 117.7056,-109.292 l 47.5352,-0.9823 c -1.812,-8.5549 0.339,-17.4702 5.851,-24.2586 5.334,-6.5693 13.279,-10.4714 21.739,-10.6772 l 144.911,-0.1282 c 7.747,-0.7317 15.357,2.2056 20.543,7.9866 4.64,5.1733 6.809,12.1436 6.022,19.0481 l 1.068,246.7719 c 0.08,5.7501 -1.956,11.3291 -5.723,15.6742 -4.573,5.274 -11.3,8.2515 -18.28,8.1574 z m -80.7624,-68.5905 30.4514,-0.1281 16.571,0.1281 v -27.3337 l -55.3506,-0.8541 c -10.5739,-1.9488 -19.91,-6.1987 -27.6326,-15.0336 -18.1584,-20.7737 -18.1771,-54.3815 0,-75.1249 7.7246,-8.8152 17.5576,-13.5864 27.6326,-14.9054 l 55.3506,-0.8969 v -22.9346 l -9.182,0.0427 -37.1143,0.0427 c -41.555,0.4561 -75.5129,33.305 -77.2603,74.8259 -1.8486,43.9233 32.59,80.9182 76.5342,82.1719 z M 1095.644,559.78 c 4.824,-10e-5 9.647,-1.9444 13.325,-5.8085 1.722,-1.8084 2.971,-3.8961 3.887,-6.1073 l 48.645,11.9158 v -39.5912 l -48.645,11.8731 c -0.916,-2.2031 -2.171,-4.3046 -3.887,-6.1074 -7.355,-7.7286 -19.294,-7.7287 -26.65,0 -3.678,3.8643 -5.552,8.9436 -5.552,14.0085 0,5.065 1.874,10.1441 5.552,14.0085 3.678,3.8644 8.501,5.8085 13.325,5.8085 z" /></g></g>
        <g
                id="g50"><g
         clip-path="url(#clipPath56)"
         id="g52"><path
           id="path58"
           style="fill:#ffffeb;fill-opacity:1;fill-rule:nonzero;stroke:none"
           d="m 868.2363,692.1873 -3.8829,-0.0304 -143.8797,-0.8797 h -0.0607 l -3.8222,-0.0303 c -7.1096,0.0963 -13.9563,-2.9564 -18.6258,-8.3422 -3.8593,-4.4514 -5.9269,-10.1533 -5.8547,-16.0473 l 1.0921,-252.6617 c -0.2089,-6.7821 2.2466,-13.4191 6.886,-18.3527 5.0325,-5.3518 12.1189,-8.2439 19.4449,-7.9782 l 147.5502,-0.0607 c 0.1135,0.009 0.2205,0.0506 0.3337,0.0607 h 3.5493 c 8.041,0.6337 15.5361,4.3203 20.9312,10.3443 5.913,6.6022 8.8148,15.4045 7.9782,24.2378 l 48.4149,1.0011 c 13.9423,0.0397 27.7424,2.6609 40.7402,7.7051 43.815,17.0044 73.705,58.2263 76.05,105.3541 1.224,24.5946 -5.167,48.2902 -17.625,68.1631 -12.561,20.039 -31.229,36.1013 -54.0264,45.5938 -13.8923,5.7845 -28.8165,8.6879 -43.8647,8.5848 h -49.325 c 0.5272,9.1214 -2.8982,18.037 -9.4039,24.4198 -6.0338,5.9199 -14.1824,9.1151 -22.5997,8.9186 z" /></g></g>
        <g
                id="g60"><g
         clip-path="url(#clipPath66)"
         id="g62"><path
           id="path68"
           style="fill:#18679a;fill-opacity:1;fill-rule:nonzero;stroke:none"
           d="m 865.011,689.3157 -145.0784,-0.886 c -6.9797,0.0941 -13.6748,-2.9023 -18.2529,-8.1715 -3.7757,-4.3457 -5.8205,-9.9172 -5.7496,-15.6735 l 1.0633,-246.7593 c -0.7877,-6.9045 1.3881,-13.8644 6.0252,-19.0406 5.1912,-5.7945 12.8099,-8.726 20.5567,-7.9943 l 144.9012,0.1379 c 8.4678,0.1953 16.4196,4.0961 21.7579,10.6721 5.5096,6.7871 7.6732,15.7141 5.848,24.2585 l 47.5128,0.9846 c 62.5548,-1.989 115.0578,46.7515 117.7088,109.2813 2.798,66.0037 -50.37,120.8337 -116.429,120.0717 l -48.7926,-0.4135 c 0.9678,9.1888 -2.3095,18.314 -8.8804,24.8098 -5.8941,5.8269 -13.9184,8.9673 -22.191,8.7228 z m 32.8632,-68.5814 17.4456,-0.1182 30.4413,0.1182 c 43.9443,-1.2537 78.4089,-38.225 76.5559,-82.1481 -1.752,-41.5279 -35.7099,-74.4065 -77.2648,-74.8626 l -37.1162,-0.0394 -10.0618,-0.0394 v 124.5414 l 0.0394,4.194 h -0.0394 z m 26.5426,-28.1572 V 487.3716 l 29.7127,0.0985 c 10.0739,1.3223 19.8786,6.0929 27.6058,14.9056 18.1932,20.7482 18.1933,54.3901 0,75.1383 -7.7279,8.8133 -17.5311,13.6423 -27.6058,14.9647 z M 758.506,559.773 807.1411,547.8604 c 0.9157,2.211 2.1774,4.2956 3.8987,6.104 7.356,7.7285 19.2655,7.7287 26.6214,0 3.6779,-3.8644 5.5527,-8.9349 5.5526,-13.9999 0,-5.0649 -1.8746,-10.1157 -5.5526,-13.9801 -7.3559,-7.7287 -19.2658,-7.7286 -26.6214,0 -1.7157,1.8027 -2.9834,3.9007 -3.8987,6.104 l -48.6351,-11.893 z" /></g></g></g></svg>
