<?xml version="1.0" encoding="UTF-8" standalone="no"?>
<svg
        xmlns:dc="http://purl.org/dc/elements/1.1/"
        xmlns:cc="http://creativecommons.org/ns#"
        xmlns:rdf="http://www.w3.org/1999/02/22-rdf-syntax-ns#"
        xmlns="http://www.w3.org/2000/svg"
        viewBox="0 0 2560 1440"
        height="1440"
        width="2560"
        xml:space="preserve"
        id="svg2"
        version="1.1"><metadata
     id="metadata8"><rdf:RDF><cc:Work
         rdf:about=""><dc:format>image/svg+xml</dc:format><dc:type
        rdf:resource="http://purl.org/dc/dcmitype/StillImage"/><dc:title></dc:title></cc:Work></rdf:RDF></metadata>
    <defs
            id="defs6"><clipPath
       id="clipPath20"
       clipPathUnits="userSpaceOnUse"><path
         id="path18"
         d="M 0,0 H 1920 V 1080 H 0 Z" /></clipPath>
        <clipPath
                id="clipPath36"
                clipPathUnits="userSpaceOnUse"><path
         id="path34"
         d="m 651.8757,471.5705 h 616.2468 V 608.4352 H 651.8757 Z" /></clipPath>
        <clipPath
                id="clipPath46"
                clipPathUnits="userSpaceOnUse"><path
         id="path44"
         d="m 523.6719,450.5 h 872.6562 v 179 H 523.6719 Z" /></clipPath>
        <clipPath
                id="clipPath56"
                clipPathUnits="userSpaceOnUse"><path
         id="path54"
         d="m 1263.771,422.0578 h 288.6937 V 657.9422 H 1263.771 Z" /></clipPath>
        <clipPath
                id="clipPath66"
                clipPathUnits="userSpaceOnUse"><path
         id="path64"
         d="M 1266.706,424.2604 H 1549.53 V 655.7397 H 1266.706 Z" /></clipPath>
        <clipPath
                id="clipPath76"
                clipPathUnits="userSpaceOnUse"><path
         id="path74"
         d="M 367.5349,422.0578 H 656.2286 V 657.9422 H 367.5349 Z" /></clipPath>
        <clipPath
                id="clipPath86"
                clipPathUnits="userSpaceOnUse"><path
         id="path84"
         d="M 370.4699,424.2676 H 653.2935 V 655.7394 H 370.4699 Z" /></clipPath></defs>
    <g
            transform="matrix(1.3333333,0,0,-1.3333333,0,1440)"
            id="g10"><g
       id="g12" />
        <g
                id="g30"><g
         clip-path="url(#clipPath36)"
         id="g32"><path
           id="path38"
           style="fill:#ffffeb;fill-opacity:1;fill-rule:nonzero;stroke:none"
           d="M 652.8757,607.4352 H 1267.122 V 472.5705 H 652.8757 Z" /></g></g>
        <g
                id="g40"><g
         clip-path="url(#clipPath46)"
         id="g42"><path
           id="path48"
           style="fill:#34a5da;fill-opacity:1;fill-rule:nonzero;stroke:none"
           d="m 524.6719,628.5 v -177 h 495.1871 375.469 v 177 h -375.469 -1.687 z m 558.2191,-34.2812 c 1.757,0.0733 3.518,0.047 5.281,-0.0626 5.519,-0.3433 10.933,-1.4758 15.969,-3.5937 4.916,-2.0677 9.446,-5.0763 13.312,-8.8437 l -10.906,-9.625 c -2.852,2.9916 -6.284,5.3644 -10.094,6.9687 -14.272,6.0108 -30.446,-0.5883 -31.625,-14.1875 -0.379,-4.3754 1.137,-8.3992 4.344,-11.25 2.743,-2.4386 6.57,-3.7556 10.219,-4.9688 5.054,-1.6805 9.897,-3.5568 14.875,-5.4374 4.654,-1.7581 9.332,-3.4742 13.312,-6.4376 4.088,-3.0434 7.167,-7.195 8.906,-11.875 1.711,-4.6015 2.101,-9.599 1.407,-14.5624 -1.11,-7.9224 -4.949,-15.2474 -11.032,-20.4376 -10.128,-8.6421 -24.236,-10.0673 -37.156,-6.5312 -9.145,2.5029 -17.499,7.3734 -24.187,14.0938 l 12.656,10.0312 c 4.355,-5.8401 10.669,-9.9173 17.781,-11.5 7.485,-1.6657 15.485,-0.3896 21.156,4.7188 4.464,4.0208 6.687,9.9121 5.407,15.5624 -1.543,6.8096 -7.621,11.3798 -14.407,14.2188 -5.8,2.4266 -12.102,3.7322 -18.031,5.9062 -6.229,2.2842 -11.965,5.4662 -15.719,11 -2.976,4.3878 -4.178,9.5019 -4.406,14.5938 -0.24,5.371 0.605,10.9183 3.219,15.875 5.661,10.734 17.42,15.8305 29.719,16.3438 z m -405.0004,-2.4063 h 68.2813 V 578.375 h -53.375 v -32.0938 h 50 v -12.4687 h -50 V 497.75 h 55.4687 v -12.6875 h -70.375 z m 127.5,0 h 68.2813 V 578.375 h -53.375 v -32.0938 h 50 v -12.4687 h -50 V 497.75 h 55.4375 v -12.6875 h -70.3438 z m 371.3124,0 h 68.281 V 578.375 h -53.375 v -32.0938 h 50 v -12.4687 h -50 V 497.75 h 55.469 v -12.6875 h -70.375 z m -243.1874,-0.4687 37.75,-0.0626 c 6.4417,0.006 12.6557,-1.5665 18.1875,-4.4374 2.6848,-1.3935 5.2576,-3.1034 7.375,-5.2813 2.0276,-2.0853 3.6229,-4.5738 4.8439,-7.3125 2.471,-5.5431 3.085,-11.5265 2.156,-17.25 -0.847,-5.2257 -3.008,-10.2883 -6.6249,-14.4688 -2.7647,-3.1955 -6.1014,-5.6123 -9.875,-7.2187 -3.7416,-1.5927 -7.8301,-2.3375 -11.8437,-2.9063 -8.8571,-1.2552 -17.9088,-1.6475 -27.0625,-1.125 l 0.0312,-46.5312 -15.0625,0.125 z m 14.8438,-12.8126 0.1562,-34.4062 19.375,0.4375 c 2.7345,0.0615 5.3878,0.4419 7.9063,1.0937 2.3626,0.6115 4.6468,1.4677 6.625,2.875 3.8608,2.7466 6.2366,7.2896 6.5937,12.375 0.1718,2.4461 -0.1241,4.8275 -0.9687,7 -0.8367,2.1523 -2.2132,4.0466 -3.9688,5.5 -1.775,1.4697 -3.8638,2.4414 -6.0312,3.2188 -2.1582,0.7741 -4.4262,1.3861 -6.7813,1.8125 z" /></g></g>
        <g
                id="g50"><g
         clip-path="url(#clipPath56)"
         id="g52"><path
           id="path58"
           style="fill:#ffffeb;fill-opacity:1;fill-rule:nonzero;stroke:none"
           d="m 1416.134,656.9356 2.984,-0.0233 110.552,-0.676 h 0.047 l 2.937,-0.0233 c 5.462,0.0741 10.723,-2.2716 14.311,-6.4098 2.965,-3.4203 4.554,-7.8015 4.499,-12.3302 l -0.839,-194.1368 c 0.16,-5.2112 -1.727,-10.3108 -5.292,-14.1016 -3.866,-4.1122 -9.311,-6.3343 -14.94,-6.1302 l -113.373,-0.0466 c -0.087,0.007 -0.169,0.0388 -0.256,0.0466 h -2.727 c -6.179,0.4869 -11.938,3.3196 -16.083,7.9482 -4.544,5.0729 -6.773,11.8363 -6.13,18.6236 l -37.201,0.7691 c -10.713,0.0306 -21.316,2.0446 -31.303,5.9204 -33.666,13.0656 -56.633,44.7391 -58.435,80.9505 -0.94,18.8977 3.971,37.1046 13.543,52.3743 9.651,15.3973 23.996,27.739 41.512,35.0327 10.674,4.4447 22.142,6.6755 33.704,6.5963 h 37.9 c -0.405,7.0086 2.227,13.859 7.225,18.7634 4.637,4.5486 10.898,7.0037 17.365,6.8527 z" /></g></g>
        <g
                id="g60"><g
         clip-path="url(#clipPath66)"
         id="g62"><path
           id="path68"
           style="fill:#18679a;fill-opacity:1;fill-rule:nonzero;stroke:none"
           d="m 1418.609,654.7294 c -6.356,0.1878 -12.536,-2.2153 -17.064,-6.6945 -5.054,-4.9998 -7.536,-12.0386 -6.793,-19.0989 l -37.509,0.3281 c -50.751,0.5868 -91.601,-41.5362 -89.456,-92.2459 2.032,-48.0506 42.372,-85.5071 90.441,-83.9764 l 36.524,-0.7547 c -1.392,-6.5733 0.261,-13.4235 4.496,-18.6395 4.099,-5.0476 10.203,-8.0459 16.703,-8.2041 l 111.345,-0.0984 c 5.953,-0.5622 11.8,1.6946 15.785,6.1366 3.565,3.975 5.232,9.3307 4.627,14.636 l 0.82,189.6112 c 0.062,4.4182 -1.503,8.7049 -4.397,12.0435 -3.513,4.0523 -8.682,6.3402 -14.045,6.2679 z m -62.055,-52.7026 23.398,-0.0985 12.733,0.0985 v -21.0023 l -42.53,-0.6563 c -8.125,-1.4974 -15.298,-4.7628 -21.232,-11.5513 -13.952,-15.9618 -13.966,-41.7849 0,-57.7234 5.935,-6.7734 13.491,-10.4394 21.232,-11.4528 l 42.53,-0.6892 v -17.6222 l -7.056,0.0328 -28.517,0.0328 c -31.929,0.3505 -58.021,25.5905 -59.364,57.4938 -1.42,33.7491 25.041,62.1748 58.806,63.1381 z m 93.296,-46.8285 c 3.707,0 7.413,-1.494 10.239,-4.463 1.323,-1.3895 2.283,-2.9937 2.986,-4.6927 l 37.378,9.1557 v -30.4205 l -37.378,9.1228 c -0.703,-1.6927 -1.668,-3.3075 -2.986,-4.6927 -5.652,-5.9384 -14.825,-5.9384 -20.477,0 -2.826,2.9692 -4.266,6.872 -4.266,10.7637 0,3.8917 1.44,7.7944 4.266,10.7637 2.826,2.9692 6.532,4.463 10.238,4.463 z" /></g></g>
        <g
                id="g70"><g
         clip-path="url(#clipPath76)"
         id="g72"><path
           id="path78"
           style="fill:#ffffeb;fill-opacity:1;fill-rule:nonzero;stroke:none"
           d="m 503.8656,656.9356 -2.9835,-0.0233 -110.5523,-0.676 h -0.0467 l -2.9368,-0.0233 c -5.4628,0.0741 -10.7236,-2.2716 -14.3115,-6.4098 -2.9653,-3.4203 -4.554,-7.8015 -4.4985,-12.3302 l 0.8391,-194.1368 c -0.1605,-5.2112 1.7263,-10.3108 5.291,-14.1016 3.8668,-4.1122 9.3118,-6.3343 14.9408,-6.1302 l 113.3727,-0.0466 c 0.0872,0.007 0.1694,0.0388 0.2564,0.0466 h 2.7271 c 6.1785,0.4869 11.9375,3.3196 16.0829,7.9482 4.5433,5.0729 6.773,11.8363 6.1301,18.6236 l 37.2004,0.7691 c 10.7128,0.0306 21.3164,2.0446 31.3034,5.9204 33.6661,13.0656 56.6328,44.7391 58.4345,80.9505 0.9402,18.8977 -3.9706,37.1046 -13.5423,52.3743 -9.6515,15.3973 -23.996,27.739 -41.5125,35.0327 -10.6743,4.4447 -22.1416,6.6755 -33.7041,6.5963 h -37.8997 c 0.4051,7.0086 -2.2268,13.859 -7.2256,18.7634 -4.6362,4.5486 -10.8973,7.0037 -17.3649,6.8527 z" /></g></g>
        <g
                id="g80"><g
         clip-path="url(#clipPath86)"
         id="g82"><path
           id="path88"
           style="fill:#18679a;fill-opacity:1;fill-rule:nonzero;stroke:none"
           d="M 501.3874,654.7292 389.914,654.0484 c -5.363,0.0723 -10.5072,-2.23 -14.0249,-6.2787 -2.9011,-3.3391 -4.4723,-7.62 -4.4178,-12.043 l 0.817,-189.6016 c -0.6052,-5.3052 1.0666,-10.6529 4.6296,-14.6301 3.9887,-4.4523 9.8427,-6.7048 15.7951,-6.1425 l 111.3372,0.1059 c 6.5064,0.1501 12.6163,3.1473 16.718,8.2001 4.2334,5.215 5.8959,12.0742 4.4934,18.6394 l 36.5073,0.7565 c 48.0647,-1.5282 88.4065,35.9223 90.4435,83.9681 2.1502,50.715 -38.703,92.8446 -89.4601,92.2591 l -37.4907,-0.3177 c 0.7437,7.0603 -1.7745,14.0718 -6.8233,19.063 -4.5289,4.4771 -10.6945,6.8902 -17.0509,6.7023 z m 25.251,-52.6957 13.4047,-0.0907 23.39,0.0907 c 33.7653,-0.9632 60.2465,-29.3708 58.8231,-63.1198 -1.3459,-31.9086 -27.4384,-57.1715 -59.3678,-57.5219 l -28.5189,-0.0303 -7.7311,-0.0303 v 95.6934 l 0.0303,3.2226 h -0.0303 z m 20.3944,-21.635 v -80.8363 l 22.8303,0.0756 c 7.7404,1.016 15.274,4.6816 21.2114,11.453 13.979,15.9422 13.9791,41.7915 0,57.7337 -5.9379,6.7718 -13.4704,10.4823 -21.2114,11.4984 z m -127.4803,-25.2056 37.3696,-9.1533 c 0.7036,1.699 1.6731,3.3007 2.9957,4.6902 5.6521,5.9383 14.8029,5.9384 20.4549,0 2.826,-2.9693 4.2666,-6.8653 4.2665,-10.757 0,-3.8918 -1.4404,-7.7727 -4.2665,-10.7419 -5.652,-5.9384 -14.8031,-5.9384 -20.4549,0 -1.3183,1.3851 -2.2924,2.9972 -2.9957,4.6901 l -37.3696,-9.1381 z" /></g></g></g></svg>
