<svg xmlns="http://www.w3.org/2000/svg" xmlns:xlink="http://www.w3.org/1999/xlink" xmlns:lucid="lucid" width="1272.75" height="1054.17"><g transform="translate(-600 -880)" lucid:page-tab-id="0_0"><path d="M0 0h1870.4v2582.4H0z" fill="#fff"/><path d="M1107.2 1001.45c-11.05 0-20 8.96-20 20v60c0 11.05 8.95 20 20 20h160c11.05 0 20-8.95 20-20v-60c0-11.04-8.95-20-20-20z" stroke="#000" stroke-width="2" fill="#ff8f80"/><path d="M1087.2 1045.45h200" stroke="#000" stroke-width="2" fill="none"/><use xlink:href="#a" transform="matrix(1,0,0,1,1127.2000000000003,1001.4526367187295) translate(-27.874999999999986 25.6)"/><use xlink:href="#b" transform="matrix(1,0,0,1,1107.2000000000003,1061.4526367187295) translate(3.625 15.6)"/><use xlink:href="#c" transform="matrix(1,0,0,1,1107.2000000000003,1061.4526367187295) translate(91.47500000000001 15.6)"/><path d="M902 1459.32c-12.15 0-22 9.85-22 22v66c0 12.15 9.85 22 22 22h156c12.15 0 22-9.85 22-22v-66c0-12.15-9.85-22-22-22z" stroke="#000" stroke-width="2" fill="#ff8f80"/><path d="M880 1503.32h200" stroke="#000" stroke-width="2" fill="none"/><use xlink:href="#d" transform="matrix(1,0,0,1,920,1459.3236816406409) translate(20.5 25.6)"/><use xlink:href="#e" transform="matrix(1,0,0,1,900,1519.3236816406409) translate(45.55 14.4)"/><use xlink:href="#f" transform="matrix(1,0,0,1,900,1519.3236816406409) translate(69.5 14.4)"/><use xlink:href="#g" transform="matrix(1,0,0,1,900,1519.3236816406409) translate(11.574999999999989 36)"/><use xlink:href="#h" transform="matrix(1,0,0,1,900,1519.3236816406409) translate(108.475 36)"/><path d="M1107.2 1694.17h160v82.9h-160z" stroke="#000" stroke-width="2" fill="#c7e8ac"/><use xlink:href="#i" transform="matrix(1,0,0,1,1112.2000000000003,1699.1736816406235) translate(3.4499999999999886 39.49375)"/><use xlink:href="#j" transform="matrix(1,0,0,1,1112.2000000000003,1699.1736816406235) translate(67.64999999999999 39.49375)"/><path d="M1113.2 1810.63c-3.3 0-6 2.68-6 6v18c0 3.3 2.7 6 6 6h148c3.3 0 6-2.7 6-6v-18c0-3.32-2.7-6-6-6z" stroke="#000" stroke-width="2" fill="#ff8f80"/><use xlink:href="#k" transform="matrix(1,0,0,1,1115.2000000000003,1818.6263183593533) translate(60.025 14.4)"/><path d="M1207.2 1894.17c0 11.05-8.95 20-20 20s-20-8.95-20-20c0-11.04 8.95-20 20-20s20 8.96 20 20z" stroke="#000" stroke-width="2" fill="#fff"/><path d="M1173.06 1880.03l28.28 28.3m0-28.3l-28.28 28.3" stroke="#000" stroke-width="2" fill="none"/><path d="M1207.2 920c0 11.05-8.95 20-20 20s-20-8.95-20-20 8.95-20 20-20 20 8.95 20 20z" stroke="#000" stroke-width="2"/><path d="M692.4 996.8h160v40h-160z" fill="#ff8f80"/><use xlink:href="#l" transform="matrix(1,0,0,1,692.4000000000001,996.8000000000466) translate(43.305 24.4)"/><use xlink:href="#m" transform="matrix(1,0,0,1,692.4000000000001,996.8000000000466) translate(66.255 24.4)"/><use xlink:href="#n" transform="matrix(1,0,0,1,692.4000000000001,996.8000000000466) translate(87.705 24.4)"/><path d="M692.4 1056.8h160v40h-160z" fill="#c1e4f7"/><use xlink:href="#o" transform="matrix(1,0,0,1,692.4000000000001,1056.8000000000002) translate(43.305 24.4)"/><use xlink:href="#m" transform="matrix(1,0,0,1,692.4000000000001,1056.8000000000002) translate(77.305 24.4)"/><use xlink:href="#p" transform="matrix(1,0,0,1,692.4000000000001,1056.8000000000002) translate(98.755 24.4)"/><path d="M680 940h200v248.2H680z" stroke="#000" stroke-width="2" fill-opacity="0"/><use xlink:href="#q" transform="matrix(1,0,0,1,688,948) translate(62 15.6)"/><path d="M692.4 1116.8h160v40h-160z" fill="#c7e8ac"/><use xlink:href="#r" transform="matrix(1,0,0,1,692.4000000000001,1116.7999999999538) translate(65.50500000000001 24.4)"/><path d="M1016.84 1156.63c-27.42 0-49.64 22.22-49.64 49.64v148.92c0 27.4 22.22 49.63 49.64 49.63h340.72c27.42 0 49.64-22.23 49.64-49.64v-148.93c0-27.42-22.22-49.64-49.64-49.64z" stroke="#000" stroke-width="2" fill="#c1e4f7"/><path d="M967.2 1200.63h440" stroke="#000" stroke-width="2" fill="none"/><use xlink:href="#s" transform="matrix(1,0,0,1,1055.2000000000003,1156.6263183593765) translate(59.575 25.6)"/><use xlink:href="#t" transform="matrix(1,0,0,1,1011.2000000000003,1216.6263183593765) translate(105.07499999999999 14.500000000000009)"/><use xlink:href="#f" transform="matrix(1,0,0,1,1011.2000000000003,1216.6263183593765) translate(201.975 14.500000000000009)"/><use xlink:href="#u" transform="matrix(1,0,0,1,1011.2000000000003,1216.6263183593765) translate(95.05 36.10000000000001)"/><use xlink:href="#v" transform="matrix(1,0,0,1,1011.2000000000003,1216.6263183593765) translate(168 36.10000000000001)"/><use xlink:href="#w" transform="matrix(1,0,0,1,1011.2000000000003,1216.6263183593765) translate(103.65 57.70000000000001)"/><use xlink:href="#x" transform="matrix(1,0,0,1,1011.2000000000003,1216.6263183593765) translate(159.55 57.70000000000001)"/><use xlink:href="#y" transform="matrix(1,0,0,1,1011.2000000000003,1216.6263183593765) translate(221.45 57.70000000000001)"/><use xlink:href="#z" transform="matrix(1,0,0,1,1011.2000000000003,1216.6263183593765) translate(99.1 79.30000000000003)"/><use xlink:href="#A" transform="matrix(1,0,0,1,1011.2000000000003,1216.6263183593765) translate(246.9 79.30000000000003)"/><use xlink:href="#B" transform="matrix(1,0,0,1,1011.2000000000003,1216.6263183593765) translate(68.69999999999999 100.90000000000002)"/><use xlink:href="#C" transform="matrix(1,0,0,1,1011.2000000000003,1216.6263183593765) translate(91.6 100.90000000000002)"/><use xlink:href="#D" transform="matrix(1,0,0,1,1011.2000000000003,1216.6263183593765) translate(101.6 100.90000000000002)"/><use xlink:href="#y" transform="matrix(1,0,0,1,1011.2000000000003,1216.6263183593765) translate(256.4 100.90000000000002)"/><use xlink:href="#E" transform="matrix(1,0,0,1,1011.2000000000003,1216.6263183593765) translate(47.67500000000001 122.50000000000001)"/><use xlink:href="#C" transform="matrix(1,0,0,1,1011.2000000000003,1216.6263183593765) translate(106.62500000000001 122.50000000000001)"/><use xlink:href="#D" transform="matrix(1,0,0,1,1011.2000000000003,1216.6263183593765) translate(116.62500000000001 122.50000000000001)"/><use xlink:href="#F" transform="matrix(1,0,0,1,1011.2000000000003,1216.6263183593765) translate(271.425 122.50000000000001)"/><use xlink:href="#G" transform="matrix(1,0,0,1,1011.2000000000003,1216.6263183593765) translate(298.32500000000005 122.50000000000001)"/><use xlink:href="#H" transform="matrix(1,0,0,1,1011.2000000000003,1216.6263183593765) translate(4.600000000000023 144.1)"/><use xlink:href="#I" transform="matrix(1,0,0,1,1011.2000000000003,1216.6263183593765) translate(115.55000000000003 144.1)"/><use xlink:href="#J" transform="matrix(1,0,0,1,1011.2000000000003,1216.6263183593765) translate(73.12499999999999 165.70000000000002)"/><use xlink:href="#K" transform="matrix(1,0,0,1,1011.2000000000003,1216.6263183593765) translate(183.02499999999998 165.70000000000002)"/><use xlink:href="#L" transform="matrix(1,0,0,1,1011.2000000000003,1216.6263183593765) translate(256.975 165.70000000000002)"/><path d="M1320.5 1460c-11.32 0-20.5 9.18-20.5 20.5v61.5c0 11.32 9.18 20.5 20.5 20.5h251.75c11.32 0 20.5-9.18 20.5-20.5v-61.5c0-11.32-9.18-20.5-20.5-20.5z" stroke="#000" stroke-width="2" fill="#ff8f80"/><path d="M1300 1504h292.75" stroke="#000" stroke-width="2" fill="none"/><use xlink:href="#M" transform="matrix(1,0,0,1,1358.55,1460) translate(26.525 25.6)"/><use xlink:href="#N" transform="matrix(1,0,0,1,1329.275,1520) translate(13.074999999999989 17.1)"/><use xlink:href="#O" transform="matrix(1,0,0,1,1329.275,1520) translate(76.02499999999999 17.1)"/><path d="M720 1444.32l100 70-100 70-100-70z" stroke="#000" stroke-width="2" fill="#c7e8ac"/><use xlink:href="#P" transform="matrix(1,0,0,1,625,1449.3236816406409) translate(42.58 59.0875)"/><use xlink:href="#Q" transform="matrix(1,0,0,1,625,1449.3236816406409) translate(134.48000000000002 59.0875)"/><use xlink:href="#R" transform="matrix(1,0,0,1,625,1449.3236816406409) translate(27.029999999999998 80.6875)"/><use xlink:href="#S" transform="matrix(1,0,0,1,625,1449.3236816406409) translate(100.03 80.6875)"/><path d="M833.36 1652.23c-18.42 0-33.36 14.93-33.36 33.36v100.07c0 18.42 14.94 33.36 33.36 33.36h173.28c18.42 0 33.36-14.94 33.36-33.36V1685.6c0-18.44-14.94-33.37-33.36-33.37z" stroke="#000" stroke-width="2" fill="#c1e4f7"/><path d="M800 1696.23h240" stroke="#000" stroke-width="2" fill="none"/><use xlink:href="#T" transform="matrix(1,0,0,1,848,1652.2263183593532) translate(-20.900000000000006 25.6)"/><use xlink:href="#t" transform="matrix(1,0,0,1,824,1712.2263183593532) translate(25.07499999999999 16.69999999999999)"/><use xlink:href="#f" transform="matrix(1,0,0,1,824,1712.2263183593532) translate(121.975 16.69999999999999)"/><use xlink:href="#u" transform="matrix(1,0,0,1,824,1712.2263183593532) translate(15.049999999999997 38.29999999999999)"/><use xlink:href="#v" transform="matrix(1,0,0,1,824,1712.2263183593532) translate(88 38.29999999999999)"/><use xlink:href="#w" transform="matrix(1,0,0,1,824,1712.2263183593532) translate(23.650000000000006 59.89999999999999)"/><use xlink:href="#x" transform="matrix(1,0,0,1,824,1712.2263183593532) translate(79.55000000000001 59.89999999999999)"/><use xlink:href="#y" transform="matrix(1,0,0,1,824,1712.2263183593532) translate(141.45 59.89999999999999)"/><use xlink:href="#U" transform="matrix(1,0,0,1,824,1712.2263183593532) translate(2.125 81.5)"/><use xlink:href="#h" transform="matrix(1,0,0,1,824,1712.2263183593532) translate(149.925 81.5)"/><path d="M1187.2 1842.63v12.04" stroke="#000" stroke-width="2" fill="none"/><path d="M1188.2 1842.65h-2v-1.02h2z"/><path d="M1187.2 1869.94l-4.64-14.27h9.28z" stroke="#000" stroke-width="2"/><path d="M1187.2 1779.08v12.04" stroke="#000" stroke-width="2" fill="none"/><path d="M1188.2 1779.1h-2v-1.02h2z"/><path d="M1187.2 1806.4l-4.64-14.28h9.28z" stroke="#000" stroke-width="2"/><path d="M1640.5 1460c-11.32 0-20.5 9.18-20.5 20.5v61.5c0 11.32 9.18 20.5 20.5 20.5h191.75c11.32 0 20.5-9.18 20.5-20.5v-61.5c0-11.32-9.18-20.5-20.5-20.5z" stroke="#000" stroke-width="2" fill="#ff8f80"/><path d="M1620 1504h232.75" stroke="#000" stroke-width="2" fill="none"/><g><use xlink:href="#V" transform="matrix(1,0,0,1,1666.55,1460) translate(26.5 25.6)"/></g><g><use xlink:href="#W" transform="matrix(1,0,0,1,1643.275,1520) translate(20.549999999999997 17.1)"/><use xlink:href="#X" transform="matrix(1,0,0,1,1643.275,1520) translate(87.5 17.1)"/></g><path d="M1187.2 1406.83v267.84" stroke="#000" stroke-width="2" fill="none"/><path d="M1188.2 1406.85h-2v-1.02h2z"/><path d="M1187.2 1689.94l-4.64-14.27h9.28z" stroke="#000" stroke-width="2"/><path d="M1042 1735.63h45.7" stroke="#000" stroke-width="2" fill="none"/><path d="M1042.03 1736.63H1041v-2h1.03z"/><path d="M1102.96 1735.63l-14.26 4.63V1731z" stroke="#000" stroke-width="2"/><path d="M1142 1692.17v-177.85h-42.5" stroke="#000" stroke-width="2" fill="none"/><path d="M1143 1693.17h-2v-1.02h2z"/><path d="M1084.24 1514.32l14.26-4.63v9.26z" stroke="#000" stroke-width="2"/><path d="M750.44 1281.73H721v160.37h-2v-162.37h31.44zm197.26 0H773.4v-2h174.3z"/><path d="M721 1443.8l-1-.7-1 .7v-1.72h2zM962.96 1280.73l-14.26 4.63v-9.27z"/><path d="M966.2 1280.73l-18.5 6v-12.02zm-16.5 3.26l10.03-3.27-10.03-3.26z"/><g><use xlink:href="#Y" transform="matrix(1,0,0,1,750.4366461401487,1269.9263183593648) translate(0 14.4)"/></g><path d="M878 1514.32h-37.75" stroke="#000" stroke-width="2" fill="none"/><path d="M879 1515.32h-1.03v-2H879z"/><path d="M824.98 1514.32l14.27-4.63v9.26z" stroke="#000" stroke-width="2"/><path d="M1446.38 1458v-142.67h-19.68" stroke="#000" stroke-width="2" fill="none"/><path d="M1447.38 1459h-2v-1.03h2z"/><path d="M1411.44 1315.33l14.26-4.63v9.27z" stroke="#000" stroke-width="2"/><path d="M1736.38 1458v-217.33H1426.7" stroke="#000" stroke-width="2" fill="none"/><path d="M1737.38 1459h-2v-1.03h2z"/><path d="M1411.44 1240.67l14.26-4.64v9.27z" stroke="#000" stroke-width="2"/><path d="M1269.2 1718.8h177.17V1582" stroke="#000" stroke-width="2" fill="none"/><path d="M1269.23 1719.8h-1.03v-2h1.03z"/><path d="M1446.38 1566.74L1451 1581h-9.26z" stroke="#000" stroke-width="2"/><path d="M1269.2 1752.4h467.17V1582" stroke="#000" stroke-width="2" fill="none"/><path d="M1269.23 1753.4h-1.03v-2h1.03z"/><path d="M1736.38 1566.74L1741 1581h-9.26z" stroke="#000" stroke-width="2"/><path d="M1187.2 1103.45v33.67" stroke="#000" stroke-width="2" fill="none"/><path d="M1188.2 1103.48h-2v-1.03h2z"/><path d="M1187.2 1152.4l-4.64-14.28h9.28z" stroke="#000" stroke-width="2"/><path d="M1187.2 942v39.95" stroke="#000" stroke-width="2" fill="none"/><path d="M1187.16 941l1.04-.03v1.06h-2v-1.15z"/><path d="M1187.2 997.22l-4.64-14.27h9.28z" stroke="#000" stroke-width="2"/><path d="M721 1734.63h59.5v2H719v-25.74h2zm0-45.34h-2v-102.76h2z"/><path d="M721 1586.57h-2v-1.73l1 .7 1-.7zM795.76 1735.63l-14.26 4.63V1731z"/><path d="M799 1735.63l-18.5 6v-12.02zm-16.5 3.26l10.03-3.27-10.03-3.26z"/><g><use xlink:href="#Z" transform="matrix(1,0,0,1,705.325,1689.2853277807837) translate(0 14.4)"/></g><defs><path d="M135-143c-3-34-86-38-87 0 15 53 115 12 119 90S17 21 10-45l28-5c4 36 97 45 98 0-10-56-113-15-118-90-4-57 82-63 122-42 12 7 21 19 24 35" id="aa"/><path d="M59-47c-2 24 18 29 38 22v24C64 9 27 4 27-40v-127H5v-23h24l9-43h21v43h35v23H59v120" id="ab"/><path d="M141-36C126-15 110 5 73 4 37 3 15-17 15-53c-1-64 63-63 125-63 3-35-9-54-41-54-24 1-41 7-42 31l-33-3c5-37 33-52 76-52 45 0 72 20 72 64v82c-1 20 7 32 28 27v20c-31 9-61-2-59-35zM48-53c0 20 12 33 32 33 41-3 63-29 60-74-43 2-92-5-92 41" id="ac"/><path d="M114-163C36-179 61-72 57 0H25l-1-190h30c1 12-1 29 2 39 6-27 23-49 58-41v29" id="ad"/><path d="M-5 72V49h209v23H-5" id="ae"/><path d="M96-169c-40 0-48 33-48 73s9 75 48 75c24 0 41-14 43-38l32 2c-6 37-31 61-74 61-59 0-76-41-82-99-10-93 101-131 147-64 4 7 5 14 7 22l-32 3c-4-21-16-35-41-35" id="af"/><path d="M143 0L79-87 56-68V0H24v-261h32v163l83-92h37l-77 82L181 0h-38" id="ag"/><path d="M24-231v-30h32v30H24zM24 0v-190h32V0H24" id="ah"/><path d="M210-169c-67 3-38 105-44 169h-31v-121c0-29-5-50-35-48C34-165 62-65 56 0H25l-1-190h30c1 10-1 24 2 32 10-44 99-50 107 0 11-21 27-35 58-36 85-2 47 119 55 194h-31v-121c0-29-5-49-35-48" id="ai"/><path d="M84 4C-5 8 30-112 23-190h32v120c0 31 7 50 39 49 72-2 45-101 50-169h31l1 190h-30c-1-10 1-25-2-33-11 22-28 36-60 37" id="aj"/><path d="M24 0v-261h32V0H24" id="ak"/><path d="M100-194c62-1 85 37 85 99 1 63-27 99-86 99S16-35 15-95c0-66 28-99 85-99zM99-20c44 1 53-31 53-75 0-43-8-75-51-75s-53 32-53 75 10 74 51 75" id="al"/><g id="a"><use transform="matrix(0.05,0,0,0.05,0,0)" xlink:href="#aa"/><use transform="matrix(0.05,0,0,0.05,9,0)" xlink:href="#ab"/><use transform="matrix(0.05,0,0,0.05,14,0)" xlink:href="#ac"/><use transform="matrix(0.05,0,0,0.05,24,0)" xlink:href="#ad"/><use transform="matrix(0.05,0,0,0.05,29.950000000000003,0)" xlink:href="#ab"/><use transform="matrix(0.05,0,0,0.05,34.95,0)" xlink:href="#ae"/><use transform="matrix(0.05,0,0,0.05,44.95,0)" xlink:href="#ac"/><use transform="matrix(0.05,0,0,0.05,54.95,0)" xlink:href="#ab"/><use transform="matrix(0.05,0,0,0.05,59.95,0)" xlink:href="#ab"/><use transform="matrix(0.05,0,0,0.05,64.95,0)" xlink:href="#ac"/><use transform="matrix(0.05,0,0,0.05,74.95,0)" xlink:href="#af"/><use transform="matrix(0.05,0,0,0.05,83.95,0)" xlink:href="#ag"/><use transform="matrix(0.05,0,0,0.05,92.95,0)" xlink:href="#ae"/><use transform="matrix(0.05,0,0,0.05,102.95,0)" xlink:href="#aa"/><use transform="matrix(0.05,0,0,0.05,111.95,0)" xlink:href="#ah"/><use transform="matrix(0.05,0,0,0.05,115.9,0)" xlink:href="#ai"/><use transform="matrix(0.05,0,0,0.05,130.85,0)" xlink:href="#aj"/><use transform="matrix(0.05,0,0,0.05,140.85,0)" xlink:href="#ak"/><use transform="matrix(0.05,0,0,0.05,144.79999999999998,0)" xlink:href="#ac"/><use transform="matrix(0.05,0,0,0.05,154.79999999999998,0)" xlink:href="#ab"/><use transform="matrix(0.05,0,0,0.05,159.79999999999998,0)" xlink:href="#al"/><use transform="matrix(0.05,0,0,0.05,169.79999999999998,0)" xlink:href="#ad"/></g><path d="M145-31C134-9 116 4 85 4 32 4 16-35 15-94c0-59 17-99 70-100 32-1 48 14 60 33 0-11-1-24 2-32h30l-1 268h-32zM93-21c41 0 51-33 51-76s-8-73-50-73c-40 0-46 35-46 75s5 74 45 74" id="am"/><path d="M100-194c63 0 86 42 84 106H49c0 40 14 67 53 68 26 1 43-12 49-29l28 8c-11 28-37 45-77 45C44 4 14-33 15-96c1-61 26-98 85-98zm52 81c6-60-76-77-97-28-3 7-6 17-6 28h103" id="an"/><path d="M179-190L93 31C79 59 56 82 12 73V49c39 6 53-20 64-50L1-190h34L92-34l54-156h33" id="ao"/><path d="M101-234c-31-9-42 10-38 44h38v23H63V0H32v-167H5v-23h27c-7-52 17-82 69-68v24" id="ap"/><path d="M33-154v-36h34v36H33zM33 0v-36h34V0H33" id="aq"/><g id="b"><use transform="matrix(0.05,0,0,0.05,0,0)" xlink:href="#am"/><use transform="matrix(0.05,0,0,0.05,10,0)" xlink:href="#aj"/><use transform="matrix(0.05,0,0,0.05,20,0)" xlink:href="#an"/><use transform="matrix(0.05,0,0,0.05,30,0)" xlink:href="#ad"/><use transform="matrix(0.05,0,0,0.05,35.95,0)" xlink:href="#ao"/><use transform="matrix(0.05,0,0,0.05,44.95,0)" xlink:href="#ae"/><use transform="matrix(0.05,0,0,0.05,54.95,0)" xlink:href="#ap"/><use transform="matrix(0.05,0,0,0.05,59.95,0)" xlink:href="#ah"/><use transform="matrix(0.05,0,0,0.05,63.900000000000006,0)" xlink:href="#ak"/><use transform="matrix(0.05,0,0,0.05,67.85000000000001,0)" xlink:href="#an"/><use transform="matrix(0.05,0,0,0.05,77.85000000000001,0)" xlink:href="#aq"/></g><path d="M18-100v-36l175-74v27L42-118l151 64v27" id="ar"/><path d="M117-194c89-4 53 116 60 194h-32v-121c0-31-8-49-39-48C34-167 62-67 57 0H25l-1-190h30c1 10-1 24 2 32 11-22 29-35 61-36" id="as"/><path d="M177-190C167-65 218 103 67 71c-23-6-38-20-44-43l32-5c15 47 100 32 89-28v-30C133-14 115 1 83 1 29 1 15-40 15-95c0-56 16-97 71-98 29-1 48 16 59 35 1-10 0-23 2-32h30zM94-22c36 0 50-32 50-73 0-42-14-75-50-75-39 0-46 34-46 75s6 73 46 73" id="at"/><path d="M18-27v-27l151-64-151-65v-27l175 74v36" id="au"/><g id="c"><use transform="matrix(0.05,0,0,0.05,0,0)" xlink:href="#ar"/><use transform="matrix(0.05,0,0,0.05,10.5,0)" xlink:href="#aa"/><use transform="matrix(0.05,0,0,0.05,19.5,0)" xlink:href="#ab"/><use transform="matrix(0.05,0,0,0.05,24.5,0)" xlink:href="#ad"/><use transform="matrix(0.05,0,0,0.05,30.450000000000003,0)" xlink:href="#ah"/><use transform="matrix(0.05,0,0,0.05,34.4,0)" xlink:href="#as"/><use transform="matrix(0.05,0,0,0.05,44.4,0)" xlink:href="#at"/><use transform="matrix(0.05,0,0,0.05,54.400000000000006,0)" xlink:href="#au"/></g><path d="M115-194c55 1 70 41 70 98S169 2 115 4C84 4 66-9 55-30l1 105H24l-1-265h31l2 30c10-21 28-34 59-34zm-8 174c40 0 45-34 45-75s-6-73-45-74c-42 0-51 32-51 76 0 43 10 73 51 73" id="av"/><g id="d"><use transform="matrix(0.05,0,0,0.05,0,0)" xlink:href="#at"/><use transform="matrix(0.05,0,0,0.05,10,0)" xlink:href="#al"/><use transform="matrix(0.05,0,0,0.05,20,0)" xlink:href="#ab"/><use transform="matrix(0.05,0,0,0.05,25,0)" xlink:href="#al"/><use transform="matrix(0.05,0,0,0.05,35,0)" xlink:href="#ae"/><use transform="matrix(0.05,0,0,0.05,45,0)" xlink:href="#aa"/><use transform="matrix(0.05,0,0,0.05,54,0)" xlink:href="#ab"/><use transform="matrix(0.05,0,0,0.05,59,0)" xlink:href="#an"/><use transform="matrix(0.05,0,0,0.05,69,0)" xlink:href="#av"/></g><path d="M85-194c31 0 48 13 60 33l-1-100h32l1 261h-30c-2-10 0-23-3-31C134-8 116 4 85 4 32 4 16-35 15-94c0-66 23-100 70-100zm9 24c-40 0-46 34-46 75 0 40 6 74 45 74 42 0 51-32 51-76 0-42-9-74-50-73" id="aw"/><g id="e"><use transform="matrix(0.05,0,0,0.05,0,0)" xlink:href="#ah"/><use transform="matrix(0.05,0,0,0.05,3.95,0)" xlink:href="#aw"/><use transform="matrix(0.05,0,0,0.05,13.949999999999998,0)" xlink:href="#aq"/></g><path d="M68-38c1 34 0 65-14 84H32c9-13 17-26 17-46H33v-38h35" id="ax"/><g id="f"><use transform="matrix(0.05,0,0,0.05,0,0)" xlink:href="#ar"/><use transform="matrix(0.05,0,0,0.05,10.5,0)" xlink:href="#ah"/><use transform="matrix(0.05,0,0,0.05,14.449999999999998,0)" xlink:href="#as"/><use transform="matrix(0.05,0,0,0.05,24.45,0)" xlink:href="#ab"/><use transform="matrix(0.05,0,0,0.05,29.450000000000003,0)" xlink:href="#au"/><use transform="matrix(0.05,0,0,0.05,39.95,0)" xlink:href="#ax"/></g><g id="g"><use transform="matrix(0.05,0,0,0.05,0,0)" xlink:href="#av"/><use transform="matrix(0.05,0,0,0.05,10,0)" xlink:href="#ad"/><use transform="matrix(0.05,0,0,0.05,15.949999999999998,0)" xlink:href="#al"/><use transform="matrix(0.05,0,0,0.05,25.950000000000003,0)" xlink:href="#af"/><use transform="matrix(0.05,0,0,0.05,34.95,0)" xlink:href="#an"/><use transform="matrix(0.05,0,0,0.05,44.95,0)" xlink:href="#aa"/><use transform="matrix(0.05,0,0,0.05,53.95,0)" xlink:href="#aa"/><use transform="matrix(0.05,0,0,0.05,62.95,0)" xlink:href="#ae"/><use transform="matrix(0.05,0,0,0.05,72.95,0)" xlink:href="#ah"/><use transform="matrix(0.05,0,0,0.05,76.9,0)" xlink:href="#aw"/><use transform="matrix(0.05,0,0,0.05,86.9,0)" xlink:href="#aq"/></g><g id="h"><use transform="matrix(0.05,0,0,0.05,0,0)" xlink:href="#ar"/><use transform="matrix(0.05,0,0,0.05,10.5,0)" xlink:href="#ah"/><use transform="matrix(0.05,0,0,0.05,14.449999999999998,0)" xlink:href="#as"/><use transform="matrix(0.05,0,0,0.05,24.45,0)" xlink:href="#ab"/><use transform="matrix(0.05,0,0,0.05,29.450000000000003,0)" xlink:href="#au"/></g><path d="M266 0h-40l-56-210L115 0H75L2-248h35L96-30l15-64 43-154h32l59 218 59-218h35" id="ay"/><g id="i"><use transform="matrix(0.05,0,0,0.05,0,0)" xlink:href="#ay"/><use transform="matrix(0.05,0,0,0.05,16.3,0)" xlink:href="#ac"/><use transform="matrix(0.05,0,0,0.05,26.3,0)" xlink:href="#ah"/><use transform="matrix(0.05,0,0,0.05,30.25,0)" xlink:href="#ab"/><use transform="matrix(0.05,0,0,0.05,35.25,0)" xlink:href="#ah"/><use transform="matrix(0.05,0,0,0.05,39.2,0)" xlink:href="#as"/><use transform="matrix(0.05,0,0,0.05,49.2,0)" xlink:href="#at"/></g><g id="j"><use transform="matrix(0.05,0,0,0.05,0,0)" xlink:href="#af"/><use transform="matrix(0.05,0,0,0.05,9,0)" xlink:href="#al"/><use transform="matrix(0.05,0,0,0.05,19,0)" xlink:href="#ai"/><use transform="matrix(0.05,0,0,0.05,33.95,0)" xlink:href="#ai"/><use transform="matrix(0.05,0,0,0.05,48.900000000000006,0)" xlink:href="#ac"/><use transform="matrix(0.05,0,0,0.05,58.900000000000006,0)" xlink:href="#as"/><use transform="matrix(0.05,0,0,0.05,68.9,0)" xlink:href="#aw"/></g><g id="k"><use transform="matrix(0.05,0,0,0.05,0,0)" xlink:href="#aw"/><use transform="matrix(0.05,0,0,0.05,10,0)" xlink:href="#ah"/><use transform="matrix(0.05,0,0,0.05,13.949999999999998,0)" xlink:href="#an"/></g><path d="M232-93c-1 65-40 97-104 97C67 4 28-28 28-90v-158h33c8 89-33 224 67 224 102 0 64-133 71-224h33v155" id="az"/><path d="M33 0v-248h34V0H33" id="aA"/><g id="l"><use transform="matrix(0.05,0,0,0.05,0,0)" xlink:href="#az"/><use transform="matrix(0.05,0,0,0.05,12.950000000000001,0)" xlink:href="#aA"/></g><path d="M16-82v-28h88v28H16" id="aB"/><g id="m"><use transform="matrix(0.05,0,0,0.05,0,0)" xlink:href="#aB"/><use transform="matrix(0.05,0,0,0.05,5.95,0)" xlink:href="#au"/></g><path d="M205 0l-28-72H64L36 0H1l101-248h38L239 0h-34zm-38-99l-47-123c-12 45-31 82-46 123h93" id="aC"/><path d="M30-248c87 1 191-15 191 75 0 78-77 80-158 76V0H30v-248zm33 125c57 0 124 11 124-50 0-59-68-47-124-48v98" id="aD"/><g id="n"><use transform="matrix(0.05,0,0,0.05,0,0)" xlink:href="#aC"/><use transform="matrix(0.05,0,0,0.05,12,0)" xlink:href="#aD"/><use transform="matrix(0.05,0,0,0.05,24,0)" xlink:href="#aA"/></g><g id="o"><use transform="matrix(0.05,0,0,0.05,0,0)" xlink:href="#aC"/><use transform="matrix(0.05,0,0,0.05,12,0)" xlink:href="#aD"/><use transform="matrix(0.05,0,0,0.05,24,0)" xlink:href="#aA"/></g><g id="p"><use transform="matrix(0.05,0,0,0.05,0,0)" xlink:href="#az"/><use transform="matrix(0.05,0,0,0.05,12.950000000000001,0)" xlink:href="#aA"/></g><path d="M30 0v-248h33v221h125V0H30" id="aE"/><g id="q"><use transform="matrix(0.05,0,0,0.05,0,0)" xlink:href="#aE"/><use transform="matrix(0.05,0,0,0.05,10,0)" xlink:href="#an"/><use transform="matrix(0.05,0,0,0.05,20,0)" xlink:href="#at"/><use transform="matrix(0.05,0,0,0.05,30,0)" xlink:href="#an"/><use transform="matrix(0.05,0,0,0.05,40,0)" xlink:href="#as"/><use transform="matrix(0.05,0,0,0.05,50,0)" xlink:href="#aw"/></g><g id="r"><use transform="matrix(0.05,0,0,0.05,0,0)" xlink:href="#aC"/><use transform="matrix(0.05,0,0,0.05,12,0)" xlink:href="#aD"/><use transform="matrix(0.05,0,0,0.05,24,0)" xlink:href="#aA"/></g><g id="s"><use transform="matrix(0.05,0,0,0.05,0,0)" xlink:href="#af"/><use transform="matrix(0.05,0,0,0.05,9,0)" xlink:href="#aj"/><use transform="matrix(0.05,0,0,0.05,19,0)" xlink:href="#ad"/><use transform="matrix(0.05,0,0,0.05,24.95,0)" xlink:href="#ad"/><use transform="matrix(0.05,0,0,0.05,30.899999999999995,0)" xlink:href="#an"/><use transform="matrix(0.05,0,0,0.05,40.9,0)" xlink:href="#as"/><use transform="matrix(0.05,0,0,0.05,50.9,0)" xlink:href="#ab"/><use transform="matrix(0.05,0,0,0.05,55.900000000000006,0)" xlink:href="#ae"/><use transform="matrix(0.05,0,0,0.05,65.9,0)" xlink:href="#aa"/><use transform="matrix(0.05,0,0,0.05,74.9,0)" xlink:href="#ab"/><use transform="matrix(0.05,0,0,0.05,79.9,0)" xlink:href="#an"/><use transform="matrix(0.05,0,0,0.05,89.9,0)" xlink:href="#av"/><use transform="matrix(0.05,0,0,0.05,99.9,0)" xlink:href="#ae"/><use transform="matrix(0.05,0,0,0.05,109.9,0)" xlink:href="#aj"/><use transform="matrix(0.05,0,0,0.05,119.9,0)" xlink:href="#aa"/><use transform="matrix(0.05,0,0,0.05,128.9,0)" xlink:href="#an"/><use transform="matrix(0.05,0,0,0.05,138.9,0)" xlink:href="#ad"/></g><g id="t"><use transform="matrix(0.05,0,0,0.05,0,0)" xlink:href="#av"/><use transform="matrix(0.05,0,0,0.05,10,0)" xlink:href="#ad"/><use transform="matrix(0.05,0,0,0.05,15.949999999999998,0)" xlink:href="#al"/><use transform="matrix(0.05,0,0,0.05,25.950000000000003,0)" xlink:href="#af"/><use transform="matrix(0.05,0,0,0.05,34.95,0)" xlink:href="#an"/><use transform="matrix(0.05,0,0,0.05,44.95,0)" xlink:href="#aa"/><use transform="matrix(0.05,0,0,0.05,53.95,0)" xlink:href="#aa"/><use transform="matrix(0.05,0,0,0.05,62.95,0)" xlink:href="#ae"/><use transform="matrix(0.05,0,0,0.05,72.95,0)" xlink:href="#ah"/><use transform="matrix(0.05,0,0,0.05,76.9,0)" xlink:href="#aw"/><use transform="matrix(0.05,0,0,0.05,86.9,0)" xlink:href="#aq"/></g><g id="u"><use transform="matrix(0.05,0,0,0.05,0,0)" xlink:href="#av"/><use transform="matrix(0.05,0,0,0.05,10,0)" xlink:href="#ad"/><use transform="matrix(0.05,0,0,0.05,15.949999999999998,0)" xlink:href="#al"/><use transform="matrix(0.05,0,0,0.05,25.950000000000003,0)" xlink:href="#af"/><use transform="matrix(0.05,0,0,0.05,34.95,0)" xlink:href="#an"/><use transform="matrix(0.05,0,0,0.05,44.95,0)" xlink:href="#aa"/><use transform="matrix(0.05,0,0,0.05,53.95,0)" xlink:href="#aa"/><use transform="matrix(0.05,0,0,0.05,62.95,0)" xlink:href="#aq"/></g><g id="v"><use transform="matrix(0.05,0,0,0.05,0,0)" xlink:href="#ar"/><use transform="matrix(0.05,0,0,0.05,10.5,0)" xlink:href="#av"/><use transform="matrix(0.05,0,0,0.05,20.5,0)" xlink:href="#ad"/><use transform="matrix(0.05,0,0,0.05,26.450000000000003,0)" xlink:href="#al"/><use transform="matrix(0.05,0,0,0.05,36.45,0)" xlink:href="#af"/><use transform="matrix(0.05,0,0,0.05,45.45,0)" xlink:href="#an"/><use transform="matrix(0.05,0,0,0.05,55.45,0)" xlink:href="#aa"/><use transform="matrix(0.05,0,0,0.05,64.45,0)" xlink:href="#aa"/><use transform="matrix(0.05,0,0,0.05,73.45,0)" xlink:href="#au"/><use transform="matrix(0.05,0,0,0.05,83.95,0)" xlink:href="#ax"/></g><g id="w"><use transform="matrix(0.05,0,0,0.05,0,0)" xlink:href="#ap"/><use transform="matrix(0.05,0,0,0.05,5,0)" xlink:href="#ad"/><use transform="matrix(0.05,0,0,0.05,10.95,0)" xlink:href="#ac"/><use transform="matrix(0.05,0,0,0.05,20.95,0)" xlink:href="#ai"/><use transform="matrix(0.05,0,0,0.05,35.9,0)" xlink:href="#an"/><use transform="matrix(0.05,0,0,0.05,45.9,0)" xlink:href="#aq"/></g><g id="x"><use transform="matrix(0.05,0,0,0.05,0,0)" xlink:href="#ar"/><use transform="matrix(0.05,0,0,0.05,10.5,0)" xlink:href="#ab"/><use transform="matrix(0.05,0,0,0.05,15.5,0)" xlink:href="#an"/><use transform="matrix(0.05,0,0,0.05,25.5,0)" xlink:href="#ad"/><use transform="matrix(0.05,0,0,0.05,31.450000000000003,0)" xlink:href="#ai"/><use transform="matrix(0.05,0,0,0.05,46.4,0)" xlink:href="#au"/></g><g id="y"><use transform="matrix(0.05,0,0,0.05,0,0)" xlink:href="#ak"/><use transform="matrix(0.05,0,0,0.05,3.95,0)" xlink:href="#ah"/><use transform="matrix(0.05,0,0,0.05,7.9,0)" xlink:href="#aa"/><use transform="matrix(0.05,0,0,0.05,16.9,0)" xlink:href="#ab"/><use transform="matrix(0.05,0,0,0.05,21.9,0)" xlink:href="#ax"/></g><path d="M108 0H70L1-190h34L89-25l56-165h34" id="aF"/><path d="M115-194c53 0 69 39 70 98 0 66-23 100-70 100C84 3 66-7 56-30L54 0H23l1-261h32v101c10-23 28-34 59-34zm-8 174c40 0 45-34 45-75 0-40-5-75-45-74-42 0-51 32-51 76 0 43 10 73 51 73" id="aG"/><g id="z"><use transform="matrix(0.05,0,0,0.05,0,0)" xlink:href="#ac"/><use transform="matrix(0.05,0,0,0.05,10,0)" xlink:href="#aF"/><use transform="matrix(0.05,0,0,0.05,19,0)" xlink:href="#ac"/><use transform="matrix(0.05,0,0,0.05,29,0)" xlink:href="#ah"/><use transform="matrix(0.05,0,0,0.05,32.95,0)" xlink:href="#ak"/><use transform="matrix(0.05,0,0,0.05,36.900000000000006,0)" xlink:href="#ac"/><use transform="matrix(0.05,0,0,0.05,46.900000000000006,0)" xlink:href="#aG"/><use transform="matrix(0.05,0,0,0.05,56.900000000000006,0)" xlink:href="#ak"/><use transform="matrix(0.05,0,0,0.05,60.85,0)" xlink:href="#an"/><use transform="matrix(0.05,0,0,0.05,70.85000000000001,0)" xlink:href="#ae"/><use transform="matrix(0.05,0,0,0.05,80.85000000000001,0)" xlink:href="#ac"/><use transform="matrix(0.05,0,0,0.05,90.85000000000001,0)" xlink:href="#af"/><use transform="matrix(0.05,0,0,0.05,99.85000000000001,0)" xlink:href="#ab"/><use transform="matrix(0.05,0,0,0.05,104.85000000000001,0)" xlink:href="#ah"/><use transform="matrix(0.05,0,0,0.05,108.80000000000001,0)" xlink:href="#al"/><use transform="matrix(0.05,0,0,0.05,118.80000000000001,0)" xlink:href="#as"/><use transform="matrix(0.05,0,0,0.05,128.8,0)" xlink:href="#aa"/><use transform="matrix(0.05,0,0,0.05,137.8,0)" xlink:href="#aq"/></g><path d="M39-94c74 12-11 154 75 146v23c-44 4-70-10-70-52C44-23 55-84 6-82v-22c81 4-7-162 84-157h24v23c-82-15-2 131-75 144" id="aH"/><use transform="matrix(0.05,0,0,0.05,0,0)" xlink:href="#aH" id="A"/><g id="B"><use transform="matrix(0.05,0,0,0.05,0,0)" xlink:href="#ac"/><use transform="matrix(0.05,0,0,0.05,10,0)" xlink:href="#ak"/><use transform="matrix(0.05,0,0,0.05,13.949999999999998,0)" xlink:href="#ak"/></g><use transform="matrix(0.05,0,0,0.05,0,0)" xlink:href="#aq" id="C"/><g id="D"><use transform="matrix(0.05,0,0,0.05,0,0)" xlink:href="#ar"/><use transform="matrix(0.05,0,0,0.05,10.5,0)" xlink:href="#ac"/><use transform="matrix(0.05,0,0,0.05,20.5,0)" xlink:href="#aF"/><use transform="matrix(0.05,0,0,0.05,29.5,0)" xlink:href="#ac"/><use transform="matrix(0.05,0,0,0.05,39.5,0)" xlink:href="#ah"/><use transform="matrix(0.05,0,0,0.05,43.45,0)" xlink:href="#ak"/><use transform="matrix(0.05,0,0,0.05,47.400000000000006,0)" xlink:href="#ac"/><use transform="matrix(0.05,0,0,0.05,57.400000000000006,0)" xlink:href="#aG"/><use transform="matrix(0.05,0,0,0.05,67.4,0)" xlink:href="#ak"/><use transform="matrix(0.05,0,0,0.05,71.35000000000001,0)" xlink:href="#an"/><use transform="matrix(0.05,0,0,0.05,81.35000000000001,0)" xlink:href="#ae"/><use transform="matrix(0.05,0,0,0.05,91.35000000000001,0)" xlink:href="#ac"/><use transform="matrix(0.05,0,0,0.05,101.35000000000001,0)" xlink:href="#af"/><use transform="matrix(0.05,0,0,0.05,110.35000000000001,0)" xlink:href="#ab"/><use transform="matrix(0.05,0,0,0.05,115.35000000000001,0)" xlink:href="#ah"/><use transform="matrix(0.05,0,0,0.05,119.30000000000001,0)" xlink:href="#al"/><use transform="matrix(0.05,0,0,0.05,129.3,0)" xlink:href="#as"/><use transform="matrix(0.05,0,0,0.05,139.3,0)" xlink:href="#au"/></g><g id="E"><use transform="matrix(0.05,0,0,0.05,0,0)" xlink:href="#aw"/><use transform="matrix(0.05,0,0,0.05,10,0)" xlink:href="#an"/><use transform="matrix(0.05,0,0,0.05,20,0)" xlink:href="#ap"/><use transform="matrix(0.05,0,0,0.05,25,0)" xlink:href="#ac"/><use transform="matrix(0.05,0,0,0.05,35,0)" xlink:href="#aj"/><use transform="matrix(0.05,0,0,0.05,45,0)" xlink:href="#ak"/><use transform="matrix(0.05,0,0,0.05,48.95,0)" xlink:href="#ab"/></g><g id="F"><use transform="matrix(0.05,0,0,0.05,0,0)" xlink:href="#ak"/><use transform="matrix(0.05,0,0,0.05,3.95,0)" xlink:href="#ah"/><use transform="matrix(0.05,0,0,0.05,7.9,0)" xlink:href="#aa"/><use transform="matrix(0.05,0,0,0.05,16.9,0)" xlink:href="#ab"/></g><path d="M76-40C78 24 84 88 6 75V52C86 64 9-79 80-94c-40-6-34-59-34-106 1-29-11-41-40-38v-23c44-4 70 10 70 52 0 47-12 108 38 105v22c-26 1-39 14-38 42" id="aI"/><use transform="matrix(0.05,0,0,0.05,0,0)" xlink:href="#aI" id="G"/><g id="H"><use transform="matrix(0.05,0,0,0.05,0,0)" xlink:href="#aa"/><use transform="matrix(0.05,0,0,0.05,9,0)" xlink:href="#ab"/><use transform="matrix(0.05,0,0,0.05,14,0)" xlink:href="#ac"/><use transform="matrix(0.05,0,0,0.05,24,0)" xlink:href="#ab"/><use transform="matrix(0.05,0,0,0.05,29,0)" xlink:href="#aj"/><use transform="matrix(0.05,0,0,0.05,39,0)" xlink:href="#aa"/><use transform="matrix(0.05,0,0,0.05,48,0)" xlink:href="#ae"/><use transform="matrix(0.05,0,0,0.05,58,0)" xlink:href="#an"/><use transform="matrix(0.05,0,0,0.05,68,0)" xlink:href="#am"/><use transform="matrix(0.05,0,0,0.05,78,0)" xlink:href="#aj"/><use transform="matrix(0.05,0,0,0.05,88,0)" xlink:href="#ah"/><use transform="matrix(0.05,0,0,0.05,91.95,0)" xlink:href="#aF"/><use transform="matrix(0.05,0,0,0.05,100.95,0)" xlink:href="#aq"/></g><g id="I"><use transform="matrix(0.05,0,0,0.05,0,0)" xlink:href="#ar"/><use transform="matrix(0.05,0,0,0.05,10.5,0)" xlink:href="#aa"/><use transform="matrix(0.05,0,0,0.05,19.5,0)" xlink:href="#ab"/><use transform="matrix(0.05,0,0,0.05,24.5,0)" xlink:href="#ac"/><use transform="matrix(0.05,0,0,0.05,34.5,0)" xlink:href="#ab"/><use transform="matrix(0.05,0,0,0.05,39.5,0)" xlink:href="#aj"/><use transform="matrix(0.05,0,0,0.05,49.5,0)" xlink:href="#aa"/><use transform="matrix(0.05,0,0,0.05,58.5,0)" xlink:href="#ae"/><use transform="matrix(0.05,0,0,0.05,68.5,0)" xlink:href="#aa"/><use transform="matrix(0.05,0,0,0.05,77.5,0)" xlink:href="#ab"/><use transform="matrix(0.05,0,0,0.05,82.5,0)" xlink:href="#ac"/><use transform="matrix(0.05,0,0,0.05,92.5,0)" xlink:href="#ab"/><use transform="matrix(0.05,0,0,0.05,97.5,0)" xlink:href="#ah"/><use transform="matrix(0.05,0,0,0.05,101.45,0)" xlink:href="#af"/><use transform="matrix(0.05,0,0,0.05,110.45,0)" xlink:href="#ae"/><use transform="matrix(0.05,0,0,0.05,120.45,0)" xlink:href="#an"/><use transform="matrix(0.05,0,0,0.05,130.45,0)" xlink:href="#am"/><use transform="matrix(0.05,0,0,0.05,140.45,0)" xlink:href="#aj"/><use transform="matrix(0.05,0,0,0.05,150.45,0)" xlink:href="#ah"/><use transform="matrix(0.05,0,0,0.05,154.39999999999998,0)" xlink:href="#aF"/><use transform="matrix(0.05,0,0,0.05,163.39999999999998,0)" xlink:href="#ac"/><use transform="matrix(0.05,0,0,0.05,173.39999999999998,0)" xlink:href="#ak"/><use transform="matrix(0.05,0,0,0.05,177.34999999999997,0)" xlink:href="#an"/><use transform="matrix(0.05,0,0,0.05,187.34999999999997,0)" xlink:href="#as"/><use transform="matrix(0.05,0,0,0.05,197.34999999999997,0)" xlink:href="#af"/><use transform="matrix(0.05,0,0,0.05,206.34999999999997,0)" xlink:href="#an"/><use transform="matrix(0.05,0,0,0.05,216.34999999999997,0)" xlink:href="#au"/><use transform="matrix(0.05,0,0,0.05,226.84999999999997,0)" xlink:href="#ax"/></g><path d="M206 0h-36l-40-164L89 0H53L-1-190h32L70-26l43-164h34l41 164 42-164h31" id="aJ"/><g id="J"><use transform="matrix(0.05,0,0,0.05,0,0)" xlink:href="#as"/><use transform="matrix(0.05,0,0,0.05,10,0)" xlink:href="#an"/><use transform="matrix(0.05,0,0,0.05,20,0)" xlink:href="#aJ"/><use transform="matrix(0.05,0,0,0.05,32.95,0)" xlink:href="#ae"/><use transform="matrix(0.05,0,0,0.05,42.95,0)" xlink:href="#ac"/><use transform="matrix(0.05,0,0,0.05,52.95,0)" xlink:href="#af"/><use transform="matrix(0.05,0,0,0.05,61.95,0)" xlink:href="#ab"/><use transform="matrix(0.05,0,0,0.05,66.95,0)" xlink:href="#ah"/><use transform="matrix(0.05,0,0,0.05,70.9,0)" xlink:href="#al"/><use transform="matrix(0.05,0,0,0.05,80.9,0)" xlink:href="#as"/><use transform="matrix(0.05,0,0,0.05,90.9,0)" xlink:href="#aa"/><use transform="matrix(0.05,0,0,0.05,99.9,0)" xlink:href="#aq"/></g><g id="K"><use transform="matrix(0.05,0,0,0.05,0,0)" xlink:href="#ar"/><use transform="matrix(0.05,0,0,0.05,10.5,0)" xlink:href="#ac"/><use transform="matrix(0.05,0,0,0.05,20.5,0)" xlink:href="#af"/><use transform="matrix(0.05,0,0,0.05,29.5,0)" xlink:href="#ab"/><use transform="matrix(0.05,0,0,0.05,34.5,0)" xlink:href="#ah"/><use transform="matrix(0.05,0,0,0.05,38.45,0)" xlink:href="#al"/><use transform="matrix(0.05,0,0,0.05,48.45,0)" xlink:href="#as"/><use transform="matrix(0.05,0,0,0.05,58.45,0)" xlink:href="#au"/></g><g id="L"><use transform="matrix(0.05,0,0,0.05,0,0)" xlink:href="#ak"/><use transform="matrix(0.05,0,0,0.05,3.95,0)" xlink:href="#ah"/><use transform="matrix(0.05,0,0,0.05,7.9,0)" xlink:href="#aa"/><use transform="matrix(0.05,0,0,0.05,16.9,0)" xlink:href="#ab"/></g><path d="M141 0L90-78 38 0H4l68-98-65-92h35l48 74 47-74h35l-64 92 68 98h-35" id="aK"/><g id="M"><use transform="matrix(0.05,0,0,0.05,0,0)" xlink:href="#as"/><use transform="matrix(0.05,0,0,0.05,10,0)" xlink:href="#an"/><use transform="matrix(0.05,0,0,0.05,20,0)" xlink:href="#aK"/><use transform="matrix(0.05,0,0,0.05,29,0)" xlink:href="#ab"/><use transform="matrix(0.05,0,0,0.05,34,0)" xlink:href="#ae"/><use transform="matrix(0.05,0,0,0.05,44,0)" xlink:href="#aa"/><use transform="matrix(0.05,0,0,0.05,53,0)" xlink:href="#ab"/><use transform="matrix(0.05,0,0,0.05,58,0)" xlink:href="#an"/><use transform="matrix(0.05,0,0,0.05,68,0)" xlink:href="#av"/><use transform="matrix(0.05,0,0,0.05,78,0)" xlink:href="#ae"/><use transform="matrix(0.05,0,0,0.05,88,0)" xlink:href="#aj"/><use transform="matrix(0.05,0,0,0.05,98,0)" xlink:href="#aa"/><use transform="matrix(0.05,0,0,0.05,107,0)" xlink:href="#an"/><use transform="matrix(0.05,0,0,0.05,117,0)" xlink:href="#ad"/></g><g id="N"><use transform="matrix(0.05,0,0,0.05,0,0)" xlink:href="#ac"/><use transform="matrix(0.05,0,0,0.05,10,0)" xlink:href="#af"/><use transform="matrix(0.05,0,0,0.05,19,0)" xlink:href="#ab"/><use transform="matrix(0.05,0,0,0.05,24,0)" xlink:href="#ah"/><use transform="matrix(0.05,0,0,0.05,27.950000000000003,0)" xlink:href="#al"/><use transform="matrix(0.05,0,0,0.05,37.95,0)" xlink:href="#as"/><use transform="matrix(0.05,0,0,0.05,47.95,0)" xlink:href="#aq"/></g><g id="O"><use transform="matrix(0.05,0,0,0.05,0,0)" xlink:href="#ar"/><use transform="matrix(0.05,0,0,0.05,10.5,0)" xlink:href="#aa"/><use transform="matrix(0.05,0,0,0.05,19.5,0)" xlink:href="#an"/><use transform="matrix(0.05,0,0,0.05,29.5,0)" xlink:href="#ak"/><use transform="matrix(0.05,0,0,0.05,33.45,0)" xlink:href="#an"/><use transform="matrix(0.05,0,0,0.05,43.45,0)" xlink:href="#af"/><use transform="matrix(0.05,0,0,0.05,52.45,0)" xlink:href="#ab"/><use transform="matrix(0.05,0,0,0.05,57.45,0)" xlink:href="#an"/><use transform="matrix(0.05,0,0,0.05,67.45,0)" xlink:href="#aw"/><use transform="matrix(0.05,0,0,0.05,77.45,0)" xlink:href="#ae"/><use transform="matrix(0.05,0,0,0.05,87.45,0)" xlink:href="#ac"/><use transform="matrix(0.05,0,0,0.05,97.45,0)" xlink:href="#af"/><use transform="matrix(0.05,0,0,0.05,106.45,0)" xlink:href="#ab"/><use transform="matrix(0.05,0,0,0.05,111.45,0)" xlink:href="#ah"/><use transform="matrix(0.05,0,0,0.05,115.4,0)" xlink:href="#al"/><use transform="matrix(0.05,0,0,0.05,125.4,0)" xlink:href="#as"/><use transform="matrix(0.05,0,0,0.05,135.4,0)" xlink:href="#au"/></g><g id="P"><use transform="matrix(0.05,0,0,0.05,0,0)" xlink:href="#av"/><use transform="matrix(0.05,0,0,0.05,10,0)" xlink:href="#ad"/><use transform="matrix(0.05,0,0,0.05,15.949999999999998,0)" xlink:href="#al"/><use transform="matrix(0.05,0,0,0.05,25.950000000000003,0)" xlink:href="#af"/><use transform="matrix(0.05,0,0,0.05,34.95,0)" xlink:href="#an"/><use transform="matrix(0.05,0,0,0.05,44.95,0)" xlink:href="#aa"/><use transform="matrix(0.05,0,0,0.05,53.95,0)" xlink:href="#aa"/><use transform="matrix(0.05,0,0,0.05,62.95,0)" xlink:href="#ae"/><use transform="matrix(0.05,0,0,0.05,72.95,0)" xlink:href="#ah"/><use transform="matrix(0.05,0,0,0.05,76.9,0)" xlink:href="#aw"/></g><g id="Q"><use transform="matrix(0.05,0,0,0.05,0,0)" xlink:href="#ah"/><use transform="matrix(0.05,0,0,0.05,3.95,0)" xlink:href="#aa"/></g><g id="R"><use transform="matrix(0.05,0,0,0.05,0,0)" xlink:href="#ac"/><use transform="matrix(0.05,0,0,0.05,10,0)" xlink:href="#ab"/><use transform="matrix(0.05,0,0,0.05,15,0)" xlink:href="#ab"/><use transform="matrix(0.05,0,0,0.05,20,0)" xlink:href="#ac"/><use transform="matrix(0.05,0,0,0.05,30,0)" xlink:href="#af"/><use transform="matrix(0.05,0,0,0.05,39,0)" xlink:href="#ag"/><use transform="matrix(0.05,0,0,0.05,48,0)" xlink:href="#an"/><use transform="matrix(0.05,0,0,0.05,58,0)" xlink:href="#aw"/></g><g id="S"><use transform="matrix(0.05,0,0,0.05,0,0)" xlink:href="#av"/><use transform="matrix(0.05,0,0,0.05,10,0)" xlink:href="#ad"/><use transform="matrix(0.05,0,0,0.05,15.949999999999998,0)" xlink:href="#al"/><use transform="matrix(0.05,0,0,0.05,25.950000000000003,0)" xlink:href="#af"/><use transform="matrix(0.05,0,0,0.05,34.95,0)" xlink:href="#an"/><use transform="matrix(0.05,0,0,0.05,44.95,0)" xlink:href="#aa"/><use transform="matrix(0.05,0,0,0.05,53.95,0)" xlink:href="#aa"/></g><g id="T"><use transform="matrix(0.05,0,0,0.05,0,0)" xlink:href="#af"/><use transform="matrix(0.05,0,0,0.05,9,0)" xlink:href="#aj"/><use transform="matrix(0.05,0,0,0.05,19,0)" xlink:href="#ad"/><use transform="matrix(0.05,0,0,0.05,24.95,0)" xlink:href="#ad"/><use transform="matrix(0.05,0,0,0.05,30.899999999999995,0)" xlink:href="#an"/><use transform="matrix(0.05,0,0,0.05,40.9,0)" xlink:href="#as"/><use transform="matrix(0.05,0,0,0.05,50.9,0)" xlink:href="#ab"/><use transform="matrix(0.05,0,0,0.05,55.900000000000006,0)" xlink:href="#ae"/><use transform="matrix(0.05,0,0,0.05,65.9,0)" xlink:href="#aa"/><use transform="matrix(0.05,0,0,0.05,74.9,0)" xlink:href="#ab"/><use transform="matrix(0.05,0,0,0.05,79.9,0)" xlink:href="#an"/><use transform="matrix(0.05,0,0,0.05,89.9,0)" xlink:href="#av"/><use transform="matrix(0.05,0,0,0.05,99.9,0)" xlink:href="#ae"/><use transform="matrix(0.05,0,0,0.05,109.9,0)" xlink:href="#aw"/><use transform="matrix(0.05,0,0,0.05,119.9,0)" xlink:href="#ah"/><use transform="matrix(0.05,0,0,0.05,123.85000000000001,0)" xlink:href="#aa"/><use transform="matrix(0.05,0,0,0.05,132.85000000000002,0)" xlink:href="#av"/><use transform="matrix(0.05,0,0,0.05,142.85000000000002,0)" xlink:href="#ak"/><use transform="matrix(0.05,0,0,0.05,146.8,0)" xlink:href="#ac"/><use transform="matrix(0.05,0,0,0.05,156.8,0)" xlink:href="#ao"/><use transform="matrix(0.05,0,0,0.05,165.8,0)" xlink:href="#an"/><use transform="matrix(0.05,0,0,0.05,175.8,0)" xlink:href="#aw"/></g><g id="U"><use transform="matrix(0.05,0,0,0.05,0,0)" xlink:href="#af"/><use transform="matrix(0.05,0,0,0.05,9,0)" xlink:href="#aj"/><use transform="matrix(0.05,0,0,0.05,19,0)" xlink:href="#ad"/><use transform="matrix(0.05,0,0,0.05,24.95,0)" xlink:href="#ad"/><use transform="matrix(0.05,0,0,0.05,30.899999999999995,0)" xlink:href="#an"/><use transform="matrix(0.05,0,0,0.05,40.9,0)" xlink:href="#as"/><use transform="matrix(0.05,0,0,0.05,50.9,0)" xlink:href="#ab"/><use transform="matrix(0.05,0,0,0.05,55.900000000000006,0)" xlink:href="#ae"/><use transform="matrix(0.05,0,0,0.05,65.9,0)" xlink:href="#ac"/><use transform="matrix(0.05,0,0,0.05,75.9,0)" xlink:href="#af"/><use transform="matrix(0.05,0,0,0.05,84.9,0)" xlink:href="#ab"/><use transform="matrix(0.05,0,0,0.05,89.9,0)" xlink:href="#ah"/><use transform="matrix(0.05,0,0,0.05,93.85000000000001,0)" xlink:href="#al"/><use transform="matrix(0.05,0,0,0.05,103.85000000000001,0)" xlink:href="#as"/><use transform="matrix(0.05,0,0,0.05,113.85000000000001,0)" xlink:href="#ae"/><use transform="matrix(0.05,0,0,0.05,123.85000000000001,0)" xlink:href="#ah"/><use transform="matrix(0.05,0,0,0.05,127.80000000000001,0)" xlink:href="#aw"/><use transform="matrix(0.05,0,0,0.05,137.8,0)" xlink:href="#aq"/></g><g id="V"><use transform="matrix(0.05,0,0,0.05,0,0)" xlink:href="#as"/><use transform="matrix(0.05,0,0,0.05,10,0)" xlink:href="#an"/><use transform="matrix(0.05,0,0,0.05,20,0)" xlink:href="#aK"/><use transform="matrix(0.05,0,0,0.05,29,0)" xlink:href="#ab"/><use transform="matrix(0.05,0,0,0.05,34,0)" xlink:href="#ae"/><use transform="matrix(0.05,0,0,0.05,44,0)" xlink:href="#aa"/><use transform="matrix(0.05,0,0,0.05,53,0)" xlink:href="#ab"/><use transform="matrix(0.05,0,0,0.05,58,0)" xlink:href="#an"/><use transform="matrix(0.05,0,0,0.05,68,0)" xlink:href="#av"/><use transform="matrix(0.05,0,0,0.05,78,0)" xlink:href="#aa"/></g><g id="W"><use transform="matrix(0.05,0,0,0.05,0,0)" xlink:href="#ac"/><use transform="matrix(0.05,0,0,0.05,10,0)" xlink:href="#af"/><use transform="matrix(0.05,0,0,0.05,19,0)" xlink:href="#ab"/><use transform="matrix(0.05,0,0,0.05,24,0)" xlink:href="#ah"/><use transform="matrix(0.05,0,0,0.05,27.950000000000003,0)" xlink:href="#al"/><use transform="matrix(0.05,0,0,0.05,37.95,0)" xlink:href="#as"/><use transform="matrix(0.05,0,0,0.05,47.95,0)" xlink:href="#aa"/><use transform="matrix(0.05,0,0,0.05,56.95,0)" xlink:href="#aq"/></g><path d="M26 75v-336h71v23H56V52h41v23H26" id="aL"/><path d="M3 75V52h41v-290H3v-23h71V75H3" id="aM"/><g id="X"><use transform="matrix(0.05,0,0,0.05,0,0)" xlink:href="#aL"/><use transform="matrix(0.05,0,0,0.05,5,0)" xlink:href="#ar"/><use transform="matrix(0.05,0,0,0.05,15.5,0)" xlink:href="#ac"/><use transform="matrix(0.05,0,0,0.05,25.5,0)" xlink:href="#af"/><use transform="matrix(0.05,0,0,0.05,34.5,0)" xlink:href="#ab"/><use transform="matrix(0.05,0,0,0.05,39.5,0)" xlink:href="#ah"/><use transform="matrix(0.05,0,0,0.05,43.45,0)" xlink:href="#al"/><use transform="matrix(0.05,0,0,0.05,53.45,0)" xlink:href="#as"/><use transform="matrix(0.05,0,0,0.05,63.45,0)" xlink:href="#au"/><use transform="matrix(0.05,0,0,0.05,73.95,0)" xlink:href="#aM"/></g><path d="M190 0L58-211 59 0H30v-248h39L202-35l-2-213h31V0h-41" id="aN"/><g id="Y"><use transform="matrix(0.05,0,0,0.05,0,0)" xlink:href="#aN"/><use transform="matrix(0.05,0,0,0.05,12.950000000000001,0)" xlink:href="#al"/></g><path d="M137-103V0h-34v-103L8-248h37l75 118 75-118h37" id="aO"/><g id="Z"><use transform="matrix(0.05,0,0,0.05,0,0)" xlink:href="#aO"/><use transform="matrix(0.05,0,0,0.05,10.35,0)" xlink:href="#an"/><use transform="matrix(0.05,0,0,0.05,20.35,0)" xlink:href="#aa"/></g></defs></g></svg>