<svg xmlns="http://www.w3.org/2000/svg" xmlns:xlink="http://www.w3.org/1999/xlink" xmlns:lucid="lucid" width="1814.4" height="1691"><g transform="translate(-122.7999999999999 -740)" lucid:page-tab-id="0_0"><path d="M0 0h3676.8v2582.4H0z" fill="#fff"/><path d="M1124.8 890c-11.05 0-20 8.95-20 20v60c0 11.05 8.95 20 20 20h160c11.05 0 20-8.95 20-20v-60c0-11.05-8.95-20-20-20z" stroke="#000" stroke-width="2" fill="#ff8f80"/><path d="M1104.8 934h200" stroke="#000" stroke-width="2" fill="none"/><use xlink:href="#a" transform="matrix(1,0,0,1,1144.7999999999997,890) translate(-27.874999999999986 25.6)"/><use xlink:href="#b" transform="matrix(1,0,0,1,1124.7999999999997,950) translate(3.625 15.6)"/><use xlink:href="#c" transform="matrix(1,0,0,1,1124.7999999999997,950) translate(91.47500000000001 15.6)"/><path d="M372 1697.5c-12.15 0-22 9.85-22 22v66c0 12.15 9.85 22 22 22h156c12.15 0 22-9.85 22-22v-66c0-12.15-9.85-22-22-22z" stroke="#000" stroke-width="2" fill="#ff8f80"/><path d="M350 1741.5h200" stroke="#000" stroke-width="2" fill="none"/><use xlink:href="#d" transform="matrix(1,0,0,1,390,1697.4999999999768) translate(20.5 25.6)"/><use xlink:href="#e" transform="matrix(1,0,0,1,370,1757.4999999999768) translate(45.55 14.4)"/><use xlink:href="#f" transform="matrix(1,0,0,1,370,1757.4999999999768) translate(69.5 14.4)"/><use xlink:href="#g" transform="matrix(1,0,0,1,370,1757.4999999999768) translate(11.574999999999989 36)"/><use xlink:href="#h" transform="matrix(1,0,0,1,370,1757.4999999999768) translate(108.475 36)"/><path d="M1120 1571.45h160v82.9h-160z" stroke="#000" stroke-width="2" fill="#c7e8ac"/><use xlink:href="#i" transform="matrix(1,0,0,1,1125,1576.4526367187298) translate(3.4499999999999886 39.49375)"/><use xlink:href="#j" transform="matrix(1,0,0,1,1125,1576.4526367187298) translate(67.64999999999999 39.49375)"/><path d="M1126 1720c-3.3 0-6 2.7-6 6v18c0 3.3 2.7 6 6 6h148c3.3 0 6-2.7 6-6v-18c0-3.3-2.7-6-6-6z" stroke="#000" stroke-width="2" fill="#ff8f80"/><use xlink:href="#k" transform="matrix(1,0,0,1,1128,1728) translate(60.025 14.4)"/><path d="M1220 1831.05c0 11.04-8.95 20-20 20s-20-8.96-20-20c0-11.05 8.95-20 20-20s20 8.95 20 20z" stroke="#000" stroke-width="2" fill="#fff"/><path d="M1185.86 1816.9l28.28 28.3m0-28.3l-28.28 28.3" stroke="#000" stroke-width="2" fill="none"/><path d="M1034.8 940c0 11.05-8.95 20-20 20s-20-8.95-20-20 8.95-20 20-20 20 8.95 20 20z" stroke="#000" stroke-width="2"/><path d="M1085.3 940h-48.5" stroke="#000" stroke-width="2" fill="none"/><path d="M1100.56 940l-14.26 4.64v-9.28z" stroke="#000" stroke-width="2"/><path d="M1036.83 941h-1.15l.12-.96-.03-1.04h1.06z"/><path d="M535.2 1096.8h160v40h-160z" fill="#ff8f80"/><use xlink:href="#l" transform="matrix(1,0,0,1,535.1999999999999,1096.8000000000466) translate(43.305 24.4)"/><use xlink:href="#m" transform="matrix(1,0,0,1,535.1999999999999,1096.8000000000466) translate(66.255 24.4)"/><use xlink:href="#n" transform="matrix(1,0,0,1,535.1999999999999,1096.8000000000466) translate(87.705 24.4)"/><path d="M535.2 1156.8h160v40h-160z" fill="#c1e4f7"/><use xlink:href="#o" transform="matrix(1,0,0,1,535.1999999999999,1156.8000000000002) translate(43.305 24.4)"/><use xlink:href="#m" transform="matrix(1,0,0,1,535.1999999999999,1156.8000000000002) translate(77.305 24.4)"/><use xlink:href="#p" transform="matrix(1,0,0,1,535.1999999999999,1156.8000000000002) translate(98.755 24.4)"/><path d="M520 1040h200v296.8H520z" stroke="#000" stroke-width="2" fill-opacity="0"/><use xlink:href="#q" transform="matrix(1,0,0,1,528,1048) translate(62 15.6)"/><path d="M535.2 1216.8h160v40h-160z" fill="#c7e8ac"/><use xlink:href="#r" transform="matrix(1,0,0,1,535.1999999999999,1216.7999999999538) translate(65.50500000000001 24.4)"/><path d="M1007.03 1075c-27.4 0-49.64 22.22-49.64 49.64v148.92c0 27.42 22.22 49.64 49.63 49.64h410.72c27.42 0 49.64-22.22 49.64-49.64v-148.92c0-27.42-22.23-49.64-49.65-49.64z" stroke="#000" stroke-width="2" fill="#c1e4f7"/><path d="M957.4 1119h510" stroke="#000" stroke-width="2" fill="none"/><use xlink:href="#s" transform="matrix(1,0,0,1,1059.3943359374998,1075.0000000000232) translate(59.625 25.6)"/><use xlink:href="#t" transform="matrix(1,0,0,1,1008.3943359374998,1135.0000000000232) translate(133.075 14.500000000000009)"/><use xlink:href="#f" transform="matrix(1,0,0,1,1008.3943359374998,1135.0000000000232) translate(229.975 14.500000000000009)"/><use xlink:href="#u" transform="matrix(1,0,0,1,1008.3943359374998,1135.0000000000232) translate(123.05 36.10000000000001)"/><use xlink:href="#v" transform="matrix(1,0,0,1,1008.3943359374998,1135.0000000000232) translate(196 36.10000000000001)"/><use xlink:href="#w" transform="matrix(1,0,0,1,1008.3943359374998,1135.0000000000232) translate(131.65 57.70000000000001)"/><use xlink:href="#x" transform="matrix(1,0,0,1,1008.3943359374998,1135.0000000000232) translate(187.55 57.70000000000001)"/><use xlink:href="#y" transform="matrix(1,0,0,1,1008.3943359374998,1135.0000000000232) translate(249.45 57.70000000000001)"/><use xlink:href="#z" transform="matrix(1,0,0,1,1008.3943359374998,1135.0000000000232) translate(127.1 79.30000000000003)"/><use xlink:href="#A" transform="matrix(1,0,0,1,1008.3943359374998,1135.0000000000232) translate(274.9 79.30000000000003)"/><use xlink:href="#B" transform="matrix(1,0,0,1,1008.3943359374998,1135.0000000000232) translate(96.69999999999999 100.90000000000002)"/><use xlink:href="#C" transform="matrix(1,0,0,1,1008.3943359374998,1135.0000000000232) translate(119.6 100.90000000000002)"/><use xlink:href="#D" transform="matrix(1,0,0,1,1008.3943359374998,1135.0000000000232) translate(129.6 100.90000000000002)"/><use xlink:href="#y" transform="matrix(1,0,0,1,1008.3943359374998,1135.0000000000232) translate(284.4 100.90000000000002)"/><use xlink:href="#E" transform="matrix(1,0,0,1,1008.3943359374998,1135.0000000000232) translate(75.67500000000001 122.50000000000001)"/><use xlink:href="#C" transform="matrix(1,0,0,1,1008.3943359374998,1135.0000000000232) translate(134.625 122.50000000000001)"/><use xlink:href="#D" transform="matrix(1,0,0,1,1008.3943359374998,1135.0000000000232) translate(144.625 122.50000000000001)"/><use xlink:href="#F" transform="matrix(1,0,0,1,1008.3943359374998,1135.0000000000232) translate(299.425 122.50000000000001)"/><use xlink:href="#G" transform="matrix(1,0,0,1,1008.3943359374998,1135.0000000000232) translate(326.32500000000005 122.50000000000001)"/><use xlink:href="#H" transform="matrix(1,0,0,1,1008.3943359374998,1135.0000000000232) translate(32.60000000000002 144.1)"/><use xlink:href="#I" transform="matrix(1,0,0,1,1008.3943359374998,1135.0000000000232) translate(143.55 144.1)"/><use xlink:href="#J" transform="matrix(1,0,0,1,1008.3943359374998,1135.0000000000232) translate(101.12499999999999 165.70000000000002)"/><use xlink:href="#K" transform="matrix(1,0,0,1,1008.3943359374998,1135.0000000000232) translate(211.02499999999998 165.70000000000002)"/><use xlink:href="#L" transform="matrix(1,0,0,1,1008.3943359374998,1135.0000000000232) translate(284.975 165.70000000000002)"/><path d="M980.77 760h444.03v80H980.77z" stroke="#000" stroke-width="2" fill="#ffeca9"/><use xlink:href="#M" transform="matrix(1,0,0,1,980.7749999999997,760) translate(83.25500000000001 31.9)"/><use xlink:href="#N" transform="matrix(1,0,0,1,980.7749999999997,760) translate(215.055 31.9)"/><use xlink:href="#K" transform="matrix(1,0,0,1,980.7749999999997,760) translate(259.905 31.9)"/><use xlink:href="#y" transform="matrix(1,0,0,1,980.7749999999997,760) translate(333.855 31.9)"/><use xlink:href="#O" transform="matrix(1,0,0,1,980.7749999999997,760) translate(13.180000000000016 53.5)"/><use xlink:href="#P" transform="matrix(1,0,0,1,980.7749999999997,760) translate(114.08000000000003 53.5)"/><use xlink:href="#Q" transform="matrix(1,0,0,1,980.7749999999997,760) translate(158.08000000000004 53.5)"/><use xlink:href="#R" transform="matrix(1,0,0,1,980.7749999999997,760) translate(203.98000000000005 53.5)"/><path d="M535.2 1276.8h160v40h-160z" fill="#ffeca9"/><use xlink:href="#S" transform="matrix(1,0,0,1,535.1999999999999,1276.7999999998838) translate(71.03 24.4)"/><path d="M1552.15 1800.1c-11.32 0-20.5 9.2-20.5 20.5v61.5c0 11.33 9.18 20.5 20.5 20.5h220.1c11.32 0 20.5-9.17 20.5-20.5v-61.5c0-11.3-9.18-20.5-20.5-20.5z" stroke="#000" stroke-width="2" fill="#ff8f80"/><path d="M1531.65 1844.1h261.1" stroke="#000" stroke-width="2" fill="none"/><use xlink:href="#T" transform="matrix(1,0,0,1,1583.8700000000001,1800.1105468749192) translate(-3.924999999999997 25.6)"/><use xlink:href="#U" transform="matrix(1,0,0,1,1557.7600000000002,1860.1105468749192) translate(2.5749999999999886 17.1)"/><use xlink:href="#V" transform="matrix(1,0,0,1,1557.7600000000002,1860.1105468749192) translate(60.52499999999999 17.1)"/><path d="M450 1840l100 70-100 70-100-70z" stroke="#000" stroke-width="2" fill="#c7e8ac"/><use xlink:href="#W" transform="matrix(1,0,0,1,355,1845) translate(42.58 59.0875)"/><use xlink:href="#X" transform="matrix(1,0,0,1,355,1845) translate(134.48000000000002 59.0875)"/><use xlink:href="#Y" transform="matrix(1,0,0,1,355,1845) translate(27.029999999999998 80.6875)"/><use xlink:href="#Z" transform="matrix(1,0,0,1,355,1845) translate(100.03 80.6875)"/><path d="M450 1809.5v10.78" stroke="#000" stroke-width="2" fill="none"/><path d="M451 1809.53h-2v-1.03h2z"/><path d="M450 1835.54l-4.64-14.26h9.28z" stroke="#000" stroke-width="2"/><path d="M1455.2 1997.06c-26.5 0-48 21.5-48 48v144c0 26.5 21.5 48 48 48h414c26.5 0 48-21.5 48-48v-144c0-26.5-21.5-48-48-48z" stroke="#000" stroke-width="2" fill="#c1e4f7"/><path d="M1407.2 2041.06h510" stroke="#000" stroke-width="2" fill="none"/><use xlink:href="#s" transform="matrix(1,0,0,1,1509.2000000000003,1997.060546875) translate(59.625 25.6)"/><use xlink:href="#t" transform="matrix(1,0,0,1,1458.2000000000003,2057.060546875) translate(133.075 14.4)"/><use xlink:href="#f" transform="matrix(1,0,0,1,1458.2000000000003,2057.060546875) translate(229.975 14.4)"/><use xlink:href="#u" transform="matrix(1,0,0,1,1458.2000000000003,2057.060546875) translate(123.05 36)"/><use xlink:href="#v" transform="matrix(1,0,0,1,1458.2000000000003,2057.060546875) translate(196 36)"/><use xlink:href="#w" transform="matrix(1,0,0,1,1458.2000000000003,2057.060546875) translate(131.65 57.6)"/><use xlink:href="#x" transform="matrix(1,0,0,1,1458.2000000000003,2057.060546875) translate(187.55 57.6)"/><use xlink:href="#y" transform="matrix(1,0,0,1,1458.2000000000003,2057.060546875) translate(249.45 57.6)"/><use xlink:href="#z" transform="matrix(1,0,0,1,1458.2000000000003,2057.060546875) translate(127.1 79.20000000000002)"/><use xlink:href="#A" transform="matrix(1,0,0,1,1458.2000000000003,2057.060546875) translate(274.9 79.20000000000002)"/><use xlink:href="#B" transform="matrix(1,0,0,1,1458.2000000000003,2057.060546875) translate(96.69999999999999 100.80000000000001)"/><use xlink:href="#C" transform="matrix(1,0,0,1,1458.2000000000003,2057.060546875) translate(119.6 100.80000000000001)"/><use xlink:href="#D" transform="matrix(1,0,0,1,1458.2000000000003,2057.060546875) translate(129.6 100.80000000000001)"/><use xlink:href="#y" transform="matrix(1,0,0,1,1458.2000000000003,2057.060546875) translate(284.4 100.80000000000001)"/><use xlink:href="#E" transform="matrix(1,0,0,1,1458.2000000000003,2057.060546875) translate(75.67500000000001 122.4)"/><use xlink:href="#C" transform="matrix(1,0,0,1,1458.2000000000003,2057.060546875) translate(134.625 122.4)"/><use xlink:href="#D" transform="matrix(1,0,0,1,1458.2000000000003,2057.060546875) translate(144.625 122.4)"/><use xlink:href="#F" transform="matrix(1,0,0,1,1458.2000000000003,2057.060546875) translate(299.425 122.4)"/><use xlink:href="#G" transform="matrix(1,0,0,1,1458.2000000000003,2057.060546875) translate(326.32500000000005 122.4)"/><use xlink:href="#H" transform="matrix(1,0,0,1,1458.2000000000003,2057.060546875) translate(32.60000000000002 144)"/><use xlink:href="#I" transform="matrix(1,0,0,1,1458.2000000000003,2057.060546875) translate(143.55 144)"/><use xlink:href="#J" transform="matrix(1,0,0,1,1458.2000000000003,2057.060546875) translate(101.12499999999999 165.6)"/><use xlink:href="#K" transform="matrix(1,0,0,1,1458.2000000000003,2057.060546875) translate(211.02499999999998 165.6)"/><use xlink:href="#L" transform="matrix(1,0,0,1,1458.2000000000003,2057.060546875) translate(284.975 165.6)"/><path d="M1513.6 2300h297.2v53.24h-297.2z" stroke="#000" stroke-width="2" fill="#ffeca9"/><g><use xlink:href="#aa" transform="matrix(1,0,0,1,1513.6000000000001,2300) translate(55.154999999999994 19.41)"/><use xlink:href="#ab" transform="matrix(1,0,0,1,1513.6000000000001,2300) translate(86.10499999999999 19.41)"/><use xlink:href="#ac" transform="matrix(1,0,0,1,1513.6000000000001,2300) translate(113.705 19.41)"/><use xlink:href="#ad" transform="matrix(1,0,0,1,1513.6000000000001,2300) translate(136.95499999999998 19.41)"/><use xlink:href="#ae" transform="matrix(1,0,0,1,1513.6000000000001,2300) translate(81.03 41.01)"/><use xlink:href="#af" transform="matrix(1,0,0,1,1513.6000000000001,2300) translate(115.03 41.01)"/></g><path d="M176.16 2020c-18.42 0-33.36 14.94-33.36 33.36v100.08c0 18.42 14.94 33.36 33.36 33.36h173.28c18.42 0 33.36-14.94 33.36-33.36v-100.08c0-18.42-14.94-33.36-33.36-33.36z" stroke="#000" stroke-width="2" fill="#c1e4f7"/><path d="M142.8 2064h240" stroke="#000" stroke-width="2" fill="none"/><g><use xlink:href="#ag" transform="matrix(1,0,0,1,190.7999999999999,2020) translate(-16.950000000000003 25.6)"/></g><g><use xlink:href="#t" transform="matrix(1,0,0,1,166.7999999999999,2080) translate(25.07499999999999 16.69999999999999)"/><use xlink:href="#f" transform="matrix(1,0,0,1,166.7999999999999,2080) translate(121.975 16.69999999999999)"/><use xlink:href="#u" transform="matrix(1,0,0,1,166.7999999999999,2080) translate(15.049999999999997 38.29999999999999)"/><use xlink:href="#v" transform="matrix(1,0,0,1,166.7999999999999,2080) translate(88 38.29999999999999)"/><use xlink:href="#w" transform="matrix(1,0,0,1,166.7999999999999,2080) translate(23.650000000000006 59.89999999999999)"/><use xlink:href="#x" transform="matrix(1,0,0,1,166.7999999999999,2080) translate(79.55000000000001 59.89999999999999)"/><use xlink:href="#y" transform="matrix(1,0,0,1,166.7999999999999,2080) translate(141.45 59.89999999999999)"/><use xlink:href="#ah" transform="matrix(1,0,0,1,166.7999999999999,2080) translate(2.125 81.5)"/><use xlink:href="#h" transform="matrix(1,0,0,1,166.7999999999999,2080) translate(149.925 81.5)"/></g><path d="M549.18 1994.12c-27.16 0-49.18 22.02-49.18 49.18v147.52c0 27.16 22.02 49.18 49.18 49.18h411.64c27.16 0 49.18-22.02 49.18-49.18V2043.3c0-27.16-22.02-49.18-49.18-49.18z" stroke="#000" stroke-width="2" fill="#c1e4f7"/><path d="M500 2038.12h510" stroke="#000" stroke-width="2" fill="none"/><g><use xlink:href="#s" transform="matrix(1,0,0,1,602,1994.12109375) translate(59.625 25.6)"/></g><g><use xlink:href="#t" transform="matrix(1,0,0,1,551,2054.12109375) translate(133.075 14.4)"/><use xlink:href="#f" transform="matrix(1,0,0,1,551,2054.12109375) translate(229.975 14.4)"/><use xlink:href="#u" transform="matrix(1,0,0,1,551,2054.12109375) translate(123.05 36)"/><use xlink:href="#v" transform="matrix(1,0,0,1,551,2054.12109375) translate(196 36)"/><use xlink:href="#w" transform="matrix(1,0,0,1,551,2054.12109375) translate(131.65 57.6)"/><use xlink:href="#x" transform="matrix(1,0,0,1,551,2054.12109375) translate(187.55 57.6)"/><use xlink:href="#y" transform="matrix(1,0,0,1,551,2054.12109375) translate(249.45 57.6)"/><use xlink:href="#z" transform="matrix(1,0,0,1,551,2054.12109375) translate(127.1 79.20000000000002)"/><use xlink:href="#A" transform="matrix(1,0,0,1,551,2054.12109375) translate(274.9 79.20000000000002)"/><use xlink:href="#B" transform="matrix(1,0,0,1,551,2054.12109375) translate(96.69999999999999 100.80000000000001)"/><use xlink:href="#C" transform="matrix(1,0,0,1,551,2054.12109375) translate(119.6 100.80000000000001)"/><use xlink:href="#D" transform="matrix(1,0,0,1,551,2054.12109375) translate(129.6 100.80000000000001)"/><use xlink:href="#y" transform="matrix(1,0,0,1,551,2054.12109375) translate(284.4 100.80000000000001)"/><use xlink:href="#E" transform="matrix(1,0,0,1,551,2054.12109375) translate(75.67500000000001 122.4)"/><use xlink:href="#C" transform="matrix(1,0,0,1,551,2054.12109375) translate(134.625 122.4)"/><use xlink:href="#D" transform="matrix(1,0,0,1,551,2054.12109375) translate(144.625 122.4)"/><use xlink:href="#F" transform="matrix(1,0,0,1,551,2054.12109375) translate(299.425 122.4)"/><use xlink:href="#G" transform="matrix(1,0,0,1,551,2054.12109375) translate(326.32500000000005 122.4)"/><use xlink:href="#H" transform="matrix(1,0,0,1,551,2054.12109375) translate(32.60000000000002 144)"/><use xlink:href="#I" transform="matrix(1,0,0,1,551,2054.12109375) translate(143.55 144)"/><use xlink:href="#J" transform="matrix(1,0,0,1,551,2054.12109375) translate(101.12499999999999 165.6)"/><use xlink:href="#K" transform="matrix(1,0,0,1,551,2054.12109375) translate(211.02499999999998 165.6)"/><use xlink:href="#L" transform="matrix(1,0,0,1,551,2054.12109375) translate(284.975 165.6)"/></g><path d="M1118 1612.9H450v65.1" stroke="#000" stroke-width="2" fill="none"/><path d="M1119 1613.9h-1.03v-2h1.03z"/><path d="M450 1693.26l-4.64-14.26h9.28z" stroke="#000" stroke-width="2"/><path d="M263.8 2000.5h-2v-67.93h2zm83.46-89.5h-69.78v-.03H261.8V1909h85.46z"/><path d="M348.26 1910l1.42 1h-2.45v-2h2.45zM262.8 2015.76l-4.64-14.26h9.28z"/><path d="M262.8 2019l-6-18.5h12zm-3.26-16.5l3.26 10.03 3.26-10.03z"/><g><use xlink:href="#ai" transform="matrix(1,0,0,1,248.1249999999999,1910.9718968296952) translate(0 14.4)"/></g><path d="M756 1974.62h-2V1911h-47.6v-2H756zM552.74 1911v-2h130.72v2z"/><path d="M552.77 1911h-2.45l1.42-1-1.42-1h2.45zM755 1989.9l-4.64-14.28h9.28z"/><path d="M755 1993.12l-6-18.5h12zm-3.26-16.5l3.26 10.03 3.26-10.03z"/><g><use xlink:href="#aj" transform="matrix(1,0,0,1,683.4574437046953,1899.2) translate(0 14.4)"/></g><path d="M600 2300h320v40H600z" stroke="#000" stroke-width="2" fill="#ffeca9"/><g><use xlink:href="#aa" transform="matrix(1,0,0,1,600,2300) translate(69.155 24.4)"/><use xlink:href="#ab" transform="matrix(1,0,0,1,600,2300) translate(100.10499999999999 24.4)"/><use xlink:href="#ac" transform="matrix(1,0,0,1,600,2300) translate(127.705 24.4)"/><use xlink:href="#ak" transform="matrix(1,0,0,1,600,2300) translate(150.95499999999998 24.4)"/></g><path d="M755 2242v28h-.08v10.5" stroke="#000" stroke-width="2" fill="none"/><path d="M756 2242.03h-2V2241h2z"/><path d="M754.92 2295.76l-4.64-14.26h9.27z" stroke="#000" stroke-width="2"/><path d="M262.8 2188.8V2420H1050v-99" stroke="#000" stroke-width="2" fill="none"/><path d="M263.8 2188.83h-2v-1.03h2z"/><path d="M1050 2321.03V2320" stroke="#000" stroke-width="2" fill="none"/><path d="M1528 1572.9c17.67 0 32 17.9 32 40s-14.33 40-32 40h-96c-17.67 0-32-17.9-32-40s14.33-40 32-40z" stroke="#000" stroke-width="2" fill="#ffeca9"/><g><use xlink:href="#al" transform="matrix(1,0,0,1,1405,1577.9052734374595) translate(21.775 27.525)"/><use xlink:href="#am" transform="matrix(1,0,0,1,1405,1577.9052734374595) translate(35.724999999999994 27.525)"/><use xlink:href="#an" transform="matrix(1,0,0,1,1405,1577.9052734374595) translate(117.725 27.525)"/><use xlink:href="#ao" transform="matrix(1,0,0,1,1405,1577.9052734374595) translate(27.049999999999997 49.125)"/></g><path d="M1282 1612.9h58v.2h58" stroke="#000" stroke-width="2" fill="none"/><path d="M1282.03 1613.9H1281v-2h1.03zM1399 1612.9l.04 1.2h-1.06v-2h1.07z"/><path d="M1562 1612.9h100.2v167.7" stroke="#000" stroke-width="2" fill="none"/><path d="M1562.03 1613.9h-1.1l.07-.98-.03-1h1.06z"/><path d="M1662.2 1795.87l-4.64-14.26h9.28z" stroke="#000" stroke-width="2"/><path d="M922 2320h128v-680h50.5" stroke="#000" stroke-width="2" fill="none"/><path d="M922.03 2321H921v-2h1.03z"/><path d="M1115.76 1640l-14.26 4.64v-9.28z" stroke="#000" stroke-width="2"/><path d="M1200 1752v39.54" stroke="#000" stroke-width="2" fill="none"/><path d="M1201 1752.03h-2V1751h2z"/><path d="M1200 1806.8l-4.64-14.26h9.28z" stroke="#000" stroke-width="2"/><path d="M1200 1656.36v44.14" stroke="#000" stroke-width="2" fill="none"/><path d="M1201 1656.38h-2v-1.02h2z"/><path d="M1200 1715.76l-4.64-14.26h9.28z" stroke="#000" stroke-width="2"/><path d="M1204.8 1325.2v226.75" stroke="#000" stroke-width="2" fill="none"/><path d="M1205.8 1325.23h-2v-1.03h2z"/><path d="M1204.8 1567.22l-4.64-14.27h9.28z" stroke="#000" stroke-width="2"/><path d="M1204.8 992v63.5" stroke="#000" stroke-width="2" fill="none"/><path d="M1205.8 992.03h-2V991h2z"/><path d="M1204.8 1070.76l-4.64-14.26h9.28z" stroke="#000" stroke-width="2"/><path d="M1662.2 2239.06v41.44" stroke="#000" stroke-width="2" fill="none"/><path d="M1663.2 2239.1h-2v-1.04h2z"/><path d="M1662.2 2295.76l-4.64-14.26h9.28z" stroke="#000" stroke-width="2"/><path d="M1662.2 2355.24v39H1340v-758.92h-40.5" stroke="#000" stroke-width="2" fill="none"/><path d="M1663.2 2355.27h-2v-1.03h2z"/><path d="M1284.24 1635.32l14.26-4.63v9.26z" stroke="#000" stroke-width="2"/><path d="M1662.2 1904.6v72.96" stroke="#000" stroke-width="2" fill="none"/><path d="M1663.2 1904.64h-2v-1.03h2z"/><path d="M1662.2 1992.82l-4.64-14.26h9.28z" stroke="#000" stroke-width="2"/><defs><path d="M135-143c-3-34-86-38-87 0 15 53 115 12 119 90S17 21 10-45l28-5c4 36 97 45 98 0-10-56-113-15-118-90-4-57 82-63 122-42 12 7 21 19 24 35" id="ap"/><path d="M59-47c-2 24 18 29 38 22v24C64 9 27 4 27-40v-127H5v-23h24l9-43h21v43h35v23H59v120" id="aq"/><path d="M141-36C126-15 110 5 73 4 37 3 15-17 15-53c-1-64 63-63 125-63 3-35-9-54-41-54-24 1-41 7-42 31l-33-3c5-37 33-52 76-52 45 0 72 20 72 64v82c-1 20 7 32 28 27v20c-31 9-61-2-59-35zM48-53c0 20 12 33 32 33 41-3 63-29 60-74-43 2-92-5-92 41" id="ar"/><path d="M114-163C36-179 61-72 57 0H25l-1-190h30c1 12-1 29 2 39 6-27 23-49 58-41v29" id="as"/><path d="M-5 72V49h209v23H-5" id="at"/><path d="M96-169c-40 0-48 33-48 73s9 75 48 75c24 0 41-14 43-38l32 2c-6 37-31 61-74 61-59 0-76-41-82-99-10-93 101-131 147-64 4 7 5 14 7 22l-32 3c-4-21-16-35-41-35" id="au"/><path d="M143 0L79-87 56-68V0H24v-261h32v163l83-92h37l-77 82L181 0h-38" id="av"/><path d="M24-231v-30h32v30H24zM24 0v-190h32V0H24" id="aw"/><path d="M210-169c-67 3-38 105-44 169h-31v-121c0-29-5-50-35-48C34-165 62-65 56 0H25l-1-190h30c1 10-1 24 2 32 10-44 99-50 107 0 11-21 27-35 58-36 85-2 47 119 55 194h-31v-121c0-29-5-49-35-48" id="ax"/><path d="M84 4C-5 8 30-112 23-190h32v120c0 31 7 50 39 49 72-2 45-101 50-169h31l1 190h-30c-1-10 1-25-2-33-11 22-28 36-60 37" id="ay"/><path d="M24 0v-261h32V0H24" id="az"/><path d="M100-194c62-1 85 37 85 99 1 63-27 99-86 99S16-35 15-95c0-66 28-99 85-99zM99-20c44 1 53-31 53-75 0-43-8-75-51-75s-53 32-53 75 10 74 51 75" id="aA"/><g id="a"><use transform="matrix(0.05,0,0,0.05,0,0)" xlink:href="#ap"/><use transform="matrix(0.05,0,0,0.05,9,0)" xlink:href="#aq"/><use transform="matrix(0.05,0,0,0.05,14,0)" xlink:href="#ar"/><use transform="matrix(0.05,0,0,0.05,24,0)" xlink:href="#as"/><use transform="matrix(0.05,0,0,0.05,29.950000000000003,0)" xlink:href="#aq"/><use transform="matrix(0.05,0,0,0.05,34.95,0)" xlink:href="#at"/><use transform="matrix(0.05,0,0,0.05,44.95,0)" xlink:href="#ar"/><use transform="matrix(0.05,0,0,0.05,54.95,0)" xlink:href="#aq"/><use transform="matrix(0.05,0,0,0.05,59.95,0)" xlink:href="#aq"/><use transform="matrix(0.05,0,0,0.05,64.95,0)" xlink:href="#ar"/><use transform="matrix(0.05,0,0,0.05,74.95,0)" xlink:href="#au"/><use transform="matrix(0.05,0,0,0.05,83.95,0)" xlink:href="#av"/><use transform="matrix(0.05,0,0,0.05,92.95,0)" xlink:href="#at"/><use transform="matrix(0.05,0,0,0.05,102.95,0)" xlink:href="#ap"/><use transform="matrix(0.05,0,0,0.05,111.95,0)" xlink:href="#aw"/><use transform="matrix(0.05,0,0,0.05,115.9,0)" xlink:href="#ax"/><use transform="matrix(0.05,0,0,0.05,130.85,0)" xlink:href="#ay"/><use transform="matrix(0.05,0,0,0.05,140.85,0)" xlink:href="#az"/><use transform="matrix(0.05,0,0,0.05,144.79999999999998,0)" xlink:href="#ar"/><use transform="matrix(0.05,0,0,0.05,154.79999999999998,0)" xlink:href="#aq"/><use transform="matrix(0.05,0,0,0.05,159.79999999999998,0)" xlink:href="#aA"/><use transform="matrix(0.05,0,0,0.05,169.79999999999998,0)" xlink:href="#as"/></g><path d="M145-31C134-9 116 4 85 4 32 4 16-35 15-94c0-59 17-99 70-100 32-1 48 14 60 33 0-11-1-24 2-32h30l-1 268h-32zM93-21c41 0 51-33 51-76s-8-73-50-73c-40 0-46 35-46 75s5 74 45 74" id="aB"/><path d="M100-194c63 0 86 42 84 106H49c0 40 14 67 53 68 26 1 43-12 49-29l28 8c-11 28-37 45-77 45C44 4 14-33 15-96c1-61 26-98 85-98zm52 81c6-60-76-77-97-28-3 7-6 17-6 28h103" id="aC"/><path d="M179-190L93 31C79 59 56 82 12 73V49c39 6 53-20 64-50L1-190h34L92-34l54-156h33" id="aD"/><path d="M101-234c-31-9-42 10-38 44h38v23H63V0H32v-167H5v-23h27c-7-52 17-82 69-68v24" id="aE"/><path d="M33-154v-36h34v36H33zM33 0v-36h34V0H33" id="aF"/><g id="b"><use transform="matrix(0.05,0,0,0.05,0,0)" xlink:href="#aB"/><use transform="matrix(0.05,0,0,0.05,10,0)" xlink:href="#ay"/><use transform="matrix(0.05,0,0,0.05,20,0)" xlink:href="#aC"/><use transform="matrix(0.05,0,0,0.05,30,0)" xlink:href="#as"/><use transform="matrix(0.05,0,0,0.05,35.95,0)" xlink:href="#aD"/><use transform="matrix(0.05,0,0,0.05,44.95,0)" xlink:href="#at"/><use transform="matrix(0.05,0,0,0.05,54.95,0)" xlink:href="#aE"/><use transform="matrix(0.05,0,0,0.05,59.95,0)" xlink:href="#aw"/><use transform="matrix(0.05,0,0,0.05,63.900000000000006,0)" xlink:href="#az"/><use transform="matrix(0.05,0,0,0.05,67.85000000000001,0)" xlink:href="#aC"/><use transform="matrix(0.05,0,0,0.05,77.85000000000001,0)" xlink:href="#aF"/></g><path d="M18-100v-36l175-74v27L42-118l151 64v27" id="aG"/><path d="M117-194c89-4 53 116 60 194h-32v-121c0-31-8-49-39-48C34-167 62-67 57 0H25l-1-190h30c1 10-1 24 2 32 11-22 29-35 61-36" id="aH"/><path d="M177-190C167-65 218 103 67 71c-23-6-38-20-44-43l32-5c15 47 100 32 89-28v-30C133-14 115 1 83 1 29 1 15-40 15-95c0-56 16-97 71-98 29-1 48 16 59 35 1-10 0-23 2-32h30zM94-22c36 0 50-32 50-73 0-42-14-75-50-75-39 0-46 34-46 75s6 73 46 73" id="aI"/><path d="M18-27v-27l151-64-151-65v-27l175 74v36" id="aJ"/><g id="c"><use transform="matrix(0.05,0,0,0.05,0,0)" xlink:href="#aG"/><use transform="matrix(0.05,0,0,0.05,10.5,0)" xlink:href="#ap"/><use transform="matrix(0.05,0,0,0.05,19.5,0)" xlink:href="#aq"/><use transform="matrix(0.05,0,0,0.05,24.5,0)" xlink:href="#as"/><use transform="matrix(0.05,0,0,0.05,30.450000000000003,0)" xlink:href="#aw"/><use transform="matrix(0.05,0,0,0.05,34.4,0)" xlink:href="#aH"/><use transform="matrix(0.05,0,0,0.05,44.4,0)" xlink:href="#aI"/><use transform="matrix(0.05,0,0,0.05,54.400000000000006,0)" xlink:href="#aJ"/></g><path d="M115-194c55 1 70 41 70 98S169 2 115 4C84 4 66-9 55-30l1 105H24l-1-265h31l2 30c10-21 28-34 59-34zm-8 174c40 0 45-34 45-75s-6-73-45-74c-42 0-51 32-51 76 0 43 10 73 51 73" id="aK"/><g id="d"><use transform="matrix(0.05,0,0,0.05,0,0)" xlink:href="#aI"/><use transform="matrix(0.05,0,0,0.05,10,0)" xlink:href="#aA"/><use transform="matrix(0.05,0,0,0.05,20,0)" xlink:href="#aq"/><use transform="matrix(0.05,0,0,0.05,25,0)" xlink:href="#aA"/><use transform="matrix(0.05,0,0,0.05,35,0)" xlink:href="#at"/><use transform="matrix(0.05,0,0,0.05,45,0)" xlink:href="#ap"/><use transform="matrix(0.05,0,0,0.05,54,0)" xlink:href="#aq"/><use transform="matrix(0.05,0,0,0.05,59,0)" xlink:href="#aC"/><use transform="matrix(0.05,0,0,0.05,69,0)" xlink:href="#aK"/></g><path d="M85-194c31 0 48 13 60 33l-1-100h32l1 261h-30c-2-10 0-23-3-31C134-8 116 4 85 4 32 4 16-35 15-94c0-66 23-100 70-100zm9 24c-40 0-46 34-46 75 0 40 6 74 45 74 42 0 51-32 51-76 0-42-9-74-50-73" id="aL"/><g id="e"><use transform="matrix(0.05,0,0,0.05,0,0)" xlink:href="#aw"/><use transform="matrix(0.05,0,0,0.05,3.95,0)" xlink:href="#aL"/><use transform="matrix(0.05,0,0,0.05,13.949999999999998,0)" xlink:href="#aF"/></g><path d="M68-38c1 34 0 65-14 84H32c9-13 17-26 17-46H33v-38h35" id="aM"/><g id="f"><use transform="matrix(0.05,0,0,0.05,0,0)" xlink:href="#aG"/><use transform="matrix(0.05,0,0,0.05,10.5,0)" xlink:href="#aw"/><use transform="matrix(0.05,0,0,0.05,14.449999999999998,0)" xlink:href="#aH"/><use transform="matrix(0.05,0,0,0.05,24.45,0)" xlink:href="#aq"/><use transform="matrix(0.05,0,0,0.05,29.450000000000003,0)" xlink:href="#aJ"/><use transform="matrix(0.05,0,0,0.05,39.95,0)" xlink:href="#aM"/></g><g id="g"><use transform="matrix(0.05,0,0,0.05,0,0)" xlink:href="#aK"/><use transform="matrix(0.05,0,0,0.05,10,0)" xlink:href="#as"/><use transform="matrix(0.05,0,0,0.05,15.949999999999998,0)" xlink:href="#aA"/><use transform="matrix(0.05,0,0,0.05,25.950000000000003,0)" xlink:href="#au"/><use transform="matrix(0.05,0,0,0.05,34.95,0)" xlink:href="#aC"/><use transform="matrix(0.05,0,0,0.05,44.95,0)" xlink:href="#ap"/><use transform="matrix(0.05,0,0,0.05,53.95,0)" xlink:href="#ap"/><use transform="matrix(0.05,0,0,0.05,62.95,0)" xlink:href="#at"/><use transform="matrix(0.05,0,0,0.05,72.95,0)" xlink:href="#aw"/><use transform="matrix(0.05,0,0,0.05,76.9,0)" xlink:href="#aL"/><use transform="matrix(0.05,0,0,0.05,86.9,0)" xlink:href="#aF"/></g><g id="h"><use transform="matrix(0.05,0,0,0.05,0,0)" xlink:href="#aG"/><use transform="matrix(0.05,0,0,0.05,10.5,0)" xlink:href="#aw"/><use transform="matrix(0.05,0,0,0.05,14.449999999999998,0)" xlink:href="#aH"/><use transform="matrix(0.05,0,0,0.05,24.45,0)" xlink:href="#aq"/><use transform="matrix(0.05,0,0,0.05,29.450000000000003,0)" xlink:href="#aJ"/></g><path d="M266 0h-40l-56-210L115 0H75L2-248h35L96-30l15-64 43-154h32l59 218 59-218h35" id="aN"/><g id="i"><use transform="matrix(0.05,0,0,0.05,0,0)" xlink:href="#aN"/><use transform="matrix(0.05,0,0,0.05,16.3,0)" xlink:href="#ar"/><use transform="matrix(0.05,0,0,0.05,26.3,0)" xlink:href="#aw"/><use transform="matrix(0.05,0,0,0.05,30.25,0)" xlink:href="#aq"/><use transform="matrix(0.05,0,0,0.05,35.25,0)" xlink:href="#aw"/><use transform="matrix(0.05,0,0,0.05,39.2,0)" xlink:href="#aH"/><use transform="matrix(0.05,0,0,0.05,49.2,0)" xlink:href="#aI"/></g><g id="j"><use transform="matrix(0.05,0,0,0.05,0,0)" xlink:href="#au"/><use transform="matrix(0.05,0,0,0.05,9,0)" xlink:href="#aA"/><use transform="matrix(0.05,0,0,0.05,19,0)" xlink:href="#ax"/><use transform="matrix(0.05,0,0,0.05,33.95,0)" xlink:href="#ax"/><use transform="matrix(0.05,0,0,0.05,48.900000000000006,0)" xlink:href="#ar"/><use transform="matrix(0.05,0,0,0.05,58.900000000000006,0)" xlink:href="#aH"/><use transform="matrix(0.05,0,0,0.05,68.9,0)" xlink:href="#aL"/></g><g id="k"><use transform="matrix(0.05,0,0,0.05,0,0)" xlink:href="#aL"/><use transform="matrix(0.05,0,0,0.05,10,0)" xlink:href="#aw"/><use transform="matrix(0.05,0,0,0.05,13.949999999999998,0)" xlink:href="#aC"/></g><path d="M232-93c-1 65-40 97-104 97C67 4 28-28 28-90v-158h33c8 89-33 224 67 224 102 0 64-133 71-224h33v155" id="aO"/><path d="M33 0v-248h34V0H33" id="aP"/><g id="l"><use transform="matrix(0.05,0,0,0.05,0,0)" xlink:href="#aO"/><use transform="matrix(0.05,0,0,0.05,12.950000000000001,0)" xlink:href="#aP"/></g><path d="M16-82v-28h88v28H16" id="aQ"/><g id="m"><use transform="matrix(0.05,0,0,0.05,0,0)" xlink:href="#aQ"/><use transform="matrix(0.05,0,0,0.05,5.95,0)" xlink:href="#aJ"/></g><path d="M205 0l-28-72H64L36 0H1l101-248h38L239 0h-34zm-38-99l-47-123c-12 45-31 82-46 123h93" id="aR"/><path d="M30-248c87 1 191-15 191 75 0 78-77 80-158 76V0H30v-248zm33 125c57 0 124 11 124-50 0-59-68-47-124-48v98" id="aS"/><g id="n"><use transform="matrix(0.05,0,0,0.05,0,0)" xlink:href="#aR"/><use transform="matrix(0.05,0,0,0.05,12,0)" xlink:href="#aS"/><use transform="matrix(0.05,0,0,0.05,24,0)" xlink:href="#aP"/></g><g id="o"><use transform="matrix(0.05,0,0,0.05,0,0)" xlink:href="#aR"/><use transform="matrix(0.05,0,0,0.05,12,0)" xlink:href="#aS"/><use transform="matrix(0.05,0,0,0.05,24,0)" xlink:href="#aP"/></g><g id="p"><use transform="matrix(0.05,0,0,0.05,0,0)" xlink:href="#aO"/><use transform="matrix(0.05,0,0,0.05,12.950000000000001,0)" xlink:href="#aP"/></g><path d="M30 0v-248h33v221h125V0H30" id="aT"/><g id="q"><use transform="matrix(0.05,0,0,0.05,0,0)" xlink:href="#aT"/><use transform="matrix(0.05,0,0,0.05,10,0)" xlink:href="#aC"/><use transform="matrix(0.05,0,0,0.05,20,0)" xlink:href="#aI"/><use transform="matrix(0.05,0,0,0.05,30,0)" xlink:href="#aC"/><use transform="matrix(0.05,0,0,0.05,40,0)" xlink:href="#aH"/><use transform="matrix(0.05,0,0,0.05,50,0)" xlink:href="#aL"/></g><g id="r"><use transform="matrix(0.05,0,0,0.05,0,0)" xlink:href="#aR"/><use transform="matrix(0.05,0,0,0.05,12,0)" xlink:href="#aS"/><use transform="matrix(0.05,0,0,0.05,24,0)" xlink:href="#aP"/></g><g id="s"><use transform="matrix(0.05,0,0,0.05,0,0)" xlink:href="#au"/><use transform="matrix(0.05,0,0,0.05,9,0)" xlink:href="#ay"/><use transform="matrix(0.05,0,0,0.05,19,0)" xlink:href="#as"/><use transform="matrix(0.05,0,0,0.05,24.95,0)" xlink:href="#as"/><use transform="matrix(0.05,0,0,0.05,30.899999999999995,0)" xlink:href="#aC"/><use transform="matrix(0.05,0,0,0.05,40.9,0)" xlink:href="#aH"/><use transform="matrix(0.05,0,0,0.05,50.9,0)" xlink:href="#aq"/><use transform="matrix(0.05,0,0,0.05,55.900000000000006,0)" xlink:href="#at"/><use transform="matrix(0.05,0,0,0.05,65.9,0)" xlink:href="#ap"/><use transform="matrix(0.05,0,0,0.05,74.9,0)" xlink:href="#aq"/><use transform="matrix(0.05,0,0,0.05,79.9,0)" xlink:href="#aC"/><use transform="matrix(0.05,0,0,0.05,89.9,0)" xlink:href="#aK"/><use transform="matrix(0.05,0,0,0.05,99.9,0)" xlink:href="#at"/><use transform="matrix(0.05,0,0,0.05,109.9,0)" xlink:href="#ap"/><use transform="matrix(0.05,0,0,0.05,118.9,0)" xlink:href="#aw"/><use transform="matrix(0.05,0,0,0.05,122.85000000000001,0)" xlink:href="#ax"/><use transform="matrix(0.05,0,0,0.05,137.8,0)" xlink:href="#ay"/><use transform="matrix(0.05,0,0,0.05,147.8,0)" xlink:href="#az"/><use transform="matrix(0.05,0,0,0.05,151.75,0)" xlink:href="#ar"/><use transform="matrix(0.05,0,0,0.05,161.75,0)" xlink:href="#aq"/><use transform="matrix(0.05,0,0,0.05,166.75,0)" xlink:href="#aC"/><use transform="matrix(0.05,0,0,0.05,176.75,0)" xlink:href="#aL"/></g><g id="t"><use transform="matrix(0.05,0,0,0.05,0,0)" xlink:href="#aK"/><use transform="matrix(0.05,0,0,0.05,10,0)" xlink:href="#as"/><use transform="matrix(0.05,0,0,0.05,15.949999999999998,0)" xlink:href="#aA"/><use transform="matrix(0.05,0,0,0.05,25.950000000000003,0)" xlink:href="#au"/><use transform="matrix(0.05,0,0,0.05,34.95,0)" xlink:href="#aC"/><use transform="matrix(0.05,0,0,0.05,44.95,0)" xlink:href="#ap"/><use transform="matrix(0.05,0,0,0.05,53.95,0)" xlink:href="#ap"/><use transform="matrix(0.05,0,0,0.05,62.95,0)" xlink:href="#at"/><use transform="matrix(0.05,0,0,0.05,72.95,0)" xlink:href="#aw"/><use transform="matrix(0.05,0,0,0.05,76.9,0)" xlink:href="#aL"/><use transform="matrix(0.05,0,0,0.05,86.9,0)" xlink:href="#aF"/></g><g id="u"><use transform="matrix(0.05,0,0,0.05,0,0)" xlink:href="#aK"/><use transform="matrix(0.05,0,0,0.05,10,0)" xlink:href="#as"/><use transform="matrix(0.05,0,0,0.05,15.949999999999998,0)" xlink:href="#aA"/><use transform="matrix(0.05,0,0,0.05,25.950000000000003,0)" xlink:href="#au"/><use transform="matrix(0.05,0,0,0.05,34.95,0)" xlink:href="#aC"/><use transform="matrix(0.05,0,0,0.05,44.95,0)" xlink:href="#ap"/><use transform="matrix(0.05,0,0,0.05,53.95,0)" xlink:href="#ap"/><use transform="matrix(0.05,0,0,0.05,62.95,0)" xlink:href="#aF"/></g><g id="v"><use transform="matrix(0.05,0,0,0.05,0,0)" xlink:href="#aG"/><use transform="matrix(0.05,0,0,0.05,10.5,0)" xlink:href="#aK"/><use transform="matrix(0.05,0,0,0.05,20.5,0)" xlink:href="#as"/><use transform="matrix(0.05,0,0,0.05,26.450000000000003,0)" xlink:href="#aA"/><use transform="matrix(0.05,0,0,0.05,36.45,0)" xlink:href="#au"/><use transform="matrix(0.05,0,0,0.05,45.45,0)" xlink:href="#aC"/><use transform="matrix(0.05,0,0,0.05,55.45,0)" xlink:href="#ap"/><use transform="matrix(0.05,0,0,0.05,64.45,0)" xlink:href="#ap"/><use transform="matrix(0.05,0,0,0.05,73.45,0)" xlink:href="#aJ"/><use transform="matrix(0.05,0,0,0.05,83.95,0)" xlink:href="#aM"/></g><g id="w"><use transform="matrix(0.05,0,0,0.05,0,0)" xlink:href="#aE"/><use transform="matrix(0.05,0,0,0.05,5,0)" xlink:href="#as"/><use transform="matrix(0.05,0,0,0.05,10.95,0)" xlink:href="#ar"/><use transform="matrix(0.05,0,0,0.05,20.95,0)" xlink:href="#ax"/><use transform="matrix(0.05,0,0,0.05,35.9,0)" xlink:href="#aC"/><use transform="matrix(0.05,0,0,0.05,45.9,0)" xlink:href="#aF"/></g><g id="x"><use transform="matrix(0.05,0,0,0.05,0,0)" xlink:href="#aG"/><use transform="matrix(0.05,0,0,0.05,10.5,0)" xlink:href="#aq"/><use transform="matrix(0.05,0,0,0.05,15.5,0)" xlink:href="#aC"/><use transform="matrix(0.05,0,0,0.05,25.5,0)" xlink:href="#as"/><use transform="matrix(0.05,0,0,0.05,31.450000000000003,0)" xlink:href="#ax"/><use transform="matrix(0.05,0,0,0.05,46.4,0)" xlink:href="#aJ"/></g><g id="y"><use transform="matrix(0.05,0,0,0.05,0,0)" xlink:href="#az"/><use transform="matrix(0.05,0,0,0.05,3.95,0)" xlink:href="#aw"/><use transform="matrix(0.05,0,0,0.05,7.9,0)" xlink:href="#ap"/><use transform="matrix(0.05,0,0,0.05,16.9,0)" xlink:href="#aq"/><use transform="matrix(0.05,0,0,0.05,21.9,0)" xlink:href="#aM"/></g><path d="M108 0H70L1-190h34L89-25l56-165h34" id="aU"/><path d="M115-194c53 0 69 39 70 98 0 66-23 100-70 100C84 3 66-7 56-30L54 0H23l1-261h32v101c10-23 28-34 59-34zm-8 174c40 0 45-34 45-75 0-40-5-75-45-74-42 0-51 32-51 76 0 43 10 73 51 73" id="aV"/><g id="z"><use transform="matrix(0.05,0,0,0.05,0,0)" xlink:href="#ar"/><use transform="matrix(0.05,0,0,0.05,10,0)" xlink:href="#aU"/><use transform="matrix(0.05,0,0,0.05,19,0)" xlink:href="#ar"/><use transform="matrix(0.05,0,0,0.05,29,0)" xlink:href="#aw"/><use transform="matrix(0.05,0,0,0.05,32.95,0)" xlink:href="#az"/><use transform="matrix(0.05,0,0,0.05,36.900000000000006,0)" xlink:href="#ar"/><use transform="matrix(0.05,0,0,0.05,46.900000000000006,0)" xlink:href="#aV"/><use transform="matrix(0.05,0,0,0.05,56.900000000000006,0)" xlink:href="#az"/><use transform="matrix(0.05,0,0,0.05,60.85,0)" xlink:href="#aC"/><use transform="matrix(0.05,0,0,0.05,70.85000000000001,0)" xlink:href="#at"/><use transform="matrix(0.05,0,0,0.05,80.85000000000001,0)" xlink:href="#ar"/><use transform="matrix(0.05,0,0,0.05,90.85000000000001,0)" xlink:href="#au"/><use transform="matrix(0.05,0,0,0.05,99.85000000000001,0)" xlink:href="#aq"/><use transform="matrix(0.05,0,0,0.05,104.85000000000001,0)" xlink:href="#aw"/><use transform="matrix(0.05,0,0,0.05,108.80000000000001,0)" xlink:href="#aA"/><use transform="matrix(0.05,0,0,0.05,118.80000000000001,0)" xlink:href="#aH"/><use transform="matrix(0.05,0,0,0.05,128.8,0)" xlink:href="#ap"/><use transform="matrix(0.05,0,0,0.05,137.8,0)" xlink:href="#aF"/></g><path d="M39-94c74 12-11 154 75 146v23c-44 4-70-10-70-52C44-23 55-84 6-82v-22c81 4-7-162 84-157h24v23c-82-15-2 131-75 144" id="aW"/><use transform="matrix(0.05,0,0,0.05,0,0)" xlink:href="#aW" id="A"/><g id="B"><use transform="matrix(0.05,0,0,0.05,0,0)" xlink:href="#ar"/><use transform="matrix(0.05,0,0,0.05,10,0)" xlink:href="#az"/><use transform="matrix(0.05,0,0,0.05,13.949999999999998,0)" xlink:href="#az"/></g><use transform="matrix(0.05,0,0,0.05,0,0)" xlink:href="#aF" id="C"/><g id="D"><use transform="matrix(0.05,0,0,0.05,0,0)" xlink:href="#aG"/><use transform="matrix(0.05,0,0,0.05,10.5,0)" xlink:href="#ar"/><use transform="matrix(0.05,0,0,0.05,20.5,0)" xlink:href="#aU"/><use transform="matrix(0.05,0,0,0.05,29.5,0)" xlink:href="#ar"/><use transform="matrix(0.05,0,0,0.05,39.5,0)" xlink:href="#aw"/><use transform="matrix(0.05,0,0,0.05,43.45,0)" xlink:href="#az"/><use transform="matrix(0.05,0,0,0.05,47.400000000000006,0)" xlink:href="#ar"/><use transform="matrix(0.05,0,0,0.05,57.400000000000006,0)" xlink:href="#aV"/><use transform="matrix(0.05,0,0,0.05,67.4,0)" xlink:href="#az"/><use transform="matrix(0.05,0,0,0.05,71.35000000000001,0)" xlink:href="#aC"/><use transform="matrix(0.05,0,0,0.05,81.35000000000001,0)" xlink:href="#at"/><use transform="matrix(0.05,0,0,0.05,91.35000000000001,0)" xlink:href="#ar"/><use transform="matrix(0.05,0,0,0.05,101.35000000000001,0)" xlink:href="#au"/><use transform="matrix(0.05,0,0,0.05,110.35000000000001,0)" xlink:href="#aq"/><use transform="matrix(0.05,0,0,0.05,115.35000000000001,0)" xlink:href="#aw"/><use transform="matrix(0.05,0,0,0.05,119.30000000000001,0)" xlink:href="#aA"/><use transform="matrix(0.05,0,0,0.05,129.3,0)" xlink:href="#aH"/><use transform="matrix(0.05,0,0,0.05,139.3,0)" xlink:href="#aJ"/></g><g id="E"><use transform="matrix(0.05,0,0,0.05,0,0)" xlink:href="#aL"/><use transform="matrix(0.05,0,0,0.05,10,0)" xlink:href="#aC"/><use transform="matrix(0.05,0,0,0.05,20,0)" xlink:href="#aE"/><use transform="matrix(0.05,0,0,0.05,25,0)" xlink:href="#ar"/><use transform="matrix(0.05,0,0,0.05,35,0)" xlink:href="#ay"/><use transform="matrix(0.05,0,0,0.05,45,0)" xlink:href="#az"/><use transform="matrix(0.05,0,0,0.05,48.95,0)" xlink:href="#aq"/></g><g id="F"><use transform="matrix(0.05,0,0,0.05,0,0)" xlink:href="#az"/><use transform="matrix(0.05,0,0,0.05,3.95,0)" xlink:href="#aw"/><use transform="matrix(0.05,0,0,0.05,7.9,0)" xlink:href="#ap"/><use transform="matrix(0.05,0,0,0.05,16.9,0)" xlink:href="#aq"/></g><path d="M76-40C78 24 84 88 6 75V52C86 64 9-79 80-94c-40-6-34-59-34-106 1-29-11-41-40-38v-23c44-4 70 10 70 52 0 47-12 108 38 105v22c-26 1-39 14-38 42" id="aX"/><use transform="matrix(0.05,0,0,0.05,0,0)" xlink:href="#aX" id="G"/><g id="H"><use transform="matrix(0.05,0,0,0.05,0,0)" xlink:href="#ap"/><use transform="matrix(0.05,0,0,0.05,9,0)" xlink:href="#aq"/><use transform="matrix(0.05,0,0,0.05,14,0)" xlink:href="#ar"/><use transform="matrix(0.05,0,0,0.05,24,0)" xlink:href="#aq"/><use transform="matrix(0.05,0,0,0.05,29,0)" xlink:href="#ay"/><use transform="matrix(0.05,0,0,0.05,39,0)" xlink:href="#ap"/><use transform="matrix(0.05,0,0,0.05,48,0)" xlink:href="#at"/><use transform="matrix(0.05,0,0,0.05,58,0)" xlink:href="#aC"/><use transform="matrix(0.05,0,0,0.05,68,0)" xlink:href="#aB"/><use transform="matrix(0.05,0,0,0.05,78,0)" xlink:href="#ay"/><use transform="matrix(0.05,0,0,0.05,88,0)" xlink:href="#aw"/><use transform="matrix(0.05,0,0,0.05,91.95,0)" xlink:href="#aU"/><use transform="matrix(0.05,0,0,0.05,100.95,0)" xlink:href="#aF"/></g><g id="I"><use transform="matrix(0.05,0,0,0.05,0,0)" xlink:href="#aG"/><use transform="matrix(0.05,0,0,0.05,10.5,0)" xlink:href="#ap"/><use transform="matrix(0.05,0,0,0.05,19.5,0)" xlink:href="#aq"/><use transform="matrix(0.05,0,0,0.05,24.5,0)" xlink:href="#ar"/><use transform="matrix(0.05,0,0,0.05,34.5,0)" xlink:href="#aq"/><use transform="matrix(0.05,0,0,0.05,39.5,0)" xlink:href="#ay"/><use transform="matrix(0.05,0,0,0.05,49.5,0)" xlink:href="#ap"/><use transform="matrix(0.05,0,0,0.05,58.5,0)" xlink:href="#at"/><use transform="matrix(0.05,0,0,0.05,68.5,0)" xlink:href="#ap"/><use transform="matrix(0.05,0,0,0.05,77.5,0)" xlink:href="#aq"/><use transform="matrix(0.05,0,0,0.05,82.5,0)" xlink:href="#ar"/><use transform="matrix(0.05,0,0,0.05,92.5,0)" xlink:href="#aq"/><use transform="matrix(0.05,0,0,0.05,97.5,0)" xlink:href="#aw"/><use transform="matrix(0.05,0,0,0.05,101.45,0)" xlink:href="#au"/><use transform="matrix(0.05,0,0,0.05,110.45,0)" xlink:href="#at"/><use transform="matrix(0.05,0,0,0.05,120.45,0)" xlink:href="#aC"/><use transform="matrix(0.05,0,0,0.05,130.45,0)" xlink:href="#aB"/><use transform="matrix(0.05,0,0,0.05,140.45,0)" xlink:href="#ay"/><use transform="matrix(0.05,0,0,0.05,150.45,0)" xlink:href="#aw"/><use transform="matrix(0.05,0,0,0.05,154.39999999999998,0)" xlink:href="#aU"/><use transform="matrix(0.05,0,0,0.05,163.39999999999998,0)" xlink:href="#ar"/><use transform="matrix(0.05,0,0,0.05,173.39999999999998,0)" xlink:href="#az"/><use transform="matrix(0.05,0,0,0.05,177.34999999999997,0)" xlink:href="#aC"/><use transform="matrix(0.05,0,0,0.05,187.34999999999997,0)" xlink:href="#aH"/><use transform="matrix(0.05,0,0,0.05,197.34999999999997,0)" xlink:href="#au"/><use transform="matrix(0.05,0,0,0.05,206.34999999999997,0)" xlink:href="#aC"/><use transform="matrix(0.05,0,0,0.05,216.34999999999997,0)" xlink:href="#aJ"/><use transform="matrix(0.05,0,0,0.05,226.84999999999997,0)" xlink:href="#aM"/></g><path d="M206 0h-36l-40-164L89 0H53L-1-190h32L70-26l43-164h34l41 164 42-164h31" id="aY"/><g id="J"><use transform="matrix(0.05,0,0,0.05,0,0)" xlink:href="#aH"/><use transform="matrix(0.05,0,0,0.05,10,0)" xlink:href="#aC"/><use transform="matrix(0.05,0,0,0.05,20,0)" xlink:href="#aY"/><use transform="matrix(0.05,0,0,0.05,32.95,0)" xlink:href="#at"/><use transform="matrix(0.05,0,0,0.05,42.95,0)" xlink:href="#ar"/><use transform="matrix(0.05,0,0,0.05,52.95,0)" xlink:href="#au"/><use transform="matrix(0.05,0,0,0.05,61.95,0)" xlink:href="#aq"/><use transform="matrix(0.05,0,0,0.05,66.95,0)" xlink:href="#aw"/><use transform="matrix(0.05,0,0,0.05,70.9,0)" xlink:href="#aA"/><use transform="matrix(0.05,0,0,0.05,80.9,0)" xlink:href="#aH"/><use transform="matrix(0.05,0,0,0.05,90.9,0)" xlink:href="#ap"/><use transform="matrix(0.05,0,0,0.05,99.9,0)" xlink:href="#aF"/></g><g id="K"><use transform="matrix(0.05,0,0,0.05,0,0)" xlink:href="#aG"/><use transform="matrix(0.05,0,0,0.05,10.5,0)" xlink:href="#ar"/><use transform="matrix(0.05,0,0,0.05,20.5,0)" xlink:href="#au"/><use transform="matrix(0.05,0,0,0.05,29.5,0)" xlink:href="#aq"/><use transform="matrix(0.05,0,0,0.05,34.5,0)" xlink:href="#aw"/><use transform="matrix(0.05,0,0,0.05,38.45,0)" xlink:href="#aA"/><use transform="matrix(0.05,0,0,0.05,48.45,0)" xlink:href="#aH"/><use transform="matrix(0.05,0,0,0.05,58.45,0)" xlink:href="#aJ"/></g><g id="L"><use transform="matrix(0.05,0,0,0.05,0,0)" xlink:href="#az"/><use transform="matrix(0.05,0,0,0.05,3.95,0)" xlink:href="#aw"/><use transform="matrix(0.05,0,0,0.05,7.9,0)" xlink:href="#ap"/><use transform="matrix(0.05,0,0,0.05,16.9,0)" xlink:href="#aq"/></g><g id="M"><use transform="matrix(0.05,0,0,0.05,0,0)" xlink:href="#ap"/><use transform="matrix(0.05,0,0,0.05,9,0)" xlink:href="#aw"/><use transform="matrix(0.05,0,0,0.05,12.949999999999998,0)" xlink:href="#ax"/><use transform="matrix(0.05,0,0,0.05,27.899999999999995,0)" xlink:href="#ay"/><use transform="matrix(0.05,0,0,0.05,37.9,0)" xlink:href="#az"/><use transform="matrix(0.05,0,0,0.05,41.85,0)" xlink:href="#ar"/><use transform="matrix(0.05,0,0,0.05,51.85,0)" xlink:href="#aq"/><use transform="matrix(0.05,0,0,0.05,56.85,0)" xlink:href="#aC"/><use transform="matrix(0.05,0,0,0.05,66.85,0)" xlink:href="#aL"/><use transform="matrix(0.05,0,0,0.05,76.85,0)" xlink:href="#at"/><use transform="matrix(0.05,0,0,0.05,86.85,0)" xlink:href="#aq"/><use transform="matrix(0.05,0,0,0.05,91.85,0)" xlink:href="#as"/><use transform="matrix(0.05,0,0,0.05,97.8,0)" xlink:href="#ar"/><use transform="matrix(0.05,0,0,0.05,107.80000000000001,0)" xlink:href="#au"/><use transform="matrix(0.05,0,0,0.05,116.80000000000001,0)" xlink:href="#aC"/></g><path d="M87 75C49 33 22-17 22-94c0-76 28-126 65-167h31c-38 41-64 92-64 168S80 34 118 75H87" id="aZ"/><path d="M185-189c-5-48-123-54-124 2 14 75 158 14 163 119 3 78-121 87-175 55-17-10-28-26-33-46l33-7c5 56 141 63 141-1 0-78-155-14-162-118-5-82 145-84 179-34 5 7 8 16 11 25" id="ba"/><path d="M127-220V0H93v-220H8v-28h204v28h-85" id="bb"/><path d="M33-261c38 41 65 92 65 168S71 34 33 75H2C39 34 66-17 66-93S39-220 2-261h31" id="bc"/><g id="N"><use transform="matrix(0.05,0,0,0.05,0,0)" xlink:href="#aZ"/><use transform="matrix(0.05,0,0,0.05,5.95,0)" xlink:href="#ba"/><use transform="matrix(0.05,0,0,0.05,17.95,0)" xlink:href="#bb"/><use transform="matrix(0.05,0,0,0.05,28.899999999999995,0)" xlink:href="#bc"/><use transform="matrix(0.05,0,0,0.05,34.85,0)" xlink:href="#aF"/></g><g id="O"><use transform="matrix(0.05,0,0,0.05,0,0)" xlink:href="#aC"/><use transform="matrix(0.05,0,0,0.05,10,0)" xlink:href="#aB"/><use transform="matrix(0.05,0,0,0.05,20,0)" xlink:href="#ay"/><use transform="matrix(0.05,0,0,0.05,30,0)" xlink:href="#aw"/><use transform="matrix(0.05,0,0,0.05,33.95,0)" xlink:href="#aU"/><use transform="matrix(0.05,0,0,0.05,42.95,0)" xlink:href="#ar"/><use transform="matrix(0.05,0,0,0.05,52.95,0)" xlink:href="#az"/><use transform="matrix(0.05,0,0,0.05,56.900000000000006,0)" xlink:href="#aC"/><use transform="matrix(0.05,0,0,0.05,66.9,0)" xlink:href="#aH"/><use transform="matrix(0.05,0,0,0.05,76.9,0)" xlink:href="#au"/><use transform="matrix(0.05,0,0,0.05,85.9,0)" xlink:href="#aC"/></g><g id="P"><use transform="matrix(0.05,0,0,0.05,0,0)" xlink:href="#ap"/><use transform="matrix(0.05,0,0,0.05,9,0)" xlink:href="#aq"/><use transform="matrix(0.05,0,0,0.05,14,0)" xlink:href="#ar"/><use transform="matrix(0.05,0,0,0.05,24,0)" xlink:href="#aq"/><use transform="matrix(0.05,0,0,0.05,29,0)" xlink:href="#aC"/></g><path d="M30 0v-248h187v28H63v79h144v27H63v87h162V0H30" id="bd"/><g id="Q"><use transform="matrix(0.05,0,0,0.05,0,0)" xlink:href="#aZ"/><use transform="matrix(0.05,0,0,0.05,5.95,0)" xlink:href="#bd"/><use transform="matrix(0.05,0,0,0.05,17.95,0)" xlink:href="#ba"/><use transform="matrix(0.05,0,0,0.05,29.950000000000003,0)" xlink:href="#bc"/><use transform="matrix(0.05,0,0,0.05,35.9,0)" xlink:href="#aF"/></g><g id="R"><use transform="matrix(0.05,0,0,0.05,0,0)" xlink:href="#aG"/><use transform="matrix(0.05,0,0,0.05,10.5,0)" xlink:href="#ap"/><use transform="matrix(0.05,0,0,0.05,19.5,0)" xlink:href="#aq"/><use transform="matrix(0.05,0,0,0.05,24.5,0)" xlink:href="#ar"/><use transform="matrix(0.05,0,0,0.05,34.5,0)" xlink:href="#aq"/><use transform="matrix(0.05,0,0,0.05,39.5,0)" xlink:href="#ay"/><use transform="matrix(0.05,0,0,0.05,49.5,0)" xlink:href="#ap"/><use transform="matrix(0.05,0,0,0.05,58.5,0)" xlink:href="#at"/><use transform="matrix(0.05,0,0,0.05,68.5,0)" xlink:href="#ap"/><use transform="matrix(0.05,0,0,0.05,77.5,0)" xlink:href="#aq"/><use transform="matrix(0.05,0,0,0.05,82.5,0)" xlink:href="#ar"/><use transform="matrix(0.05,0,0,0.05,92.5,0)" xlink:href="#aq"/><use transform="matrix(0.05,0,0,0.05,97.5,0)" xlink:href="#aw"/><use transform="matrix(0.05,0,0,0.05,101.45,0)" xlink:href="#au"/><use transform="matrix(0.05,0,0,0.05,110.45,0)" xlink:href="#at"/><use transform="matrix(0.05,0,0,0.05,120.45,0)" xlink:href="#aC"/><use transform="matrix(0.05,0,0,0.05,130.45,0)" xlink:href="#aB"/><use transform="matrix(0.05,0,0,0.05,140.45,0)" xlink:href="#ay"/><use transform="matrix(0.05,0,0,0.05,150.45,0)" xlink:href="#aw"/><use transform="matrix(0.05,0,0,0.05,154.39999999999998,0)" xlink:href="#aU"/><use transform="matrix(0.05,0,0,0.05,163.39999999999998,0)" xlink:href="#ar"/><use transform="matrix(0.05,0,0,0.05,173.39999999999998,0)" xlink:href="#az"/><use transform="matrix(0.05,0,0,0.05,177.34999999999997,0)" xlink:href="#aC"/><use transform="matrix(0.05,0,0,0.05,187.34999999999997,0)" xlink:href="#aH"/><use transform="matrix(0.05,0,0,0.05,197.34999999999997,0)" xlink:href="#au"/><use transform="matrix(0.05,0,0,0.05,206.34999999999997,0)" xlink:href="#aC"/><use transform="matrix(0.05,0,0,0.05,216.34999999999997,0)" xlink:href="#aJ"/></g><g id="S"><use transform="matrix(0.05,0,0,0.05,0,0)" xlink:href="#aO"/><use transform="matrix(0.05,0,0,0.05,12.950000000000001,0)" xlink:href="#aP"/></g><path d="M141 0L90-78 38 0H4l68-98-65-92h35l48 74 47-74h35l-64 92 68 98h-35" id="be"/><g id="T"><use transform="matrix(0.05,0,0,0.05,0,0)" xlink:href="#aH"/><use transform="matrix(0.05,0,0,0.05,10,0)" xlink:href="#aC"/><use transform="matrix(0.05,0,0,0.05,20,0)" xlink:href="#be"/><use transform="matrix(0.05,0,0,0.05,29,0)" xlink:href="#aq"/><use transform="matrix(0.05,0,0,0.05,34,0)" xlink:href="#at"/><use transform="matrix(0.05,0,0,0.05,44,0)" xlink:href="#ap"/><use transform="matrix(0.05,0,0,0.05,53,0)" xlink:href="#aq"/><use transform="matrix(0.05,0,0,0.05,58,0)" xlink:href="#aC"/><use transform="matrix(0.05,0,0,0.05,68,0)" xlink:href="#aK"/><use transform="matrix(0.05,0,0,0.05,78,0)" xlink:href="#at"/><use transform="matrix(0.05,0,0,0.05,88,0)" xlink:href="#ap"/><use transform="matrix(0.05,0,0,0.05,97,0)" xlink:href="#aw"/><use transform="matrix(0.05,0,0,0.05,100.95,0)" xlink:href="#ax"/><use transform="matrix(0.05,0,0,0.05,115.9,0)" xlink:href="#ay"/><use transform="matrix(0.05,0,0,0.05,125.9,0)" xlink:href="#az"/><use transform="matrix(0.05,0,0,0.05,129.85,0)" xlink:href="#ar"/><use transform="matrix(0.05,0,0,0.05,139.85,0)" xlink:href="#aq"/><use transform="matrix(0.05,0,0,0.05,144.85,0)" xlink:href="#aC"/><use transform="matrix(0.05,0,0,0.05,154.85,0)" xlink:href="#aL"/></g><g id="U"><use transform="matrix(0.05,0,0,0.05,0,0)" xlink:href="#ar"/><use transform="matrix(0.05,0,0,0.05,10,0)" xlink:href="#au"/><use transform="matrix(0.05,0,0,0.05,19,0)" xlink:href="#aq"/><use transform="matrix(0.05,0,0,0.05,24,0)" xlink:href="#aw"/><use transform="matrix(0.05,0,0,0.05,27.950000000000003,0)" xlink:href="#aA"/><use transform="matrix(0.05,0,0,0.05,37.95,0)" xlink:href="#aH"/><use transform="matrix(0.05,0,0,0.05,47.95,0)" xlink:href="#aF"/></g><g id="V"><use transform="matrix(0.05,0,0,0.05,0,0)" xlink:href="#aG"/><use transform="matrix(0.05,0,0,0.05,10.5,0)" xlink:href="#ap"/><use transform="matrix(0.05,0,0,0.05,19.5,0)" xlink:href="#aC"/><use transform="matrix(0.05,0,0,0.05,29.5,0)" xlink:href="#az"/><use transform="matrix(0.05,0,0,0.05,33.45,0)" xlink:href="#aC"/><use transform="matrix(0.05,0,0,0.05,43.45,0)" xlink:href="#au"/><use transform="matrix(0.05,0,0,0.05,52.45,0)" xlink:href="#aq"/><use transform="matrix(0.05,0,0,0.05,57.45,0)" xlink:href="#aC"/><use transform="matrix(0.05,0,0,0.05,67.45,0)" xlink:href="#aL"/><use transform="matrix(0.05,0,0,0.05,77.45,0)" xlink:href="#at"/><use transform="matrix(0.05,0,0,0.05,87.45,0)" xlink:href="#ar"/><use transform="matrix(0.05,0,0,0.05,97.45,0)" xlink:href="#au"/><use transform="matrix(0.05,0,0,0.05,106.45,0)" xlink:href="#aq"/><use transform="matrix(0.05,0,0,0.05,111.45,0)" xlink:href="#aw"/><use transform="matrix(0.05,0,0,0.05,115.4,0)" xlink:href="#aA"/><use transform="matrix(0.05,0,0,0.05,125.4,0)" xlink:href="#aH"/><use transform="matrix(0.05,0,0,0.05,135.4,0)" xlink:href="#aJ"/></g><g id="W"><use transform="matrix(0.05,0,0,0.05,0,0)" xlink:href="#aK"/><use transform="matrix(0.05,0,0,0.05,10,0)" xlink:href="#as"/><use transform="matrix(0.05,0,0,0.05,15.949999999999998,0)" xlink:href="#aA"/><use transform="matrix(0.05,0,0,0.05,25.950000000000003,0)" xlink:href="#au"/><use transform="matrix(0.05,0,0,0.05,34.95,0)" xlink:href="#aC"/><use transform="matrix(0.05,0,0,0.05,44.95,0)" xlink:href="#ap"/><use transform="matrix(0.05,0,0,0.05,53.95,0)" xlink:href="#ap"/><use transform="matrix(0.05,0,0,0.05,62.95,0)" xlink:href="#at"/><use transform="matrix(0.05,0,0,0.05,72.95,0)" xlink:href="#aw"/><use transform="matrix(0.05,0,0,0.05,76.9,0)" xlink:href="#aL"/></g><g id="X"><use transform="matrix(0.05,0,0,0.05,0,0)" xlink:href="#aw"/><use transform="matrix(0.05,0,0,0.05,3.95,0)" xlink:href="#ap"/></g><g id="Y"><use transform="matrix(0.05,0,0,0.05,0,0)" xlink:href="#ar"/><use transform="matrix(0.05,0,0,0.05,10,0)" xlink:href="#aq"/><use transform="matrix(0.05,0,0,0.05,15,0)" xlink:href="#aq"/><use transform="matrix(0.05,0,0,0.05,20,0)" xlink:href="#ar"/><use transform="matrix(0.05,0,0,0.05,30,0)" xlink:href="#au"/><use transform="matrix(0.05,0,0,0.05,39,0)" xlink:href="#av"/><use transform="matrix(0.05,0,0,0.05,48,0)" xlink:href="#aC"/><use transform="matrix(0.05,0,0,0.05,58,0)" xlink:href="#aL"/></g><g id="Z"><use transform="matrix(0.05,0,0,0.05,0,0)" xlink:href="#aK"/><use transform="matrix(0.05,0,0,0.05,10,0)" xlink:href="#as"/><use transform="matrix(0.05,0,0,0.05,15.949999999999998,0)" xlink:href="#aA"/><use transform="matrix(0.05,0,0,0.05,25.950000000000003,0)" xlink:href="#au"/><use transform="matrix(0.05,0,0,0.05,34.95,0)" xlink:href="#aC"/><use transform="matrix(0.05,0,0,0.05,44.95,0)" xlink:href="#ap"/><use transform="matrix(0.05,0,0,0.05,53.95,0)" xlink:href="#ap"/></g><g id="aa"><use transform="matrix(0.05,0,0,0.05,0,0)" xlink:href="#ba"/><use transform="matrix(0.05,0,0,0.05,12,0)" xlink:href="#bb"/><use transform="matrix(0.05,0,0,0.05,20.950000000000003,0)" xlink:href="#aF"/></g><g id="ab"><use transform="matrix(0.05,0,0,0.05,0,0)" xlink:href="#ba"/><use transform="matrix(0.05,0,0,0.05,12,0)" xlink:href="#bb"/></g><path d="M198-261c85 0 136 45 136 128 0 61-22 111-78 115-29 2-39-18-37-44-12 23-32 44-66 44-41 0-58-28-58-68 0-60 30-105 88-108 29-1 43 15 54 32l7-28h28c-9 45-23 84-27 134-1 11 6 17 14 16 39-4 51-48 51-92 0-69-42-107-112-107-93 0-145 59-145 153C53-15 94 26 168 27c43 0 78-13 106-28l9 19c-30 18-67 32-115 32C79 50 28-1 28-86c0-107 62-175 170-175zM158-41c46 0 70-43 70-90 0-26-17-40-43-40-44 0-59 41-61 85-1 26 9 45 34 45" id="bf"/><use transform="matrix(0.05,0,0,0.05,0,0)" xlink:href="#bf" id="ac"/><g id="ad"><use transform="matrix(0.05,0,0,0.05,0,0)" xlink:href="#aH"/><use transform="matrix(0.05,0,0,0.05,10,0)" xlink:href="#aC"/><use transform="matrix(0.05,0,0,0.05,20,0)" xlink:href="#aY"/><use transform="matrix(0.05,0,0,0.05,32.95,0)" xlink:href="#at"/><use transform="matrix(0.05,0,0,0.05,42.95,0)" xlink:href="#ar"/><use transform="matrix(0.05,0,0,0.05,52.95,0)" xlink:href="#au"/><use transform="matrix(0.05,0,0,0.05,61.95,0)" xlink:href="#aq"/><use transform="matrix(0.05,0,0,0.05,66.95,0)" xlink:href="#aw"/><use transform="matrix(0.05,0,0,0.05,70.9,0)" xlink:href="#aA"/><use transform="matrix(0.05,0,0,0.05,80.9,0)" xlink:href="#aH"/><use transform="matrix(0.05,0,0,0.05,90.9,0)" xlink:href="#ap"/><use transform="matrix(0.05,0,0,0.05,99.9,0)" xlink:href="#aM"/></g><g id="ae"><use transform="matrix(0.05,0,0,0.05,0,0)" xlink:href="#bd"/><use transform="matrix(0.05,0,0,0.05,12,0)" xlink:href="#ba"/><use transform="matrix(0.05,0,0,0.05,24,0)" xlink:href="#aF"/></g><g id="af"><use transform="matrix(0.05,0,0,0.05,0,0)" xlink:href="#ap"/><use transform="matrix(0.05,0,0,0.05,9,0)" xlink:href="#aq"/><use transform="matrix(0.05,0,0,0.05,14,0)" xlink:href="#ar"/><use transform="matrix(0.05,0,0,0.05,24,0)" xlink:href="#aq"/><use transform="matrix(0.05,0,0,0.05,29,0)" xlink:href="#ay"/><use transform="matrix(0.05,0,0,0.05,39,0)" xlink:href="#ap"/><use transform="matrix(0.05,0,0,0.05,48,0)" xlink:href="#at"/><use transform="matrix(0.05,0,0,0.05,58,0)" xlink:href="#aC"/><use transform="matrix(0.05,0,0,0.05,68,0)" xlink:href="#aB"/><use transform="matrix(0.05,0,0,0.05,78,0)" xlink:href="#ay"/><use transform="matrix(0.05,0,0,0.05,88,0)" xlink:href="#aw"/><use transform="matrix(0.05,0,0,0.05,91.95,0)" xlink:href="#aU"/></g><g id="ag"><use transform="matrix(0.05,0,0,0.05,0,0)" xlink:href="#au"/><use transform="matrix(0.05,0,0,0.05,9,0)" xlink:href="#ay"/><use transform="matrix(0.05,0,0,0.05,19,0)" xlink:href="#as"/><use transform="matrix(0.05,0,0,0.05,24.95,0)" xlink:href="#as"/><use transform="matrix(0.05,0,0,0.05,30.899999999999995,0)" xlink:href="#aC"/><use transform="matrix(0.05,0,0,0.05,40.9,0)" xlink:href="#aH"/><use transform="matrix(0.05,0,0,0.05,50.9,0)" xlink:href="#aq"/><use transform="matrix(0.05,0,0,0.05,55.900000000000006,0)" xlink:href="#at"/><use transform="matrix(0.05,0,0,0.05,65.9,0)" xlink:href="#ap"/><use transform="matrix(0.05,0,0,0.05,74.9,0)" xlink:href="#aq"/><use transform="matrix(0.05,0,0,0.05,79.9,0)" xlink:href="#aC"/><use transform="matrix(0.05,0,0,0.05,89.9,0)" xlink:href="#aK"/><use transform="matrix(0.05,0,0,0.05,99.9,0)" xlink:href="#at"/><use transform="matrix(0.05,0,0,0.05,109.9,0)" xlink:href="#ar"/><use transform="matrix(0.05,0,0,0.05,119.9,0)" xlink:href="#aq"/><use transform="matrix(0.05,0,0,0.05,124.9,0)" xlink:href="#aq"/><use transform="matrix(0.05,0,0,0.05,129.9,0)" xlink:href="#ar"/><use transform="matrix(0.05,0,0,0.05,139.9,0)" xlink:href="#au"/><use transform="matrix(0.05,0,0,0.05,148.9,0)" xlink:href="#av"/><use transform="matrix(0.05,0,0,0.05,157.9,0)" xlink:href="#aC"/><use transform="matrix(0.05,0,0,0.05,167.9,0)" xlink:href="#aL"/></g><g id="ah"><use transform="matrix(0.05,0,0,0.05,0,0)" xlink:href="#au"/><use transform="matrix(0.05,0,0,0.05,9,0)" xlink:href="#ay"/><use transform="matrix(0.05,0,0,0.05,19,0)" xlink:href="#as"/><use transform="matrix(0.05,0,0,0.05,24.95,0)" xlink:href="#as"/><use transform="matrix(0.05,0,0,0.05,30.899999999999995,0)" xlink:href="#aC"/><use transform="matrix(0.05,0,0,0.05,40.9,0)" xlink:href="#aH"/><use transform="matrix(0.05,0,0,0.05,50.9,0)" xlink:href="#aq"/><use transform="matrix(0.05,0,0,0.05,55.900000000000006,0)" xlink:href="#at"/><use transform="matrix(0.05,0,0,0.05,65.9,0)" xlink:href="#ar"/><use transform="matrix(0.05,0,0,0.05,75.9,0)" xlink:href="#au"/><use transform="matrix(0.05,0,0,0.05,84.9,0)" xlink:href="#aq"/><use transform="matrix(0.05,0,0,0.05,89.9,0)" xlink:href="#aw"/><use transform="matrix(0.05,0,0,0.05,93.85000000000001,0)" xlink:href="#aA"/><use transform="matrix(0.05,0,0,0.05,103.85000000000001,0)" xlink:href="#aH"/><use transform="matrix(0.05,0,0,0.05,113.85000000000001,0)" xlink:href="#at"/><use transform="matrix(0.05,0,0,0.05,123.85000000000001,0)" xlink:href="#aw"/><use transform="matrix(0.05,0,0,0.05,127.80000000000001,0)" xlink:href="#aL"/><use transform="matrix(0.05,0,0,0.05,137.8,0)" xlink:href="#aF"/></g><path d="M137-103V0h-34v-103L8-248h37l75 118 75-118h37" id="bg"/><g id="ai"><use transform="matrix(0.05,0,0,0.05,0,0)" xlink:href="#bg"/><use transform="matrix(0.05,0,0,0.05,10.35,0)" xlink:href="#aC"/><use transform="matrix(0.05,0,0,0.05,20.35,0)" xlink:href="#ap"/></g><path d="M190 0L58-211 59 0H30v-248h39L202-35l-2-213h31V0h-41" id="bh"/><g id="aj"><use transform="matrix(0.05,0,0,0.05,0,0)" xlink:href="#bh"/><use transform="matrix(0.05,0,0,0.05,12.950000000000001,0)" xlink:href="#aA"/></g><g id="ak"><use transform="matrix(0.05,0,0,0.05,0,0)" xlink:href="#aH"/><use transform="matrix(0.05,0,0,0.05,10,0)" xlink:href="#aC"/><use transform="matrix(0.05,0,0,0.05,20,0)" xlink:href="#aY"/><use transform="matrix(0.05,0,0,0.05,32.95,0)" xlink:href="#at"/><use transform="matrix(0.05,0,0,0.05,42.95,0)" xlink:href="#ar"/><use transform="matrix(0.05,0,0,0.05,52.95,0)" xlink:href="#au"/><use transform="matrix(0.05,0,0,0.05,61.95,0)" xlink:href="#aq"/><use transform="matrix(0.05,0,0,0.05,66.95,0)" xlink:href="#aw"/><use transform="matrix(0.05,0,0,0.05,70.9,0)" xlink:href="#aA"/><use transform="matrix(0.05,0,0,0.05,80.9,0)" xlink:href="#aH"/><use transform="matrix(0.05,0,0,0.05,90.9,0)" xlink:href="#ap"/></g><g id="al"><use transform="matrix(0.05,0,0,0.05,0,0)" xlink:href="#aw"/><use transform="matrix(0.05,0,0,0.05,3.95,0)" xlink:href="#aE"/></g><path d="M33 0v-38h34V0H33" id="bi"/><g id="am"><use transform="matrix(0.05,0,0,0.05,0,0)" xlink:href="#bd"/><use transform="matrix(0.05,0,0,0.05,12,0)" xlink:href="#ba"/><use transform="matrix(0.05,0,0,0.05,24,0)" xlink:href="#bi"/><use transform="matrix(0.05,0,0,0.05,29,0)" xlink:href="#ap"/><use transform="matrix(0.05,0,0,0.05,38,0)" xlink:href="#aq"/><use transform="matrix(0.05,0,0,0.05,43,0)" xlink:href="#ar"/><use transform="matrix(0.05,0,0,0.05,53,0)" xlink:href="#aq"/><use transform="matrix(0.05,0,0,0.05,58,0)" xlink:href="#ay"/><use transform="matrix(0.05,0,0,0.05,68,0)" xlink:href="#ap"/></g><path d="M18-150v-26h174v26H18zm0 90v-26h174v26H18" id="bj"/><use transform="matrix(0.05,0,0,0.05,0,0)" xlink:href="#bj" id="an"/><g id="ao"><use transform="matrix(0.05,0,0,0.05,0,0)" xlink:href="#aC"/><use transform="matrix(0.05,0,0,0.05,10,0)" xlink:href="#aB"/><use transform="matrix(0.05,0,0,0.05,20,0)" xlink:href="#ay"/><use transform="matrix(0.05,0,0,0.05,30,0)" xlink:href="#aw"/><use transform="matrix(0.05,0,0,0.05,33.95,0)" xlink:href="#aU"/><use transform="matrix(0.05,0,0,0.05,42.95,0)" xlink:href="#ar"/><use transform="matrix(0.05,0,0,0.05,52.95,0)" xlink:href="#az"/><use transform="matrix(0.05,0,0,0.05,56.900000000000006,0)" xlink:href="#aC"/><use transform="matrix(0.05,0,0,0.05,66.9,0)" xlink:href="#aH"/><use transform="matrix(0.05,0,0,0.05,76.9,0)" xlink:href="#au"/><use transform="matrix(0.05,0,0,0.05,85.9,0)" xlink:href="#aC"/></g></defs></g></svg>