<svg xmlns="http://www.w3.org/2000/svg" xmlns:xlink="http://www.w3.org/1999/xlink" xmlns:lucid="lucid" width="900" height="818"><g transform="translate(-360 -720)" lucid:page-tab-id="0_0"><path d="M0 0h1870.4v2582.4H0z" fill="#fff"/><path d="M694.67 1458h240v60h-240z" fill="none"/><path d="M655.2 840c-11.05 0-20 8.95-20 20v60c0 11.05 8.95 20 20 20h160c11.05 0 20-8.95 20-20v-60c0-11.05-8.95-20-20-20z" stroke="#000" stroke-width="2" fill="#ff8f80"/><path d="M635.2 884h200" stroke="#000" stroke-width="2" fill="none"/><use xlink:href="#a" transform="matrix(1,0,0,1,675.1999999999999,840) translate(-15.400000000000006 25.6)"/><use xlink:href="#b" transform="matrix(1,0,0,1,655.1999999999999,900) translate(3.625 15.6)"/><use xlink:href="#c" transform="matrix(1,0,0,1,655.1999999999999,900) translate(91.47500000000001 15.6)"/><path d="M1200 1060c0 11.05-8.95 20-20 20s-20-8.95-20-20 8.95-20 20-20 20 8.95 20 20z" stroke="#000" stroke-width="2" fill="#fff"/><path d="M1165.86 1045.86l28.28 28.28m0-28.28l-28.28 28.28" stroke="#000" stroke-width="2" fill="none"/><path d="M660 1320c-11.05 0-20 8.95-20 20v60c0 11.05 8.95 20 20 20h160c11.05 0 20-8.95 20-20v-60c0-11.05-8.95-20-20-20z" stroke="#000" stroke-width="2" fill="#ff8f80"/><path d="M640 1364h200" stroke="#000" stroke-width="2" fill="none"/><use xlink:href="#d" transform="matrix(1,0,0,1,680,1320) translate(20.5 25.6)"/><use xlink:href="#e" transform="matrix(1,0,0,1,660,1380) translate(48.05 15.6)"/><use xlink:href="#f" transform="matrix(1,0,0,1,660,1380) translate(72 15.6)"/><path d="M1036 1280c-19.88 0-36 16.12-36 36v108c0 19.88 16.12 36 36 36h168c19.88 0 36-16.12 36-36v-108c0-19.88-16.12-36-36-36z" stroke="#000" stroke-width="2" fill="#c1e4f7"/><path d="M1000 1324h240" stroke="#000" stroke-width="2" fill="none"/><use xlink:href="#g" transform="matrix(1,0,0,1,1048,1280) translate(22.049999999999997 25.6)"/><use xlink:href="#e" transform="matrix(1,0,0,1,1024,1340) translate(61.55 23.19999999999999)"/><use xlink:href="#h" transform="matrix(1,0,0,1,1024,1340) translate(85.5 23.19999999999999)"/><use xlink:href="#i" transform="matrix(1,0,0,1,1024,1340) translate(15.049999999999997 44.79999999999999)"/><use xlink:href="#j" transform="matrix(1,0,0,1,1024,1340) translate(88 44.79999999999999)"/><use xlink:href="#k" transform="matrix(1,0,0,1,1024,1340) translate(23.650000000000006 66.39999999999999)"/><use xlink:href="#l" transform="matrix(1,0,0,1,1024,1340) translate(79.55000000000001 66.39999999999999)"/><use xlink:href="#m" transform="matrix(1,0,0,1,1024,1340) translate(141.45 66.39999999999999)"/><use xlink:href="#n" transform="matrix(1,0,0,1,1024,1340) translate(2.125 88)"/><use xlink:href="#f" transform="matrix(1,0,0,1,1024,1340) translate(149.925 88)"/><path d="M842 1370h138.5" stroke="#000" stroke-width="2" fill="none"/><path d="M842.03 1371H841v-2h1.03z"/><path d="M995.76 1370l-14.26 4.64v-9.28z" stroke="#000" stroke-width="2"/><path d="M735.2 1000l80 60-80 60-80-60z" stroke="#000" stroke-width="2" fill="#c7e8ac"/><use xlink:href="#o" transform="matrix(1,0,0,1,660.1999999999999,1005) translate(29.105 45.3375)"/><use xlink:href="#p" transform="matrix(1,0,0,1,660.1999999999999,1005) translate(43.055 45.3375)"/><use xlink:href="#q" transform="matrix(1,0,0,1,660.1999999999999,1005) translate(29.029999999999998 66.9375)"/><use xlink:href="#r" transform="matrix(1,0,0,1,660.1999999999999,1005) translate(100.98 66.9375)"/><use xlink:href="#s" transform="matrix(1,0,0,1,660.1999999999999,1005) translate(51.005 88.53750000000001)"/><path d="M735.2 942v38.25" stroke="#000" stroke-width="2" fill="none"/><path d="M736.2 942.03h-2V941h2z"/><path d="M735.2 995.5l-4.64-14.25h9.28z" stroke="#000" stroke-width="2"/><path d="M856.46 1061h-38.6v-2h38.6zm61.54 0h-38.6v-2H918z"/><path d="M817.9 1061h-2.37l1.34-1-1.34-1h2.36zM919 1061h-1.03v-2H919z"/><use xlink:href="#t" transform="matrix(1,0,0,1,856.4583333333333,1049.2) translate(0 14.4)"/><path d="M1082 1060h58.5" stroke="#000" stroke-width="2" fill="none"/><path d="M1082.03 1061H1081v-2h1.03z"/><path d="M1155.76 1060l-14.26 4.64v-9.28z" stroke="#000" stroke-width="2"/><path d="M655.2 1180h160v60h-160z" stroke="#000" stroke-width="2" fill="#c7e8ac"/><use xlink:href="#u" transform="matrix(1,0,0,1,660.1999999999999,1185) translate(3.4499999999999886 30.025)"/><use xlink:href="#v" transform="matrix(1,0,0,1,660.1999999999999,1185) translate(67.64999999999999 30.025)"/><path d="M736.2 1139.33h-2v-17.08h2z"/><path d="M736.2 1122.28h-2v-1.78l1 .75 1-.75zM735.2 1175.76l-4.64-14.26h9.28z"/><path d="M735.2 1179l-5.87-18.08h11.74zm-3.26-16.5l3.26 10.03 3.26-10.03z"/><use xlink:href="#w" transform="matrix(1,0,0,1,720.525,1139.325) translate(0 14.4)"/><path d="M735.2 1242v58.5" stroke="#000" stroke-width="2" fill="none"/><path d="M736.2 1242.03h-2V1241h2z"/><path d="M735.2 1315.76l-4.64-14.26h9.28z" stroke="#000" stroke-width="2"/><path d="M1120 1278v-68H834.7" stroke="#000" stroke-width="2" fill="none"/><path d="M1121 1279h-2v-1.03h2z"/><path d="M819.44 1210l14.26-4.64v9.28z" stroke="#000" stroke-width="2"/><path d="M735.2 820.5V782" stroke="#000" stroke-width="2" fill="none"/><path d="M735.2 835.76l-4.64-14.26h9.28z" stroke="#000" stroke-width="2"/><path d="M735.16 781l1.04-.03v1.06h-2v-1.15z"/><path d="M755.2 760c0 11.05-8.95 20-20 20s-20-8.95-20-20 8.95-20 20-20 20 8.95 20 20z" stroke="#000" stroke-width="2"/><path d="M386 1195c-3.3 0-6 2.7-6 6v18c0 3.3 2.7 6 6 6h148c3.3 0 6-2.7 6-6v-18c0-3.3-2.7-6-6-6z" stroke="#000" stroke-width="2" fill="#ff8f80"/><use xlink:href="#x" transform="matrix(1,0,0,1,388,1203) translate(60.025 14.4)"/><path d="M386 1293.2c-3.3 0-6 2.7-6 6v18c0 3.3 2.7 6 6 6h148c3.3 0 6-2.7 6-6v-18c0-3.3-2.7-6-6-6z" stroke="#000" stroke-width="2" fill="#c1e4f7"/><g><use xlink:href="#y" transform="matrix(1,0,0,1,388,1301.1999999999998) translate(58.025 14.4)"/></g><path d="M480 1380c0 11.05-8.95 20-20 20s-20-8.95-20-20 8.95-20 20-20 20 8.95 20 20z" stroke="#000" stroke-width="2" fill="#fff"/><path d="M445.86 1365.86l28.28 28.28m0-28.28l-28.28 28.28" stroke="#000" stroke-width="2" fill="none"/><path d="M928 1040c-4.42 0-8 3.58-8 8v24c0 4.42 3.58 8 8 8h144c4.42 0 8-3.58 8-8v-24c0-4.42-3.58-8-8-8z" stroke="#000" stroke-width="2" fill="#c1e4f7"/><g><use xlink:href="#z" transform="matrix(1,0,0,1,928,1048) translate(8.024999999999999 15.6)"/></g><path d="M653.2 1210h-93.7" stroke="#000" stroke-width="2" fill="none"/><path d="M654.2 1211h-1.03v-2h1.03z"/><path d="M544.24 1210l14.26-4.64v9.28z" stroke="#000" stroke-width="2"/><path d="M460 1227v46.7" stroke="#000" stroke-width="2" fill="none"/><path d="M461 1227.03h-2V1226h2z"/><path d="M460 1288.96l-4.64-14.26h9.28z" stroke="#000" stroke-width="2"/><path d="M460 1325.2v15.3" stroke="#000" stroke-width="2" fill="none"/><path d="M461 1325.23h-2v-1.03h2z"/><path d="M460 1355.76l-4.64-14.26h9.28z" stroke="#000" stroke-width="2"/><defs><path d="M135-143c-3-34-86-38-87 0 15 53 115 12 119 90S17 21 10-45l28-5c4 36 97 45 98 0-10-56-113-15-118-90-4-57 82-63 122-42 12 7 21 19 24 35" id="A"/><path d="M59-47c-2 24 18 29 38 22v24C64 9 27 4 27-40v-127H5v-23h24l9-43h21v43h35v23H59v120" id="B"/><path d="M141-36C126-15 110 5 73 4 37 3 15-17 15-53c-1-64 63-63 125-63 3-35-9-54-41-54-24 1-41 7-42 31l-33-3c5-37 33-52 76-52 45 0 72 20 72 64v82c-1 20 7 32 28 27v20c-31 9-61-2-59-35zM48-53c0 20 12 33 32 33 41-3 63-29 60-74-43 2-92-5-92 41" id="C"/><path d="M114-163C36-179 61-72 57 0H25l-1-190h30c1 12-1 29 2 39 6-27 23-49 58-41v29" id="D"/><path d="M-5 72V49h209v23H-5" id="E"/><path d="M85-194c31 0 48 13 60 33l-1-100h32l1 261h-30c-2-10 0-23-3-31C134-8 116 4 85 4 32 4 16-35 15-94c0-66 23-100 70-100zm9 24c-40 0-46 34-46 75 0 40 6 74 45 74 42 0 51-32 51-76 0-42-9-74-50-73" id="F"/><path d="M24-231v-30h32v30H24zM24 0v-190h32V0H24" id="G"/><path d="M115-194c55 1 70 41 70 98S169 2 115 4C84 4 66-9 55-30l1 105H24l-1-265h31l2 30c10-21 28-34 59-34zm-8 174c40 0 45-34 45-75s-6-73-45-74c-42 0-51 32-51 76 0 43 10 73 51 73" id="H"/><path d="M24 0v-261h32V0H24" id="I"/><path d="M179-190L93 31C79 59 56 82 12 73V49c39 6 53-20 64-50L1-190h34L92-34l54-156h33" id="J"/><path d="M96-169c-40 0-48 33-48 73s9 75 48 75c24 0 41-14 43-38l32 2c-6 37-31 61-74 61-59 0-76-41-82-99-10-93 101-131 147-64 4 7 5 14 7 22l-32 3c-4-21-16-35-41-35" id="K"/><path d="M100-194c63 0 86 42 84 106H49c0 40 14 67 53 68 26 1 43-12 49-29l28 8c-11 28-37 45-77 45C44 4 14-33 15-96c1-61 26-98 85-98zm52 81c6-60-76-77-97-28-3 7-6 17-6 28h103" id="L"/><g id="a"><use transform="matrix(0.05,0,0,0.05,0,0)" xlink:href="#A"/><use transform="matrix(0.05,0,0,0.05,9,0)" xlink:href="#B"/><use transform="matrix(0.05,0,0,0.05,14,0)" xlink:href="#C"/><use transform="matrix(0.05,0,0,0.05,24,0)" xlink:href="#D"/><use transform="matrix(0.05,0,0,0.05,29.950000000000003,0)" xlink:href="#B"/><use transform="matrix(0.05,0,0,0.05,34.95,0)" xlink:href="#E"/><use transform="matrix(0.05,0,0,0.05,44.95,0)" xlink:href="#F"/><use transform="matrix(0.05,0,0,0.05,54.95,0)" xlink:href="#G"/><use transform="matrix(0.05,0,0,0.05,58.900000000000006,0)" xlink:href="#A"/><use transform="matrix(0.05,0,0,0.05,67.9,0)" xlink:href="#H"/><use transform="matrix(0.05,0,0,0.05,77.9,0)" xlink:href="#I"/><use transform="matrix(0.05,0,0,0.05,81.85000000000001,0)" xlink:href="#C"/><use transform="matrix(0.05,0,0,0.05,91.85000000000001,0)" xlink:href="#J"/><use transform="matrix(0.05,0,0,0.05,100.85000000000001,0)" xlink:href="#E"/><use transform="matrix(0.05,0,0,0.05,110.85000000000001,0)" xlink:href="#B"/><use transform="matrix(0.05,0,0,0.05,115.85000000000001,0)" xlink:href="#D"/><use transform="matrix(0.05,0,0,0.05,121.80000000000001,0)" xlink:href="#C"/><use transform="matrix(0.05,0,0,0.05,131.8,0)" xlink:href="#K"/><use transform="matrix(0.05,0,0,0.05,140.8,0)" xlink:href="#L"/></g><path d="M145-31C134-9 116 4 85 4 32 4 16-35 15-94c0-59 17-99 70-100 32-1 48 14 60 33 0-11-1-24 2-32h30l-1 268h-32zM93-21c41 0 51-33 51-76s-8-73-50-73c-40 0-46 35-46 75s5 74 45 74" id="M"/><path d="M84 4C-5 8 30-112 23-190h32v120c0 31 7 50 39 49 72-2 45-101 50-169h31l1 190h-30c-1-10 1-25-2-33-11 22-28 36-60 37" id="N"/><path d="M101-234c-31-9-42 10-38 44h38v23H63V0H32v-167H5v-23h27c-7-52 17-82 69-68v24" id="O"/><path d="M33-154v-36h34v36H33zM33 0v-36h34V0H33" id="P"/><g id="b"><use transform="matrix(0.05,0,0,0.05,0,0)" xlink:href="#M"/><use transform="matrix(0.05,0,0,0.05,10,0)" xlink:href="#N"/><use transform="matrix(0.05,0,0,0.05,20,0)" xlink:href="#L"/><use transform="matrix(0.05,0,0,0.05,30,0)" xlink:href="#D"/><use transform="matrix(0.05,0,0,0.05,35.95,0)" xlink:href="#J"/><use transform="matrix(0.05,0,0,0.05,44.95,0)" xlink:href="#E"/><use transform="matrix(0.05,0,0,0.05,54.95,0)" xlink:href="#O"/><use transform="matrix(0.05,0,0,0.05,59.95,0)" xlink:href="#G"/><use transform="matrix(0.05,0,0,0.05,63.900000000000006,0)" xlink:href="#I"/><use transform="matrix(0.05,0,0,0.05,67.85000000000001,0)" xlink:href="#L"/><use transform="matrix(0.05,0,0,0.05,77.85000000000001,0)" xlink:href="#P"/></g><path d="M18-100v-36l175-74v27L42-118l151 64v27" id="Q"/><path d="M117-194c89-4 53 116 60 194h-32v-121c0-31-8-49-39-48C34-167 62-67 57 0H25l-1-190h30c1 10-1 24 2 32 11-22 29-35 61-36" id="R"/><path d="M177-190C167-65 218 103 67 71c-23-6-38-20-44-43l32-5c15 47 100 32 89-28v-30C133-14 115 1 83 1 29 1 15-40 15-95c0-56 16-97 71-98 29-1 48 16 59 35 1-10 0-23 2-32h30zM94-22c36 0 50-32 50-73 0-42-14-75-50-75-39 0-46 34-46 75s6 73 46 73" id="S"/><path d="M18-27v-27l151-64-151-65v-27l175 74v36" id="T"/><g id="c"><use transform="matrix(0.05,0,0,0.05,0,0)" xlink:href="#Q"/><use transform="matrix(0.05,0,0,0.05,10.5,0)" xlink:href="#A"/><use transform="matrix(0.05,0,0,0.05,19.5,0)" xlink:href="#B"/><use transform="matrix(0.05,0,0,0.05,24.5,0)" xlink:href="#D"/><use transform="matrix(0.05,0,0,0.05,30.450000000000003,0)" xlink:href="#G"/><use transform="matrix(0.05,0,0,0.05,34.4,0)" xlink:href="#R"/><use transform="matrix(0.05,0,0,0.05,44.4,0)" xlink:href="#S"/><use transform="matrix(0.05,0,0,0.05,54.400000000000006,0)" xlink:href="#T"/></g><path d="M100-194c62-1 85 37 85 99 1 63-27 99-86 99S16-35 15-95c0-66 28-99 85-99zM99-20c44 1 53-31 53-75 0-43-8-75-51-75s-53 32-53 75 10 74 51 75" id="U"/><g id="d"><use transform="matrix(0.05,0,0,0.05,0,0)" xlink:href="#S"/><use transform="matrix(0.05,0,0,0.05,10,0)" xlink:href="#U"/><use transform="matrix(0.05,0,0,0.05,20,0)" xlink:href="#B"/><use transform="matrix(0.05,0,0,0.05,25,0)" xlink:href="#U"/><use transform="matrix(0.05,0,0,0.05,35,0)" xlink:href="#E"/><use transform="matrix(0.05,0,0,0.05,45,0)" xlink:href="#A"/><use transform="matrix(0.05,0,0,0.05,54,0)" xlink:href="#B"/><use transform="matrix(0.05,0,0,0.05,59,0)" xlink:href="#L"/><use transform="matrix(0.05,0,0,0.05,69,0)" xlink:href="#H"/></g><g id="e"><use transform="matrix(0.05,0,0,0.05,0,0)" xlink:href="#G"/><use transform="matrix(0.05,0,0,0.05,3.95,0)" xlink:href="#F"/><use transform="matrix(0.05,0,0,0.05,13.949999999999998,0)" xlink:href="#P"/></g><g id="f"><use transform="matrix(0.05,0,0,0.05,0,0)" xlink:href="#Q"/><use transform="matrix(0.05,0,0,0.05,10.5,0)" xlink:href="#G"/><use transform="matrix(0.05,0,0,0.05,14.449999999999998,0)" xlink:href="#R"/><use transform="matrix(0.05,0,0,0.05,24.45,0)" xlink:href="#B"/><use transform="matrix(0.05,0,0,0.05,29.450000000000003,0)" xlink:href="#T"/></g><g id="g"><use transform="matrix(0.05,0,0,0.05,0,0)" xlink:href="#K"/><use transform="matrix(0.05,0,0,0.05,9,0)" xlink:href="#N"/><use transform="matrix(0.05,0,0,0.05,19,0)" xlink:href="#D"/><use transform="matrix(0.05,0,0,0.05,24.95,0)" xlink:href="#D"/><use transform="matrix(0.05,0,0,0.05,30.899999999999995,0)" xlink:href="#L"/><use transform="matrix(0.05,0,0,0.05,40.9,0)" xlink:href="#R"/><use transform="matrix(0.05,0,0,0.05,50.9,0)" xlink:href="#B"/><use transform="matrix(0.05,0,0,0.05,55.900000000000006,0)" xlink:href="#E"/><use transform="matrix(0.05,0,0,0.05,65.9,0)" xlink:href="#A"/><use transform="matrix(0.05,0,0,0.05,74.9,0)" xlink:href="#B"/><use transform="matrix(0.05,0,0,0.05,79.9,0)" xlink:href="#L"/><use transform="matrix(0.05,0,0,0.05,89.9,0)" xlink:href="#H"/></g><path d="M68-38c1 34 0 65-14 84H32c9-13 17-26 17-46H33v-38h35" id="V"/><g id="h"><use transform="matrix(0.05,0,0,0.05,0,0)" xlink:href="#Q"/><use transform="matrix(0.05,0,0,0.05,10.5,0)" xlink:href="#G"/><use transform="matrix(0.05,0,0,0.05,14.449999999999998,0)" xlink:href="#R"/><use transform="matrix(0.05,0,0,0.05,24.45,0)" xlink:href="#B"/><use transform="matrix(0.05,0,0,0.05,29.450000000000003,0)" xlink:href="#T"/><use transform="matrix(0.05,0,0,0.05,39.95,0)" xlink:href="#V"/></g><g id="i"><use transform="matrix(0.05,0,0,0.05,0,0)" xlink:href="#H"/><use transform="matrix(0.05,0,0,0.05,10,0)" xlink:href="#D"/><use transform="matrix(0.05,0,0,0.05,15.949999999999998,0)" xlink:href="#U"/><use transform="matrix(0.05,0,0,0.05,25.950000000000003,0)" xlink:href="#K"/><use transform="matrix(0.05,0,0,0.05,34.95,0)" xlink:href="#L"/><use transform="matrix(0.05,0,0,0.05,44.95,0)" xlink:href="#A"/><use transform="matrix(0.05,0,0,0.05,53.95,0)" xlink:href="#A"/><use transform="matrix(0.05,0,0,0.05,62.95,0)" xlink:href="#P"/></g><g id="j"><use transform="matrix(0.05,0,0,0.05,0,0)" xlink:href="#Q"/><use transform="matrix(0.05,0,0,0.05,10.5,0)" xlink:href="#H"/><use transform="matrix(0.05,0,0,0.05,20.5,0)" xlink:href="#D"/><use transform="matrix(0.05,0,0,0.05,26.450000000000003,0)" xlink:href="#U"/><use transform="matrix(0.05,0,0,0.05,36.45,0)" xlink:href="#K"/><use transform="matrix(0.05,0,0,0.05,45.45,0)" xlink:href="#L"/><use transform="matrix(0.05,0,0,0.05,55.45,0)" xlink:href="#A"/><use transform="matrix(0.05,0,0,0.05,64.45,0)" xlink:href="#A"/><use transform="matrix(0.05,0,0,0.05,73.45,0)" xlink:href="#T"/><use transform="matrix(0.05,0,0,0.05,83.95,0)" xlink:href="#V"/></g><path d="M210-169c-67 3-38 105-44 169h-31v-121c0-29-5-50-35-48C34-165 62-65 56 0H25l-1-190h30c1 10-1 24 2 32 10-44 99-50 107 0 11-21 27-35 58-36 85-2 47 119 55 194h-31v-121c0-29-5-49-35-48" id="W"/><g id="k"><use transform="matrix(0.05,0,0,0.05,0,0)" xlink:href="#O"/><use transform="matrix(0.05,0,0,0.05,5,0)" xlink:href="#D"/><use transform="matrix(0.05,0,0,0.05,10.95,0)" xlink:href="#C"/><use transform="matrix(0.05,0,0,0.05,20.95,0)" xlink:href="#W"/><use transform="matrix(0.05,0,0,0.05,35.9,0)" xlink:href="#L"/><use transform="matrix(0.05,0,0,0.05,45.9,0)" xlink:href="#P"/></g><g id="l"><use transform="matrix(0.05,0,0,0.05,0,0)" xlink:href="#Q"/><use transform="matrix(0.05,0,0,0.05,10.5,0)" xlink:href="#B"/><use transform="matrix(0.05,0,0,0.05,15.5,0)" xlink:href="#L"/><use transform="matrix(0.05,0,0,0.05,25.5,0)" xlink:href="#D"/><use transform="matrix(0.05,0,0,0.05,31.450000000000003,0)" xlink:href="#W"/><use transform="matrix(0.05,0,0,0.05,46.4,0)" xlink:href="#T"/></g><g id="m"><use transform="matrix(0.05,0,0,0.05,0,0)" xlink:href="#I"/><use transform="matrix(0.05,0,0,0.05,3.95,0)" xlink:href="#G"/><use transform="matrix(0.05,0,0,0.05,7.9,0)" xlink:href="#A"/><use transform="matrix(0.05,0,0,0.05,16.9,0)" xlink:href="#B"/><use transform="matrix(0.05,0,0,0.05,21.9,0)" xlink:href="#V"/></g><g id="n"><use transform="matrix(0.05,0,0,0.05,0,0)" xlink:href="#K"/><use transform="matrix(0.05,0,0,0.05,9,0)" xlink:href="#N"/><use transform="matrix(0.05,0,0,0.05,19,0)" xlink:href="#D"/><use transform="matrix(0.05,0,0,0.05,24.95,0)" xlink:href="#D"/><use transform="matrix(0.05,0,0,0.05,30.899999999999995,0)" xlink:href="#L"/><use transform="matrix(0.05,0,0,0.05,40.9,0)" xlink:href="#R"/><use transform="matrix(0.05,0,0,0.05,50.9,0)" xlink:href="#B"/><use transform="matrix(0.05,0,0,0.05,55.900000000000006,0)" xlink:href="#E"/><use transform="matrix(0.05,0,0,0.05,65.9,0)" xlink:href="#C"/><use transform="matrix(0.05,0,0,0.05,75.9,0)" xlink:href="#K"/><use transform="matrix(0.05,0,0,0.05,84.9,0)" xlink:href="#B"/><use transform="matrix(0.05,0,0,0.05,89.9,0)" xlink:href="#G"/><use transform="matrix(0.05,0,0,0.05,93.85000000000001,0)" xlink:href="#U"/><use transform="matrix(0.05,0,0,0.05,103.85000000000001,0)" xlink:href="#R"/><use transform="matrix(0.05,0,0,0.05,113.85000000000001,0)" xlink:href="#E"/><use transform="matrix(0.05,0,0,0.05,123.85000000000001,0)" xlink:href="#G"/><use transform="matrix(0.05,0,0,0.05,127.80000000000001,0)" xlink:href="#F"/><use transform="matrix(0.05,0,0,0.05,137.8,0)" xlink:href="#P"/></g><g id="o"><use transform="matrix(0.05,0,0,0.05,0,0)" xlink:href="#G"/><use transform="matrix(0.05,0,0,0.05,3.95,0)" xlink:href="#O"/></g><g id="p"><use transform="matrix(0.05,0,0,0.05,0,0)" xlink:href="#M"/><use transform="matrix(0.05,0,0,0.05,10,0)" xlink:href="#N"/><use transform="matrix(0.05,0,0,0.05,20,0)" xlink:href="#L"/><use transform="matrix(0.05,0,0,0.05,30,0)" xlink:href="#D"/><use transform="matrix(0.05,0,0,0.05,35.95,0)" xlink:href="#J"/><use transform="matrix(0.05,0,0,0.05,44.95,0)" xlink:href="#E"/><use transform="matrix(0.05,0,0,0.05,54.95,0)" xlink:href="#O"/><use transform="matrix(0.05,0,0,0.05,59.95,0)" xlink:href="#G"/><use transform="matrix(0.05,0,0,0.05,63.900000000000006,0)" xlink:href="#I"/><use transform="matrix(0.05,0,0,0.05,67.85000000000001,0)" xlink:href="#L"/></g><g id="q"><use transform="matrix(0.05,0,0,0.05,0,0)" xlink:href="#K"/><use transform="matrix(0.05,0,0,0.05,9,0)" xlink:href="#U"/><use transform="matrix(0.05,0,0,0.05,19,0)" xlink:href="#R"/><use transform="matrix(0.05,0,0,0.05,29,0)" xlink:href="#B"/><use transform="matrix(0.05,0,0,0.05,34,0)" xlink:href="#C"/><use transform="matrix(0.05,0,0,0.05,44,0)" xlink:href="#G"/><use transform="matrix(0.05,0,0,0.05,47.95,0)" xlink:href="#R"/><use transform="matrix(0.05,0,0,0.05,57.95,0)" xlink:href="#A"/></g><g id="r"><use transform="matrix(0.05,0,0,0.05,0,0)" xlink:href="#C"/><use transform="matrix(0.05,0,0,0.05,10,0)" xlink:href="#R"/></g><path d="M143 0L79-87 56-68V0H24v-261h32v163l83-92h37l-77 82L181 0h-38" id="X"/><g id="s"><use transform="matrix(0.05,0,0,0.05,0,0)" xlink:href="#C"/><use transform="matrix(0.05,0,0,0.05,10,0)" xlink:href="#B"/><use transform="matrix(0.05,0,0,0.05,15,0)" xlink:href="#B"/><use transform="matrix(0.05,0,0,0.05,20,0)" xlink:href="#C"/><use transform="matrix(0.05,0,0,0.05,30,0)" xlink:href="#K"/><use transform="matrix(0.05,0,0,0.05,39,0)" xlink:href="#X"/></g><path d="M190 0L58-211 59 0H30v-248h39L202-35l-2-213h31V0h-41" id="Y"/><g id="t"><use transform="matrix(0.05,0,0,0.05,0,0)" xlink:href="#Y"/><use transform="matrix(0.05,0,0,0.05,12.950000000000001,0)" xlink:href="#U"/></g><path d="M266 0h-40l-56-210L115 0H75L2-248h35L96-30l15-64 43-154h32l59 218 59-218h35" id="Z"/><g id="u"><use transform="matrix(0.05,0,0,0.05,0,0)" xlink:href="#Z"/><use transform="matrix(0.05,0,0,0.05,16.3,0)" xlink:href="#C"/><use transform="matrix(0.05,0,0,0.05,26.3,0)" xlink:href="#G"/><use transform="matrix(0.05,0,0,0.05,30.25,0)" xlink:href="#B"/><use transform="matrix(0.05,0,0,0.05,35.25,0)" xlink:href="#G"/><use transform="matrix(0.05,0,0,0.05,39.2,0)" xlink:href="#R"/><use transform="matrix(0.05,0,0,0.05,49.2,0)" xlink:href="#S"/></g><g id="v"><use transform="matrix(0.05,0,0,0.05,0,0)" xlink:href="#K"/><use transform="matrix(0.05,0,0,0.05,9,0)" xlink:href="#U"/><use transform="matrix(0.05,0,0,0.05,19,0)" xlink:href="#W"/><use transform="matrix(0.05,0,0,0.05,33.95,0)" xlink:href="#W"/><use transform="matrix(0.05,0,0,0.05,48.900000000000006,0)" xlink:href="#C"/><use transform="matrix(0.05,0,0,0.05,58.900000000000006,0)" xlink:href="#R"/><use transform="matrix(0.05,0,0,0.05,68.9,0)" xlink:href="#F"/></g><path d="M137-103V0h-34v-103L8-248h37l75 118 75-118h37" id="aa"/><g id="w"><use transform="matrix(0.05,0,0,0.05,0,0)" xlink:href="#aa"/><use transform="matrix(0.05,0,0,0.05,10.35,0)" xlink:href="#L"/><use transform="matrix(0.05,0,0,0.05,20.35,0)" xlink:href="#A"/></g><g id="x"><use transform="matrix(0.05,0,0,0.05,0,0)" xlink:href="#F"/><use transform="matrix(0.05,0,0,0.05,10,0)" xlink:href="#G"/><use transform="matrix(0.05,0,0,0.05,13.949999999999998,0)" xlink:href="#L"/></g><path d="M141 0L90-78 38 0H4l68-98-65-92h35l48 74 47-74h35l-64 92 68 98h-35" id="ab"/><g id="y"><use transform="matrix(0.05,0,0,0.05,0,0)" xlink:href="#L"/><use transform="matrix(0.05,0,0,0.05,10,0)" xlink:href="#ab"/><use transform="matrix(0.05,0,0,0.05,19,0)" xlink:href="#G"/><use transform="matrix(0.05,0,0,0.05,22.95,0)" xlink:href="#B"/></g><g id="z"><use transform="matrix(0.05,0,0,0.05,0,0)" xlink:href="#R"/><use transform="matrix(0.05,0,0,0.05,10,0)" xlink:href="#U"/><use transform="matrix(0.05,0,0,0.05,20,0)" xlink:href="#E"/><use transform="matrix(0.05,0,0,0.05,30,0)" xlink:href="#C"/><use transform="matrix(0.05,0,0,0.05,40,0)" xlink:href="#B"/><use transform="matrix(0.05,0,0,0.05,45,0)" xlink:href="#B"/><use transform="matrix(0.05,0,0,0.05,50,0)" xlink:href="#C"/><use transform="matrix(0.05,0,0,0.05,60,0)" xlink:href="#K"/><use transform="matrix(0.05,0,0,0.05,69,0)" xlink:href="#X"/><use transform="matrix(0.05,0,0,0.05,78,0)" xlink:href="#E"/><use transform="matrix(0.05,0,0,0.05,88,0)" xlink:href="#B"/><use transform="matrix(0.05,0,0,0.05,93,0)" xlink:href="#D"/><use transform="matrix(0.05,0,0,0.05,98.95,0)" xlink:href="#C"/><use transform="matrix(0.05,0,0,0.05,108.95,0)" xlink:href="#K"/><use transform="matrix(0.05,0,0,0.05,117.95,0)" xlink:href="#L"/></g></defs></g></svg>