<svg xmlns="http://www.w3.org/2000/svg" xmlns:xlink="http://www.w3.org/1999/xlink" xmlns:lucid="lucid" width="640" height="790"><g transform="translate(-340 -840)" lucid:page-tab-id="0_0"><path d="M0 0h1870.4v2582.4H0z" fill="#fff"/><path d="M540 1530h420v80H540z" fill="none"/><use xlink:href="#a" transform="matrix(1,0,0,1,540,1530) translate(28.275000000000006 32.8)"/><use xlink:href="#b" transform="matrix(1,0,0,1,540,1530) translate(76.22500000000001 32.8)"/><use xlink:href="#c" transform="matrix(1,0,0,1,540,1530) translate(102.17500000000001 32.8)"/><use xlink:href="#d" transform="matrix(1,0,0,1,540,1530) translate(127.92500000000001 32.8)"/><use xlink:href="#e" transform="matrix(1,0,0,1,540,1530) translate(185.87500000000003 32.8)"/><use xlink:href="#f" transform="matrix(1,0,0,1,540,1530) translate(210.87500000000003 32.8)"/><use xlink:href="#g" transform="matrix(1,0,0,1,540,1530) translate(283.82500000000005 32.8)"/><use xlink:href="#h" transform="matrix(1,0,0,1,540,1530) translate(304.775 32.8)"/><use xlink:href="#i" transform="matrix(1,0,0,1,540,1530) translate(339.775 32.8)"/><use xlink:href="#j" transform="matrix(1,0,0,1,540,1530) translate(376.725 32.8)"/><use xlink:href="#k" transform="matrix(1,0,0,1,540,1530) translate(8.899999999999977 54.4)"/><use xlink:href="#l" transform="matrix(1,0,0,1,540,1530) translate(259.6 54.4)"/><use xlink:href="#m" transform="matrix(1,0,0,1,540,1530) translate(270.55 54.4)"/><use xlink:href="#n" transform="matrix(1,0,0,1,540,1530) translate(285.55 54.4)"/><use xlink:href="#o" transform="matrix(1,0,0,1,540,1530) translate(326.45 54.4)"/><path d="M657.2 950c-12.15 0-22 9.85-22 22v66c0 12.15 9.85 22 22 22h156c12.15 0 22-9.85 22-22v-66c0-12.15-9.85-22-22-22z" stroke="#000" stroke-width="2" fill="#ff8f80"/><path d="M635.2 994h200" stroke="#000" stroke-width="2" fill="none"/><use xlink:href="#p" transform="matrix(1,0,0,1,675.1999999999999,950) translate(-15.400000000000006 25.6)"/><use xlink:href="#q" transform="matrix(1,0,0,1,655.1999999999999,1010) translate(1.125 14.4)"/><use xlink:href="#r" transform="matrix(1,0,0,1,655.1999999999999,1010) translate(88.97500000000001 14.4)"/><use xlink:href="#s" transform="matrix(1,0,0,1,655.1999999999999,1010) translate(48.05 36)"/><use xlink:href="#t" transform="matrix(1,0,0,1,655.1999999999999,1010) translate(72 36)"/><path d="M660 1410c-11.05 0-20 8.95-20 20v60c0 11.05 8.95 20 20 20h160c11.05 0 20-8.95 20-20v-60c0-11.05-8.95-20-20-20z" stroke="#000" stroke-width="2" fill="#ff8f80"/><path d="M640 1454h200" stroke="#000" stroke-width="2" fill="none"/><use xlink:href="#u" transform="matrix(1,0,0,1,680,1410) translate(20.5 25.6)"/><use xlink:href="#v" transform="matrix(1,0,0,1,660,1470) translate(48.05 15.6)"/><use xlink:href="#t" transform="matrix(1,0,0,1,660,1470) translate(72 15.6)"/><path d="M842 1460h54.2v-280h-21.5" stroke="#000" stroke-width="2" fill="none"/><path d="M842.03 1461H841v-2h1.03z"/><path d="M859.44 1180l14.26-4.64v9.28z" stroke="#000" stroke-width="2"/><path d="M655.2 1300h160v60h-160z" stroke="#000" stroke-width="2" fill="#c7e8ac"/><use xlink:href="#w" transform="matrix(1,0,0,1,660.1999999999999,1305) translate(3.4499999999999886 30.025)"/><use xlink:href="#x" transform="matrix(1,0,0,1,660.1999999999999,1305) translate(67.64999999999999 30.025)"/><path d="M735.2 1362v28.5" stroke="#000" stroke-width="2" fill="none"/><path d="M736.2 1362.03h-2V1361h2z"/><path d="M735.2 1405.76l-4.64-14.26h9.28z" stroke="#000" stroke-width="2"/><path d="M386 1315c-3.3 0-6 2.7-6 6v18c0 3.3 2.7 6 6 6h148c3.3 0 6-2.7 6-6v-18c0-3.3-2.7-6-6-6z" stroke="#000" stroke-width="2" fill="#ff8f80"/><use xlink:href="#y" transform="matrix(1,0,0,1,388,1323) translate(60.025 14.4)"/><path d="M480 1400c0 11.05-8.95 20-20 20s-20-8.95-20-20 8.95-20 20-20 20 8.95 20 20z" stroke="#000" stroke-width="2" fill="#fff"/><path d="M445.86 1385.86l28.28 28.28m0-28.28l-28.28 28.28M653.2 1330h-93.7" stroke="#000" stroke-width="2" fill="none"/><path d="M654.2 1331h-1.03v-2h1.03z"/><path d="M544.24 1330l14.26-4.64v9.28z" stroke="#000" stroke-width="2"/><path d="M643.2 1110c-15.46 0-28 12.54-28 28v84c0 15.46 12.54 28 28 28h184c15.46 0 28-12.54 28-28v-84c0-15.46-12.54-28-28-28z" stroke="#000" stroke-width="2" fill="#c1e4f7"/><path d="M615.2 1154h240" stroke="#000" stroke-width="2" fill="none"/><use xlink:href="#z" transform="matrix(1,0,0,1,663.1999999999999,1110) translate(-20.900000000000006 25.6)"/><use xlink:href="#A" transform="matrix(1,0,0,1,639.1999999999999,1170) translate(15.049999999999997 14.4)"/><use xlink:href="#B" transform="matrix(1,0,0,1,639.1999999999999,1170) translate(88 14.4)"/><use xlink:href="#C" transform="matrix(1,0,0,1,639.1999999999999,1170) translate(23.650000000000006 36)"/><use xlink:href="#D" transform="matrix(1,0,0,1,639.1999999999999,1170) translate(79.55000000000001 36)"/><use xlink:href="#E" transform="matrix(1,0,0,1,639.1999999999999,1170) translate(141.45 36)"/><use xlink:href="#F" transform="matrix(1,0,0,1,639.1999999999999,1170) translate(2.125 57.6)"/><use xlink:href="#t" transform="matrix(1,0,0,1,639.1999999999999,1170) translate(149.925 57.6)"/><path d="M755.2 880c0 11.05-8.95 20-20 20s-20-8.95-20-20 8.95-20 20-20 20 8.95 20 20z" stroke="#000" stroke-width="2"/><path d="M735.2 1252v28.5" stroke="#000" stroke-width="2" fill="none"/><path d="M736.2 1252.03h-2V1251h2z"/><path d="M735.2 1295.76l-4.64-14.26h9.28z" stroke="#000" stroke-width="2"/><path d="M375.2 1036.8h160v40h-160z" fill="#ff8f80"/><g><use xlink:href="#G" transform="matrix(1,0,0,1,375.19999999999993,1036.8000000000466) translate(43.305 24.4)"/><use xlink:href="#H" transform="matrix(1,0,0,1,375.19999999999993,1036.8000000000466) translate(66.255 24.4)"/><use xlink:href="#I" transform="matrix(1,0,0,1,375.19999999999993,1036.8000000000466) translate(87.705 24.4)"/></g><path d="M375.2 1096.8h160v40h-160z" fill="#c1e4f7"/><g><use xlink:href="#J" transform="matrix(1,0,0,1,375.19999999999993,1096.8000000000002) translate(43.305 24.4)"/><use xlink:href="#H" transform="matrix(1,0,0,1,375.19999999999993,1096.8000000000002) translate(77.305 24.4)"/><use xlink:href="#K" transform="matrix(1,0,0,1,375.19999999999993,1096.8000000000002) translate(98.755 24.4)"/></g><path d="M360 980h200v236.8H360z" stroke="#000" stroke-width="2" fill-opacity="0"/><g><use xlink:href="#L" transform="matrix(1,0,0,1,368,988) translate(62 15.6)"/></g><path d="M375.2 1156.8h160v40h-160z" fill="#c7e8ac"/><g><use xlink:href="#M" transform="matrix(1,0,0,1,375.19999999999993,1156.7999999999538) translate(65.50500000000001 24.4)"/></g><path d="M735.2 1062v28.5" stroke="#000" stroke-width="2" fill="none"/><path d="M736.2 1062.03h-2V1061h2z"/><path d="M735.2 1105.76l-4.64-14.26h9.28z" stroke="#000" stroke-width="2"/><path d="M735.2 902v28.5" stroke="#000" stroke-width="2" fill="none"/><path d="M735.16 901l1.04-.03v1.06h-2v-1.15z"/><path d="M735.2 945.76l-4.64-14.26h9.28z" stroke="#000" stroke-width="2"/><path d="M460 1347v13.5" stroke="#000" stroke-width="2" fill="none"/><path d="M461 1347.03h-2V1346h2z"/><path d="M460 1375.76l-4.64-14.26h9.28z" stroke="#000" stroke-width="2"/><defs><path d="M108 0H70L1-190h34L89-25l56-165h34" id="N"/><path d="M141-36C126-15 110 5 73 4 37 3 15-17 15-53c-1-64 63-63 125-63 3-35-9-54-41-54-24 1-41 7-42 31l-33-3c5-37 33-52 76-52 45 0 72 20 72 64v82c-1 20 7 32 28 27v20c-31 9-61-2-59-35zM48-53c0 20 12 33 32 33 41-3 63-29 60-74-43 2-92-5-92 41" id="O"/><path d="M24 0v-261h32V0H24" id="P"/><path d="M84 4C-5 8 30-112 23-190h32v120c0 31 7 50 39 49 72-2 45-101 50-169h31l1 190h-30c-1-10 1-25-2-33-11 22-28 36-60 37" id="Q"/><path d="M100-194c63 0 86 42 84 106H49c0 40 14 67 53 68 26 1 43-12 49-29l28 8c-11 28-37 45-77 45C44 4 14-33 15-96c1-61 26-98 85-98zm52 81c6-60-76-77-97-28-3 7-6 17-6 28h103" id="R"/><g id="a"><use transform="matrix(0.05,0,0,0.05,0,0)" xlink:href="#N"/><use transform="matrix(0.05,0,0,0.05,9,0)" xlink:href="#O"/><use transform="matrix(0.05,0,0,0.05,19,0)" xlink:href="#P"/><use transform="matrix(0.05,0,0,0.05,22.95,0)" xlink:href="#Q"/><use transform="matrix(0.05,0,0,0.05,32.95,0)" xlink:href="#R"/></g><path d="M101-234c-31-9-42 10-38 44h38v23H63V0H32v-167H5v-23h27c-7-52 17-82 69-68v24" id="S"/><path d="M100-194c62-1 85 37 85 99 1 63-27 99-86 99S16-35 15-95c0-66 28-99 85-99zM99-20c44 1 53-31 53-75 0-43-8-75-51-75s-53 32-53 75 10 74 51 75" id="T"/><path d="M114-163C36-179 61-72 57 0H25l-1-190h30c1 12-1 29 2 39 6-27 23-49 58-41v29" id="U"/><g id="b"><use transform="matrix(0.05,0,0,0.05,0,0)" xlink:href="#S"/><use transform="matrix(0.05,0,0,0.05,5,0)" xlink:href="#T"/><use transform="matrix(0.05,0,0,0.05,15,0)" xlink:href="#U"/></g><path d="M47-170H22l-4-78h33" id="V"/><path d="M24-231v-30h32v30H24zM24 0v-190h32V0H24" id="W"/><path d="M85-194c31 0 48 13 60 33l-1-100h32l1 261h-30c-2-10 0-23-3-31C134-8 116 4 85 4 32 4 16-35 15-94c0-66 23-100 70-100zm9 24c-40 0-46 34-46 75 0 40 6 74 45 74 42 0 51-32 51-76 0-42-9-74-50-73" id="X"/><g id="c"><use transform="matrix(0.05,0,0,0.05,0,0)" xlink:href="#V"/><use transform="matrix(0.05,0,0,0.05,3.4000000000000004,0)" xlink:href="#W"/><use transform="matrix(0.05,0,0,0.05,7.3500000000000005,0)" xlink:href="#X"/><use transform="matrix(0.05,0,0,0.05,17.35,0)" xlink:href="#V"/></g><path d="M135-143c-3-34-86-38-87 0 15 53 115 12 119 90S17 21 10-45l28-5c4 36 97 45 98 0-10-56-113-15-118-90-4-57 82-63 122-42 12 7 21 19 24 35" id="Y"/><path d="M106-169C34-169 62-67 57 0H25v-261h32l-1 103c12-21 28-36 61-36 89 0 53 116 60 194h-32v-121c2-32-8-49-39-48" id="Z"/><g id="d"><use transform="matrix(0.05,0,0,0.05,0,0)" xlink:href="#Y"/><use transform="matrix(0.05,0,0,0.05,9,0)" xlink:href="#Z"/><use transform="matrix(0.05,0,0,0.05,19,0)" xlink:href="#T"/><use transform="matrix(0.05,0,0,0.05,29,0)" xlink:href="#Q"/><use transform="matrix(0.05,0,0,0.05,39,0)" xlink:href="#P"/><use transform="matrix(0.05,0,0,0.05,42.95,0)" xlink:href="#X"/></g><path d="M115-194c53 0 69 39 70 98 0 66-23 100-70 100C84 3 66-7 56-30L54 0H23l1-261h32v101c10-23 28-34 59-34zm-8 174c40 0 45-34 45-75 0-40-5-75-45-74-42 0-51 32-51 76 0 43 10 73 51 73" id="aa"/><g id="e"><use transform="matrix(0.05,0,0,0.05,0,0)" xlink:href="#aa"/><use transform="matrix(0.05,0,0,0.05,10,0)" xlink:href="#R"/></g><path d="M59-47c-2 24 18 29 38 22v24C64 9 27 4 27-40v-127H5v-23h24l9-43h21v43h35v23H59v120" id="ab"/><path d="M206 0h-36l-40-164L89 0H53L-1-190h32L70-26l43-164h34l41 164 42-164h31" id="ac"/><path d="M117-194c89-4 53 116 60 194h-32v-121c0-31-8-49-39-48C34-167 62-67 57 0H25l-1-190h30c1 10-1 24 2 32 11-22 29-35 61-36" id="ad"/><g id="f"><use transform="matrix(0.05,0,0,0.05,0,0)" xlink:href="#aa"/><use transform="matrix(0.05,0,0,0.05,10,0)" xlink:href="#R"/><use transform="matrix(0.05,0,0,0.05,20,0)" xlink:href="#ab"/><use transform="matrix(0.05,0,0,0.05,25,0)" xlink:href="#ac"/><use transform="matrix(0.05,0,0,0.05,37.95,0)" xlink:href="#R"/><use transform="matrix(0.05,0,0,0.05,47.95,0)" xlink:href="#R"/><use transform="matrix(0.05,0,0,0.05,57.95,0)" xlink:href="#ad"/></g><path d="M16-82v-28h88v28H16" id="ae"/><path d="M27 0v-27h64v-190l-56 39v-29l58-41h29v221h61V0H27" id="af"/><g id="g"><use transform="matrix(0.05,0,0,0.05,0,0)" xlink:href="#ae"/><use transform="matrix(0.05,0,0,0.05,5.95,0)" xlink:href="#af"/></g><g id="h"><use transform="matrix(0.05,0,0,0.05,0,0)" xlink:href="#O"/><use transform="matrix(0.05,0,0,0.05,10,0)" xlink:href="#ad"/><use transform="matrix(0.05,0,0,0.05,20,0)" xlink:href="#X"/></g><path d="M9 0v-24l116-142H16v-24h144v24L44-24h123V0H9" id="ag"/><g id="i"><use transform="matrix(0.05,0,0,0.05,0,0)" xlink:href="#Y"/><use transform="matrix(0.05,0,0,0.05,9,0)" xlink:href="#W"/><use transform="matrix(0.05,0,0,0.05,12.949999999999998,0)" xlink:href="#ag"/><use transform="matrix(0.05,0,0,0.05,21.95,0)" xlink:href="#R"/></g><g id="j"><use transform="matrix(0.05,0,0,0.05,0,0)" xlink:href="#T"/><use transform="matrix(0.05,0,0,0.05,10,0)" xlink:href="#S"/></g><path d="M96-169c-40 0-48 33-48 73s9 75 48 75c24 0 41-14 43-38l32 2c-6 37-31 61-74 61-59 0-76-41-82-99-10-93 101-131 147-64 4 7 5 14 7 22l-32 3c-4-21-16-35-41-35" id="ah"/><path d="M143 0L79-87 56-68V0H24v-261h32v163l83-92h37l-77 82L181 0h-38" id="ai"/><path d="M-5 72V49h209v23H-5" id="aj"/><path d="M33 0v-38h34V0H33" id="ak"/><path d="M145-31C134-9 116 4 85 4 32 4 16-35 15-94c0-59 17-99 70-100 32-1 48 14 60 33 0-11-1-24 2-32h30l-1 268h-32zM93-21c41 0 51-33 51-76s-8-73-50-73c-40 0-46 35-46 75s5 74 45 74" id="al"/><g id="k"><use transform="matrix(0.05,0,0,0.05,0,0)" xlink:href="#V"/><use transform="matrix(0.05,0,0,0.05,3.4000000000000004,0)" xlink:href="#O"/><use transform="matrix(0.05,0,0,0.05,13.4,0)" xlink:href="#ab"/><use transform="matrix(0.05,0,0,0.05,18.4,0)" xlink:href="#ab"/><use transform="matrix(0.05,0,0,0.05,23.4,0)" xlink:href="#O"/><use transform="matrix(0.05,0,0,0.05,33.4,0)" xlink:href="#ah"/><use transform="matrix(0.05,0,0,0.05,42.4,0)" xlink:href="#ai"/><use transform="matrix(0.05,0,0,0.05,51.400000000000006,0)" xlink:href="#aj"/><use transform="matrix(0.05,0,0,0.05,61.400000000000006,0)" xlink:href="#ab"/><use transform="matrix(0.05,0,0,0.05,66.4,0)" xlink:href="#U"/><use transform="matrix(0.05,0,0,0.05,72.35000000000001,0)" xlink:href="#O"/><use transform="matrix(0.05,0,0,0.05,82.35000000000001,0)" xlink:href="#ah"/><use transform="matrix(0.05,0,0,0.05,91.35000000000001,0)" xlink:href="#R"/><use transform="matrix(0.05,0,0,0.05,101.35000000000001,0)" xlink:href="#ak"/><use transform="matrix(0.05,0,0,0.05,106.35000000000001,0)" xlink:href="#O"/><use transform="matrix(0.05,0,0,0.05,116.35000000000001,0)" xlink:href="#ah"/><use transform="matrix(0.05,0,0,0.05,125.35000000000001,0)" xlink:href="#ab"/><use transform="matrix(0.05,0,0,0.05,130.35000000000002,0)" xlink:href="#W"/><use transform="matrix(0.05,0,0,0.05,134.3,0)" xlink:href="#T"/><use transform="matrix(0.05,0,0,0.05,144.3,0)" xlink:href="#ad"/><use transform="matrix(0.05,0,0,0.05,154.3,0)" xlink:href="#aj"/><use transform="matrix(0.05,0,0,0.05,164.3,0)" xlink:href="#Y"/><use transform="matrix(0.05,0,0,0.05,173.3,0)" xlink:href="#R"/><use transform="matrix(0.05,0,0,0.05,183.3,0)" xlink:href="#al"/><use transform="matrix(0.05,0,0,0.05,193.3,0)" xlink:href="#Q"/><use transform="matrix(0.05,0,0,0.05,203.3,0)" xlink:href="#R"/><use transform="matrix(0.05,0,0,0.05,213.3,0)" xlink:href="#ad"/><use transform="matrix(0.05,0,0,0.05,223.3,0)" xlink:href="#ah"/><use transform="matrix(0.05,0,0,0.05,232.3,0)" xlink:href="#R"/><use transform="matrix(0.05,0,0,0.05,242.3,0)" xlink:href="#V"/></g><use transform="matrix(0.05,0,0,0.05,0,0)" xlink:href="#ae" id="l"/><use transform="matrix(0.05,0,0,0.05,0,0)" xlink:href="#af" id="m"/><path d="M210-169c-67 3-38 105-44 169h-31v-121c0-29-5-50-35-48C34-165 62-65 56 0H25l-1-190h30c1 10-1 24 2 32 10-44 99-50 107 0 11-21 27-35 58-36 85-2 47 119 55 194h-31v-121c0-29-5-49-35-48" id="am"/><g id="n"><use transform="matrix(0.05,0,0,0.05,0,0)" xlink:href="#S"/><use transform="matrix(0.05,0,0,0.05,5,0)" xlink:href="#U"/><use transform="matrix(0.05,0,0,0.05,10.95,0)" xlink:href="#T"/><use transform="matrix(0.05,0,0,0.05,20.95,0)" xlink:href="#am"/></g><path d="M179-190L93 31C79 59 56 82 12 73V49c39 6 53-20 64-50L1-190h34L92-34l54-156h33" id="an"/><g id="o"><use transform="matrix(0.05,0,0,0.05,0,0)" xlink:href="#V"/><use transform="matrix(0.05,0,0,0.05,3.4000000000000004,0)" xlink:href="#al"/><use transform="matrix(0.05,0,0,0.05,13.4,0)" xlink:href="#Q"/><use transform="matrix(0.05,0,0,0.05,23.4,0)" xlink:href="#R"/><use transform="matrix(0.05,0,0,0.05,33.4,0)" xlink:href="#U"/><use transform="matrix(0.05,0,0,0.05,39.35,0)" xlink:href="#an"/><use transform="matrix(0.05,0,0,0.05,48.35,0)" xlink:href="#aj"/><use transform="matrix(0.05,0,0,0.05,58.35,0)" xlink:href="#S"/><use transform="matrix(0.05,0,0,0.05,63.35,0)" xlink:href="#W"/><use transform="matrix(0.05,0,0,0.05,67.3,0)" xlink:href="#P"/><use transform="matrix(0.05,0,0,0.05,71.25,0)" xlink:href="#R"/><use transform="matrix(0.05,0,0,0.05,81.25,0)" xlink:href="#V"/></g><path d="M115-194c55 1 70 41 70 98S169 2 115 4C84 4 66-9 55-30l1 105H24l-1-265h31l2 30c10-21 28-34 59-34zm-8 174c40 0 45-34 45-75s-6-73-45-74c-42 0-51 32-51 76 0 43 10 73 51 73" id="ao"/><g id="p"><use transform="matrix(0.05,0,0,0.05,0,0)" xlink:href="#Y"/><use transform="matrix(0.05,0,0,0.05,9,0)" xlink:href="#ab"/><use transform="matrix(0.05,0,0,0.05,14,0)" xlink:href="#O"/><use transform="matrix(0.05,0,0,0.05,24,0)" xlink:href="#U"/><use transform="matrix(0.05,0,0,0.05,29.950000000000003,0)" xlink:href="#ab"/><use transform="matrix(0.05,0,0,0.05,34.95,0)" xlink:href="#aj"/><use transform="matrix(0.05,0,0,0.05,44.95,0)" xlink:href="#X"/><use transform="matrix(0.05,0,0,0.05,54.95,0)" xlink:href="#W"/><use transform="matrix(0.05,0,0,0.05,58.900000000000006,0)" xlink:href="#Y"/><use transform="matrix(0.05,0,0,0.05,67.9,0)" xlink:href="#ao"/><use transform="matrix(0.05,0,0,0.05,77.9,0)" xlink:href="#P"/><use transform="matrix(0.05,0,0,0.05,81.85000000000001,0)" xlink:href="#O"/><use transform="matrix(0.05,0,0,0.05,91.85000000000001,0)" xlink:href="#an"/><use transform="matrix(0.05,0,0,0.05,100.85000000000001,0)" xlink:href="#aj"/><use transform="matrix(0.05,0,0,0.05,110.85000000000001,0)" xlink:href="#ab"/><use transform="matrix(0.05,0,0,0.05,115.85000000000001,0)" xlink:href="#U"/><use transform="matrix(0.05,0,0,0.05,121.80000000000001,0)" xlink:href="#O"/><use transform="matrix(0.05,0,0,0.05,131.8,0)" xlink:href="#ah"/><use transform="matrix(0.05,0,0,0.05,140.8,0)" xlink:href="#R"/></g><path d="M33-154v-36h34v36H33zM33 0v-36h34V0H33" id="ap"/><g id="q"><use transform="matrix(0.05,0,0,0.05,0,0)" xlink:href="#al"/><use transform="matrix(0.05,0,0,0.05,10,0)" xlink:href="#Q"/><use transform="matrix(0.05,0,0,0.05,20,0)" xlink:href="#R"/><use transform="matrix(0.05,0,0,0.05,30,0)" xlink:href="#U"/><use transform="matrix(0.05,0,0,0.05,35.95,0)" xlink:href="#an"/><use transform="matrix(0.05,0,0,0.05,44.95,0)" xlink:href="#aj"/><use transform="matrix(0.05,0,0,0.05,54.95,0)" xlink:href="#S"/><use transform="matrix(0.05,0,0,0.05,59.95,0)" xlink:href="#W"/><use transform="matrix(0.05,0,0,0.05,63.900000000000006,0)" xlink:href="#P"/><use transform="matrix(0.05,0,0,0.05,67.85000000000001,0)" xlink:href="#R"/><use transform="matrix(0.05,0,0,0.05,77.85000000000001,0)" xlink:href="#ap"/></g><path d="M18-100v-36l175-74v27L42-118l151 64v27" id="aq"/><path d="M177-190C167-65 218 103 67 71c-23-6-38-20-44-43l32-5c15 47 100 32 89-28v-30C133-14 115 1 83 1 29 1 15-40 15-95c0-56 16-97 71-98 29-1 48 16 59 35 1-10 0-23 2-32h30zM94-22c36 0 50-32 50-73 0-42-14-75-50-75-39 0-46 34-46 75s6 73 46 73" id="ar"/><path d="M18-27v-27l151-64-151-65v-27l175 74v36" id="as"/><path d="M68-38c1 34 0 65-14 84H32c9-13 17-26 17-46H33v-38h35" id="at"/><g id="r"><use transform="matrix(0.05,0,0,0.05,0,0)" xlink:href="#aq"/><use transform="matrix(0.05,0,0,0.05,10.5,0)" xlink:href="#Y"/><use transform="matrix(0.05,0,0,0.05,19.5,0)" xlink:href="#ab"/><use transform="matrix(0.05,0,0,0.05,24.5,0)" xlink:href="#U"/><use transform="matrix(0.05,0,0,0.05,30.450000000000003,0)" xlink:href="#W"/><use transform="matrix(0.05,0,0,0.05,34.4,0)" xlink:href="#ad"/><use transform="matrix(0.05,0,0,0.05,44.4,0)" xlink:href="#ar"/><use transform="matrix(0.05,0,0,0.05,54.400000000000006,0)" xlink:href="#as"/><use transform="matrix(0.05,0,0,0.05,64.9,0)" xlink:href="#at"/></g><g id="s"><use transform="matrix(0.05,0,0,0.05,0,0)" xlink:href="#W"/><use transform="matrix(0.05,0,0,0.05,3.95,0)" xlink:href="#X"/><use transform="matrix(0.05,0,0,0.05,13.949999999999998,0)" xlink:href="#ap"/></g><g id="t"><use transform="matrix(0.05,0,0,0.05,0,0)" xlink:href="#aq"/><use transform="matrix(0.05,0,0,0.05,10.5,0)" xlink:href="#W"/><use transform="matrix(0.05,0,0,0.05,14.449999999999998,0)" xlink:href="#ad"/><use transform="matrix(0.05,0,0,0.05,24.45,0)" xlink:href="#ab"/><use transform="matrix(0.05,0,0,0.05,29.450000000000003,0)" xlink:href="#as"/></g><g id="u"><use transform="matrix(0.05,0,0,0.05,0,0)" xlink:href="#ar"/><use transform="matrix(0.05,0,0,0.05,10,0)" xlink:href="#T"/><use transform="matrix(0.05,0,0,0.05,20,0)" xlink:href="#ab"/><use transform="matrix(0.05,0,0,0.05,25,0)" xlink:href="#T"/><use transform="matrix(0.05,0,0,0.05,35,0)" xlink:href="#aj"/><use transform="matrix(0.05,0,0,0.05,45,0)" xlink:href="#Y"/><use transform="matrix(0.05,0,0,0.05,54,0)" xlink:href="#ab"/><use transform="matrix(0.05,0,0,0.05,59,0)" xlink:href="#R"/><use transform="matrix(0.05,0,0,0.05,69,0)" xlink:href="#ao"/></g><g id="v"><use transform="matrix(0.05,0,0,0.05,0,0)" xlink:href="#W"/><use transform="matrix(0.05,0,0,0.05,3.95,0)" xlink:href="#X"/><use transform="matrix(0.05,0,0,0.05,13.949999999999998,0)" xlink:href="#ap"/></g><path d="M266 0h-40l-56-210L115 0H75L2-248h35L96-30l15-64 43-154h32l59 218 59-218h35" id="au"/><g id="w"><use transform="matrix(0.05,0,0,0.05,0,0)" xlink:href="#au"/><use transform="matrix(0.05,0,0,0.05,16.3,0)" xlink:href="#O"/><use transform="matrix(0.05,0,0,0.05,26.3,0)" xlink:href="#W"/><use transform="matrix(0.05,0,0,0.05,30.25,0)" xlink:href="#ab"/><use transform="matrix(0.05,0,0,0.05,35.25,0)" xlink:href="#W"/><use transform="matrix(0.05,0,0,0.05,39.2,0)" xlink:href="#ad"/><use transform="matrix(0.05,0,0,0.05,49.2,0)" xlink:href="#ar"/></g><g id="x"><use transform="matrix(0.05,0,0,0.05,0,0)" xlink:href="#ah"/><use transform="matrix(0.05,0,0,0.05,9,0)" xlink:href="#T"/><use transform="matrix(0.05,0,0,0.05,19,0)" xlink:href="#am"/><use transform="matrix(0.05,0,0,0.05,33.95,0)" xlink:href="#am"/><use transform="matrix(0.05,0,0,0.05,48.900000000000006,0)" xlink:href="#O"/><use transform="matrix(0.05,0,0,0.05,58.900000000000006,0)" xlink:href="#ad"/><use transform="matrix(0.05,0,0,0.05,68.9,0)" xlink:href="#X"/></g><g id="y"><use transform="matrix(0.05,0,0,0.05,0,0)" xlink:href="#X"/><use transform="matrix(0.05,0,0,0.05,10,0)" xlink:href="#W"/><use transform="matrix(0.05,0,0,0.05,13.949999999999998,0)" xlink:href="#R"/></g><g id="z"><use transform="matrix(0.05,0,0,0.05,0,0)" xlink:href="#ah"/><use transform="matrix(0.05,0,0,0.05,9,0)" xlink:href="#Q"/><use transform="matrix(0.05,0,0,0.05,19,0)" xlink:href="#U"/><use transform="matrix(0.05,0,0,0.05,24.95,0)" xlink:href="#U"/><use transform="matrix(0.05,0,0,0.05,30.899999999999995,0)" xlink:href="#R"/><use transform="matrix(0.05,0,0,0.05,40.9,0)" xlink:href="#ad"/><use transform="matrix(0.05,0,0,0.05,50.9,0)" xlink:href="#ab"/><use transform="matrix(0.05,0,0,0.05,55.900000000000006,0)" xlink:href="#aj"/><use transform="matrix(0.05,0,0,0.05,65.9,0)" xlink:href="#Y"/><use transform="matrix(0.05,0,0,0.05,74.9,0)" xlink:href="#ab"/><use transform="matrix(0.05,0,0,0.05,79.9,0)" xlink:href="#R"/><use transform="matrix(0.05,0,0,0.05,89.9,0)" xlink:href="#ao"/><use transform="matrix(0.05,0,0,0.05,99.9,0)" xlink:href="#aj"/><use transform="matrix(0.05,0,0,0.05,109.9,0)" xlink:href="#X"/><use transform="matrix(0.05,0,0,0.05,119.9,0)" xlink:href="#W"/><use transform="matrix(0.05,0,0,0.05,123.85000000000001,0)" xlink:href="#Y"/><use transform="matrix(0.05,0,0,0.05,132.85000000000002,0)" xlink:href="#ao"/><use transform="matrix(0.05,0,0,0.05,142.85000000000002,0)" xlink:href="#P"/><use transform="matrix(0.05,0,0,0.05,146.8,0)" xlink:href="#O"/><use transform="matrix(0.05,0,0,0.05,156.8,0)" xlink:href="#an"/><use transform="matrix(0.05,0,0,0.05,165.8,0)" xlink:href="#R"/><use transform="matrix(0.05,0,0,0.05,175.8,0)" xlink:href="#X"/></g><g id="A"><use transform="matrix(0.05,0,0,0.05,0,0)" xlink:href="#ao"/><use transform="matrix(0.05,0,0,0.05,10,0)" xlink:href="#U"/><use transform="matrix(0.05,0,0,0.05,15.949999999999998,0)" xlink:href="#T"/><use transform="matrix(0.05,0,0,0.05,25.950000000000003,0)" xlink:href="#ah"/><use transform="matrix(0.05,0,0,0.05,34.95,0)" xlink:href="#R"/><use transform="matrix(0.05,0,0,0.05,44.95,0)" xlink:href="#Y"/><use transform="matrix(0.05,0,0,0.05,53.95,0)" xlink:href="#Y"/><use transform="matrix(0.05,0,0,0.05,62.95,0)" xlink:href="#ap"/></g><g id="B"><use transform="matrix(0.05,0,0,0.05,0,0)" xlink:href="#aq"/><use transform="matrix(0.05,0,0,0.05,10.5,0)" xlink:href="#ao"/><use transform="matrix(0.05,0,0,0.05,20.5,0)" xlink:href="#U"/><use transform="matrix(0.05,0,0,0.05,26.450000000000003,0)" xlink:href="#T"/><use transform="matrix(0.05,0,0,0.05,36.45,0)" xlink:href="#ah"/><use transform="matrix(0.05,0,0,0.05,45.45,0)" xlink:href="#R"/><use transform="matrix(0.05,0,0,0.05,55.45,0)" xlink:href="#Y"/><use transform="matrix(0.05,0,0,0.05,64.45,0)" xlink:href="#Y"/><use transform="matrix(0.05,0,0,0.05,73.45,0)" xlink:href="#as"/><use transform="matrix(0.05,0,0,0.05,83.95,0)" xlink:href="#at"/></g><g id="C"><use transform="matrix(0.05,0,0,0.05,0,0)" xlink:href="#S"/><use transform="matrix(0.05,0,0,0.05,5,0)" xlink:href="#U"/><use transform="matrix(0.05,0,0,0.05,10.95,0)" xlink:href="#O"/><use transform="matrix(0.05,0,0,0.05,20.95,0)" xlink:href="#am"/><use transform="matrix(0.05,0,0,0.05,35.9,0)" xlink:href="#R"/><use transform="matrix(0.05,0,0,0.05,45.9,0)" xlink:href="#ap"/></g><g id="D"><use transform="matrix(0.05,0,0,0.05,0,0)" xlink:href="#aq"/><use transform="matrix(0.05,0,0,0.05,10.5,0)" xlink:href="#ab"/><use transform="matrix(0.05,0,0,0.05,15.5,0)" xlink:href="#R"/><use transform="matrix(0.05,0,0,0.05,25.5,0)" xlink:href="#U"/><use transform="matrix(0.05,0,0,0.05,31.450000000000003,0)" xlink:href="#am"/><use transform="matrix(0.05,0,0,0.05,46.4,0)" xlink:href="#as"/></g><g id="E"><use transform="matrix(0.05,0,0,0.05,0,0)" xlink:href="#P"/><use transform="matrix(0.05,0,0,0.05,3.95,0)" xlink:href="#W"/><use transform="matrix(0.05,0,0,0.05,7.9,0)" xlink:href="#Y"/><use transform="matrix(0.05,0,0,0.05,16.9,0)" xlink:href="#ab"/><use transform="matrix(0.05,0,0,0.05,21.9,0)" xlink:href="#at"/></g><g id="F"><use transform="matrix(0.05,0,0,0.05,0,0)" xlink:href="#ah"/><use transform="matrix(0.05,0,0,0.05,9,0)" xlink:href="#Q"/><use transform="matrix(0.05,0,0,0.05,19,0)" xlink:href="#U"/><use transform="matrix(0.05,0,0,0.05,24.95,0)" xlink:href="#U"/><use transform="matrix(0.05,0,0,0.05,30.899999999999995,0)" xlink:href="#R"/><use transform="matrix(0.05,0,0,0.05,40.9,0)" xlink:href="#ad"/><use transform="matrix(0.05,0,0,0.05,50.9,0)" xlink:href="#ab"/><use transform="matrix(0.05,0,0,0.05,55.900000000000006,0)" xlink:href="#aj"/><use transform="matrix(0.05,0,0,0.05,65.9,0)" xlink:href="#O"/><use transform="matrix(0.05,0,0,0.05,75.9,0)" xlink:href="#ah"/><use transform="matrix(0.05,0,0,0.05,84.9,0)" xlink:href="#ab"/><use transform="matrix(0.05,0,0,0.05,89.9,0)" xlink:href="#W"/><use transform="matrix(0.05,0,0,0.05,93.85000000000001,0)" xlink:href="#T"/><use transform="matrix(0.05,0,0,0.05,103.85000000000001,0)" xlink:href="#ad"/><use transform="matrix(0.05,0,0,0.05,113.85000000000001,0)" xlink:href="#aj"/><use transform="matrix(0.05,0,0,0.05,123.85000000000001,0)" xlink:href="#W"/><use transform="matrix(0.05,0,0,0.05,127.80000000000001,0)" xlink:href="#X"/><use transform="matrix(0.05,0,0,0.05,137.8,0)" xlink:href="#ap"/></g><path d="M232-93c-1 65-40 97-104 97C67 4 28-28 28-90v-158h33c8 89-33 224 67 224 102 0 64-133 71-224h33v155" id="av"/><path d="M33 0v-248h34V0H33" id="aw"/><g id="G"><use transform="matrix(0.05,0,0,0.05,0,0)" xlink:href="#av"/><use transform="matrix(0.05,0,0,0.05,12.950000000000001,0)" xlink:href="#aw"/></g><g id="H"><use transform="matrix(0.05,0,0,0.05,0,0)" xlink:href="#ae"/><use transform="matrix(0.05,0,0,0.05,5.95,0)" xlink:href="#as"/></g><path d="M205 0l-28-72H64L36 0H1l101-248h38L239 0h-34zm-38-99l-47-123c-12 45-31 82-46 123h93" id="ax"/><path d="M30-248c87 1 191-15 191 75 0 78-77 80-158 76V0H30v-248zm33 125c57 0 124 11 124-50 0-59-68-47-124-48v98" id="ay"/><g id="I"><use transform="matrix(0.05,0,0,0.05,0,0)" xlink:href="#ax"/><use transform="matrix(0.05,0,0,0.05,12,0)" xlink:href="#ay"/><use transform="matrix(0.05,0,0,0.05,24,0)" xlink:href="#aw"/></g><g id="J"><use transform="matrix(0.05,0,0,0.05,0,0)" xlink:href="#ax"/><use transform="matrix(0.05,0,0,0.05,12,0)" xlink:href="#ay"/><use transform="matrix(0.05,0,0,0.05,24,0)" xlink:href="#aw"/></g><g id="K"><use transform="matrix(0.05,0,0,0.05,0,0)" xlink:href="#av"/><use transform="matrix(0.05,0,0,0.05,12.950000000000001,0)" xlink:href="#aw"/></g><path d="M30 0v-248h33v221h125V0H30" id="az"/><g id="L"><use transform="matrix(0.05,0,0,0.05,0,0)" xlink:href="#az"/><use transform="matrix(0.05,0,0,0.05,10,0)" xlink:href="#R"/><use transform="matrix(0.05,0,0,0.05,20,0)" xlink:href="#ar"/><use transform="matrix(0.05,0,0,0.05,30,0)" xlink:href="#R"/><use transform="matrix(0.05,0,0,0.05,40,0)" xlink:href="#ad"/><use transform="matrix(0.05,0,0,0.05,50,0)" xlink:href="#X"/></g><g id="M"><use transform="matrix(0.05,0,0,0.05,0,0)" xlink:href="#ax"/><use transform="matrix(0.05,0,0,0.05,12,0)" xlink:href="#ay"/><use transform="matrix(0.05,0,0,0.05,24,0)" xlink:href="#aw"/></g></defs></g></svg>