<svg xmlns="http://www.w3.org/2000/svg" xmlns:xlink="http://www.w3.org/1999/xlink" xmlns:lucid="lucid" width="1215.2" height="710"><g transform="translate(-44.80000000000007 -920)" lucid:page-tab-id="0_0"><path d="M0 0h1870.4v2582.4H0z" fill="#fff"/><path d="M540 1530h420v80H540z" fill="none"/><use xlink:href="#a" transform="matrix(1,0,0,1,540,1530) translate(28.275000000000006 32.8)"/><use xlink:href="#b" transform="matrix(1,0,0,1,540,1530) translate(76.22500000000001 32.8)"/><use xlink:href="#c" transform="matrix(1,0,0,1,540,1530) translate(102.17500000000001 32.8)"/><use xlink:href="#d" transform="matrix(1,0,0,1,540,1530) translate(127.92500000000001 32.8)"/><use xlink:href="#e" transform="matrix(1,0,0,1,540,1530) translate(185.87500000000003 32.8)"/><use xlink:href="#f" transform="matrix(1,0,0,1,540,1530) translate(210.87500000000003 32.8)"/><use xlink:href="#g" transform="matrix(1,0,0,1,540,1530) translate(283.82500000000005 32.8)"/><use xlink:href="#h" transform="matrix(1,0,0,1,540,1530) translate(304.775 32.8)"/><use xlink:href="#i" transform="matrix(1,0,0,1,540,1530) translate(339.775 32.8)"/><use xlink:href="#j" transform="matrix(1,0,0,1,540,1530) translate(376.725 32.8)"/><use xlink:href="#k" transform="matrix(1,0,0,1,540,1530) translate(8.899999999999977 54.4)"/><use xlink:href="#l" transform="matrix(1,0,0,1,540,1530) translate(259.6 54.4)"/><use xlink:href="#m" transform="matrix(1,0,0,1,540,1530) translate(270.55 54.4)"/><use xlink:href="#n" transform="matrix(1,0,0,1,540,1530) translate(285.55 54.4)"/><use xlink:href="#o" transform="matrix(1,0,0,1,540,1530) translate(326.45 54.4)"/><path d="M402.8 950c-11.05 0-20 8.95-20 20v60c0 11.05 8.95 20 20 20h160c11.05 0 20-8.95 20-20v-60c0-11.05-8.95-20-20-20z" stroke="#000" stroke-width="2" fill="#ff8f80"/><path d="M382.8 994h200" stroke="#000" stroke-width="2" fill="none"/><use xlink:href="#p" transform="matrix(1,0,0,1,422.7999999999999,950) translate(-15.400000000000006 25.6)"/><use xlink:href="#q" transform="matrix(1,0,0,1,402.7999999999999,1010) translate(3.625 15.6)"/><use xlink:href="#r" transform="matrix(1,0,0,1,402.7999999999999,1010) translate(91.47500000000001 15.6)"/><path d="M1202.8 1000c0 11.05-8.95 20-20 20s-20-8.95-20-20 8.95-20 20-20 20 8.95 20 20z" stroke="#000" stroke-width="2" fill="#fff"/><path d="M1168.66 985.86l28.28 28.28m0-28.28l-28.28 28.28" stroke="#000" stroke-width="2" fill="none"/><path d="M660 1410c-11.05 0-20 8.95-20 20v60c0 11.05 8.95 20 20 20h160c11.05 0 20-8.95 20-20v-60c0-11.05-8.95-20-20-20z" stroke="#000" stroke-width="2" fill="#ff8f80"/><path d="M640 1454h200" stroke="#000" stroke-width="2" fill="none"/><use xlink:href="#s" transform="matrix(1,0,0,1,680,1410) translate(20.5 25.6)"/><use xlink:href="#t" transform="matrix(1,0,0,1,660,1470) translate(48.05 15.6)"/><use xlink:href="#u" transform="matrix(1,0,0,1,660,1470) translate(72 15.6)"/><path d="M1028 1390c-15.46 0-28 12.54-28 28v84c0 15.46 12.54 28 28 28h184c15.46 0 28-12.54 28-28v-84c0-15.46-12.54-28-28-28z" stroke="#000" stroke-width="2" fill="#c1e4f7"/><path d="M1000 1434h240" stroke="#000" stroke-width="2" fill="none"/><use xlink:href="#v" transform="matrix(1,0,0,1,1048,1390) translate(22.049999999999997 25.6)"/><use xlink:href="#w" transform="matrix(1,0,0,1,1024,1450) translate(15.049999999999997 14.4)"/><use xlink:href="#x" transform="matrix(1,0,0,1,1024,1450) translate(88 14.4)"/><use xlink:href="#y" transform="matrix(1,0,0,1,1024,1450) translate(23.650000000000006 36)"/><use xlink:href="#z" transform="matrix(1,0,0,1,1024,1450) translate(79.55000000000001 36)"/><use xlink:href="#A" transform="matrix(1,0,0,1,1024,1450) translate(141.45 36)"/><use xlink:href="#B" transform="matrix(1,0,0,1,1024,1450) translate(2.125 57.6)"/><use xlink:href="#u" transform="matrix(1,0,0,1,1024,1450) translate(149.925 57.6)"/><path d="M842 1460h138.5" stroke="#000" stroke-width="2" fill="none"/><path d="M842.03 1461H841v-2h1.03z"/><path d="M995.76 1460l-14.26 4.64v-9.28z" stroke="#000" stroke-width="2"/><path d="M738 940l80 60-80 60-80-60z" stroke="#000" stroke-width="2" fill="#c7e8ac"/><use xlink:href="#C" transform="matrix(1,0,0,1,662.9999999999998,945) translate(29.105 45.3375)"/><use xlink:href="#D" transform="matrix(1,0,0,1,662.9999999999998,945) translate(43.055 45.3375)"/><use xlink:href="#E" transform="matrix(1,0,0,1,662.9999999999998,945) translate(29.029999999999998 66.9375)"/><use xlink:href="#F" transform="matrix(1,0,0,1,662.9999999999998,945) translate(100.98 66.9375)"/><use xlink:href="#G" transform="matrix(1,0,0,1,662.9999999999998,945) translate(51.005 88.53750000000001)"/><path d="M859.26 1001h-38.6v-2h38.6zm61.54 0h-38.6v-2h38.6z"/><path d="M820.7 1001h-2.37l1.34-1-1.34-1h2.36zM921.8 1001h-1.03v-2h1.03z"/><use xlink:href="#H" transform="matrix(1,0,0,1,859.2583333333331,989.2) translate(0 14.4)"/><path d="M1084.8 1000h58.5" stroke="#000" stroke-width="2" fill="none"/><path d="M1084.83 1001h-1.03v-2h1.03z"/><path d="M1158.56 1000l-14.26 4.64v-9.28z" stroke="#000" stroke-width="2"/><path d="M655.2 1300h160v60h-160z" stroke="#000" stroke-width="2" fill="#c7e8ac"/><use xlink:href="#I" transform="matrix(1,0,0,1,660.1999999999999,1305) translate(3.4499999999999886 30.025)"/><use xlink:href="#J" transform="matrix(1,0,0,1,660.1999999999999,1305) translate(67.64999999999999 30.025)"/><path d="M735.2 1362v28.5" stroke="#000" stroke-width="2" fill="none"/><path d="M736.2 1362.03h-2V1361h2z"/><path d="M735.2 1405.76l-4.64-14.26h9.28z" stroke="#000" stroke-width="2"/><path d="M1120 1388v-58H834.7" stroke="#000" stroke-width="2" fill="none"/><path d="M1121 1389h-2v-1.03h2z"/><path d="M819.44 1330l14.26-4.64v9.28z" stroke="#000" stroke-width="2"/><path d="M386 1315c-3.3 0-6 2.7-6 6v18c0 3.3 2.7 6 6 6h148c3.3 0 6-2.7 6-6v-18c0-3.3-2.7-6-6-6z" stroke="#000" stroke-width="2" fill="#ff8f80"/><use xlink:href="#K" transform="matrix(1,0,0,1,388,1323) translate(60.025 14.4)"/><path d="M386 1397.5c-3.3 0-6 2.7-6 6v18c0 3.3 2.7 6 6 6h148c3.3 0 6-2.7 6-6v-18c0-3.3-2.7-6-6-6z" stroke="#000" stroke-width="2" fill="#c1e4f7"/><use xlink:href="#L" transform="matrix(1,0,0,1,388,1405.5) translate(58.025 14.4)"/><path d="M480 1500c0 11.05-8.95 20-20 20s-20-8.95-20-20 8.95-20 20-20 20 8.95 20 20z" stroke="#000" stroke-width="2" fill="#fff"/><path d="M445.86 1485.86l28.28 28.28m0-28.28l-28.28 28.28" stroke="#000" stroke-width="2" fill="none"/><path d="M930.8 980c-4.42 0-8 3.58-8 8v24c0 4.42 3.58 8 8 8h144c4.42 0 8-3.58 8-8v-24c0-4.42-3.58-8-8-8z" stroke="#000" stroke-width="2" fill="#c1e4f7"/><use xlink:href="#M" transform="matrix(1,0,0,1,930.8,988) translate(8.024999999999999 15.6)"/><path d="M653.2 1330h-93.7" stroke="#000" stroke-width="2" fill="none"/><path d="M654.2 1331h-1.03v-2h1.03z"/><path d="M544.24 1330l14.26-4.64v9.28z" stroke="#000" stroke-width="2"/><path d="M460 1347v31" stroke="#000" stroke-width="2" fill="none"/><path d="M461 1347.03h-2V1346h2z"/><path d="M460 1393.26l-4.64-14.26h9.28z" stroke="#000" stroke-width="2"/><path d="M460 1429.5v31" stroke="#000" stroke-width="2" fill="none"/><path d="M461 1429.53h-2v-1.03h2z"/><path d="M460 1475.76l-4.64-14.26h9.28z" stroke="#000" stroke-width="2"/><path d="M643.2 1110c-15.46 0-28 12.54-28 28v84c0 15.46 12.54 28 28 28h184c15.46 0 28-12.54 28-28v-84c0-15.46-12.54-28-28-28z" stroke="#000" stroke-width="2" fill="#c1e4f7"/><path d="M615.2 1154h240" stroke="#000" stroke-width="2" fill="none"/><g><use xlink:href="#v" transform="matrix(1,0,0,1,663.1999999999999,1110) translate(22.049999999999997 25.6)"/></g><g><use xlink:href="#w" transform="matrix(1,0,0,1,639.1999999999999,1170) translate(15.049999999999997 14.4)"/><use xlink:href="#x" transform="matrix(1,0,0,1,639.1999999999999,1170) translate(88 14.4)"/><use xlink:href="#y" transform="matrix(1,0,0,1,639.1999999999999,1170) translate(23.650000000000006 36)"/><use xlink:href="#z" transform="matrix(1,0,0,1,639.1999999999999,1170) translate(79.55000000000001 36)"/><use xlink:href="#A" transform="matrix(1,0,0,1,639.1999999999999,1170) translate(141.45 36)"/><use xlink:href="#B" transform="matrix(1,0,0,1,639.1999999999999,1170) translate(2.125 57.6)"/><use xlink:href="#u" transform="matrix(1,0,0,1,639.1999999999999,1170) translate(149.925 57.6)"/></g><path d="M584.8 1000h53.03" stroke="#000" stroke-width="2" fill="none"/><path d="M584.83 1001h-1.03v-2h1.03z"/><path d="M653.1 1000l-14.27 4.64v-9.28zM307.6 1000c0 11.05-8.95 20-20 20s-20-8.95-20-20 8.95-20 20-20 20 8.95 20 20z" stroke="#000" stroke-width="2"/><path d="M363.3 1000h-53.7" stroke="#000" stroke-width="2" fill="none"/><path d="M378.56 1000l-14.26 4.64v-9.28z" stroke="#000" stroke-width="2"/><path d="M309.63 1001h-1.15l.12-.96-.03-1.04h1.06zM739 1074.33h-2v-12.08h2z"/><path d="M739 1062.28h-2v-1.78l1 .75 1-.75zM738 1105.76l-3.2-9.84h6.4z"/><path d="M738 1109l-4.25-13.08h2.1l2.15 6.6 2.15-6.6h2.1z"/><g><use xlink:href="#N" transform="matrix(1,0,0,1,723.3249999999998,1074.325) translate(0 14.4)"/></g><path d="M735.2 1252v28.5" stroke="#000" stroke-width="2" fill="none"/><path d="M736.2 1252.03h-2V1251h2z"/><path d="M735.2 1295.76l-4.64-14.26h9.28z" stroke="#000" stroke-width="2"/><path d="M80 1180h160v40H80z" fill="#ff8f80"/><g><use xlink:href="#O" transform="matrix(1,0,0,1,80,1180.0000000000464) translate(43.305 24.4)"/><use xlink:href="#P" transform="matrix(1,0,0,1,80,1180.0000000000464) translate(66.255 24.4)"/><use xlink:href="#Q" transform="matrix(1,0,0,1,80,1180.0000000000464) translate(87.705 24.4)"/></g><path d="M80 1240h160v40H80z" fill="#c1e4f7"/><g><use xlink:href="#R" transform="matrix(1,0,0,1,80,1240) translate(43.305 24.4)"/><use xlink:href="#P" transform="matrix(1,0,0,1,80,1240) translate(77.305 24.4)"/><use xlink:href="#S" transform="matrix(1,0,0,1,80,1240) translate(98.755 24.4)"/></g><path d="M64.8 1123.2h200V1360h-200z" stroke="#000" stroke-width="2" fill-opacity="0"/><g><use xlink:href="#T" transform="matrix(1,0,0,1,72.80000000000007,1131.1999999999998) translate(62 15.6)"/></g><path d="M80 1300h160v40H80z" fill="#c7e8ac"/><g><use xlink:href="#U" transform="matrix(1,0,0,1,80,1299.9999999999536) translate(65.50500000000001 24.4)"/></g><defs><path d="M108 0H70L1-190h34L89-25l56-165h34" id="V"/><path d="M141-36C126-15 110 5 73 4 37 3 15-17 15-53c-1-64 63-63 125-63 3-35-9-54-41-54-24 1-41 7-42 31l-33-3c5-37 33-52 76-52 45 0 72 20 72 64v82c-1 20 7 32 28 27v20c-31 9-61-2-59-35zM48-53c0 20 12 33 32 33 41-3 63-29 60-74-43 2-92-5-92 41" id="W"/><path d="M24 0v-261h32V0H24" id="X"/><path d="M84 4C-5 8 30-112 23-190h32v120c0 31 7 50 39 49 72-2 45-101 50-169h31l1 190h-30c-1-10 1-25-2-33-11 22-28 36-60 37" id="Y"/><path d="M100-194c63 0 86 42 84 106H49c0 40 14 67 53 68 26 1 43-12 49-29l28 8c-11 28-37 45-77 45C44 4 14-33 15-96c1-61 26-98 85-98zm52 81c6-60-76-77-97-28-3 7-6 17-6 28h103" id="Z"/><g id="a"><use transform="matrix(0.05,0,0,0.05,0,0)" xlink:href="#V"/><use transform="matrix(0.05,0,0,0.05,9,0)" xlink:href="#W"/><use transform="matrix(0.05,0,0,0.05,19,0)" xlink:href="#X"/><use transform="matrix(0.05,0,0,0.05,22.95,0)" xlink:href="#Y"/><use transform="matrix(0.05,0,0,0.05,32.95,0)" xlink:href="#Z"/></g><path d="M101-234c-31-9-42 10-38 44h38v23H63V0H32v-167H5v-23h27c-7-52 17-82 69-68v24" id="aa"/><path d="M100-194c62-1 85 37 85 99 1 63-27 99-86 99S16-35 15-95c0-66 28-99 85-99zM99-20c44 1 53-31 53-75 0-43-8-75-51-75s-53 32-53 75 10 74 51 75" id="ab"/><path d="M114-163C36-179 61-72 57 0H25l-1-190h30c1 12-1 29 2 39 6-27 23-49 58-41v29" id="ac"/><g id="b"><use transform="matrix(0.05,0,0,0.05,0,0)" xlink:href="#aa"/><use transform="matrix(0.05,0,0,0.05,5,0)" xlink:href="#ab"/><use transform="matrix(0.05,0,0,0.05,15,0)" xlink:href="#ac"/></g><path d="M47-170H22l-4-78h33" id="ad"/><path d="M24-231v-30h32v30H24zM24 0v-190h32V0H24" id="ae"/><path d="M85-194c31 0 48 13 60 33l-1-100h32l1 261h-30c-2-10 0-23-3-31C134-8 116 4 85 4 32 4 16-35 15-94c0-66 23-100 70-100zm9 24c-40 0-46 34-46 75 0 40 6 74 45 74 42 0 51-32 51-76 0-42-9-74-50-73" id="af"/><g id="c"><use transform="matrix(0.05,0,0,0.05,0,0)" xlink:href="#ad"/><use transform="matrix(0.05,0,0,0.05,3.4000000000000004,0)" xlink:href="#ae"/><use transform="matrix(0.05,0,0,0.05,7.3500000000000005,0)" xlink:href="#af"/><use transform="matrix(0.05,0,0,0.05,17.35,0)" xlink:href="#ad"/></g><path d="M135-143c-3-34-86-38-87 0 15 53 115 12 119 90S17 21 10-45l28-5c4 36 97 45 98 0-10-56-113-15-118-90-4-57 82-63 122-42 12 7 21 19 24 35" id="ag"/><path d="M106-169C34-169 62-67 57 0H25v-261h32l-1 103c12-21 28-36 61-36 89 0 53 116 60 194h-32v-121c2-32-8-49-39-48" id="ah"/><g id="d"><use transform="matrix(0.05,0,0,0.05,0,0)" xlink:href="#ag"/><use transform="matrix(0.05,0,0,0.05,9,0)" xlink:href="#ah"/><use transform="matrix(0.05,0,0,0.05,19,0)" xlink:href="#ab"/><use transform="matrix(0.05,0,0,0.05,29,0)" xlink:href="#Y"/><use transform="matrix(0.05,0,0,0.05,39,0)" xlink:href="#X"/><use transform="matrix(0.05,0,0,0.05,42.95,0)" xlink:href="#af"/></g><path d="M115-194c53 0 69 39 70 98 0 66-23 100-70 100C84 3 66-7 56-30L54 0H23l1-261h32v101c10-23 28-34 59-34zm-8 174c40 0 45-34 45-75 0-40-5-75-45-74-42 0-51 32-51 76 0 43 10 73 51 73" id="ai"/><g id="e"><use transform="matrix(0.05,0,0,0.05,0,0)" xlink:href="#ai"/><use transform="matrix(0.05,0,0,0.05,10,0)" xlink:href="#Z"/></g><path d="M59-47c-2 24 18 29 38 22v24C64 9 27 4 27-40v-127H5v-23h24l9-43h21v43h35v23H59v120" id="aj"/><path d="M206 0h-36l-40-164L89 0H53L-1-190h32L70-26l43-164h34l41 164 42-164h31" id="ak"/><path d="M117-194c89-4 53 116 60 194h-32v-121c0-31-8-49-39-48C34-167 62-67 57 0H25l-1-190h30c1 10-1 24 2 32 11-22 29-35 61-36" id="al"/><g id="f"><use transform="matrix(0.05,0,0,0.05,0,0)" xlink:href="#ai"/><use transform="matrix(0.05,0,0,0.05,10,0)" xlink:href="#Z"/><use transform="matrix(0.05,0,0,0.05,20,0)" xlink:href="#aj"/><use transform="matrix(0.05,0,0,0.05,25,0)" xlink:href="#ak"/><use transform="matrix(0.05,0,0,0.05,37.95,0)" xlink:href="#Z"/><use transform="matrix(0.05,0,0,0.05,47.95,0)" xlink:href="#Z"/><use transform="matrix(0.05,0,0,0.05,57.95,0)" xlink:href="#al"/></g><path d="M16-82v-28h88v28H16" id="am"/><path d="M27 0v-27h64v-190l-56 39v-29l58-41h29v221h61V0H27" id="an"/><g id="g"><use transform="matrix(0.05,0,0,0.05,0,0)" xlink:href="#am"/><use transform="matrix(0.05,0,0,0.05,5.95,0)" xlink:href="#an"/></g><g id="h"><use transform="matrix(0.05,0,0,0.05,0,0)" xlink:href="#W"/><use transform="matrix(0.05,0,0,0.05,10,0)" xlink:href="#al"/><use transform="matrix(0.05,0,0,0.05,20,0)" xlink:href="#af"/></g><path d="M9 0v-24l116-142H16v-24h144v24L44-24h123V0H9" id="ao"/><g id="i"><use transform="matrix(0.05,0,0,0.05,0,0)" xlink:href="#ag"/><use transform="matrix(0.05,0,0,0.05,9,0)" xlink:href="#ae"/><use transform="matrix(0.05,0,0,0.05,12.949999999999998,0)" xlink:href="#ao"/><use transform="matrix(0.05,0,0,0.05,21.95,0)" xlink:href="#Z"/></g><g id="j"><use transform="matrix(0.05,0,0,0.05,0,0)" xlink:href="#ab"/><use transform="matrix(0.05,0,0,0.05,10,0)" xlink:href="#aa"/></g><path d="M96-169c-40 0-48 33-48 73s9 75 48 75c24 0 41-14 43-38l32 2c-6 37-31 61-74 61-59 0-76-41-82-99-10-93 101-131 147-64 4 7 5 14 7 22l-32 3c-4-21-16-35-41-35" id="ap"/><path d="M143 0L79-87 56-68V0H24v-261h32v163l83-92h37l-77 82L181 0h-38" id="aq"/><path d="M-5 72V49h209v23H-5" id="ar"/><path d="M33 0v-38h34V0H33" id="as"/><path d="M145-31C134-9 116 4 85 4 32 4 16-35 15-94c0-59 17-99 70-100 32-1 48 14 60 33 0-11-1-24 2-32h30l-1 268h-32zM93-21c41 0 51-33 51-76s-8-73-50-73c-40 0-46 35-46 75s5 74 45 74" id="at"/><g id="k"><use transform="matrix(0.05,0,0,0.05,0,0)" xlink:href="#ad"/><use transform="matrix(0.05,0,0,0.05,3.4000000000000004,0)" xlink:href="#W"/><use transform="matrix(0.05,0,0,0.05,13.4,0)" xlink:href="#aj"/><use transform="matrix(0.05,0,0,0.05,18.4,0)" xlink:href="#aj"/><use transform="matrix(0.05,0,0,0.05,23.4,0)" xlink:href="#W"/><use transform="matrix(0.05,0,0,0.05,33.4,0)" xlink:href="#ap"/><use transform="matrix(0.05,0,0,0.05,42.4,0)" xlink:href="#aq"/><use transform="matrix(0.05,0,0,0.05,51.400000000000006,0)" xlink:href="#ar"/><use transform="matrix(0.05,0,0,0.05,61.400000000000006,0)" xlink:href="#aj"/><use transform="matrix(0.05,0,0,0.05,66.4,0)" xlink:href="#ac"/><use transform="matrix(0.05,0,0,0.05,72.35000000000001,0)" xlink:href="#W"/><use transform="matrix(0.05,0,0,0.05,82.35000000000001,0)" xlink:href="#ap"/><use transform="matrix(0.05,0,0,0.05,91.35000000000001,0)" xlink:href="#Z"/><use transform="matrix(0.05,0,0,0.05,101.35000000000001,0)" xlink:href="#as"/><use transform="matrix(0.05,0,0,0.05,106.35000000000001,0)" xlink:href="#W"/><use transform="matrix(0.05,0,0,0.05,116.35000000000001,0)" xlink:href="#ap"/><use transform="matrix(0.05,0,0,0.05,125.35000000000001,0)" xlink:href="#aj"/><use transform="matrix(0.05,0,0,0.05,130.35000000000002,0)" xlink:href="#ae"/><use transform="matrix(0.05,0,0,0.05,134.3,0)" xlink:href="#ab"/><use transform="matrix(0.05,0,0,0.05,144.3,0)" xlink:href="#al"/><use transform="matrix(0.05,0,0,0.05,154.3,0)" xlink:href="#ar"/><use transform="matrix(0.05,0,0,0.05,164.3,0)" xlink:href="#ag"/><use transform="matrix(0.05,0,0,0.05,173.3,0)" xlink:href="#Z"/><use transform="matrix(0.05,0,0,0.05,183.3,0)" xlink:href="#at"/><use transform="matrix(0.05,0,0,0.05,193.3,0)" xlink:href="#Y"/><use transform="matrix(0.05,0,0,0.05,203.3,0)" xlink:href="#Z"/><use transform="matrix(0.05,0,0,0.05,213.3,0)" xlink:href="#al"/><use transform="matrix(0.05,0,0,0.05,223.3,0)" xlink:href="#ap"/><use transform="matrix(0.05,0,0,0.05,232.3,0)" xlink:href="#Z"/><use transform="matrix(0.05,0,0,0.05,242.3,0)" xlink:href="#ad"/></g><use transform="matrix(0.05,0,0,0.05,0,0)" xlink:href="#am" id="l"/><use transform="matrix(0.05,0,0,0.05,0,0)" xlink:href="#an" id="m"/><path d="M210-169c-67 3-38 105-44 169h-31v-121c0-29-5-50-35-48C34-165 62-65 56 0H25l-1-190h30c1 10-1 24 2 32 10-44 99-50 107 0 11-21 27-35 58-36 85-2 47 119 55 194h-31v-121c0-29-5-49-35-48" id="au"/><g id="n"><use transform="matrix(0.05,0,0,0.05,0,0)" xlink:href="#aa"/><use transform="matrix(0.05,0,0,0.05,5,0)" xlink:href="#ac"/><use transform="matrix(0.05,0,0,0.05,10.95,0)" xlink:href="#ab"/><use transform="matrix(0.05,0,0,0.05,20.95,0)" xlink:href="#au"/></g><path d="M179-190L93 31C79 59 56 82 12 73V49c39 6 53-20 64-50L1-190h34L92-34l54-156h33" id="av"/><g id="o"><use transform="matrix(0.05,0,0,0.05,0,0)" xlink:href="#ad"/><use transform="matrix(0.05,0,0,0.05,3.4000000000000004,0)" xlink:href="#at"/><use transform="matrix(0.05,0,0,0.05,13.4,0)" xlink:href="#Y"/><use transform="matrix(0.05,0,0,0.05,23.4,0)" xlink:href="#Z"/><use transform="matrix(0.05,0,0,0.05,33.4,0)" xlink:href="#ac"/><use transform="matrix(0.05,0,0,0.05,39.35,0)" xlink:href="#av"/><use transform="matrix(0.05,0,0,0.05,48.35,0)" xlink:href="#ar"/><use transform="matrix(0.05,0,0,0.05,58.35,0)" xlink:href="#aa"/><use transform="matrix(0.05,0,0,0.05,63.35,0)" xlink:href="#ae"/><use transform="matrix(0.05,0,0,0.05,67.3,0)" xlink:href="#X"/><use transform="matrix(0.05,0,0,0.05,71.25,0)" xlink:href="#Z"/><use transform="matrix(0.05,0,0,0.05,81.25,0)" xlink:href="#ad"/></g><path d="M115-194c55 1 70 41 70 98S169 2 115 4C84 4 66-9 55-30l1 105H24l-1-265h31l2 30c10-21 28-34 59-34zm-8 174c40 0 45-34 45-75s-6-73-45-74c-42 0-51 32-51 76 0 43 10 73 51 73" id="aw"/><g id="p"><use transform="matrix(0.05,0,0,0.05,0,0)" xlink:href="#ag"/><use transform="matrix(0.05,0,0,0.05,9,0)" xlink:href="#aj"/><use transform="matrix(0.05,0,0,0.05,14,0)" xlink:href="#W"/><use transform="matrix(0.05,0,0,0.05,24,0)" xlink:href="#ac"/><use transform="matrix(0.05,0,0,0.05,29.950000000000003,0)" xlink:href="#aj"/><use transform="matrix(0.05,0,0,0.05,34.95,0)" xlink:href="#ar"/><use transform="matrix(0.05,0,0,0.05,44.95,0)" xlink:href="#af"/><use transform="matrix(0.05,0,0,0.05,54.95,0)" xlink:href="#ae"/><use transform="matrix(0.05,0,0,0.05,58.900000000000006,0)" xlink:href="#ag"/><use transform="matrix(0.05,0,0,0.05,67.9,0)" xlink:href="#aw"/><use transform="matrix(0.05,0,0,0.05,77.9,0)" xlink:href="#X"/><use transform="matrix(0.05,0,0,0.05,81.85000000000001,0)" xlink:href="#W"/><use transform="matrix(0.05,0,0,0.05,91.85000000000001,0)" xlink:href="#av"/><use transform="matrix(0.05,0,0,0.05,100.85000000000001,0)" xlink:href="#ar"/><use transform="matrix(0.05,0,0,0.05,110.85000000000001,0)" xlink:href="#aj"/><use transform="matrix(0.05,0,0,0.05,115.85000000000001,0)" xlink:href="#ac"/><use transform="matrix(0.05,0,0,0.05,121.80000000000001,0)" xlink:href="#W"/><use transform="matrix(0.05,0,0,0.05,131.8,0)" xlink:href="#ap"/><use transform="matrix(0.05,0,0,0.05,140.8,0)" xlink:href="#Z"/></g><path d="M33-154v-36h34v36H33zM33 0v-36h34V0H33" id="ax"/><g id="q"><use transform="matrix(0.05,0,0,0.05,0,0)" xlink:href="#at"/><use transform="matrix(0.05,0,0,0.05,10,0)" xlink:href="#Y"/><use transform="matrix(0.05,0,0,0.05,20,0)" xlink:href="#Z"/><use transform="matrix(0.05,0,0,0.05,30,0)" xlink:href="#ac"/><use transform="matrix(0.05,0,0,0.05,35.95,0)" xlink:href="#av"/><use transform="matrix(0.05,0,0,0.05,44.95,0)" xlink:href="#ar"/><use transform="matrix(0.05,0,0,0.05,54.95,0)" xlink:href="#aa"/><use transform="matrix(0.05,0,0,0.05,59.95,0)" xlink:href="#ae"/><use transform="matrix(0.05,0,0,0.05,63.900000000000006,0)" xlink:href="#X"/><use transform="matrix(0.05,0,0,0.05,67.85000000000001,0)" xlink:href="#Z"/><use transform="matrix(0.05,0,0,0.05,77.85000000000001,0)" xlink:href="#ax"/></g><path d="M18-100v-36l175-74v27L42-118l151 64v27" id="ay"/><path d="M177-190C167-65 218 103 67 71c-23-6-38-20-44-43l32-5c15 47 100 32 89-28v-30C133-14 115 1 83 1 29 1 15-40 15-95c0-56 16-97 71-98 29-1 48 16 59 35 1-10 0-23 2-32h30zM94-22c36 0 50-32 50-73 0-42-14-75-50-75-39 0-46 34-46 75s6 73 46 73" id="az"/><path d="M18-27v-27l151-64-151-65v-27l175 74v36" id="aA"/><g id="r"><use transform="matrix(0.05,0,0,0.05,0,0)" xlink:href="#ay"/><use transform="matrix(0.05,0,0,0.05,10.5,0)" xlink:href="#ag"/><use transform="matrix(0.05,0,0,0.05,19.5,0)" xlink:href="#aj"/><use transform="matrix(0.05,0,0,0.05,24.5,0)" xlink:href="#ac"/><use transform="matrix(0.05,0,0,0.05,30.450000000000003,0)" xlink:href="#ae"/><use transform="matrix(0.05,0,0,0.05,34.4,0)" xlink:href="#al"/><use transform="matrix(0.05,0,0,0.05,44.4,0)" xlink:href="#az"/><use transform="matrix(0.05,0,0,0.05,54.400000000000006,0)" xlink:href="#aA"/></g><g id="s"><use transform="matrix(0.05,0,0,0.05,0,0)" xlink:href="#az"/><use transform="matrix(0.05,0,0,0.05,10,0)" xlink:href="#ab"/><use transform="matrix(0.05,0,0,0.05,20,0)" xlink:href="#aj"/><use transform="matrix(0.05,0,0,0.05,25,0)" xlink:href="#ab"/><use transform="matrix(0.05,0,0,0.05,35,0)" xlink:href="#ar"/><use transform="matrix(0.05,0,0,0.05,45,0)" xlink:href="#ag"/><use transform="matrix(0.05,0,0,0.05,54,0)" xlink:href="#aj"/><use transform="matrix(0.05,0,0,0.05,59,0)" xlink:href="#Z"/><use transform="matrix(0.05,0,0,0.05,69,0)" xlink:href="#aw"/></g><g id="t"><use transform="matrix(0.05,0,0,0.05,0,0)" xlink:href="#ae"/><use transform="matrix(0.05,0,0,0.05,3.95,0)" xlink:href="#af"/><use transform="matrix(0.05,0,0,0.05,13.949999999999998,0)" xlink:href="#ax"/></g><g id="u"><use transform="matrix(0.05,0,0,0.05,0,0)" xlink:href="#ay"/><use transform="matrix(0.05,0,0,0.05,10.5,0)" xlink:href="#ae"/><use transform="matrix(0.05,0,0,0.05,14.449999999999998,0)" xlink:href="#al"/><use transform="matrix(0.05,0,0,0.05,24.45,0)" xlink:href="#aj"/><use transform="matrix(0.05,0,0,0.05,29.450000000000003,0)" xlink:href="#aA"/></g><g id="v"><use transform="matrix(0.05,0,0,0.05,0,0)" xlink:href="#ap"/><use transform="matrix(0.05,0,0,0.05,9,0)" xlink:href="#Y"/><use transform="matrix(0.05,0,0,0.05,19,0)" xlink:href="#ac"/><use transform="matrix(0.05,0,0,0.05,24.95,0)" xlink:href="#ac"/><use transform="matrix(0.05,0,0,0.05,30.899999999999995,0)" xlink:href="#Z"/><use transform="matrix(0.05,0,0,0.05,40.9,0)" xlink:href="#al"/><use transform="matrix(0.05,0,0,0.05,50.9,0)" xlink:href="#aj"/><use transform="matrix(0.05,0,0,0.05,55.900000000000006,0)" xlink:href="#ar"/><use transform="matrix(0.05,0,0,0.05,65.9,0)" xlink:href="#ag"/><use transform="matrix(0.05,0,0,0.05,74.9,0)" xlink:href="#aj"/><use transform="matrix(0.05,0,0,0.05,79.9,0)" xlink:href="#Z"/><use transform="matrix(0.05,0,0,0.05,89.9,0)" xlink:href="#aw"/></g><g id="w"><use transform="matrix(0.05,0,0,0.05,0,0)" xlink:href="#aw"/><use transform="matrix(0.05,0,0,0.05,10,0)" xlink:href="#ac"/><use transform="matrix(0.05,0,0,0.05,15.949999999999998,0)" xlink:href="#ab"/><use transform="matrix(0.05,0,0,0.05,25.950000000000003,0)" xlink:href="#ap"/><use transform="matrix(0.05,0,0,0.05,34.95,0)" xlink:href="#Z"/><use transform="matrix(0.05,0,0,0.05,44.95,0)" xlink:href="#ag"/><use transform="matrix(0.05,0,0,0.05,53.95,0)" xlink:href="#ag"/><use transform="matrix(0.05,0,0,0.05,62.95,0)" xlink:href="#ax"/></g><path d="M68-38c1 34 0 65-14 84H32c9-13 17-26 17-46H33v-38h35" id="aB"/><g id="x"><use transform="matrix(0.05,0,0,0.05,0,0)" xlink:href="#ay"/><use transform="matrix(0.05,0,0,0.05,10.5,0)" xlink:href="#aw"/><use transform="matrix(0.05,0,0,0.05,20.5,0)" xlink:href="#ac"/><use transform="matrix(0.05,0,0,0.05,26.450000000000003,0)" xlink:href="#ab"/><use transform="matrix(0.05,0,0,0.05,36.45,0)" xlink:href="#ap"/><use transform="matrix(0.05,0,0,0.05,45.45,0)" xlink:href="#Z"/><use transform="matrix(0.05,0,0,0.05,55.45,0)" xlink:href="#ag"/><use transform="matrix(0.05,0,0,0.05,64.45,0)" xlink:href="#ag"/><use transform="matrix(0.05,0,0,0.05,73.45,0)" xlink:href="#aA"/><use transform="matrix(0.05,0,0,0.05,83.95,0)" xlink:href="#aB"/></g><g id="y"><use transform="matrix(0.05,0,0,0.05,0,0)" xlink:href="#aa"/><use transform="matrix(0.05,0,0,0.05,5,0)" xlink:href="#ac"/><use transform="matrix(0.05,0,0,0.05,10.95,0)" xlink:href="#W"/><use transform="matrix(0.05,0,0,0.05,20.95,0)" xlink:href="#au"/><use transform="matrix(0.05,0,0,0.05,35.9,0)" xlink:href="#Z"/><use transform="matrix(0.05,0,0,0.05,45.9,0)" xlink:href="#ax"/></g><g id="z"><use transform="matrix(0.05,0,0,0.05,0,0)" xlink:href="#ay"/><use transform="matrix(0.05,0,0,0.05,10.5,0)" xlink:href="#aj"/><use transform="matrix(0.05,0,0,0.05,15.5,0)" xlink:href="#Z"/><use transform="matrix(0.05,0,0,0.05,25.5,0)" xlink:href="#ac"/><use transform="matrix(0.05,0,0,0.05,31.450000000000003,0)" xlink:href="#au"/><use transform="matrix(0.05,0,0,0.05,46.4,0)" xlink:href="#aA"/></g><g id="A"><use transform="matrix(0.05,0,0,0.05,0,0)" xlink:href="#X"/><use transform="matrix(0.05,0,0,0.05,3.95,0)" xlink:href="#ae"/><use transform="matrix(0.05,0,0,0.05,7.9,0)" xlink:href="#ag"/><use transform="matrix(0.05,0,0,0.05,16.9,0)" xlink:href="#aj"/><use transform="matrix(0.05,0,0,0.05,21.9,0)" xlink:href="#aB"/></g><g id="B"><use transform="matrix(0.05,0,0,0.05,0,0)" xlink:href="#ap"/><use transform="matrix(0.05,0,0,0.05,9,0)" xlink:href="#Y"/><use transform="matrix(0.05,0,0,0.05,19,0)" xlink:href="#ac"/><use transform="matrix(0.05,0,0,0.05,24.95,0)" xlink:href="#ac"/><use transform="matrix(0.05,0,0,0.05,30.899999999999995,0)" xlink:href="#Z"/><use transform="matrix(0.05,0,0,0.05,40.9,0)" xlink:href="#al"/><use transform="matrix(0.05,0,0,0.05,50.9,0)" xlink:href="#aj"/><use transform="matrix(0.05,0,0,0.05,55.900000000000006,0)" xlink:href="#ar"/><use transform="matrix(0.05,0,0,0.05,65.9,0)" xlink:href="#W"/><use transform="matrix(0.05,0,0,0.05,75.9,0)" xlink:href="#ap"/><use transform="matrix(0.05,0,0,0.05,84.9,0)" xlink:href="#aj"/><use transform="matrix(0.05,0,0,0.05,89.9,0)" xlink:href="#ae"/><use transform="matrix(0.05,0,0,0.05,93.85000000000001,0)" xlink:href="#ab"/><use transform="matrix(0.05,0,0,0.05,103.85000000000001,0)" xlink:href="#al"/><use transform="matrix(0.05,0,0,0.05,113.85000000000001,0)" xlink:href="#ar"/><use transform="matrix(0.05,0,0,0.05,123.85000000000001,0)" xlink:href="#ae"/><use transform="matrix(0.05,0,0,0.05,127.80000000000001,0)" xlink:href="#af"/><use transform="matrix(0.05,0,0,0.05,137.8,0)" xlink:href="#ax"/></g><g id="C"><use transform="matrix(0.05,0,0,0.05,0,0)" xlink:href="#ae"/><use transform="matrix(0.05,0,0,0.05,3.95,0)" xlink:href="#aa"/></g><g id="D"><use transform="matrix(0.05,0,0,0.05,0,0)" xlink:href="#at"/><use transform="matrix(0.05,0,0,0.05,10,0)" xlink:href="#Y"/><use transform="matrix(0.05,0,0,0.05,20,0)" xlink:href="#Z"/><use transform="matrix(0.05,0,0,0.05,30,0)" xlink:href="#ac"/><use transform="matrix(0.05,0,0,0.05,35.95,0)" xlink:href="#av"/><use transform="matrix(0.05,0,0,0.05,44.95,0)" xlink:href="#ar"/><use transform="matrix(0.05,0,0,0.05,54.95,0)" xlink:href="#aa"/><use transform="matrix(0.05,0,0,0.05,59.95,0)" xlink:href="#ae"/><use transform="matrix(0.05,0,0,0.05,63.900000000000006,0)" xlink:href="#X"/><use transform="matrix(0.05,0,0,0.05,67.85000000000001,0)" xlink:href="#Z"/></g><g id="E"><use transform="matrix(0.05,0,0,0.05,0,0)" xlink:href="#ap"/><use transform="matrix(0.05,0,0,0.05,9,0)" xlink:href="#ab"/><use transform="matrix(0.05,0,0,0.05,19,0)" xlink:href="#al"/><use transform="matrix(0.05,0,0,0.05,29,0)" xlink:href="#aj"/><use transform="matrix(0.05,0,0,0.05,34,0)" xlink:href="#W"/><use transform="matrix(0.05,0,0,0.05,44,0)" xlink:href="#ae"/><use transform="matrix(0.05,0,0,0.05,47.95,0)" xlink:href="#al"/><use transform="matrix(0.05,0,0,0.05,57.95,0)" xlink:href="#ag"/></g><g id="F"><use transform="matrix(0.05,0,0,0.05,0,0)" xlink:href="#W"/><use transform="matrix(0.05,0,0,0.05,10,0)" xlink:href="#al"/></g><g id="G"><use transform="matrix(0.05,0,0,0.05,0,0)" xlink:href="#W"/><use transform="matrix(0.05,0,0,0.05,10,0)" xlink:href="#aj"/><use transform="matrix(0.05,0,0,0.05,15,0)" xlink:href="#aj"/><use transform="matrix(0.05,0,0,0.05,20,0)" xlink:href="#W"/><use transform="matrix(0.05,0,0,0.05,30,0)" xlink:href="#ap"/><use transform="matrix(0.05,0,0,0.05,39,0)" xlink:href="#aq"/></g><path d="M190 0L58-211 59 0H30v-248h39L202-35l-2-213h31V0h-41" id="aC"/><g id="H"><use transform="matrix(0.05,0,0,0.05,0,0)" xlink:href="#aC"/><use transform="matrix(0.05,0,0,0.05,12.950000000000001,0)" xlink:href="#ab"/></g><path d="M266 0h-40l-56-210L115 0H75L2-248h35L96-30l15-64 43-154h32l59 218 59-218h35" id="aD"/><g id="I"><use transform="matrix(0.05,0,0,0.05,0,0)" xlink:href="#aD"/><use transform="matrix(0.05,0,0,0.05,16.3,0)" xlink:href="#W"/><use transform="matrix(0.05,0,0,0.05,26.3,0)" xlink:href="#ae"/><use transform="matrix(0.05,0,0,0.05,30.25,0)" xlink:href="#aj"/><use transform="matrix(0.05,0,0,0.05,35.25,0)" xlink:href="#ae"/><use transform="matrix(0.05,0,0,0.05,39.2,0)" xlink:href="#al"/><use transform="matrix(0.05,0,0,0.05,49.2,0)" xlink:href="#az"/></g><g id="J"><use transform="matrix(0.05,0,0,0.05,0,0)" xlink:href="#ap"/><use transform="matrix(0.05,0,0,0.05,9,0)" xlink:href="#ab"/><use transform="matrix(0.05,0,0,0.05,19,0)" xlink:href="#au"/><use transform="matrix(0.05,0,0,0.05,33.95,0)" xlink:href="#au"/><use transform="matrix(0.05,0,0,0.05,48.900000000000006,0)" xlink:href="#W"/><use transform="matrix(0.05,0,0,0.05,58.900000000000006,0)" xlink:href="#al"/><use transform="matrix(0.05,0,0,0.05,68.9,0)" xlink:href="#af"/></g><g id="K"><use transform="matrix(0.05,0,0,0.05,0,0)" xlink:href="#af"/><use transform="matrix(0.05,0,0,0.05,10,0)" xlink:href="#ae"/><use transform="matrix(0.05,0,0,0.05,13.949999999999998,0)" xlink:href="#Z"/></g><path d="M141 0L90-78 38 0H4l68-98-65-92h35l48 74 47-74h35l-64 92 68 98h-35" id="aE"/><g id="L"><use transform="matrix(0.05,0,0,0.05,0,0)" xlink:href="#Z"/><use transform="matrix(0.05,0,0,0.05,10,0)" xlink:href="#aE"/><use transform="matrix(0.05,0,0,0.05,19,0)" xlink:href="#ae"/><use transform="matrix(0.05,0,0,0.05,22.95,0)" xlink:href="#aj"/></g><g id="M"><use transform="matrix(0.05,0,0,0.05,0,0)" xlink:href="#al"/><use transform="matrix(0.05,0,0,0.05,10,0)" xlink:href="#ab"/><use transform="matrix(0.05,0,0,0.05,20,0)" xlink:href="#ar"/><use transform="matrix(0.05,0,0,0.05,30,0)" xlink:href="#W"/><use transform="matrix(0.05,0,0,0.05,40,0)" xlink:href="#aj"/><use transform="matrix(0.05,0,0,0.05,45,0)" xlink:href="#aj"/><use transform="matrix(0.05,0,0,0.05,50,0)" xlink:href="#W"/><use transform="matrix(0.05,0,0,0.05,60,0)" xlink:href="#ap"/><use transform="matrix(0.05,0,0,0.05,69,0)" xlink:href="#aq"/><use transform="matrix(0.05,0,0,0.05,78,0)" xlink:href="#ar"/><use transform="matrix(0.05,0,0,0.05,88,0)" xlink:href="#aj"/><use transform="matrix(0.05,0,0,0.05,93,0)" xlink:href="#ac"/><use transform="matrix(0.05,0,0,0.05,98.95,0)" xlink:href="#W"/><use transform="matrix(0.05,0,0,0.05,108.95,0)" xlink:href="#ap"/><use transform="matrix(0.05,0,0,0.05,117.95,0)" xlink:href="#Z"/></g><path d="M137-103V0h-34v-103L8-248h37l75 118 75-118h37" id="aF"/><g id="N"><use transform="matrix(0.05,0,0,0.05,0,0)" xlink:href="#aF"/><use transform="matrix(0.05,0,0,0.05,10.35,0)" xlink:href="#Z"/><use transform="matrix(0.05,0,0,0.05,20.35,0)" xlink:href="#ag"/></g><path d="M232-93c-1 65-40 97-104 97C67 4 28-28 28-90v-158h33c8 89-33 224 67 224 102 0 64-133 71-224h33v155" id="aG"/><path d="M33 0v-248h34V0H33" id="aH"/><g id="O"><use transform="matrix(0.05,0,0,0.05,0,0)" xlink:href="#aG"/><use transform="matrix(0.05,0,0,0.05,12.950000000000001,0)" xlink:href="#aH"/></g><g id="P"><use transform="matrix(0.05,0,0,0.05,0,0)" xlink:href="#am"/><use transform="matrix(0.05,0,0,0.05,5.95,0)" xlink:href="#aA"/></g><path d="M205 0l-28-72H64L36 0H1l101-248h38L239 0h-34zm-38-99l-47-123c-12 45-31 82-46 123h93" id="aI"/><path d="M30-248c87 1 191-15 191 75 0 78-77 80-158 76V0H30v-248zm33 125c57 0 124 11 124-50 0-59-68-47-124-48v98" id="aJ"/><g id="Q"><use transform="matrix(0.05,0,0,0.05,0,0)" xlink:href="#aI"/><use transform="matrix(0.05,0,0,0.05,12,0)" xlink:href="#aJ"/><use transform="matrix(0.05,0,0,0.05,24,0)" xlink:href="#aH"/></g><g id="R"><use transform="matrix(0.05,0,0,0.05,0,0)" xlink:href="#aI"/><use transform="matrix(0.05,0,0,0.05,12,0)" xlink:href="#aJ"/><use transform="matrix(0.05,0,0,0.05,24,0)" xlink:href="#aH"/></g><g id="S"><use transform="matrix(0.05,0,0,0.05,0,0)" xlink:href="#aG"/><use transform="matrix(0.05,0,0,0.05,12.950000000000001,0)" xlink:href="#aH"/></g><path d="M30 0v-248h33v221h125V0H30" id="aK"/><g id="T"><use transform="matrix(0.05,0,0,0.05,0,0)" xlink:href="#aK"/><use transform="matrix(0.05,0,0,0.05,10,0)" xlink:href="#Z"/><use transform="matrix(0.05,0,0,0.05,20,0)" xlink:href="#az"/><use transform="matrix(0.05,0,0,0.05,30,0)" xlink:href="#Z"/><use transform="matrix(0.05,0,0,0.05,40,0)" xlink:href="#al"/><use transform="matrix(0.05,0,0,0.05,50,0)" xlink:href="#af"/></g><g id="U"><use transform="matrix(0.05,0,0,0.05,0,0)" xlink:href="#aI"/><use transform="matrix(0.05,0,0,0.05,12,0)" xlink:href="#aJ"/><use transform="matrix(0.05,0,0,0.05,24,0)" xlink:href="#aH"/></g></defs></g></svg>