<svg xmlns="http://www.w3.org/2000/svg" xmlns:xlink="http://www.w3.org/1999/xlink" xmlns:lucid="lucid" width="1751" height="1560"><g transform="translate(-69 -860)" lucid:page-tab-id="0_0"><path d="M0 0h1870.4v2582.4H0z" fill="#fff"/><path d="M839 890c-11.05 0-20 8.95-20 20v60c0 11.05 8.95 20 20 20h217.2c11.05 0 20-8.95 20-20v-60c0-11.05-8.95-20-20-20z" stroke="#000" stroke-width="2" fill="#ff8f80"/><path d="M819 934h257.2" stroke="#000" stroke-width="2" fill="none"/><use xlink:href="#a" transform="matrix(1,0,0,1,870.4399999999998,890) translate(-34.32499999999999 25.6)"/><use xlink:href="#b" transform="matrix(1,0,0,1,844.7199999999999,950) translate(26.625 15.6)"/><use xlink:href="#c" transform="matrix(1,0,0,1,844.7199999999999,950) translate(114.47500000000001 15.6)"/><path d="M1667.6 940c0 11.05-8.95 20-20 20s-20-8.95-20-20 8.95-20 20-20 20 8.95 20 20z" stroke="#000" stroke-width="2" fill="#fff"/><path d="M1633.46 925.86l28.28 28.28m0-28.28l-28.28 28.28" stroke="#000" stroke-width="2" fill="none"/><path d="M439 1820c-11.06 0-20 8.95-20 20v60c0 11.05 8.94 20 20 20h337.2c11.05 0 20-8.95 20-20v-60c0-11.05-8.95-20-20-20z" stroke="#000" stroke-width="2" fill="#ff8f80"/><path d="M419 1864h377.2" stroke="#000" stroke-width="2" fill="none"/><use xlink:href="#d" transform="matrix(1,0,0,1,494.4299999999997,1820) translate(35.5 25.6)"/><use xlink:href="#e" transform="matrix(1,0,0,1,456.7087499999997,1880) translate(7.675000000000011 15.6)"/><use xlink:href="#f" transform="matrix(1,0,0,1,456.7087499999997,1880) translate(142.57500000000002 15.6)"/><path d="M1202.8 880l80 60-80 60-80-60z" stroke="#000" stroke-width="2" fill="#c7e8ac"/><use xlink:href="#g" transform="matrix(1,0,0,1,1127.7999999999997,885) translate(36.07999999999999 38.410000000000004)"/><use xlink:href="#h" transform="matrix(1,0,0,1,1127.7999999999997,885) translate(29.029999999999994 60.01)"/><use xlink:href="#i" transform="matrix(1,0,0,1,1127.7999999999997,885) translate(100.98 60.01)"/><use xlink:href="#j" transform="matrix(1,0,0,1,1127.7999999999997,885) translate(51.005 81.61000000000001)"/><path d="M1320.86 941h-35.4v-2h35.4zm64.74 0h-35.4v-2h35.4z"/><path d="M1285.5 941h-2.37l1.34-1-1.34-1h2.36zM1386.6 941h-1.03v-2h1.03z"/><use xlink:href="#k" transform="matrix(1,0,0,1,1320.8583333333331,929.2) translate(0 14.4)"/><path d="M1549.6 940h58.5" stroke="#000" stroke-width="2" fill="none"/><path d="M1549.63 941h-1.03v-2h1.03z"/><path d="M1623.36 940l-14.26 4.64v-9.28z" stroke="#000" stroke-width="2"/><path d="M1395.6 920c-4.42 0-8 3.58-8 8v24c0 4.42 3.58 8 8 8h144c4.42 0 8-3.58 8-8v-24c0-4.42-3.58-8-8-8z" stroke="#000" stroke-width="2" fill="#c1e4f7"/><use xlink:href="#l" transform="matrix(1,0,0,1,1395.6,928) translate(23.025 15.6)"/><path d="M1078.2 940h24.43" stroke="#000" stroke-width="2" fill="none"/><path d="M1078.23 941h-1.03v-2h1.03z"/><path d="M1117.9 940l-14.27 4.64v-9.28zM772.4 940c0 11.05-8.95 20-20 20s-20-8.95-20-20 8.95-20 20-20 20 8.95 20 20z" stroke="#000" stroke-width="2"/><path d="M799.5 940h-25.1" stroke="#000" stroke-width="2" fill="none"/><path d="M814.76 940l-14.26 4.64v-9.28z" stroke="#000" stroke-width="2"/><path d="M774.43 941h-1.15l.12-.96-.03-1.04h1.06z"/><path d="M315.2 1196.8h160v40h-160z" fill="#ff8f80"/><use xlink:href="#m" transform="matrix(1,0,0,1,315.19999999999993,1196.8000000000466) translate(43.305 24.4)"/><use xlink:href="#n" transform="matrix(1,0,0,1,315.19999999999993,1196.8000000000466) translate(66.255 24.4)"/><use xlink:href="#o" transform="matrix(1,0,0,1,315.19999999999993,1196.8000000000466) translate(87.705 24.4)"/><path d="M315.2 1256.8h160v40h-160z" fill="#c1e4f7"/><use xlink:href="#p" transform="matrix(1,0,0,1,315.19999999999993,1256.8000000000002) translate(43.305 24.4)"/><use xlink:href="#n" transform="matrix(1,0,0,1,315.19999999999993,1256.8000000000002) translate(77.305 24.4)"/><use xlink:href="#q" transform="matrix(1,0,0,1,315.19999999999993,1256.8000000000002) translate(98.755 24.4)"/><path d="M300 1140h200v240H300z" stroke="#000" stroke-width="2" fill-opacity="0"/><use xlink:href="#r" transform="matrix(1,0,0,1,308,1148) translate(62 15.6)"/><path d="M315.2 1316.8h160v40h-160z" fill="#c7e8ac"/><use xlink:href="#s" transform="matrix(1,0,0,1,315.19999999999993,1316.7999999999538) translate(65.50500000000001 24.4)"/><path d="M983.8 1246.8c-19.88 0-36 16.12-36 36v108c0 19.88 16.12 36 36 36h438c19.88 0 36-16.12 36-36v-108c0-19.88-16.12-36-36-36z" stroke="#000" stroke-width="2" fill="#c1e4f7"/><path d="M947.8 1290.8h510" stroke="#000" stroke-width="2" fill="none"/><use xlink:href="#t" transform="matrix(1,0,0,1,1049.7999999999533,1246.7999999999538) translate(103.05 25.6)"/><use xlink:href="#u" transform="matrix(1,0,0,1,998.7999999999533,1306.7999999999538) translate(123.05 14.4)"/><use xlink:href="#v" transform="matrix(1,0,0,1,998.7999999999533,1306.7999999999538) translate(196 14.4)"/><use xlink:href="#w" transform="matrix(1,0,0,1,998.7999999999533,1306.7999999999538) translate(131.65 36)"/><use xlink:href="#x" transform="matrix(1,0,0,1,998.7999999999533,1306.7999999999538) translate(187.55 36)"/><use xlink:href="#y" transform="matrix(1,0,0,1,998.7999999999533,1306.7999999999538) translate(249.45 36)"/><use xlink:href="#z" transform="matrix(1,0,0,1,998.7999999999533,1306.7999999999538) translate(22.80000000000001 57.6)"/><use xlink:href="#A" transform="matrix(1,0,0,1,998.7999999999533,1306.7999999999538) translate(193.5 57.6)"/><use xlink:href="#B" transform="matrix(1,0,0,1,998.7999999999533,1306.7999999999538) translate(203.5 57.6)"/><use xlink:href="#y" transform="matrix(1,0,0,1,998.7999999999533,1306.7999999999538) translate(358.3 57.6)"/><use xlink:href="#C" transform="matrix(1,0,0,1,998.7999999999533,1306.7999999999538) translate(7.275000000000006 79.20000000000002)"/><use xlink:href="#B" transform="matrix(1,0,0,1,998.7999999999533,1306.7999999999538) translate(219.025 79.20000000000002)"/><use xlink:href="#y" transform="matrix(1,0,0,1,998.7999999999533,1306.7999999999538) translate(373.82500000000005 79.20000000000002)"/><use xlink:href="#D" transform="matrix(1,0,0,1,998.7999999999533,1306.7999999999538) translate(101.12499999999999 100.80000000000001)"/><use xlink:href="#E" transform="matrix(1,0,0,1,998.7999999999533,1306.7999999999538) translate(211.02499999999998 100.80000000000001)"/><use xlink:href="#F" transform="matrix(1,0,0,1,998.7999999999533,1306.7999999999538) translate(284.975 100.80000000000001)"/><path d="M612.4 1600h160v82.9h-160z" stroke="#000" stroke-width="2" fill="#c7e8ac"/><use xlink:href="#G" transform="matrix(1,0,0,1,617.3999999999999,1605) translate(3.4499999999999886 30.36875)"/><use xlink:href="#H" transform="matrix(1,0,0,1,617.3999999999999,1605) translate(67.64999999999999 30.36875)"/><use xlink:href="#I" transform="matrix(1,0,0,1,617.3999999999999,1605) translate(42 51.96875)"/><use xlink:href="#J" transform="matrix(1,0,0,1,617.3999999999999,1605) translate(98 51.96875)"/><path d="M1094.2 1060c-11.05 0-20 8.95-20 20v60c0 11.05 8.95 20 20 20h217.2c11.05 0 20-8.95 20-20v-60c0-11.05-8.95-20-20-20z" stroke="#000" stroke-width="2" fill="#ff8f80"/><path d="M1074.2 1104h257.2" stroke="#000" stroke-width="2" fill="none"/><use xlink:href="#K" transform="matrix(1,0,0,1,1125.6399999999535,1060) translate(29.049999999999997 25.6)"/><use xlink:href="#L" transform="matrix(1,0,0,1,1099.9199999999535,1120) translate(50.87499999999999 15.6)"/><use xlink:href="#M" transform="matrix(1,0,0,1,1099.9199999999535,1120) translate(95.82499999999999 15.6)"/><use xlink:href="#N" transform="matrix(1,0,0,1,1099.9199999999535,1120) translate(110.82499999999999 15.6)"/><use xlink:href="#O" transform="matrix(1,0,0,1,1099.9199999999535,1120) translate(120.475 15.6)"/><use xlink:href="#N" transform="matrix(1,0,0,1,1099.9199999999535,1120) translate(135.475 15.6)"/><use xlink:href="#P" transform="matrix(1,0,0,1,1099.9199999999535,1120) translate(145.125 15.6)"/><path d="M920.4 1820c-11.05 0-20 8.95-20 20v60c0 11.05 8.95 20 20 20h120c11.04 0 20-8.95 20-20v-60c0-11.05-8.96-20-20-20z" stroke="#000" stroke-width="2" fill="#ff8f80"/><path d="M900.4 1864h160" stroke="#000" stroke-width="2" fill="none"/><use xlink:href="#Q" transform="matrix(1,0,0,1,932.394335937488,1820) translate(8.5 25.6)"/><use xlink:href="#R" transform="matrix(1,0,0,1,916.394335937488,1880) translate(32.05 15.6)"/><use xlink:href="#S" transform="matrix(1,0,0,1,916.394335937488,1880) translate(56 15.6)"/><path d="M602.2 2220c-19.88 0-36 16.12-36 36v108c0 19.88 16.12 36 36 36h438c19.88 0 36-16.12 36-36v-108c0-19.88-16.12-36-36-36z" stroke="#000" stroke-width="2" fill="#c1e4f7"/><path d="M566.2 2264h510" stroke="#000" stroke-width="2" fill="none"/><use xlink:href="#t" transform="matrix(1,0,0,1,668.1999999999998,2220) translate(103.05 25.6)"/><use xlink:href="#u" transform="matrix(1,0,0,1,617.1999999999998,2280) translate(123.05 14.4)"/><use xlink:href="#v" transform="matrix(1,0,0,1,617.1999999999998,2280) translate(196 14.4)"/><use xlink:href="#w" transform="matrix(1,0,0,1,617.1999999999998,2280) translate(131.65 36)"/><use xlink:href="#x" transform="matrix(1,0,0,1,617.1999999999998,2280) translate(187.55 36)"/><use xlink:href="#y" transform="matrix(1,0,0,1,617.1999999999998,2280) translate(249.45 36)"/><use xlink:href="#z" transform="matrix(1,0,0,1,617.1999999999998,2280) translate(22.80000000000001 57.6)"/><use xlink:href="#A" transform="matrix(1,0,0,1,617.1999999999998,2280) translate(193.5 57.6)"/><use xlink:href="#B" transform="matrix(1,0,0,1,617.1999999999998,2280) translate(203.5 57.6)"/><use xlink:href="#y" transform="matrix(1,0,0,1,617.1999999999998,2280) translate(358.3 57.6)"/><use xlink:href="#C" transform="matrix(1,0,0,1,617.1999999999998,2280) translate(7.275000000000006 79.20000000000002)"/><use xlink:href="#B" transform="matrix(1,0,0,1,617.1999999999998,2280) translate(219.025 79.20000000000002)"/><use xlink:href="#y" transform="matrix(1,0,0,1,617.1999999999998,2280) translate(373.82500000000005 79.20000000000002)"/><use xlink:href="#D" transform="matrix(1,0,0,1,617.1999999999998,2280) translate(101.12499999999999 100.80000000000001)"/><use xlink:href="#E" transform="matrix(1,0,0,1,617.1999999999998,2280) translate(211.02499999999998 100.80000000000001)"/><use xlink:href="#F" transform="matrix(1,0,0,1,617.1999999999998,2280) translate(284.975 100.80000000000001)"/><path d="M607.6 2030l52.4 40-52.4 40-52.4-40z" stroke="#000" stroke-width="2" fill="#c7e8ac"/><use xlink:href="#T" transform="matrix(1,0,0,1,560.1937499999997,2035) translate(18.049999999999997 27.799999999999997)"/><use xlink:href="#U" transform="matrix(1,0,0,1,560.1937499999997,2035) translate(28.575 49.4)"/><path d="M160 2020c-11.05 0-20 8.95-20 20v60c0 11.05 8.95 20 20 20h200c11.05 0 20-8.95 20-20v-60c0-11.05-8.95-20-20-20z" stroke="#000" stroke-width="2" fill="#c1e4f7"/><path d="M140 2064h240" stroke="#000" stroke-width="2" fill="none"/><use xlink:href="#V" transform="matrix(1,0,0,1,188,2020) translate(33.075 25.6)"/><use xlink:href="#W" transform="matrix(1,0,0,1,164,2080) translate(1.75 14.4)"/><use xlink:href="#X" transform="matrix(1,0,0,1,164,2080) translate(35.75 14.4)"/><use xlink:href="#Y" transform="matrix(1,0,0,1,164,2080) translate(69.75 14.4)"/><use xlink:href="#Z" transform="matrix(1,0,0,1,164,2080) translate(95.7 14.4)"/><use xlink:href="#aa" transform="matrix(1,0,0,1,164,2080) translate(125.7 14.4)"/><use xlink:href="#ab" transform="matrix(1,0,0,1,164,2080) translate(72.575 36)"/><path d="M1436.72 1800h160v82.9h-160z" stroke="#000" stroke-width="2" fill="#c7e8ac"/><use xlink:href="#G" transform="matrix(1,0,0,1,1441.72265624993,1805) translate(3.4499999999999886 30.36875)"/><use xlink:href="#H" transform="matrix(1,0,0,1,1441.72265624993,1805) translate(67.64999999999999 30.36875)"/><use xlink:href="#I" transform="matrix(1,0,0,1,1441.72265624993,1805) translate(42 51.96875)"/><use xlink:href="#P" transform="matrix(1,0,0,1,1441.72265624993,1805) translate(98 51.96875)"/><path d="M964.8 1621.45c-4.43 0-8 3.58-8 8v24c0 4.42 3.57 8 8 8h187.4c4.4 0 8-3.58 8-8v-24c0-4.42-3.6-8-8-8z" stroke="#000" stroke-width="2" fill="#ff8f80"/><use xlink:href="#ac" transform="matrix(1,0,0,1,964.7863281249765,1629.4526367187298) translate(8.599999999999994 15.6)"/><path d="M692.4 1598v-488h362.3" stroke="#000" stroke-width="2" fill="none"/><path d="M693.4 1599h-2v-1.03h2z"/><path d="M1069.96 1110l-14.26 4.64v-9.28z" stroke="#000" stroke-width="2"/><path d="M1364.58 1591.45c-11.05 0-20 8.96-20 20v60c0 11.05 8.95 20 20 20h304.3c11.03 0 20-8.95 20-20v-60c0-11.04-8.97-20-20-20z" stroke="#000" stroke-width="2" fill="#c1e4f7"/><path d="M1344.58 1635.45h344.3" stroke="#000" stroke-width="2" fill="none"/><use xlink:href="#ad" transform="matrix(1,0,0,1,1413.436054687423,1591.4526367187298) translate(10.075000000000003 25.6)"/><use xlink:href="#ae" transform="matrix(1,0,0,1,1379.0071874999207,1651.4526367187298) translate(17.10000000000001 15.6)"/><use xlink:href="#E" transform="matrix(1,0,0,1,1379.0071874999207,1651.4526367187298) translate(163.05 15.6)"/><use xlink:href="#F" transform="matrix(1,0,0,1,1379.0071874999207,1651.4526367187298) translate(237 15.6)"/><path d="M1425.43 2000c-13.26 0-24 10.75-24 24v72c0 13.25 10.74 24 24 24h182.6c13.24 0 24-10.75 24-24v-72c0-13.25-10.76-24-24-24z" stroke="#000" stroke-width="2" fill="#ff8f80"/><path d="M1401.43 2044h230.6" stroke="#000" stroke-width="2" fill="none"/><use xlink:href="#Q" transform="matrix(1,0,0,1,1447.545878906187,2000) translate(30 25.6)"/><use xlink:href="#R" transform="matrix(1,0,0,1,1424.4869531249392,2060) translate(58.05 14.799999999999999)"/><use xlink:href="#af" transform="matrix(1,0,0,1,1424.4869531249392,2060) translate(82 14.799999999999999)"/><use xlink:href="#ag" transform="matrix(1,0,0,1,1424.4869531249392,2060) translate(24.07499999999999 36.4)"/><use xlink:href="#S" transform="matrix(1,0,0,1,1424.4869531249392,2060) translate(120.975 36.4)"/><path d="M1402.62 2237.1c-17.68 0-32 14.32-32 32v96c0 17.67 14.32 32 32 32h232.98c17.67 0 32-14.33 32-32v-96c0-17.68-14.33-32-32-32z" stroke="#000" stroke-width="2" fill="#c1e4f7"/><path d="M1370.62 2281.1h296.98" stroke="#000" stroke-width="2" fill="none"/><use xlink:href="#t" transform="matrix(1,0,0,1,1430.0135937499813,2237.0947265625405) translate(39.55 25.6)"/><use xlink:href="#ah" transform="matrix(1,0,0,1,1400.315292968729,2297.0947265625405) translate(48.07499999999999 14.4)"/><use xlink:href="#af" transform="matrix(1,0,0,1,1400.315292968729,2297.0947265625405) translate(144.975 14.4)"/><use xlink:href="#ai" transform="matrix(1,0,0,1,1400.315292968729,2297.0947265625405) translate(38.05 36)"/><use xlink:href="#v" transform="matrix(1,0,0,1,1400.315292968729,2297.0947265625405) translate(111 36)"/><use xlink:href="#w" transform="matrix(1,0,0,1,1400.315292968729,2297.0947265625405) translate(46.650000000000006 57.6)"/><use xlink:href="#x" transform="matrix(1,0,0,1,1400.315292968729,2297.0947265625405) translate(102.55000000000001 57.6)"/><use xlink:href="#y" transform="matrix(1,0,0,1,1400.315292968729,2297.0947265625405) translate(164.45 57.6)"/><use xlink:href="#aj" transform="matrix(1,0,0,1,1400.315292968729,2297.0947265625405) translate(25.125 79.20000000000002)"/><use xlink:href="#S" transform="matrix(1,0,0,1,1400.315292968729,2297.0947265625405) translate(172.925 79.20000000000002)"/><path d="M1203.8 1019.33h-2v-17.08h2z"/><path d="M1203.8 1002.28h-2v-1.78l1 .75 1-.75zM1202.8 1055.76l-4.64-14.26h9.28z"/><path d="M1202.8 1059l-5.87-18.08h11.74zm-3.26-16.5l3.26 10.03 3.26-10.03z"/><use xlink:href="#ak" transform="matrix(1,0,0,1,1191.3249999999998,1019.325) translate(0 14.4)"/><path d="M1202.8 1162v65.3" stroke="#000" stroke-width="2" fill="none"/><path d="M1203.8 1162.03h-2V1161h2z"/><path d="M1202.8 1242.56l-4.64-14.26h9.28z" stroke="#000" stroke-width="2"/><path d="M774.4 1641.45h162.88" stroke="#000" stroke-width="2" fill="none"/><path d="M774.43 1642.45h-1.03v-2h1.03z"/><path d="M952.55 1641.45l-14.27 4.64v-9.28z" stroke="#000" stroke-width="2"/><path d="M1162.2 1641.45h162.88" stroke="#000" stroke-width="2" fill="none"/><path d="M1162.22 1642.45h-1.03v-2h1.02z"/><path d="M1340.34 1641.45l-14.26 4.64v-9.28z" stroke="#000" stroke-width="2"/><path d="M945.8 1336.8H742v243.7" stroke="#000" stroke-width="2" fill="none"/><path d="M946.8 1337.8h-1.03v-2h1.03z"/><path d="M742 1595.76l-4.64-14.26h9.28z" stroke="#000" stroke-width="2"/><path d="M692.4 1684.9v66.55h-84.8v49.05" stroke="#000" stroke-width="2" fill="none"/><path d="M693.4 1684.93h-2v-1.02h2z"/><path d="M607.6 1815.76l-4.64-14.26h9.27z" stroke="#000" stroke-width="2"/><path d="M692.4 1684.9v66.55h288v49.05" stroke="#000" stroke-width="2" fill="none"/><path d="M693.4 1684.93h-2v-1.02h2z"/><path d="M980.4 1815.76l-4.64-14.26h9.27z" stroke="#000" stroke-width="2"/><path d="M452.6 2071h-53.1v-2h53.1zm99.95 0h-70.6v-2h70.6z"/><path d="M553.55 2070l1.3 1h-2.33v-2h2.34zM398.5 2074.64l-14.26-4.64 14.26-4.64z"/><path d="M399.5 2076l-18.5-6 18.5-6zm-12.03-6l10.03 3.26v-6.52z"/><g><use xlink:href="#k" transform="matrix(1,0,0,1,452.59784526752657,2059.2) translate(0 14.4)"/></g><path d="M607.6 1922v88.24" stroke="#000" stroke-width="2" fill="none"/><path d="M608.6 1922.03h-2V1921h2z"/><path d="M607.6 2025.5l-4.64-14.26h9.27z" stroke="#000" stroke-width="2"/><path d="M737.5 2200.5h-2v-82.63h2zm0-104.23h-2V2071h-72.86v-2h74.86z"/><path d="M662.67 2071h-2.34l1.3-1-1.3-1h2.34zM736.5 2215.76l-4.63-14.26h9.27z"/><path d="M736.5 2219l-6-18.5h12zm-3.26-16.5l3.26 10.03 3.26-10.03z"/><g><use xlink:href="#ak" transform="matrix(1,0,0,1,725.0274455101262,2096.26968197741) translate(0 14.4)"/></g><path d="M980.4 1922v148h-80.73v130.5" stroke="#000" stroke-width="2" fill="none"/><path d="M981.4 1922.03h-2V1921h2z"/><path d="M899.67 2215.76l-4.64-14.26h9.27z" stroke="#000" stroke-width="2"/><path d="M592.9 1642.45H81V2309h483.2v2H79v-670.55h513.9z"/><path d="M565.2 2311h-1.03v-2h1.03zM608.16 1641.45l-14.26 4.64v-9.28z"/><path d="M611.4 1641.45l-18.5 6v-12zm-16.5 3.26l10.03-3.25-10.03-3.26z"/><path d="M1368.62 2317.1h-39v-475.65h87.6" stroke="#000" stroke-width="2" fill="none"/><path d="M1369.62 2318.1h-1.03v-2h1.02z"/><path d="M1432.5 1841.45l-14.28 4.64v-9.28z" stroke="#000" stroke-width="2"/><path d="M1516.72 1884.9v95.6" stroke="#000" stroke-width="2" fill="none"/><path d="M1517.72 1884.93h-2v-1.02h2z"/><path d="M1516.72 1995.76l-4.63-14.26h9.26z" stroke="#000" stroke-width="2"/><path d="M1516.72 2122v95.6" stroke="#000" stroke-width="2" fill="none"/><path d="M1517.72 2122.03h-2V2121h2z"/><path d="M1516.72 2232.86l-4.63-14.27h9.26z" stroke="#000" stroke-width="2"/><path d="M1516.72 1693.45v87.05" stroke="#000" stroke-width="2" fill="none"/><path d="M1517.72 1693.48h-2v-1.03h2z"/><path d="M1516.72 1795.76l-4.63-14.26h9.26z" stroke="#000" stroke-width="2"/><path d="M1598.72 1841.45H1760V1110h-409.1" stroke="#000" stroke-width="2" fill="none"/><path d="M1598.75 1842.45h-1.03v-2h1.03z"/><path d="M1335.64 1110l14.26-4.64v9.28z" stroke="#000" stroke-width="2"/><path d="M474.2 1500c-4.42 0-8 3.58-8 8v24c0 4.42 3.58 8 8 8h84c4.42 0 8-3.58 8-8v-24c0-4.42-3.58-8-8-8z" stroke="#000" stroke-width="2" fill="#ff8f80"/><g><use xlink:href="#al" transform="matrix(1,0,0,1,474.1999999999998,1508) translate(30.025 15.6)"/></g><path d="M400 1520c0 11.05-8.95 20-20 20s-20-8.95-20-20 8.95-20 20-20 20 8.95 20 20z" stroke="#000" stroke-width="2" fill="#fff"/><path d="M365.86 1505.86l28.28 28.28m0-28.28l-28.28 28.28" stroke="#000" stroke-width="2" fill="none"/><path d="M1708 1940c-4.42 0-8 3.58-8 8v24c0 4.42 3.58 8 8 8h84c4.42 0 8-3.58 8-8v-24c0-4.42-3.58-8-8-8z" stroke="#000" stroke-width="2" fill="#ff8f80"/><g><use xlink:href="#al" transform="matrix(1,0,0,1,1708,1948) translate(30.025 15.6)"/></g><path d="M1770 2060c0 11.05-8.95 20-20 20s-20-8.95-20-20 8.95-20 20-20 20 8.95 20 20z" stroke="#000" stroke-width="2" fill="#fff"/><path d="M1735.86 2045.86l28.28 28.28m0-28.28l-28.28 28.28M648.44 1598v-78H585.7" stroke="#000" stroke-width="2" fill="none"/><path d="M649.44 1599h-2v-1.03h2z"/><path d="M570.44 1520l14.26-4.64v9.28z" stroke="#000" stroke-width="2"/><path d="M464.2 1520h-44.7" stroke="#000" stroke-width="2" fill="none"/><path d="M465.2 1521h-1.03v-2h1.03z"/><path d="M404.24 1520l14.26-4.64v9.28z" stroke="#000" stroke-width="2"/><path d="M1598.72 1864.5H1750v56" stroke="#000" stroke-width="2" fill="none"/><path d="M1598.75 1865.5h-1.03v-2h1.03z"/><path d="M1750 1935.76l-4.64-14.26h9.28z" stroke="#000" stroke-width="2"/><path d="M1750 1982v38.5" stroke="#000" stroke-width="2" fill="none"/><path d="M1751 1982.03h-2V1981h2z"/><path d="M1750 2035.76l-4.64-14.26h9.28z" stroke="#000" stroke-width="2"/><defs><path d="M135-143c-3-34-86-38-87 0 15 53 115 12 119 90S17 21 10-45l28-5c4 36 97 45 98 0-10-56-113-15-118-90-4-57 82-63 122-42 12 7 21 19 24 35" id="am"/><path d="M59-47c-2 24 18 29 38 22v24C64 9 27 4 27-40v-127H5v-23h24l9-43h21v43h35v23H59v120" id="an"/><path d="M141-36C126-15 110 5 73 4 37 3 15-17 15-53c-1-64 63-63 125-63 3-35-9-54-41-54-24 1-41 7-42 31l-33-3c5-37 33-52 76-52 45 0 72 20 72 64v82c-1 20 7 32 28 27v20c-31 9-61-2-59-35zM48-53c0 20 12 33 32 33 41-3 63-29 60-74-43 2-92-5-92 41" id="ao"/><path d="M114-163C36-179 61-72 57 0H25l-1-190h30c1 12-1 29 2 39 6-27 23-49 58-41v29" id="ap"/><path d="M-5 72V49h209v23H-5" id="aq"/><path d="M100-194c63 0 86 42 84 106H49c0 40 14 67 53 68 26 1 43-12 49-29l28 8c-11 28-37 45-77 45C44 4 14-33 15-96c1-61 26-98 85-98zm52 81c6-60-76-77-97-28-3 7-6 17-6 28h103" id="ar"/><path d="M145-31C134-9 116 4 85 4 32 4 16-35 15-94c0-59 17-99 70-100 32-1 48 14 60 33 0-11-1-24 2-32h30l-1 268h-32zM93-21c41 0 51-33 51-76s-8-73-50-73c-40 0-46 35-46 75s5 74 45 74" id="as"/><path d="M84 4C-5 8 30-112 23-190h32v120c0 31 7 50 39 49 72-2 45-101 50-169h31l1 190h-30c-1-10 1-25-2-33-11 22-28 36-60 37" id="at"/><path d="M24-231v-30h32v30H24zM24 0v-190h32V0H24" id="au"/><path d="M108 0H70L1-190h34L89-25l56-165h34" id="av"/><path d="M24 0v-261h32V0H24" id="aw"/><path d="M117-194c89-4 53 116 60 194h-32v-121c0-31-8-49-39-48C34-167 62-67 57 0H25l-1-190h30c1 10-1 24 2 32 11-22 29-35 61-36" id="ax"/><path d="M96-169c-40 0-48 33-48 73s9 75 48 75c24 0 41-14 43-38l32 2c-6 37-31 61-74 61-59 0-76-41-82-99-10-93 101-131 147-64 4 7 5 14 7 22l-32 3c-4-21-16-35-41-35" id="ay"/><path d="M210-169c-67 3-38 105-44 169h-31v-121c0-29-5-50-35-48C34-165 62-65 56 0H25l-1-190h30c1 10-1 24 2 32 10-44 99-50 107 0 11-21 27-35 58-36 85-2 47 119 55 194h-31v-121c0-29-5-49-35-48" id="az"/><path d="M100-194c62-1 85 37 85 99 1 63-27 99-86 99S16-35 15-95c0-66 28-99 85-99zM99-20c44 1 53-31 53-75 0-43-8-75-51-75s-53 32-53 75 10 74 51 75" id="aA"/><g id="a"><use transform="matrix(0.05,0,0,0.05,0,0)" xlink:href="#am"/><use transform="matrix(0.05,0,0,0.05,9,0)" xlink:href="#an"/><use transform="matrix(0.05,0,0,0.05,14,0)" xlink:href="#ao"/><use transform="matrix(0.05,0,0,0.05,24,0)" xlink:href="#ap"/><use transform="matrix(0.05,0,0,0.05,29.950000000000003,0)" xlink:href="#an"/><use transform="matrix(0.05,0,0,0.05,34.95,0)" xlink:href="#aq"/><use transform="matrix(0.05,0,0,0.05,44.95,0)" xlink:href="#ar"/><use transform="matrix(0.05,0,0,0.05,54.95,0)" xlink:href="#as"/><use transform="matrix(0.05,0,0,0.05,64.95,0)" xlink:href="#at"/><use transform="matrix(0.05,0,0,0.05,74.95,0)" xlink:href="#au"/><use transform="matrix(0.05,0,0,0.05,78.9,0)" xlink:href="#av"/><use transform="matrix(0.05,0,0,0.05,87.9,0)" xlink:href="#ao"/><use transform="matrix(0.05,0,0,0.05,97.9,0)" xlink:href="#aw"/><use transform="matrix(0.05,0,0,0.05,101.85000000000001,0)" xlink:href="#ar"/><use transform="matrix(0.05,0,0,0.05,111.85000000000001,0)" xlink:href="#ax"/><use transform="matrix(0.05,0,0,0.05,121.85000000000001,0)" xlink:href="#ay"/><use transform="matrix(0.05,0,0,0.05,130.85000000000002,0)" xlink:href="#ar"/><use transform="matrix(0.05,0,0,0.05,140.85000000000002,0)" xlink:href="#aq"/><use transform="matrix(0.05,0,0,0.05,150.85000000000002,0)" xlink:href="#am"/><use transform="matrix(0.05,0,0,0.05,159.85000000000002,0)" xlink:href="#au"/><use transform="matrix(0.05,0,0,0.05,163.8,0)" xlink:href="#az"/><use transform="matrix(0.05,0,0,0.05,178.75,0)" xlink:href="#at"/><use transform="matrix(0.05,0,0,0.05,188.75,0)" xlink:href="#aw"/><use transform="matrix(0.05,0,0,0.05,192.7,0)" xlink:href="#ao"/><use transform="matrix(0.05,0,0,0.05,202.7,0)" xlink:href="#an"/><use transform="matrix(0.05,0,0,0.05,207.69999999999996,0)" xlink:href="#aA"/><use transform="matrix(0.05,0,0,0.05,217.69999999999996,0)" xlink:href="#ap"/></g><path d="M179-190L93 31C79 59 56 82 12 73V49c39 6 53-20 64-50L1-190h34L92-34l54-156h33" id="aB"/><path d="M101-234c-31-9-42 10-38 44h38v23H63V0H32v-167H5v-23h27c-7-52 17-82 69-68v24" id="aC"/><path d="M33-154v-36h34v36H33zM33 0v-36h34V0H33" id="aD"/><g id="b"><use transform="matrix(0.05,0,0,0.05,0,0)" xlink:href="#as"/><use transform="matrix(0.05,0,0,0.05,10,0)" xlink:href="#at"/><use transform="matrix(0.05,0,0,0.05,20,0)" xlink:href="#ar"/><use transform="matrix(0.05,0,0,0.05,30,0)" xlink:href="#ap"/><use transform="matrix(0.05,0,0,0.05,35.95,0)" xlink:href="#aB"/><use transform="matrix(0.05,0,0,0.05,44.95,0)" xlink:href="#aq"/><use transform="matrix(0.05,0,0,0.05,54.95,0)" xlink:href="#aC"/><use transform="matrix(0.05,0,0,0.05,59.95,0)" xlink:href="#au"/><use transform="matrix(0.05,0,0,0.05,63.900000000000006,0)" xlink:href="#aw"/><use transform="matrix(0.05,0,0,0.05,67.85000000000001,0)" xlink:href="#ar"/><use transform="matrix(0.05,0,0,0.05,77.85000000000001,0)" xlink:href="#aD"/></g><path d="M18-100v-36l175-74v27L42-118l151 64v27" id="aE"/><path d="M177-190C167-65 218 103 67 71c-23-6-38-20-44-43l32-5c15 47 100 32 89-28v-30C133-14 115 1 83 1 29 1 15-40 15-95c0-56 16-97 71-98 29-1 48 16 59 35 1-10 0-23 2-32h30zM94-22c36 0 50-32 50-73 0-42-14-75-50-75-39 0-46 34-46 75s6 73 46 73" id="aF"/><path d="M18-27v-27l151-64-151-65v-27l175 74v36" id="aG"/><g id="c"><use transform="matrix(0.05,0,0,0.05,0,0)" xlink:href="#aE"/><use transform="matrix(0.05,0,0,0.05,10.5,0)" xlink:href="#am"/><use transform="matrix(0.05,0,0,0.05,19.5,0)" xlink:href="#an"/><use transform="matrix(0.05,0,0,0.05,24.5,0)" xlink:href="#ap"/><use transform="matrix(0.05,0,0,0.05,30.450000000000003,0)" xlink:href="#au"/><use transform="matrix(0.05,0,0,0.05,34.4,0)" xlink:href="#ax"/><use transform="matrix(0.05,0,0,0.05,44.4,0)" xlink:href="#aF"/><use transform="matrix(0.05,0,0,0.05,54.400000000000006,0)" xlink:href="#aG"/></g><path d="M141 0L90-78 38 0H4l68-98-65-92h35l48 74 47-74h35l-64 92 68 98h-35" id="aH"/><path d="M115-194c55 1 70 41 70 98S169 2 115 4C84 4 66-9 55-30l1 105H24l-1-265h31l2 30c10-21 28-34 59-34zm-8 174c40 0 45-34 45-75s-6-73-45-74c-42 0-51 32-51 76 0 43 10 73 51 73" id="aI"/><path d="M143 0L79-87 56-68V0H24v-261h32v163l83-92h37l-77 82L181 0h-38" id="aJ"/><path d="M85-194c31 0 48 13 60 33l-1-100h32l1 261h-30c-2-10 0-23-3-31C134-8 116 4 85 4 32 4 16-35 15-94c0-66 23-100 70-100zm9 24c-40 0-46 34-46 75 0 40 6 74 45 74 42 0 51-32 51-76 0-42-9-74-50-73" id="aK"/><g id="d"><use transform="matrix(0.05,0,0,0.05,0,0)" xlink:href="#ax"/><use transform="matrix(0.05,0,0,0.05,10,0)" xlink:href="#ar"/><use transform="matrix(0.05,0,0,0.05,20,0)" xlink:href="#aH"/><use transform="matrix(0.05,0,0,0.05,29,0)" xlink:href="#an"/><use transform="matrix(0.05,0,0,0.05,34,0)" xlink:href="#aq"/><use transform="matrix(0.05,0,0,0.05,44,0)" xlink:href="#am"/><use transform="matrix(0.05,0,0,0.05,53,0)" xlink:href="#an"/><use transform="matrix(0.05,0,0,0.05,58,0)" xlink:href="#ar"/><use transform="matrix(0.05,0,0,0.05,68,0)" xlink:href="#aI"/><use transform="matrix(0.05,0,0,0.05,78,0)" xlink:href="#aq"/><use transform="matrix(0.05,0,0,0.05,88,0)" xlink:href="#ao"/><use transform="matrix(0.05,0,0,0.05,98,0)" xlink:href="#an"/><use transform="matrix(0.05,0,0,0.05,103,0)" xlink:href="#an"/><use transform="matrix(0.05,0,0,0.05,108,0)" xlink:href="#ao"/><use transform="matrix(0.05,0,0,0.05,118,0)" xlink:href="#ay"/><use transform="matrix(0.05,0,0,0.05,127,0)" xlink:href="#aJ"/><use transform="matrix(0.05,0,0,0.05,136,0)" xlink:href="#ar"/><use transform="matrix(0.05,0,0,0.05,146,0)" xlink:href="#aK"/></g><g id="e"><use transform="matrix(0.05,0,0,0.05,0,0)" xlink:href="#am"/><use transform="matrix(0.05,0,0,0.05,9,0)" xlink:href="#ar"/><use transform="matrix(0.05,0,0,0.05,19,0)" xlink:href="#aw"/><use transform="matrix(0.05,0,0,0.05,22.95,0)" xlink:href="#ar"/><use transform="matrix(0.05,0,0,0.05,32.95,0)" xlink:href="#ay"/><use transform="matrix(0.05,0,0,0.05,41.95,0)" xlink:href="#an"/><use transform="matrix(0.05,0,0,0.05,46.95,0)" xlink:href="#ar"/><use transform="matrix(0.05,0,0,0.05,56.95,0)" xlink:href="#aK"/><use transform="matrix(0.05,0,0,0.05,66.95,0)" xlink:href="#aq"/><use transform="matrix(0.05,0,0,0.05,76.95,0)" xlink:href="#ao"/><use transform="matrix(0.05,0,0,0.05,86.95,0)" xlink:href="#ay"/><use transform="matrix(0.05,0,0,0.05,95.95,0)" xlink:href="#an"/><use transform="matrix(0.05,0,0,0.05,100.95,0)" xlink:href="#au"/><use transform="matrix(0.05,0,0,0.05,104.9,0)" xlink:href="#aA"/><use transform="matrix(0.05,0,0,0.05,114.9,0)" xlink:href="#ax"/><use transform="matrix(0.05,0,0,0.05,124.9,0)" xlink:href="#aD"/></g><g id="f"><use transform="matrix(0.05,0,0,0.05,0,0)" xlink:href="#aE"/><use transform="matrix(0.05,0,0,0.05,10.5,0)" xlink:href="#ao"/><use transform="matrix(0.05,0,0,0.05,20.5,0)" xlink:href="#ay"/><use transform="matrix(0.05,0,0,0.05,29.5,0)" xlink:href="#an"/><use transform="matrix(0.05,0,0,0.05,34.5,0)" xlink:href="#au"/><use transform="matrix(0.05,0,0,0.05,38.45,0)" xlink:href="#aA"/><use transform="matrix(0.05,0,0,0.05,48.45,0)" xlink:href="#ax"/><use transform="matrix(0.05,0,0,0.05,58.45,0)" xlink:href="#aq"/><use transform="matrix(0.05,0,0,0.05,68.45,0)" xlink:href="#am"/><use transform="matrix(0.05,0,0,0.05,77.45,0)" xlink:href="#au"/><use transform="matrix(0.05,0,0,0.05,81.4,0)" xlink:href="#az"/><use transform="matrix(0.05,0,0,0.05,96.35000000000001,0)" xlink:href="#at"/><use transform="matrix(0.05,0,0,0.05,106.35000000000001,0)" xlink:href="#aw"/><use transform="matrix(0.05,0,0,0.05,110.30000000000001,0)" xlink:href="#ao"/><use transform="matrix(0.05,0,0,0.05,120.30000000000001,0)" xlink:href="#an"/><use transform="matrix(0.05,0,0,0.05,125.30000000000001,0)" xlink:href="#aA"/><use transform="matrix(0.05,0,0,0.05,135.3,0)" xlink:href="#ap"/><use transform="matrix(0.05,0,0,0.05,141.25,0)" xlink:href="#aG"/></g><g id="g"><use transform="matrix(0.05,0,0,0.05,0,0)" xlink:href="#as"/><use transform="matrix(0.05,0,0,0.05,10,0)" xlink:href="#at"/><use transform="matrix(0.05,0,0,0.05,20,0)" xlink:href="#ar"/><use transform="matrix(0.05,0,0,0.05,30,0)" xlink:href="#ap"/><use transform="matrix(0.05,0,0,0.05,35.95,0)" xlink:href="#aB"/><use transform="matrix(0.05,0,0,0.05,44.95,0)" xlink:href="#aq"/><use transform="matrix(0.05,0,0,0.05,54.95,0)" xlink:href="#aC"/><use transform="matrix(0.05,0,0,0.05,59.95,0)" xlink:href="#au"/><use transform="matrix(0.05,0,0,0.05,63.900000000000006,0)" xlink:href="#aw"/><use transform="matrix(0.05,0,0,0.05,67.85000000000001,0)" xlink:href="#ar"/></g><g id="h"><use transform="matrix(0.05,0,0,0.05,0,0)" xlink:href="#ay"/><use transform="matrix(0.05,0,0,0.05,9,0)" xlink:href="#aA"/><use transform="matrix(0.05,0,0,0.05,19,0)" xlink:href="#ax"/><use transform="matrix(0.05,0,0,0.05,29,0)" xlink:href="#an"/><use transform="matrix(0.05,0,0,0.05,34,0)" xlink:href="#ao"/><use transform="matrix(0.05,0,0,0.05,44,0)" xlink:href="#au"/><use transform="matrix(0.05,0,0,0.05,47.95,0)" xlink:href="#ax"/><use transform="matrix(0.05,0,0,0.05,57.95,0)" xlink:href="#am"/></g><g id="i"><use transform="matrix(0.05,0,0,0.05,0,0)" xlink:href="#ao"/><use transform="matrix(0.05,0,0,0.05,10,0)" xlink:href="#ax"/></g><g id="j"><use transform="matrix(0.05,0,0,0.05,0,0)" xlink:href="#ao"/><use transform="matrix(0.05,0,0,0.05,10,0)" xlink:href="#an"/><use transform="matrix(0.05,0,0,0.05,15,0)" xlink:href="#an"/><use transform="matrix(0.05,0,0,0.05,20,0)" xlink:href="#ao"/><use transform="matrix(0.05,0,0,0.05,30,0)" xlink:href="#ay"/><use transform="matrix(0.05,0,0,0.05,39,0)" xlink:href="#aJ"/></g><path d="M137-103V0h-34v-103L8-248h37l75 118 75-118h37" id="aL"/><g id="k"><use transform="matrix(0.05,0,0,0.05,0,0)" xlink:href="#aL"/><use transform="matrix(0.05,0,0,0.05,10.35,0)" xlink:href="#ar"/><use transform="matrix(0.05,0,0,0.05,20.35,0)" xlink:href="#am"/></g><g id="l"><use transform="matrix(0.05,0,0,0.05,0,0)" xlink:href="#ao"/><use transform="matrix(0.05,0,0,0.05,10,0)" xlink:href="#an"/><use transform="matrix(0.05,0,0,0.05,15,0)" xlink:href="#an"/><use transform="matrix(0.05,0,0,0.05,20,0)" xlink:href="#ao"/><use transform="matrix(0.05,0,0,0.05,30,0)" xlink:href="#ay"/><use transform="matrix(0.05,0,0,0.05,39,0)" xlink:href="#aJ"/><use transform="matrix(0.05,0,0,0.05,48,0)" xlink:href="#aq"/><use transform="matrix(0.05,0,0,0.05,58,0)" xlink:href="#an"/><use transform="matrix(0.05,0,0,0.05,63,0)" xlink:href="#ap"/><use transform="matrix(0.05,0,0,0.05,68.95,0)" xlink:href="#ao"/><use transform="matrix(0.05,0,0,0.05,78.95,0)" xlink:href="#ay"/><use transform="matrix(0.05,0,0,0.05,87.95,0)" xlink:href="#ar"/></g><path d="M232-93c-1 65-40 97-104 97C67 4 28-28 28-90v-158h33c8 89-33 224 67 224 102 0 64-133 71-224h33v155" id="aM"/><path d="M33 0v-248h34V0H33" id="aN"/><g id="m"><use transform="matrix(0.05,0,0,0.05,0,0)" xlink:href="#aM"/><use transform="matrix(0.05,0,0,0.05,12.950000000000001,0)" xlink:href="#aN"/></g><path d="M16-82v-28h88v28H16" id="aO"/><g id="n"><use transform="matrix(0.05,0,0,0.05,0,0)" xlink:href="#aO"/><use transform="matrix(0.05,0,0,0.05,5.95,0)" xlink:href="#aG"/></g><path d="M205 0l-28-72H64L36 0H1l101-248h38L239 0h-34zm-38-99l-47-123c-12 45-31 82-46 123h93" id="aP"/><path d="M30-248c87 1 191-15 191 75 0 78-77 80-158 76V0H30v-248zm33 125c57 0 124 11 124-50 0-59-68-47-124-48v98" id="aQ"/><g id="o"><use transform="matrix(0.05,0,0,0.05,0,0)" xlink:href="#aP"/><use transform="matrix(0.05,0,0,0.05,12,0)" xlink:href="#aQ"/><use transform="matrix(0.05,0,0,0.05,24,0)" xlink:href="#aN"/></g><g id="p"><use transform="matrix(0.05,0,0,0.05,0,0)" xlink:href="#aP"/><use transform="matrix(0.05,0,0,0.05,12,0)" xlink:href="#aQ"/><use transform="matrix(0.05,0,0,0.05,24,0)" xlink:href="#aN"/></g><g id="q"><use transform="matrix(0.05,0,0,0.05,0,0)" xlink:href="#aM"/><use transform="matrix(0.05,0,0,0.05,12.950000000000001,0)" xlink:href="#aN"/></g><path d="M30 0v-248h33v221h125V0H30" id="aR"/><g id="r"><use transform="matrix(0.05,0,0,0.05,0,0)" xlink:href="#aR"/><use transform="matrix(0.05,0,0,0.05,10,0)" xlink:href="#ar"/><use transform="matrix(0.05,0,0,0.05,20,0)" xlink:href="#aF"/><use transform="matrix(0.05,0,0,0.05,30,0)" xlink:href="#ar"/><use transform="matrix(0.05,0,0,0.05,40,0)" xlink:href="#ax"/><use transform="matrix(0.05,0,0,0.05,50,0)" xlink:href="#aK"/></g><g id="s"><use transform="matrix(0.05,0,0,0.05,0,0)" xlink:href="#aP"/><use transform="matrix(0.05,0,0,0.05,12,0)" xlink:href="#aQ"/><use transform="matrix(0.05,0,0,0.05,24,0)" xlink:href="#aN"/></g><g id="t"><use transform="matrix(0.05,0,0,0.05,0,0)" xlink:href="#ay"/><use transform="matrix(0.05,0,0,0.05,9,0)" xlink:href="#at"/><use transform="matrix(0.05,0,0,0.05,19,0)" xlink:href="#ap"/><use transform="matrix(0.05,0,0,0.05,24.95,0)" xlink:href="#ap"/><use transform="matrix(0.05,0,0,0.05,30.899999999999995,0)" xlink:href="#ar"/><use transform="matrix(0.05,0,0,0.05,40.9,0)" xlink:href="#ax"/><use transform="matrix(0.05,0,0,0.05,50.9,0)" xlink:href="#an"/><use transform="matrix(0.05,0,0,0.05,55.900000000000006,0)" xlink:href="#aq"/><use transform="matrix(0.05,0,0,0.05,65.9,0)" xlink:href="#am"/><use transform="matrix(0.05,0,0,0.05,74.9,0)" xlink:href="#an"/><use transform="matrix(0.05,0,0,0.05,79.9,0)" xlink:href="#ar"/><use transform="matrix(0.05,0,0,0.05,89.9,0)" xlink:href="#aI"/></g><g id="u"><use transform="matrix(0.05,0,0,0.05,0,0)" xlink:href="#aI"/><use transform="matrix(0.05,0,0,0.05,10,0)" xlink:href="#ap"/><use transform="matrix(0.05,0,0,0.05,15.949999999999998,0)" xlink:href="#aA"/><use transform="matrix(0.05,0,0,0.05,25.950000000000003,0)" xlink:href="#ay"/><use transform="matrix(0.05,0,0,0.05,34.95,0)" xlink:href="#ar"/><use transform="matrix(0.05,0,0,0.05,44.95,0)" xlink:href="#am"/><use transform="matrix(0.05,0,0,0.05,53.95,0)" xlink:href="#am"/><use transform="matrix(0.05,0,0,0.05,62.95,0)" xlink:href="#aD"/></g><path d="M68-38c1 34 0 65-14 84H32c9-13 17-26 17-46H33v-38h35" id="aS"/><g id="v"><use transform="matrix(0.05,0,0,0.05,0,0)" xlink:href="#aE"/><use transform="matrix(0.05,0,0,0.05,10.5,0)" xlink:href="#aI"/><use transform="matrix(0.05,0,0,0.05,20.5,0)" xlink:href="#ap"/><use transform="matrix(0.05,0,0,0.05,26.450000000000003,0)" xlink:href="#aA"/><use transform="matrix(0.05,0,0,0.05,36.45,0)" xlink:href="#ay"/><use transform="matrix(0.05,0,0,0.05,45.45,0)" xlink:href="#ar"/><use transform="matrix(0.05,0,0,0.05,55.45,0)" xlink:href="#am"/><use transform="matrix(0.05,0,0,0.05,64.45,0)" xlink:href="#am"/><use transform="matrix(0.05,0,0,0.05,73.45,0)" xlink:href="#aG"/><use transform="matrix(0.05,0,0,0.05,83.95,0)" xlink:href="#aS"/></g><g id="w"><use transform="matrix(0.05,0,0,0.05,0,0)" xlink:href="#aC"/><use transform="matrix(0.05,0,0,0.05,5,0)" xlink:href="#ap"/><use transform="matrix(0.05,0,0,0.05,10.95,0)" xlink:href="#ao"/><use transform="matrix(0.05,0,0,0.05,20.95,0)" xlink:href="#az"/><use transform="matrix(0.05,0,0,0.05,35.9,0)" xlink:href="#ar"/><use transform="matrix(0.05,0,0,0.05,45.9,0)" xlink:href="#aD"/></g><g id="x"><use transform="matrix(0.05,0,0,0.05,0,0)" xlink:href="#aE"/><use transform="matrix(0.05,0,0,0.05,10.5,0)" xlink:href="#an"/><use transform="matrix(0.05,0,0,0.05,15.5,0)" xlink:href="#ar"/><use transform="matrix(0.05,0,0,0.05,25.5,0)" xlink:href="#ap"/><use transform="matrix(0.05,0,0,0.05,31.450000000000003,0)" xlink:href="#az"/><use transform="matrix(0.05,0,0,0.05,46.4,0)" xlink:href="#aG"/></g><g id="y"><use transform="matrix(0.05,0,0,0.05,0,0)" xlink:href="#aw"/><use transform="matrix(0.05,0,0,0.05,3.95,0)" xlink:href="#au"/><use transform="matrix(0.05,0,0,0.05,7.9,0)" xlink:href="#am"/><use transform="matrix(0.05,0,0,0.05,16.9,0)" xlink:href="#an"/><use transform="matrix(0.05,0,0,0.05,21.9,0)" xlink:href="#aS"/></g><path d="M115-194c53 0 69 39 70 98 0 66-23 100-70 100C84 3 66-7 56-30L54 0H23l1-261h32v101c10-23 28-34 59-34zm-8 174c40 0 45-34 45-75 0-40-5-75-45-74-42 0-51 32-51 76 0 43 10 73 51 73" id="aT"/><g id="z"><use transform="matrix(0.05,0,0,0.05,0,0)" xlink:href="#ao"/><use transform="matrix(0.05,0,0,0.05,10,0)" xlink:href="#aw"/><use transform="matrix(0.05,0,0,0.05,13.949999999999998,0)" xlink:href="#aw"/><use transform="matrix(0.05,0,0,0.05,17.9,0)" xlink:href="#aq"/><use transform="matrix(0.05,0,0,0.05,27.899999999999995,0)" xlink:href="#ao"/><use transform="matrix(0.05,0,0,0.05,37.9,0)" xlink:href="#av"/><use transform="matrix(0.05,0,0,0.05,46.9,0)" xlink:href="#ao"/><use transform="matrix(0.05,0,0,0.05,56.900000000000006,0)" xlink:href="#au"/><use transform="matrix(0.05,0,0,0.05,60.85,0)" xlink:href="#aw"/><use transform="matrix(0.05,0,0,0.05,64.8,0)" xlink:href="#ao"/><use transform="matrix(0.05,0,0,0.05,74.8,0)" xlink:href="#aT"/><use transform="matrix(0.05,0,0,0.05,84.8,0)" xlink:href="#aw"/><use transform="matrix(0.05,0,0,0.05,88.75,0)" xlink:href="#ar"/><use transform="matrix(0.05,0,0,0.05,98.75,0)" xlink:href="#aq"/><use transform="matrix(0.05,0,0,0.05,108.75,0)" xlink:href="#ao"/><use transform="matrix(0.05,0,0,0.05,118.75,0)" xlink:href="#ay"/><use transform="matrix(0.05,0,0,0.05,127.75,0)" xlink:href="#an"/><use transform="matrix(0.05,0,0,0.05,132.75,0)" xlink:href="#au"/><use transform="matrix(0.05,0,0,0.05,136.7,0)" xlink:href="#aA"/><use transform="matrix(0.05,0,0,0.05,146.7,0)" xlink:href="#ax"/><use transform="matrix(0.05,0,0,0.05,156.7,0)" xlink:href="#am"/></g><use transform="matrix(0.05,0,0,0.05,0,0)" xlink:href="#aD" id="A"/><g id="B"><use transform="matrix(0.05,0,0,0.05,0,0)" xlink:href="#aE"/><use transform="matrix(0.05,0,0,0.05,10.5,0)" xlink:href="#ao"/><use transform="matrix(0.05,0,0,0.05,20.5,0)" xlink:href="#av"/><use transform="matrix(0.05,0,0,0.05,29.5,0)" xlink:href="#ao"/><use transform="matrix(0.05,0,0,0.05,39.5,0)" xlink:href="#au"/><use transform="matrix(0.05,0,0,0.05,43.45,0)" xlink:href="#aw"/><use transform="matrix(0.05,0,0,0.05,47.400000000000006,0)" xlink:href="#ao"/><use transform="matrix(0.05,0,0,0.05,57.400000000000006,0)" xlink:href="#aT"/><use transform="matrix(0.05,0,0,0.05,67.4,0)" xlink:href="#aw"/><use transform="matrix(0.05,0,0,0.05,71.35000000000001,0)" xlink:href="#ar"/><use transform="matrix(0.05,0,0,0.05,81.35000000000001,0)" xlink:href="#aq"/><use transform="matrix(0.05,0,0,0.05,91.35000000000001,0)" xlink:href="#ao"/><use transform="matrix(0.05,0,0,0.05,101.35000000000001,0)" xlink:href="#ay"/><use transform="matrix(0.05,0,0,0.05,110.35000000000001,0)" xlink:href="#an"/><use transform="matrix(0.05,0,0,0.05,115.35000000000001,0)" xlink:href="#au"/><use transform="matrix(0.05,0,0,0.05,119.30000000000001,0)" xlink:href="#aA"/><use transform="matrix(0.05,0,0,0.05,129.3,0)" xlink:href="#ax"/><use transform="matrix(0.05,0,0,0.05,139.3,0)" xlink:href="#aG"/></g><g id="C"><use transform="matrix(0.05,0,0,0.05,0,0)" xlink:href="#aK"/><use transform="matrix(0.05,0,0,0.05,10,0)" xlink:href="#ar"/><use transform="matrix(0.05,0,0,0.05,20,0)" xlink:href="#aC"/><use transform="matrix(0.05,0,0,0.05,25,0)" xlink:href="#ao"/><use transform="matrix(0.05,0,0,0.05,35,0)" xlink:href="#at"/><use transform="matrix(0.05,0,0,0.05,45,0)" xlink:href="#aw"/><use transform="matrix(0.05,0,0,0.05,48.95,0)" xlink:href="#an"/><use transform="matrix(0.05,0,0,0.05,53.95,0)" xlink:href="#aq"/><use transform="matrix(0.05,0,0,0.05,63.95,0)" xlink:href="#ao"/><use transform="matrix(0.05,0,0,0.05,73.95,0)" xlink:href="#av"/><use transform="matrix(0.05,0,0,0.05,82.95,0)" xlink:href="#ao"/><use transform="matrix(0.05,0,0,0.05,92.95,0)" xlink:href="#au"/><use transform="matrix(0.05,0,0,0.05,96.9,0)" xlink:href="#aw"/><use transform="matrix(0.05,0,0,0.05,100.85000000000001,0)" xlink:href="#ao"/><use transform="matrix(0.05,0,0,0.05,110.85000000000001,0)" xlink:href="#aT"/><use transform="matrix(0.05,0,0,0.05,120.85000000000001,0)" xlink:href="#aw"/><use transform="matrix(0.05,0,0,0.05,124.80000000000001,0)" xlink:href="#ar"/><use transform="matrix(0.05,0,0,0.05,134.8,0)" xlink:href="#aq"/><use transform="matrix(0.05,0,0,0.05,144.8,0)" xlink:href="#ao"/><use transform="matrix(0.05,0,0,0.05,154.8,0)" xlink:href="#ay"/><use transform="matrix(0.05,0,0,0.05,163.8,0)" xlink:href="#an"/><use transform="matrix(0.05,0,0,0.05,168.8,0)" xlink:href="#au"/><use transform="matrix(0.05,0,0,0.05,172.75,0)" xlink:href="#aA"/><use transform="matrix(0.05,0,0,0.05,182.75,0)" xlink:href="#ax"/><use transform="matrix(0.05,0,0,0.05,192.75,0)" xlink:href="#am"/><use transform="matrix(0.05,0,0,0.05,201.75,0)" xlink:href="#aD"/></g><path d="M206 0h-36l-40-164L89 0H53L-1-190h32L70-26l43-164h34l41 164 42-164h31" id="aU"/><g id="D"><use transform="matrix(0.05,0,0,0.05,0,0)" xlink:href="#ax"/><use transform="matrix(0.05,0,0,0.05,10,0)" xlink:href="#ar"/><use transform="matrix(0.05,0,0,0.05,20,0)" xlink:href="#aU"/><use transform="matrix(0.05,0,0,0.05,32.95,0)" xlink:href="#aq"/><use transform="matrix(0.05,0,0,0.05,42.95,0)" xlink:href="#ao"/><use transform="matrix(0.05,0,0,0.05,52.95,0)" xlink:href="#ay"/><use transform="matrix(0.05,0,0,0.05,61.95,0)" xlink:href="#an"/><use transform="matrix(0.05,0,0,0.05,66.95,0)" xlink:href="#au"/><use transform="matrix(0.05,0,0,0.05,70.9,0)" xlink:href="#aA"/><use transform="matrix(0.05,0,0,0.05,80.9,0)" xlink:href="#ax"/><use transform="matrix(0.05,0,0,0.05,90.9,0)" xlink:href="#am"/><use transform="matrix(0.05,0,0,0.05,99.9,0)" xlink:href="#aD"/></g><g id="E"><use transform="matrix(0.05,0,0,0.05,0,0)" xlink:href="#aE"/><use transform="matrix(0.05,0,0,0.05,10.5,0)" xlink:href="#ao"/><use transform="matrix(0.05,0,0,0.05,20.5,0)" xlink:href="#ay"/><use transform="matrix(0.05,0,0,0.05,29.5,0)" xlink:href="#an"/><use transform="matrix(0.05,0,0,0.05,34.5,0)" xlink:href="#au"/><use transform="matrix(0.05,0,0,0.05,38.45,0)" xlink:href="#aA"/><use transform="matrix(0.05,0,0,0.05,48.45,0)" xlink:href="#ax"/><use transform="matrix(0.05,0,0,0.05,58.45,0)" xlink:href="#aG"/></g><g id="F"><use transform="matrix(0.05,0,0,0.05,0,0)" xlink:href="#aw"/><use transform="matrix(0.05,0,0,0.05,3.95,0)" xlink:href="#au"/><use transform="matrix(0.05,0,0,0.05,7.9,0)" xlink:href="#am"/><use transform="matrix(0.05,0,0,0.05,16.9,0)" xlink:href="#an"/></g><path d="M266 0h-40l-56-210L115 0H75L2-248h35L96-30l15-64 43-154h32l59 218 59-218h35" id="aV"/><g id="G"><use transform="matrix(0.05,0,0,0.05,0,0)" xlink:href="#aV"/><use transform="matrix(0.05,0,0,0.05,16.3,0)" xlink:href="#ao"/><use transform="matrix(0.05,0,0,0.05,26.3,0)" xlink:href="#au"/><use transform="matrix(0.05,0,0,0.05,30.25,0)" xlink:href="#an"/><use transform="matrix(0.05,0,0,0.05,35.25,0)" xlink:href="#au"/><use transform="matrix(0.05,0,0,0.05,39.2,0)" xlink:href="#ax"/><use transform="matrix(0.05,0,0,0.05,49.2,0)" xlink:href="#aF"/></g><g id="H"><use transform="matrix(0.05,0,0,0.05,0,0)" xlink:href="#ay"/><use transform="matrix(0.05,0,0,0.05,9,0)" xlink:href="#aA"/><use transform="matrix(0.05,0,0,0.05,19,0)" xlink:href="#az"/><use transform="matrix(0.05,0,0,0.05,33.95,0)" xlink:href="#az"/><use transform="matrix(0.05,0,0,0.05,48.900000000000006,0)" xlink:href="#ao"/><use transform="matrix(0.05,0,0,0.05,58.900000000000006,0)" xlink:href="#ax"/><use transform="matrix(0.05,0,0,0.05,68.9,0)" xlink:href="#aK"/></g><path d="M106-169C34-169 62-67 57 0H25v-261h32l-1 103c12-21 28-36 61-36 89 0 53 116 60 194h-32v-121c2-32-8-49-39-48" id="aW"/><g id="I"><use transform="matrix(0.05,0,0,0.05,0,0)" xlink:href="#aQ"/><use transform="matrix(0.05,0,0,0.05,12,0)" xlink:href="#aW"/><use transform="matrix(0.05,0,0,0.05,22,0)" xlink:href="#ao"/><use transform="matrix(0.05,0,0,0.05,32,0)" xlink:href="#am"/><use transform="matrix(0.05,0,0,0.05,41,0)" xlink:href="#ar"/></g><path d="M27 0v-27h64v-190l-56 39v-29l58-41h29v221h61V0H27" id="aX"/><use transform="matrix(0.05,0,0,0.05,0,0)" xlink:href="#aX" id="J"/><g id="K"><use transform="matrix(0.05,0,0,0.05,0,0)" xlink:href="#am"/><use transform="matrix(0.05,0,0,0.05,9,0)" xlink:href="#ar"/><use transform="matrix(0.05,0,0,0.05,19,0)" xlink:href="#aw"/><use transform="matrix(0.05,0,0,0.05,22.95,0)" xlink:href="#ar"/><use transform="matrix(0.05,0,0,0.05,32.95,0)" xlink:href="#ay"/><use transform="matrix(0.05,0,0,0.05,41.95,0)" xlink:href="#an"/><use transform="matrix(0.05,0,0,0.05,46.95,0)" xlink:href="#aq"/><use transform="matrix(0.05,0,0,0.05,56.95,0)" xlink:href="#an"/><use transform="matrix(0.05,0,0,0.05,61.95,0)" xlink:href="#ap"/><use transform="matrix(0.05,0,0,0.05,67.9,0)" xlink:href="#ao"/><use transform="matrix(0.05,0,0,0.05,77.9,0)" xlink:href="#ay"/><use transform="matrix(0.05,0,0,0.05,86.9,0)" xlink:href="#ar"/></g><g id="L"><use transform="matrix(0.05,0,0,0.05,0,0)" xlink:href="#am"/><use transform="matrix(0.05,0,0,0.05,9,0)" xlink:href="#an"/><use transform="matrix(0.05,0,0,0.05,14,0)" xlink:href="#ao"/><use transform="matrix(0.05,0,0,0.05,24,0)" xlink:href="#ap"/><use transform="matrix(0.05,0,0,0.05,29.950000000000003,0)" xlink:href="#an"/><use transform="matrix(0.05,0,0,0.05,34.95,0)" xlink:href="#aD"/></g><path d="M101-251c68 0 85 55 85 127S166 4 100 4C33 4 14-52 14-124c0-73 17-127 87-127zm-1 229c47 0 54-49 54-102s-4-102-53-102c-51 0-55 48-55 102 0 53 5 102 54 102" id="aY"/><use transform="matrix(0.05,0,0,0.05,0,0)" xlink:href="#aY" id="M"/><path d="M32 76v-337h29V76H32" id="aZ"/><use transform="matrix(0.05,0,0,0.05,0,0)" xlink:href="#aZ" id="N"/><use transform="matrix(0.05,0,0,0.05,0,0)" xlink:href="#aX" id="O"/><path d="M101-251c82-7 93 87 43 132L82-64C71-53 59-42 53-27h129V0H18c2-99 128-94 128-182 0-28-16-43-45-43s-46 15-49 41l-32-3c6-41 34-60 81-64" id="ba"/><use transform="matrix(0.05,0,0,0.05,0,0)" xlink:href="#ba" id="P"/><g id="Q"><use transform="matrix(0.05,0,0,0.05,0,0)" xlink:href="#aF"/><use transform="matrix(0.05,0,0,0.05,10,0)" xlink:href="#aA"/><use transform="matrix(0.05,0,0,0.05,20,0)" xlink:href="#an"/><use transform="matrix(0.05,0,0,0.05,25,0)" xlink:href="#aA"/><use transform="matrix(0.05,0,0,0.05,35,0)" xlink:href="#aq"/><use transform="matrix(0.05,0,0,0.05,45,0)" xlink:href="#am"/><use transform="matrix(0.05,0,0,0.05,54,0)" xlink:href="#an"/><use transform="matrix(0.05,0,0,0.05,59,0)" xlink:href="#ar"/><use transform="matrix(0.05,0,0,0.05,69,0)" xlink:href="#aI"/></g><g id="R"><use transform="matrix(0.05,0,0,0.05,0,0)" xlink:href="#au"/><use transform="matrix(0.05,0,0,0.05,3.95,0)" xlink:href="#aK"/><use transform="matrix(0.05,0,0,0.05,13.949999999999998,0)" xlink:href="#aD"/></g><g id="S"><use transform="matrix(0.05,0,0,0.05,0,0)" xlink:href="#aE"/><use transform="matrix(0.05,0,0,0.05,10.5,0)" xlink:href="#au"/><use transform="matrix(0.05,0,0,0.05,14.449999999999998,0)" xlink:href="#ax"/><use transform="matrix(0.05,0,0,0.05,24.45,0)" xlink:href="#an"/><use transform="matrix(0.05,0,0,0.05,29.450000000000003,0)" xlink:href="#aG"/></g><g id="T"><use transform="matrix(0.05,0,0,0.05,0,0)" xlink:href="#aI"/><use transform="matrix(0.05,0,0,0.05,10,0)" xlink:href="#ao"/><use transform="matrix(0.05,0,0,0.05,20,0)" xlink:href="#ap"/><use transform="matrix(0.05,0,0,0.05,25.950000000000003,0)" xlink:href="#am"/><use transform="matrix(0.05,0,0,0.05,34.95,0)" xlink:href="#au"/><use transform="matrix(0.05,0,0,0.05,38.900000000000006,0)" xlink:href="#ax"/><use transform="matrix(0.05,0,0,0.05,48.900000000000006,0)" xlink:href="#aF"/></g><g id="U"><use transform="matrix(0.05,0,0,0.05,0,0)" xlink:href="#ar"/><use transform="matrix(0.05,0,0,0.05,10,0)" xlink:href="#ap"/><use transform="matrix(0.05,0,0,0.05,15.949999999999998,0)" xlink:href="#ap"/><use transform="matrix(0.05,0,0,0.05,21.9,0)" xlink:href="#aA"/><use transform="matrix(0.05,0,0,0.05,31.899999999999995,0)" xlink:href="#ap"/></g><path d="M158-156l-14 65h45v19h-49L124 0h-19l15-72H56L41 0H22l15-72H2v-19h39l14-65H11v-19h48l15-71h20l-16 71h64l16-71h19l-16 71h37v19h-40zm-83 0L61-91h63l14-65H75" id="bb"/><g id="V"><use transform="matrix(0.05,0,0,0.05,0,0)" xlink:href="#ar"/><use transform="matrix(0.05,0,0,0.05,10,0)" xlink:href="#ap"/><use transform="matrix(0.05,0,0,0.05,15.949999999999998,0)" xlink:href="#ap"/><use transform="matrix(0.05,0,0,0.05,21.9,0)" xlink:href="#aA"/><use transform="matrix(0.05,0,0,0.05,31.899999999999995,0)" xlink:href="#ap"/><use transform="matrix(0.05,0,0,0.05,37.85,0)" xlink:href="#aq"/><use transform="matrix(0.05,0,0,0.05,47.85,0)" xlink:href="#bb"/><use transform="matrix(0.05,0,0,0.05,57.85,0)" xlink:href="#bb"/><use transform="matrix(0.05,0,0,0.05,67.85,0)" xlink:href="#bb"/></g><g id="W"><use transform="matrix(0.05,0,0,0.05,0,0)" xlink:href="#am"/><use transform="matrix(0.05,0,0,0.05,9,0)" xlink:href="#ar"/><use transform="matrix(0.05,0,0,0.05,19,0)" xlink:href="#ar"/></g><g id="X"><use transform="matrix(0.05,0,0,0.05,0,0)" xlink:href="#aK"/><use transform="matrix(0.05,0,0,0.05,10,0)" xlink:href="#aA"/><use transform="matrix(0.05,0,0,0.05,20,0)" xlink:href="#ay"/></g><g id="Y"><use transform="matrix(0.05,0,0,0.05,0,0)" xlink:href="#aC"/><use transform="matrix(0.05,0,0,0.05,5,0)" xlink:href="#aA"/><use transform="matrix(0.05,0,0,0.05,15,0)" xlink:href="#ap"/></g><g id="Z"><use transform="matrix(0.05,0,0,0.05,0,0)" xlink:href="#an"/><use transform="matrix(0.05,0,0,0.05,5,0)" xlink:href="#aW"/><use transform="matrix(0.05,0,0,0.05,15,0)" xlink:href="#ar"/></g><g id="aa"><use transform="matrix(0.05,0,0,0.05,0,0)" xlink:href="#aK"/><use transform="matrix(0.05,0,0,0.05,10,0)" xlink:href="#au"/><use transform="matrix(0.05,0,0,0.05,13.949999999999998,0)" xlink:href="#aC"/><use transform="matrix(0.05,0,0,0.05,18.6,0)" xlink:href="#aC"/><use transform="matrix(0.05,0,0,0.05,23.6,0)" xlink:href="#ar"/><use transform="matrix(0.05,0,0,0.05,33.6,0)" xlink:href="#ap"/><use transform="matrix(0.05,0,0,0.05,39.550000000000004,0)" xlink:href="#ar"/><use transform="matrix(0.05,0,0,0.05,49.550000000000004,0)" xlink:href="#ax"/><use transform="matrix(0.05,0,0,0.05,59.550000000000004,0)" xlink:href="#an"/></g><g id="ab"><use transform="matrix(0.05,0,0,0.05,0,0)" xlink:href="#ar"/><use transform="matrix(0.05,0,0,0.05,10,0)" xlink:href="#ap"/><use transform="matrix(0.05,0,0,0.05,15.949999999999998,0)" xlink:href="#ap"/><use transform="matrix(0.05,0,0,0.05,21.9,0)" xlink:href="#aA"/><use transform="matrix(0.05,0,0,0.05,31.899999999999995,0)" xlink:href="#ap"/><use transform="matrix(0.05,0,0,0.05,37.85,0)" xlink:href="#am"/></g><g id="ac"><use transform="matrix(0.05,0,0,0.05,0,0)" xlink:href="#aC"/><use transform="matrix(0.05,0,0,0.05,5,0)" xlink:href="#au"/><use transform="matrix(0.05,0,0,0.05,8.95,0)" xlink:href="#ax"/><use transform="matrix(0.05,0,0,0.05,18.95,0)" xlink:href="#aK"/><use transform="matrix(0.05,0,0,0.05,28.950000000000003,0)" xlink:href="#aq"/><use transform="matrix(0.05,0,0,0.05,38.95,0)" xlink:href="#ar"/><use transform="matrix(0.05,0,0,0.05,48.95,0)" xlink:href="#as"/><use transform="matrix(0.05,0,0,0.05,58.95,0)" xlink:href="#at"/><use transform="matrix(0.05,0,0,0.05,68.95,0)" xlink:href="#au"/><use transform="matrix(0.05,0,0,0.05,72.9,0)" xlink:href="#av"/><use transform="matrix(0.05,0,0,0.05,81.9,0)" xlink:href="#ao"/><use transform="matrix(0.05,0,0,0.05,91.9,0)" xlink:href="#aw"/><use transform="matrix(0.05,0,0,0.05,95.85000000000001,0)" xlink:href="#ar"/><use transform="matrix(0.05,0,0,0.05,105.85000000000001,0)" xlink:href="#ax"/><use transform="matrix(0.05,0,0,0.05,115.85000000000001,0)" xlink:href="#an"/><use transform="matrix(0.05,0,0,0.05,120.85000000000001,0)" xlink:href="#aq"/><use transform="matrix(0.05,0,0,0.05,130.85000000000002,0)" xlink:href="#an"/><use transform="matrix(0.05,0,0,0.05,135.85000000000002,0)" xlink:href="#ap"/><use transform="matrix(0.05,0,0,0.05,141.8,0)" xlink:href="#ao"/><use transform="matrix(0.05,0,0,0.05,151.8,0)" xlink:href="#ay"/><use transform="matrix(0.05,0,0,0.05,160.8,0)" xlink:href="#ar"/></g><g id="ad"><use transform="matrix(0.05,0,0,0.05,0,0)" xlink:href="#aC"/><use transform="matrix(0.05,0,0,0.05,5,0)" xlink:href="#aA"/><use transform="matrix(0.05,0,0,0.05,15,0)" xlink:href="#at"/><use transform="matrix(0.05,0,0,0.05,25,0)" xlink:href="#ax"/><use transform="matrix(0.05,0,0,0.05,35,0)" xlink:href="#aK"/><use transform="matrix(0.05,0,0,0.05,45,0)" xlink:href="#aq"/><use transform="matrix(0.05,0,0,0.05,55,0)" xlink:href="#ar"/><use transform="matrix(0.05,0,0,0.05,65,0)" xlink:href="#as"/><use transform="matrix(0.05,0,0,0.05,75,0)" xlink:href="#at"/><use transform="matrix(0.05,0,0,0.05,85,0)" xlink:href="#au"/><use transform="matrix(0.05,0,0,0.05,88.95,0)" xlink:href="#av"/><use transform="matrix(0.05,0,0,0.05,97.95,0)" xlink:href="#ao"/><use transform="matrix(0.05,0,0,0.05,107.95,0)" xlink:href="#aw"/><use transform="matrix(0.05,0,0,0.05,111.9,0)" xlink:href="#ar"/><use transform="matrix(0.05,0,0,0.05,121.9,0)" xlink:href="#ax"/><use transform="matrix(0.05,0,0,0.05,131.9,0)" xlink:href="#an"/><use transform="matrix(0.05,0,0,0.05,136.9,0)" xlink:href="#aq"/><use transform="matrix(0.05,0,0,0.05,146.9,0)" xlink:href="#an"/><use transform="matrix(0.05,0,0,0.05,151.9,0)" xlink:href="#ap"/><use transform="matrix(0.05,0,0,0.05,157.85,0)" xlink:href="#ao"/><use transform="matrix(0.05,0,0,0.05,167.85,0)" xlink:href="#ay"/><use transform="matrix(0.05,0,0,0.05,176.85,0)" xlink:href="#ar"/></g><g id="ae"><use transform="matrix(0.05,0,0,0.05,0,0)" xlink:href="#ao"/><use transform="matrix(0.05,0,0,0.05,10,0)" xlink:href="#ay"/><use transform="matrix(0.05,0,0,0.05,19,0)" xlink:href="#an"/><use transform="matrix(0.05,0,0,0.05,24,0)" xlink:href="#au"/><use transform="matrix(0.05,0,0,0.05,27.950000000000003,0)" xlink:href="#aA"/><use transform="matrix(0.05,0,0,0.05,37.95,0)" xlink:href="#ax"/><use transform="matrix(0.05,0,0,0.05,47.95,0)" xlink:href="#aq"/><use transform="matrix(0.05,0,0,0.05,57.95,0)" xlink:href="#am"/><use transform="matrix(0.05,0,0,0.05,66.95,0)" xlink:href="#ar"/><use transform="matrix(0.05,0,0,0.05,76.95,0)" xlink:href="#as"/><use transform="matrix(0.05,0,0,0.05,86.95,0)" xlink:href="#at"/><use transform="matrix(0.05,0,0,0.05,96.95,0)" xlink:href="#ar"/><use transform="matrix(0.05,0,0,0.05,106.95,0)" xlink:href="#ax"/><use transform="matrix(0.05,0,0,0.05,116.95,0)" xlink:href="#ay"/><use transform="matrix(0.05,0,0,0.05,125.95,0)" xlink:href="#ar"/><use transform="matrix(0.05,0,0,0.05,135.95,0)" xlink:href="#aD"/></g><g id="af"><use transform="matrix(0.05,0,0,0.05,0,0)" xlink:href="#aE"/><use transform="matrix(0.05,0,0,0.05,10.5,0)" xlink:href="#au"/><use transform="matrix(0.05,0,0,0.05,14.449999999999998,0)" xlink:href="#ax"/><use transform="matrix(0.05,0,0,0.05,24.45,0)" xlink:href="#an"/><use transform="matrix(0.05,0,0,0.05,29.450000000000003,0)" xlink:href="#aG"/><use transform="matrix(0.05,0,0,0.05,39.95,0)" xlink:href="#aS"/></g><g id="ag"><use transform="matrix(0.05,0,0,0.05,0,0)" xlink:href="#aI"/><use transform="matrix(0.05,0,0,0.05,10,0)" xlink:href="#ap"/><use transform="matrix(0.05,0,0,0.05,15.949999999999998,0)" xlink:href="#aA"/><use transform="matrix(0.05,0,0,0.05,25.950000000000003,0)" xlink:href="#ay"/><use transform="matrix(0.05,0,0,0.05,34.95,0)" xlink:href="#ar"/><use transform="matrix(0.05,0,0,0.05,44.95,0)" xlink:href="#am"/><use transform="matrix(0.05,0,0,0.05,53.95,0)" xlink:href="#am"/><use transform="matrix(0.05,0,0,0.05,62.95,0)" xlink:href="#aq"/><use transform="matrix(0.05,0,0,0.05,72.95,0)" xlink:href="#au"/><use transform="matrix(0.05,0,0,0.05,76.9,0)" xlink:href="#aK"/><use transform="matrix(0.05,0,0,0.05,86.9,0)" xlink:href="#aD"/></g><g id="ah"><use transform="matrix(0.05,0,0,0.05,0,0)" xlink:href="#aI"/><use transform="matrix(0.05,0,0,0.05,10,0)" xlink:href="#ap"/><use transform="matrix(0.05,0,0,0.05,15.949999999999998,0)" xlink:href="#aA"/><use transform="matrix(0.05,0,0,0.05,25.950000000000003,0)" xlink:href="#ay"/><use transform="matrix(0.05,0,0,0.05,34.95,0)" xlink:href="#ar"/><use transform="matrix(0.05,0,0,0.05,44.95,0)" xlink:href="#am"/><use transform="matrix(0.05,0,0,0.05,53.95,0)" xlink:href="#am"/><use transform="matrix(0.05,0,0,0.05,62.95,0)" xlink:href="#aq"/><use transform="matrix(0.05,0,0,0.05,72.95,0)" xlink:href="#au"/><use transform="matrix(0.05,0,0,0.05,76.9,0)" xlink:href="#aK"/><use transform="matrix(0.05,0,0,0.05,86.9,0)" xlink:href="#aD"/></g><g id="ai"><use transform="matrix(0.05,0,0,0.05,0,0)" xlink:href="#aI"/><use transform="matrix(0.05,0,0,0.05,10,0)" xlink:href="#ap"/><use transform="matrix(0.05,0,0,0.05,15.949999999999998,0)" xlink:href="#aA"/><use transform="matrix(0.05,0,0,0.05,25.950000000000003,0)" xlink:href="#ay"/><use transform="matrix(0.05,0,0,0.05,34.95,0)" xlink:href="#ar"/><use transform="matrix(0.05,0,0,0.05,44.95,0)" xlink:href="#am"/><use transform="matrix(0.05,0,0,0.05,53.95,0)" xlink:href="#am"/><use transform="matrix(0.05,0,0,0.05,62.95,0)" xlink:href="#aD"/></g><g id="aj"><use transform="matrix(0.05,0,0,0.05,0,0)" xlink:href="#ay"/><use transform="matrix(0.05,0,0,0.05,9,0)" xlink:href="#at"/><use transform="matrix(0.05,0,0,0.05,19,0)" xlink:href="#ap"/><use transform="matrix(0.05,0,0,0.05,24.95,0)" xlink:href="#ap"/><use transform="matrix(0.05,0,0,0.05,30.899999999999995,0)" xlink:href="#ar"/><use transform="matrix(0.05,0,0,0.05,40.9,0)" xlink:href="#ax"/><use transform="matrix(0.05,0,0,0.05,50.9,0)" xlink:href="#an"/><use transform="matrix(0.05,0,0,0.05,55.900000000000006,0)" xlink:href="#aq"/><use transform="matrix(0.05,0,0,0.05,65.9,0)" xlink:href="#ao"/><use transform="matrix(0.05,0,0,0.05,75.9,0)" xlink:href="#ay"/><use transform="matrix(0.05,0,0,0.05,84.9,0)" xlink:href="#an"/><use transform="matrix(0.05,0,0,0.05,89.9,0)" xlink:href="#au"/><use transform="matrix(0.05,0,0,0.05,93.85000000000001,0)" xlink:href="#aA"/><use transform="matrix(0.05,0,0,0.05,103.85000000000001,0)" xlink:href="#ax"/><use transform="matrix(0.05,0,0,0.05,113.85000000000001,0)" xlink:href="#aq"/><use transform="matrix(0.05,0,0,0.05,123.85000000000001,0)" xlink:href="#au"/><use transform="matrix(0.05,0,0,0.05,127.80000000000001,0)" xlink:href="#aK"/><use transform="matrix(0.05,0,0,0.05,137.8,0)" xlink:href="#aD"/></g><path d="M190 0L58-211 59 0H30v-248h39L202-35l-2-213h31V0h-41" id="bc"/><g id="ak"><use transform="matrix(0.05,0,0,0.05,0,0)" xlink:href="#bc"/><use transform="matrix(0.05,0,0,0.05,12.950000000000001,0)" xlink:href="#aA"/></g><g id="al"><use transform="matrix(0.05,0,0,0.05,0,0)" xlink:href="#aK"/><use transform="matrix(0.05,0,0,0.05,10,0)" xlink:href="#au"/><use transform="matrix(0.05,0,0,0.05,13.949999999999998,0)" xlink:href="#ar"/></g></defs></g></svg>