<svg xmlns="http://www.w3.org/2000/svg" xmlns:xlink="http://www.w3.org/1999/xlink" xmlns:lucid="lucid" width="1701" height="1462.91"><g transform="translate(-80 -1837.0947265625405)" lucid:page-tab-id="0_0"><path d="M0 1259.2h1870.4v2582.4H0z" fill="#fff"/><path d="M115.2 2246.8h160v40h-160z" fill="#ff8f80"/><use xlink:href="#a" transform="matrix(1,0,0,1,115.19999999999993,2246.8000000000466) translate(43.305 24.4)"/><use xlink:href="#b" transform="matrix(1,0,0,1,115.19999999999993,2246.8000000000466) translate(66.255 24.4)"/><use xlink:href="#c" transform="matrix(1,0,0,1,115.19999999999993,2246.8000000000466) translate(87.705 24.4)"/><path d="M115.2 2306.8h160v40h-160z" fill="#c1e4f7"/><use xlink:href="#d" transform="matrix(1,0,0,1,115.19999999999993,2306.8) translate(43.305 24.4)"/><use xlink:href="#b" transform="matrix(1,0,0,1,115.19999999999993,2306.8) translate(77.305 24.4)"/><use xlink:href="#e" transform="matrix(1,0,0,1,115.19999999999993,2306.8) translate(98.755 24.4)"/><path d="M100 2190h200v290H100z" stroke="#000" stroke-width="2" fill-opacity="0"/><use xlink:href="#f" transform="matrix(1,0,0,1,108,2198) translate(62 15.6)"/><path d="M115.2 2366.8h160v40h-160z" fill="#c7e8ac"/><use xlink:href="#g" transform="matrix(1,0,0,1,115.19999999999993,2366.799999999954) translate(65.50500000000001 24.4)"/><path d="M199 2997.1c-11.06 0-20 8.95-20 20v60c0 11.04 8.94 20 20 20h200c11.03 0 20-8.96 20-20v-60c0-11.05-8.97-20-20-20z" stroke="#000" stroke-width="2" fill="#c1e4f7"/><path d="M179 3041.1h240" stroke="#000" stroke-width="2" fill="none"/><use xlink:href="#h" transform="matrix(1,0,0,1,226.98749999999973,2997.0947265625405) translate(30.599999999999994 25.6)"/><use xlink:href="#i" transform="matrix(1,0,0,1,202.98749999999973,3057.0947265625405) translate(17.64999999999999 15.6)"/><use xlink:href="#j" transform="matrix(1,0,0,1,202.98749999999973,3057.0947265625405) translate(109.45 15.6)"/><path d="M835 2600h160v82.9H835z" stroke="#000" stroke-width="2" fill="#c7e8ac"/><use xlink:href="#k" transform="matrix(1,0,0,1,839.9937499999999,2605) translate(3.4499999999999886 30.36875)"/><use xlink:href="#l" transform="matrix(1,0,0,1,839.9937499999999,2605) translate(67.64999999999999 30.36875)"/><use xlink:href="#m" transform="matrix(1,0,0,1,839.9937499999999,2605) translate(42 51.96875)"/><use xlink:href="#n" transform="matrix(1,0,0,1,839.9937499999999,2605) translate(98 51.96875)"/><path d="M704 2937.1c-24.3 0-44 19.7-44 44v132c0 24.3 19.7 44 44 44h422c24.3 0 44-19.7 44-44v-132c0-24.3-19.7-44-44-44z" stroke="#000" stroke-width="2" fill="#c1e4f7"/><path d="M660 2981.1h510" stroke="#000" stroke-width="2" fill="none"/><use xlink:href="#o" transform="matrix(1,0,0,1,761.9937499999999,2937.0947265625405) translate(80.575 25.6)"/><use xlink:href="#p" transform="matrix(1,0,0,1,710.9937499999999,2997.0947265625405) translate(133.075 14.4)"/><use xlink:href="#q" transform="matrix(1,0,0,1,710.9937499999999,2997.0947265625405) translate(229.975 14.4)"/><use xlink:href="#r" transform="matrix(1,0,0,1,710.9937499999999,2997.0947265625405) translate(123.05 36)"/><use xlink:href="#s" transform="matrix(1,0,0,1,710.9937499999999,2997.0947265625405) translate(196 36)"/><use xlink:href="#t" transform="matrix(1,0,0,1,710.9937499999999,2997.0947265625405) translate(131.65 57.6)"/><use xlink:href="#u" transform="matrix(1,0,0,1,710.9937499999999,2997.0947265625405) translate(187.55 57.6)"/><use xlink:href="#v" transform="matrix(1,0,0,1,710.9937499999999,2997.0947265625405) translate(249.45 57.6)"/><use xlink:href="#w" transform="matrix(1,0,0,1,710.9937499999999,2997.0947265625405) translate(127.1 79.20000000000002)"/><use xlink:href="#x" transform="matrix(1,0,0,1,710.9937499999999,2997.0947265625405) translate(274.9 79.20000000000002)"/><use xlink:href="#y" transform="matrix(1,0,0,1,710.9937499999999,2997.0947265625405) translate(96.69999999999999 100.80000000000001)"/><use xlink:href="#z" transform="matrix(1,0,0,1,710.9937499999999,2997.0947265625405) translate(119.6 100.80000000000001)"/><use xlink:href="#A" transform="matrix(1,0,0,1,710.9937499999999,2997.0947265625405) translate(129.6 100.80000000000001)"/><use xlink:href="#v" transform="matrix(1,0,0,1,710.9937499999999,2997.0947265625405) translate(284.4 100.80000000000001)"/><use xlink:href="#B" transform="matrix(1,0,0,1,710.9937499999999,2997.0947265625405) translate(75.67500000000001 122.4)"/><use xlink:href="#z" transform="matrix(1,0,0,1,710.9937499999999,2997.0947265625405) translate(134.625 122.4)"/><use xlink:href="#A" transform="matrix(1,0,0,1,710.9937499999999,2997.0947265625405) translate(144.625 122.4)"/><use xlink:href="#C" transform="matrix(1,0,0,1,710.9937499999999,2997.0947265625405) translate(299.425 122.4)"/><use xlink:href="#D" transform="matrix(1,0,0,1,710.9937499999999,2997.0947265625405) translate(326.32500000000005 122.4)"/><use xlink:href="#E" transform="matrix(1,0,0,1,710.9937499999999,2997.0947265625405) translate(101.12499999999999 144)"/><use xlink:href="#F" transform="matrix(1,0,0,1,710.9937499999999,2997.0947265625405) translate(211.02499999999998 144)"/><use xlink:href="#G" transform="matrix(1,0,0,1,710.9937499999999,2997.0947265625405) translate(284.975 144)"/><path d="M997.2 2760c-11.05 0-20 8.95-20 20v60c0 11.05 8.95 20 20 20h120c11.05 0 20-8.95 20-20v-60c0-11.05-8.95-20-20-20z" stroke="#000" stroke-width="2" fill="#ff8f80"/><path d="M977.2 2804h160" stroke="#000" stroke-width="2" fill="none"/><use xlink:href="#H" transform="matrix(1,0,0,1,1009.1999999999998,2760) translate(8.5 25.6)"/><use xlink:href="#I" transform="matrix(1,0,0,1,993.1999999999998,2820) translate(32.05 15.6)"/><use xlink:href="#J" transform="matrix(1,0,0,1,993.1999999999998,2820) translate(56 15.6)"/><path d="M299 2760c-11.06 0-20 8.95-20 20v60c0 11.05 8.94 20 20 20h221c11.05 0 20-8.95 20-20v-60c0-11.05-8.95-20-20-20z" stroke="#000" stroke-width="2" fill="#ff8f80"/><path d="M279 2804h261" stroke="#000" stroke-width="2" fill="none"/><use xlink:href="#K" transform="matrix(1,0,0,1,331.18999999999977,2760) translate(17.025 25.6)"/><use xlink:href="#L" transform="matrix(1,0,0,1,305.0887499999998,2820) translate(2.5749999999999886 15.6)"/><use xlink:href="#M" transform="matrix(1,0,0,1,305.0887499999998,2820) translate(60.52499999999999 15.6)"/><path d="M821.3 2460c-4.43 0-8 3.58-8 8v24c0 4.42 3.57 8 8 8h187.4c4.4 0 8-3.58 8-8v-24c0-4.42-3.6-8-8-8z" stroke="#000" stroke-width="2" fill="#ff8f80"/><use xlink:href="#N" transform="matrix(1,0,0,1,821.2909179687673,2468) translate(8.599999999999994 15.6)"/><path d="M528 2380c-4.42 0-8 3.58-8 8v24c0 4.42 3.58 8 8 8h84c4.42 0 8-3.58 8-8v-24c0-4.42-3.58-8-8-8z" stroke="#000" stroke-width="2" fill="#ff8f80"/><use xlink:href="#O" transform="matrix(1,0,0,1,528,2388) translate(30.025 15.6)"/><path d="M915 2935.1v-232.7" stroke="#000" stroke-width="2" fill="none"/><path d="M916 2936.1h-2v-1.03h2z"/><path d="M915 2687.14l4.63 14.27h-9.27z" stroke="#000" stroke-width="2"/><path d="M833 2665.6H730.5v92.4" stroke="#000" stroke-width="2" fill="none"/><path d="M834 2666.6h-1.03v-2H834zM731.5 2759h-2v-1.03h2z"/><path d="M833 2641.45H409.5v99.05" stroke="#000" stroke-width="2" fill="none"/><path d="M834 2642.45h-1.03v-2H834z"/><path d="M409.5 2755.76l-4.64-14.26h9.27z" stroke="#000" stroke-width="2"/><path d="M997 2663.48h60.2v77.02" stroke="#000" stroke-width="2" fill="none"/><path d="M997.02 2664.48H996v-2H997z"/><path d="M1057.2 2755.76l-4.64-14.26h9.28z" stroke="#000" stroke-width="2"/><path d="M1308.12 2862v185.1H1189.5" stroke="#000" stroke-width="2" fill="none"/><path d="M1309.12 2862.03h-2V2861h2z"/><path d="M1174.23 3047.1l14.27-4.64v9.27z" stroke="#000" stroke-width="2"/><path d="M1057.2 2862v55.6" stroke="#000" stroke-width="2" fill="none"/><path d="M1058.2 2862.03h-2V2861h2z"/><path d="M1057.2 2932.86l-4.64-14.27h9.28z" stroke="#000" stroke-width="2"/><path d="M527.6 3007.1l52.4 40-52.4 40-52.4-40z" stroke="#000" stroke-width="2" fill="#c7e8ac"/><use xlink:href="#P" transform="matrix(1,0,0,1,480.19999999999993,3012.0947265625405) translate(18.049999999999997 27.799999999999997)"/><use xlink:href="#Q" transform="matrix(1,0,0,1,480.19999999999993,3012.0947265625405) translate(28.575 49.4)"/><path d="M220.1 2995.1v-373.17h595.4" stroke="#000" stroke-width="2" fill="none"/><path d="M221.1 2996.1h-2v-1.03h2z"/><path d="M830.76 2621.93l-14.27 4.63v-9.27z" stroke="#000" stroke-width="2"/><path d="M472.55 3048.1h-11.1v-2h11.1z"/><path d="M473.55 3047.1l1.3 1h-2.32v-2h2.33zM432.1 3049.98l-8.88-2.9 8.87-2.87z"/><path d="M432.1 3045.26l-5.64 1.83 5.63 1.83v2.1l-12.1-3.94 12.1-3.94z"/><use xlink:href="#R" transform="matrix(1,0,0,1,432.0947202675265,3036.2947265625403) translate(0 14.4)"/><path d="M608.85 3048.1h-26.2v-2h26.2zm31.64 0h-8.7v-2h8.7z"/><path d="M582.67 3048.1h-2.33l1.3-1-1.3-1h2.33zM655.76 3047.1l-14.27 4.63v-9.27z"/><path d="M659 3047.1l-18.5 6v-12.02zm-16.5 3.25l10.02-3.26-10.03-3.26z"/><use xlink:href="#S" transform="matrix(1,0,0,1,608.8459047324732,3036.2947265625403) translate(0 14.4)"/><path d="M409.5 2862v71.42h118.1v53.9" stroke="#000" stroke-width="2" fill="none"/><path d="M410.5 2862.03h-2V2861h2z"/><path d="M527.6 3002.6l-4.64-14.27h9.28z" stroke="#000" stroke-width="2"/><path d="M915 2598v-78.5" stroke="#000" stroke-width="2" fill="none"/><path d="M916 2599h-2v-1.03h2z"/><path d="M915 2504.24l4.63 14.26h-9.27z" stroke="#000" stroke-width="2"/><path d="M781.42 2260c-11.04 0-20 8.95-20 20v60c0 11.05 8.96 20 20 20h267.14c11.05 0 20-8.95 20-20v-60c0-11.05-8.95-20-20-20z" stroke="#000" stroke-width="2" fill="#c1e4f7"/><path d="M761.42 2304h307.14" stroke="#000" stroke-width="2" fill="none"/><use xlink:href="#T" transform="matrix(1,0,0,1,822.8523242187464,2260) translate(-0.9249999999999972 25.6)"/><use xlink:href="#U" transform="matrix(1,0,0,1,792.1385156249953,2320) translate(10.550000000000011 15.6)"/><use xlink:href="#V" transform="matrix(1,0,0,1,792.1385156249953,2320) translate(156.5 15.6)"/><path d="M915 2458v-78.5" stroke="#000" stroke-width="2" fill="none"/><path d="M916 2459h-2v-1.03h2z"/><path d="M915 2364.24l4.63 14.26h-9.27z" stroke="#000" stroke-width="2"/><path d="M835 2077.1h160v82.9H835z" stroke="#000" stroke-width="2" fill="#c7e8ac"/><use xlink:href="#k" transform="matrix(1,0,0,1,839.9937499999999,2082.0947265625405) translate(3.4499999999999886 30.36875)"/><use xlink:href="#l" transform="matrix(1,0,0,1,839.9937499999999,2082.0947265625405) translate(67.64999999999999 30.36875)"/><use xlink:href="#m" transform="matrix(1,0,0,1,839.9937499999999,2082.0947265625405) translate(42 51.96875)"/><use xlink:href="#W" transform="matrix(1,0,0,1,839.9937499999999,2082.0947265625405) translate(98 51.96875)"/><path d="M1199.52 2760c-11.04 0-20 8.95-20 20v60c0 11.05 8.96 20 20 20h217.2c11.05 0 20-8.95 20-20v-60c0-11.05-8.95-20-20-20z" stroke="#000" stroke-width="2" fill="#ff8f80"/><path d="M1179.52 2804h257.2" stroke="#000" stroke-width="2" fill="none"/><use xlink:href="#X" transform="matrix(1,0,0,1,1230.9626562499302,2760) translate(29.049999999999997 25.6)"/><use xlink:href="#p" transform="matrix(1,0,0,1,1205.2426562499302,2820) translate(37.224999999999994 15.6)"/><use xlink:href="#Y" transform="matrix(1,0,0,1,1205.2426562499302,2820) translate(134.125 15.6)"/><use xlink:href="#Z" transform="matrix(1,0,0,1,1205.2426562499302,2820) translate(149.125 15.6)"/><use xlink:href="#aa" transform="matrix(1,0,0,1,1205.2426562499302,2820) translate(158.775 15.6)"/><path d="M620 2760c-11.05 0-20 8.95-20 20v60c0 11.05 8.95 20 20 20h221c11.06 0 20-8.95 20-20v-60c0-11.05-8.94-20-20-20z" stroke="#000" stroke-width="2" fill="#ff8f80"/><path d="M600 2804h261" stroke="#000" stroke-width="2" fill="none"/><use xlink:href="#ab" transform="matrix(1,0,0,1,652.2025000000001,2760) translate(35 25.6)"/><use xlink:href="#ac" transform="matrix(1,0,0,1,626.10125,2820) translate(22.049999999999997 15.6)"/><use xlink:href="#ad" transform="matrix(1,0,0,1,626.10125,2820) translate(89 15.6)"/><use xlink:href="#ae" transform="matrix(1,0,0,1,626.10125,2820) translate(99 15.6)"/><use xlink:href="#af" transform="matrix(1,0,0,1,626.10125,2820) translate(181.95 15.6)"/><path d="M997 2641.45h264v99.05" stroke="#000" stroke-width="2" fill="none"/><path d="M997.02 2642.45H996v-2H997z"/><path d="M1261 2755.76l-4.64-14.26h9.28z" stroke="#000" stroke-width="2"/><path d="M1771 2791.27h-314.78v-2H1769V2141H997v-2h774z"/><path d="M997.02 2141H996v-2H997zM1455.22 2794.9l-14.26-4.63 14.26-4.64z"/><path d="M1456.22 2796.28l-18.5-6 18.5-6.02zm-12.03-6l10.02 3.25V2787z"/><path d="M432 2038.55c-17.67 0-32 14.32-32 32v96c0 17.67 14.33 32 32 32h232.98c17.68 0 32-14.33 32-32v-96c0-17.68-14.32-32-32-32z" stroke="#000" stroke-width="2" fill="#c1e4f7"/><path d="M400 2082.55h296.98" stroke="#000" stroke-width="2" fill="none"/><use xlink:href="#ag" transform="matrix(1,0,0,1,459.39660156250466,2038.54736328127) translate(-3.4000000000000057 25.6)"/><use xlink:href="#ah" transform="matrix(1,0,0,1,429.6983007812523,2098.54736328127) translate(48.07499999999999 14.4)"/><use xlink:href="#ai" transform="matrix(1,0,0,1,429.6983007812523,2098.54736328127) translate(144.975 14.4)"/><use xlink:href="#aj" transform="matrix(1,0,0,1,429.6983007812523,2098.54736328127) translate(38.05 36)"/><use xlink:href="#ak" transform="matrix(1,0,0,1,429.6983007812523,2098.54736328127) translate(111 36)"/><use xlink:href="#al" transform="matrix(1,0,0,1,429.6983007812523,2098.54736328127) translate(46.650000000000006 57.6)"/><use xlink:href="#am" transform="matrix(1,0,0,1,429.6983007812523,2098.54736328127) translate(102.55000000000001 57.6)"/><use xlink:href="#an" transform="matrix(1,0,0,1,429.6983007812523,2098.54736328127) translate(164.45 57.6)"/><use xlink:href="#ao" transform="matrix(1,0,0,1,429.6983007812523,2098.54736328127) translate(25.125 79.20000000000002)"/><use xlink:href="#ap" transform="matrix(1,0,0,1,429.6983007812523,2098.54736328127) translate(172.925 79.20000000000002)"/><path d="M823.7 1857.1c-13.26 0-24 10.74-24 24v72c0 13.25 10.74 24 24 24h182.6c13.24 0 24-10.75 24-24v-72c0-13.26-10.76-24-24-24z" stroke="#000" stroke-width="2" fill="#ff8f80"/><path d="M799.7 1901.1h230.6" stroke="#000" stroke-width="2" fill="none"/><use xlink:href="#aq" transform="matrix(1,0,0,1,845.8169726562569,1857.0947265625405) translate(30 25.6)"/><use xlink:href="#ar" transform="matrix(1,0,0,1,822.7580468750092,1917.0947265625405) translate(58.05 14.799999999999999)"/><use xlink:href="#ai" transform="matrix(1,0,0,1,822.7580468750092,1917.0947265625405) translate(82 14.799999999999999)"/><use xlink:href="#as" transform="matrix(1,0,0,1,822.7580468750092,1917.0947265625405) translate(24.07499999999999 36.4)"/><use xlink:href="#ap" transform="matrix(1,0,0,1,822.7580468750092,1917.0947265625405) translate(120.975 36.4)"/><path d="M797.7 1917.1H548.5v101.95" stroke="#000" stroke-width="2" fill="none"/><path d="M798.7 1918.1h-1.03v-2h1.03z"/><path d="M548.5 2034.3l-4.64-14.25h9.27z" stroke="#000" stroke-width="2"/><path d="M698.98 2118.55h116.5" stroke="#000" stroke-width="2" fill="none"/><path d="M699 2119.55H698v-2H699z"/><path d="M830.76 2118.55l-14.27 4.63v-9.27z" stroke="#000" stroke-width="2"/><path d="M915 2075.1v-78.5" stroke="#000" stroke-width="2" fill="none"/><path d="M916 2076.1h-2v-1.03h2z"/><path d="M915 1981.33l4.63 14.27h-9.27z" stroke="#000" stroke-width="2"/><path d="M915 2258v-78.5" stroke="#000" stroke-width="2" fill="none"/><path d="M916 2259h-2v-1.03h2z"/><path d="M915 2164.24l4.63 14.26h-9.27z" stroke="#000" stroke-width="2"/><path d="M833 2142H727.5v258h-88" stroke="#000" stroke-width="2" fill="none"/><path d="M834 2143h-1.03v-2H834z"/><path d="M624.24 2400l14.26-4.64v9.28z" stroke="#000" stroke-width="2"/><path d="M833 2610H727.5v-210h-88" stroke="#000" stroke-width="2" fill="none"/><path d="M834 2611h-1.03v-2H834z"/><path d="M624.24 2400l14.26-4.64v9.28z" stroke="#000" stroke-width="2"/><path d="M440 2400c0 11.05-8.95 20-20 20s-20-8.95-20-20 8.95-20 20-20 20 8.95 20 20z" stroke="#000" stroke-width="2" fill="#fff"/><path d="M405.86 2385.86l28.28 28.28m0-28.28l-28.28 28.28M730.5 2862v55.6" stroke="#000" stroke-width="2" fill="none"/><path d="M731.5 2862.03h-2V2861h2z"/><path d="M730.5 2932.86l-4.63-14.27h9.27z" stroke="#000" stroke-width="2"/><path d="M518 2400h-58.5" stroke="#000" stroke-width="2" fill="none"/><path d="M519 2401h-1.03v-2H519z"/><path d="M444.24 2400l14.26-4.64v9.28z" stroke="#000" stroke-width="2"/><path d="M1422 3080c-12.15 0-22 9.85-22 22v66c0 12.15 9.85 22 22 22h213.2c12.15 0 22-9.85 22-22v-66c0-12.15-9.85-22-22-22z" stroke="#000" stroke-width="2" fill="#ff8f80"/><path d="M1400 3124h257.2" stroke="#000" stroke-width="2" fill="none"/><g><use xlink:href="#at" transform="matrix(1,0,0,1,1451.44,3080) translate(-15.824999999999989 25.6)"/></g><g><use xlink:href="#au" transform="matrix(1,0,0,1,1425.72,3140) translate(51.599999999999994 14.4)"/><use xlink:href="#av" transform="matrix(1,0,0,1,1425.72,3140) translate(84.5 14.4)"/><use xlink:href="#aw" transform="matrix(1,0,0,1,1425.72,3140) translate(41.074999999999996 36)"/><use xlink:href="#z" transform="matrix(1,0,0,1,1425.72,3140) translate(114.975 36)"/><use xlink:href="#J" transform="matrix(1,0,0,1,1425.72,3140) translate(124.975 36)"/></g><path d="M1548.6 3260c0 11.05-8.95 20-20 20s-20-8.95-20-20 8.95-20 20-20 20 8.95 20 20z" stroke="#000" stroke-width="2"/><path d="M1402.9 2920c-11.05 0-20 8.95-20 20v60c0 11.05 8.95 20 20 20h251.4c11.05 0 20-8.95 20-20v-60c0-11.05-8.95-20-20-20z" stroke="#000" stroke-width="2" fill="#c1e4f7"/><path d="M1382.9 2964h291.4" stroke="#000" stroke-width="2" fill="none"/><g><use xlink:href="#ax" transform="matrix(1,0,0,1,1441.1799999999998,2920) translate(-15.824999999999989 25.6)"/></g><g><use xlink:href="#ay" transform="matrix(1,0,0,1,1412.04,2980) translate(2.6499999999999915 15.6)"/><use xlink:href="#az" transform="matrix(1,0,0,1,1412.04,2980) translate(111.5 15.6)"/></g><path d="M1528.6 3078v-38.5" stroke="#000" stroke-width="2" fill="none"/><path d="M1529.6 3079h-2v-1.03h2z"/><path d="M1528.6 3024.24l4.64 14.26h-9.28z" stroke="#000" stroke-width="2"/><path d="M1528.6 3238v-28.5" stroke="#000" stroke-width="2" fill="none"/><path d="M1529.6 3239.12l-.96-.12-1.04.03v-1.06h2z"/><path d="M1528.6 3194.24l4.64 14.26h-9.28z" stroke="#000" stroke-width="2"/><path d="M1528.6 2918v-108h-72.38" stroke="#000" stroke-width="2" fill="none"/><path d="M1529.6 2919h-2v-1.03h2z"/><path d="M1440.96 2810l14.26-4.64v9.28z" stroke="#000" stroke-width="2"/><path d="M1123.5 2460c-4.42 0-8 3.58-8 8v24c0 4.42 3.58 8 8 8h187.4c4.42 0 8-3.58 8-8v-24c0-4.42-3.58-8-8-8z" stroke="#000" stroke-width="2" fill="#c1e4f7"/><g><use xlink:href="#aA" transform="matrix(1,0,0,1,1123.4971679687674,2468) translate(13.075000000000003 15.6)"/></g><path d="M1018.7 2480h77.3" stroke="#000" stroke-width="2" fill="none"/><path d="M1018.72 2481h-1.02v-2h1.02z"/><path d="M1111.26 2480l-14.26 4.64v-9.28z" stroke="#000" stroke-width="2"/><path d="M115.2 2426.8h160v40h-160z" fill="#ffeca9"/><g><use xlink:href="#aB" transform="matrix(1,0,0,1,115.19999999995343,2426.79999999993) translate(71.03 24.4)"/></g><path d="M1551.4 2435.9l133.72 44.1-133.7 44.1-133.72-44.1z" stroke="#000" stroke-width="2" fill="#ffeca9"/><g><use xlink:href="#aC" transform="matrix(1,0,0,1,1422.7034179687676,2440.9) translate(109.55499999999999 16.41)"/><use xlink:href="#aD" transform="matrix(1,0,0,1,1422.7034179687676,2440.9) translate(53.105 38.01)"/><use xlink:href="#aE" transform="matrix(1,0,0,1,1422.7034179687676,2440.9) translate(118.055 38.01)"/><use xlink:href="#aF" transform="matrix(1,0,0,1,1422.7034179687676,2440.9) translate(138.055 38.01)"/><use xlink:href="#aG" transform="matrix(1,0,0,1,1422.7034179687676,2440.9) translate(82.53000000000002 59.61)"/><use xlink:href="#aH" transform="matrix(1,0,0,1,1422.7034179687676,2440.9) translate(135.53 59.61)"/></g><path d="M1320.9 2480h78.3" stroke="#000" stroke-width="2" fill="none"/><path d="M1320.93 2481h-1.03v-2h1.03z"/><path d="M1414.47 2480l-14.27 4.64v-9.28z" stroke="#000" stroke-width="2"/><path d="M1137.2 2225.35h160v82.9h-160z" stroke="#000" stroke-width="2" fill="#ffeca9"/><g><use xlink:href="#aI" transform="matrix(1,0,0,1,1142.1999999999998,2230.3473632813166) translate(32.025 18.9625)"/><use xlink:href="#aJ" transform="matrix(1,0,0,1,1142.1999999999998,2230.3473632813166) translate(69.975 18.9625)"/><use xlink:href="#aK" transform="matrix(1,0,0,1,1142.1999999999998,2230.3473632813166) translate(11.100000000000001 40.5625)"/><use xlink:href="#aL" transform="matrix(1,0,0,1,1142.1999999999998,2230.3473632813166) translate(88.9 40.5625)"/><use xlink:href="#aM" transform="matrix(1,0,0,1,1142.1999999999998,2230.3473632813166) translate(113.9 40.5625)"/><use xlink:href="#aN" transform="matrix(1,0,0,1,1142.1999999999998,2230.3473632813166) translate(55.025 62.1625)"/></g><path d="M1552.4 2433.85h-2v-46.73h2zm0-68.33h-2v-29.22h2z"/><path d="M1552.4 2435.18l-1-.33-1 .33v-1.36h2zM1556.05 2335.3h-9.27l4.63-14.26z"/><path d="M1557.43 2336.3h-12.03l6-18.5zm-9.28-2h6.52l-3.26-10.03z"/><g><use xlink:href="#R" transform="matrix(1,0,0,1,1536.7383300781164,2365.52350684857) translate(0 14.4)"/></g><path d="M1309.12 2619.95H1014.5v-2h294.62zm243.3 0h-220.35v-2h218.34v-91.8h2z"/><path d="M1552.4 2526.18h-2v-1.36l1 .33 1-.33zM1013.5 2623.58l-14.27-4.63 14.27-4.64z"/><path d="M1014.5 2624.96l-18.5-6 18.5-6.03zm-12.03-6l10.03 3.24v-6.5z"/><g><use xlink:href="#S" transform="matrix(1,0,0,1,1309.12492421338,2608.1457546515503) translate(0 14.4)"/></g><path d="M1417.84 2216.8c-11.04 0-20 8.95-20 20v60c0 11.05 8.96 20 20 20h267.14c11.05 0 20-8.95 20-20v-60c0-11.05-8.95-20-20-20z" stroke="#000" stroke-width="2" fill="#ff8f80"/><path d="M1397.84 2260.8h307.14" stroke="#000" stroke-width="2" fill="none"/><g><use xlink:href="#aO" transform="matrix(1,0,0,1,1459.271904296863,2216.8000000000466) translate(30.075000000000003 25.6)"/></g><g><use xlink:href="#aP" transform="matrix(1,0,0,1,1428.5580957031118,2276.8000000000466) translate(24.549999999999997 15.6)"/><use xlink:href="#ad" transform="matrix(1,0,0,1,1428.5580957031118,2276.8000000000466) translate(132.5 15.6)"/><use xlink:href="#F" transform="matrix(1,0,0,1,1428.5580957031118,2276.8000000000466) translate(142.5 15.6)"/><use xlink:href="#af" transform="matrix(1,0,0,1,1428.5580957031118,2276.8000000000466) translate(216.45 15.6)"/></g><path d="M1395.84 2266.8h-79.14" stroke="#000" stroke-width="2" fill="none"/><path d="M1396.84 2267.8h-1.02v-2h1.02z"/><path d="M1301.44 2266.8l14.26-4.64v9.28z" stroke="#000" stroke-width="2"/><defs><path d="M232-93c-1 65-40 97-104 97C67 4 28-28 28-90v-158h33c8 89-33 224 67 224 102 0 64-133 71-224h33v155" id="aQ"/><path d="M33 0v-248h34V0H33" id="aR"/><g id="a"><use transform="matrix(0.05,0,0,0.05,0,0)" xlink:href="#aQ"/><use transform="matrix(0.05,0,0,0.05,12.950000000000001,0)" xlink:href="#aR"/></g><path d="M16-82v-28h88v28H16" id="aS"/><path d="M18-27v-27l151-64-151-65v-27l175 74v36" id="aT"/><g id="b"><use transform="matrix(0.05,0,0,0.05,0,0)" xlink:href="#aS"/><use transform="matrix(0.05,0,0,0.05,5.95,0)" xlink:href="#aT"/></g><path d="M205 0l-28-72H64L36 0H1l101-248h38L239 0h-34zm-38-99l-47-123c-12 45-31 82-46 123h93" id="aU"/><path d="M30-248c87 1 191-15 191 75 0 78-77 80-158 76V0H30v-248zm33 125c57 0 124 11 124-50 0-59-68-47-124-48v98" id="aV"/><g id="c"><use transform="matrix(0.05,0,0,0.05,0,0)" xlink:href="#aU"/><use transform="matrix(0.05,0,0,0.05,12,0)" xlink:href="#aV"/><use transform="matrix(0.05,0,0,0.05,24,0)" xlink:href="#aR"/></g><g id="d"><use transform="matrix(0.05,0,0,0.05,0,0)" xlink:href="#aU"/><use transform="matrix(0.05,0,0,0.05,12,0)" xlink:href="#aV"/><use transform="matrix(0.05,0,0,0.05,24,0)" xlink:href="#aR"/></g><g id="e"><use transform="matrix(0.05,0,0,0.05,0,0)" xlink:href="#aQ"/><use transform="matrix(0.05,0,0,0.05,12.950000000000001,0)" xlink:href="#aR"/></g><path d="M30 0v-248h33v221h125V0H30" id="aW"/><path d="M100-194c63 0 86 42 84 106H49c0 40 14 67 53 68 26 1 43-12 49-29l28 8c-11 28-37 45-77 45C44 4 14-33 15-96c1-61 26-98 85-98zm52 81c6-60-76-77-97-28-3 7-6 17-6 28h103" id="aX"/><path d="M177-190C167-65 218 103 67 71c-23-6-38-20-44-43l32-5c15 47 100 32 89-28v-30C133-14 115 1 83 1 29 1 15-40 15-95c0-56 16-97 71-98 29-1 48 16 59 35 1-10 0-23 2-32h30zM94-22c36 0 50-32 50-73 0-42-14-75-50-75-39 0-46 34-46 75s6 73 46 73" id="aY"/><path d="M117-194c89-4 53 116 60 194h-32v-121c0-31-8-49-39-48C34-167 62-67 57 0H25l-1-190h30c1 10-1 24 2 32 11-22 29-35 61-36" id="aZ"/><path d="M85-194c31 0 48 13 60 33l-1-100h32l1 261h-30c-2-10 0-23-3-31C134-8 116 4 85 4 32 4 16-35 15-94c0-66 23-100 70-100zm9 24c-40 0-46 34-46 75 0 40 6 74 45 74 42 0 51-32 51-76 0-42-9-74-50-73" id="ba"/><g id="f"><use transform="matrix(0.05,0,0,0.05,0,0)" xlink:href="#aW"/><use transform="matrix(0.05,0,0,0.05,10,0)" xlink:href="#aX"/><use transform="matrix(0.05,0,0,0.05,20,0)" xlink:href="#aY"/><use transform="matrix(0.05,0,0,0.05,30,0)" xlink:href="#aX"/><use transform="matrix(0.05,0,0,0.05,40,0)" xlink:href="#aZ"/><use transform="matrix(0.05,0,0,0.05,50,0)" xlink:href="#ba"/></g><g id="g"><use transform="matrix(0.05,0,0,0.05,0,0)" xlink:href="#aU"/><use transform="matrix(0.05,0,0,0.05,12,0)" xlink:href="#aV"/><use transform="matrix(0.05,0,0,0.05,24,0)" xlink:href="#aR"/></g><path d="M84 4C-5 8 30-112 23-190h32v120c0 31 7 50 39 49 72-2 45-101 50-169h31l1 190h-30c-1-10 1-25-2-33-11 22-28 36-60 37" id="bb"/><path d="M135-143c-3-34-86-38-87 0 15 53 115 12 119 90S17 21 10-45l28-5c4 36 97 45 98 0-10-56-113-15-118-90-4-57 82-63 122-42 12 7 21 19 24 35" id="bc"/><path d="M114-163C36-179 61-72 57 0H25l-1-190h30c1 12-1 29 2 39 6-27 23-49 58-41v29" id="bd"/><path d="M-5 72V49h209v23H-5" id="be"/><path d="M100-194c62-1 85 37 85 99 1 63-27 99-86 99S16-35 15-95c0-66 28-99 85-99zM99-20c44 1 53-31 53-75 0-43-8-75-51-75s-53 32-53 75 10 74 51 75" id="bf"/><g id="h"><use transform="matrix(0.05,0,0,0.05,0,0)" xlink:href="#bb"/><use transform="matrix(0.05,0,0,0.05,10,0)" xlink:href="#bc"/><use transform="matrix(0.05,0,0,0.05,19,0)" xlink:href="#aX"/><use transform="matrix(0.05,0,0,0.05,29,0)" xlink:href="#bd"/><use transform="matrix(0.05,0,0,0.05,34.95,0)" xlink:href="#be"/><use transform="matrix(0.05,0,0,0.05,44.95,0)" xlink:href="#aX"/><use transform="matrix(0.05,0,0,0.05,54.95,0)" xlink:href="#bd"/><use transform="matrix(0.05,0,0,0.05,60.900000000000006,0)" xlink:href="#bd"/><use transform="matrix(0.05,0,0,0.05,66.85000000000001,0)" xlink:href="#bf"/><use transform="matrix(0.05,0,0,0.05,76.85000000000001,0)" xlink:href="#bd"/></g><path d="M210-169c-67 3-38 105-44 169h-31v-121c0-29-5-50-35-48C34-165 62-65 56 0H25l-1-190h30c1 10-1 24 2 32 10-44 99-50 107 0 11-21 27-35 58-36 85-2 47 119 55 194h-31v-121c0-29-5-49-35-48" id="bg"/><path d="M33-154v-36h34v36H33zM33 0v-36h34V0H33" id="bh"/><g id="i"><use transform="matrix(0.05,0,0,0.05,0,0)" xlink:href="#aX"/><use transform="matrix(0.05,0,0,0.05,10,0)" xlink:href="#bd"/><use transform="matrix(0.05,0,0,0.05,15.949999999999998,0)" xlink:href="#bd"/><use transform="matrix(0.05,0,0,0.05,21.9,0)" xlink:href="#bf"/><use transform="matrix(0.05,0,0,0.05,31.899999999999995,0)" xlink:href="#bd"/><use transform="matrix(0.05,0,0,0.05,37.85,0)" xlink:href="#be"/><use transform="matrix(0.05,0,0,0.05,47.85,0)" xlink:href="#bg"/><use transform="matrix(0.05,0,0,0.05,62.800000000000004,0)" xlink:href="#bc"/><use transform="matrix(0.05,0,0,0.05,71.80000000000001,0)" xlink:href="#aY"/><use transform="matrix(0.05,0,0,0.05,81.80000000000001,0)" xlink:href="#bh"/></g><path d="M18-100v-36l175-74v27L42-118l151 64v27" id="bi"/><path d="M59-47c-2 24 18 29 38 22v24C64 9 27 4 27-40v-127H5v-23h24l9-43h21v43h35v23H59v120" id="bj"/><path d="M24-231v-30h32v30H24zM24 0v-190h32V0H24" id="bk"/><g id="j"><use transform="matrix(0.05,0,0,0.05,0,0)" xlink:href="#bi"/><use transform="matrix(0.05,0,0,0.05,10.5,0)" xlink:href="#bc"/><use transform="matrix(0.05,0,0,0.05,19.5,0)" xlink:href="#bj"/><use transform="matrix(0.05,0,0,0.05,24.5,0)" xlink:href="#bd"/><use transform="matrix(0.05,0,0,0.05,30.450000000000003,0)" xlink:href="#bk"/><use transform="matrix(0.05,0,0,0.05,34.4,0)" xlink:href="#aZ"/><use transform="matrix(0.05,0,0,0.05,44.4,0)" xlink:href="#aY"/><use transform="matrix(0.05,0,0,0.05,54.400000000000006,0)" xlink:href="#aT"/></g><path d="M266 0h-40l-56-210L115 0H75L2-248h35L96-30l15-64 43-154h32l59 218 59-218h35" id="bl"/><path d="M141-36C126-15 110 5 73 4 37 3 15-17 15-53c-1-64 63-63 125-63 3-35-9-54-41-54-24 1-41 7-42 31l-33-3c5-37 33-52 76-52 45 0 72 20 72 64v82c-1 20 7 32 28 27v20c-31 9-61-2-59-35zM48-53c0 20 12 33 32 33 41-3 63-29 60-74-43 2-92-5-92 41" id="bm"/><g id="k"><use transform="matrix(0.05,0,0,0.05,0,0)" xlink:href="#bl"/><use transform="matrix(0.05,0,0,0.05,16.3,0)" xlink:href="#bm"/><use transform="matrix(0.05,0,0,0.05,26.3,0)" xlink:href="#bk"/><use transform="matrix(0.05,0,0,0.05,30.25,0)" xlink:href="#bj"/><use transform="matrix(0.05,0,0,0.05,35.25,0)" xlink:href="#bk"/><use transform="matrix(0.05,0,0,0.05,39.2,0)" xlink:href="#aZ"/><use transform="matrix(0.05,0,0,0.05,49.2,0)" xlink:href="#aY"/></g><path d="M96-169c-40 0-48 33-48 73s9 75 48 75c24 0 41-14 43-38l32 2c-6 37-31 61-74 61-59 0-76-41-82-99-10-93 101-131 147-64 4 7 5 14 7 22l-32 3c-4-21-16-35-41-35" id="bn"/><g id="l"><use transform="matrix(0.05,0,0,0.05,0,0)" xlink:href="#bn"/><use transform="matrix(0.05,0,0,0.05,9,0)" xlink:href="#bf"/><use transform="matrix(0.05,0,0,0.05,19,0)" xlink:href="#bg"/><use transform="matrix(0.05,0,0,0.05,33.95,0)" xlink:href="#bg"/><use transform="matrix(0.05,0,0,0.05,48.900000000000006,0)" xlink:href="#bm"/><use transform="matrix(0.05,0,0,0.05,58.900000000000006,0)" xlink:href="#aZ"/><use transform="matrix(0.05,0,0,0.05,68.9,0)" xlink:href="#ba"/></g><path d="M106-169C34-169 62-67 57 0H25v-261h32l-1 103c12-21 28-36 61-36 89 0 53 116 60 194h-32v-121c2-32-8-49-39-48" id="bo"/><g id="m"><use transform="matrix(0.05,0,0,0.05,0,0)" xlink:href="#aV"/><use transform="matrix(0.05,0,0,0.05,12,0)" xlink:href="#bo"/><use transform="matrix(0.05,0,0,0.05,22,0)" xlink:href="#bm"/><use transform="matrix(0.05,0,0,0.05,32,0)" xlink:href="#bc"/><use transform="matrix(0.05,0,0,0.05,41,0)" xlink:href="#aX"/></g><path d="M27 0v-27h64v-190l-56 39v-29l58-41h29v221h61V0H27" id="bp"/><use transform="matrix(0.05,0,0,0.05,0,0)" xlink:href="#bp" id="n"/><path d="M115-194c55 1 70 41 70 98S169 2 115 4C84 4 66-9 55-30l1 105H24l-1-265h31l2 30c10-21 28-34 59-34zm-8 174c40 0 45-34 45-75s-6-73-45-74c-42 0-51 32-51 76 0 43 10 73 51 73" id="bq"/><g id="o"><use transform="matrix(0.05,0,0,0.05,0,0)" xlink:href="#bn"/><use transform="matrix(0.05,0,0,0.05,9,0)" xlink:href="#bb"/><use transform="matrix(0.05,0,0,0.05,19,0)" xlink:href="#bd"/><use transform="matrix(0.05,0,0,0.05,24.95,0)" xlink:href="#bd"/><use transform="matrix(0.05,0,0,0.05,30.899999999999995,0)" xlink:href="#aX"/><use transform="matrix(0.05,0,0,0.05,40.9,0)" xlink:href="#aZ"/><use transform="matrix(0.05,0,0,0.05,50.9,0)" xlink:href="#bj"/><use transform="matrix(0.05,0,0,0.05,55.900000000000006,0)" xlink:href="#be"/><use transform="matrix(0.05,0,0,0.05,65.9,0)" xlink:href="#bc"/><use transform="matrix(0.05,0,0,0.05,74.9,0)" xlink:href="#bj"/><use transform="matrix(0.05,0,0,0.05,79.9,0)" xlink:href="#aX"/><use transform="matrix(0.05,0,0,0.05,89.9,0)" xlink:href="#bq"/><use transform="matrix(0.05,0,0,0.05,99.9,0)" xlink:href="#be"/><use transform="matrix(0.05,0,0,0.05,109.9,0)" xlink:href="#bb"/><use transform="matrix(0.05,0,0,0.05,119.9,0)" xlink:href="#bc"/><use transform="matrix(0.05,0,0,0.05,128.9,0)" xlink:href="#aX"/><use transform="matrix(0.05,0,0,0.05,138.9,0)" xlink:href="#bd"/></g><g id="p"><use transform="matrix(0.05,0,0,0.05,0,0)" xlink:href="#bq"/><use transform="matrix(0.05,0,0,0.05,10,0)" xlink:href="#bd"/><use transform="matrix(0.05,0,0,0.05,15.949999999999998,0)" xlink:href="#bf"/><use transform="matrix(0.05,0,0,0.05,25.950000000000003,0)" xlink:href="#bn"/><use transform="matrix(0.05,0,0,0.05,34.95,0)" xlink:href="#aX"/><use transform="matrix(0.05,0,0,0.05,44.95,0)" xlink:href="#bc"/><use transform="matrix(0.05,0,0,0.05,53.95,0)" xlink:href="#bc"/><use transform="matrix(0.05,0,0,0.05,62.95,0)" xlink:href="#be"/><use transform="matrix(0.05,0,0,0.05,72.95,0)" xlink:href="#bk"/><use transform="matrix(0.05,0,0,0.05,76.9,0)" xlink:href="#ba"/><use transform="matrix(0.05,0,0,0.05,86.9,0)" xlink:href="#bh"/></g><path d="M68-38c1 34 0 65-14 84H32c9-13 17-26 17-46H33v-38h35" id="br"/><g id="q"><use transform="matrix(0.05,0,0,0.05,0,0)" xlink:href="#bi"/><use transform="matrix(0.05,0,0,0.05,10.5,0)" xlink:href="#bk"/><use transform="matrix(0.05,0,0,0.05,14.449999999999998,0)" xlink:href="#aZ"/><use transform="matrix(0.05,0,0,0.05,24.45,0)" xlink:href="#bj"/><use transform="matrix(0.05,0,0,0.05,29.450000000000003,0)" xlink:href="#aT"/><use transform="matrix(0.05,0,0,0.05,39.95,0)" xlink:href="#br"/></g><g id="r"><use transform="matrix(0.05,0,0,0.05,0,0)" xlink:href="#bq"/><use transform="matrix(0.05,0,0,0.05,10,0)" xlink:href="#bd"/><use transform="matrix(0.05,0,0,0.05,15.949999999999998,0)" xlink:href="#bf"/><use transform="matrix(0.05,0,0,0.05,25.950000000000003,0)" xlink:href="#bn"/><use transform="matrix(0.05,0,0,0.05,34.95,0)" xlink:href="#aX"/><use transform="matrix(0.05,0,0,0.05,44.95,0)" xlink:href="#bc"/><use transform="matrix(0.05,0,0,0.05,53.95,0)" xlink:href="#bc"/><use transform="matrix(0.05,0,0,0.05,62.95,0)" xlink:href="#bh"/></g><g id="s"><use transform="matrix(0.05,0,0,0.05,0,0)" xlink:href="#bi"/><use transform="matrix(0.05,0,0,0.05,10.5,0)" xlink:href="#bq"/><use transform="matrix(0.05,0,0,0.05,20.5,0)" xlink:href="#bd"/><use transform="matrix(0.05,0,0,0.05,26.450000000000003,0)" xlink:href="#bf"/><use transform="matrix(0.05,0,0,0.05,36.45,0)" xlink:href="#bn"/><use transform="matrix(0.05,0,0,0.05,45.45,0)" xlink:href="#aX"/><use transform="matrix(0.05,0,0,0.05,55.45,0)" xlink:href="#bc"/><use transform="matrix(0.05,0,0,0.05,64.45,0)" xlink:href="#bc"/><use transform="matrix(0.05,0,0,0.05,73.45,0)" xlink:href="#aT"/><use transform="matrix(0.05,0,0,0.05,83.95,0)" xlink:href="#br"/></g><path d="M101-234c-31-9-42 10-38 44h38v23H63V0H32v-167H5v-23h27c-7-52 17-82 69-68v24" id="bs"/><g id="t"><use transform="matrix(0.05,0,0,0.05,0,0)" xlink:href="#bs"/><use transform="matrix(0.05,0,0,0.05,5,0)" xlink:href="#bd"/><use transform="matrix(0.05,0,0,0.05,10.95,0)" xlink:href="#bm"/><use transform="matrix(0.05,0,0,0.05,20.95,0)" xlink:href="#bg"/><use transform="matrix(0.05,0,0,0.05,35.9,0)" xlink:href="#aX"/><use transform="matrix(0.05,0,0,0.05,45.9,0)" xlink:href="#bh"/></g><g id="u"><use transform="matrix(0.05,0,0,0.05,0,0)" xlink:href="#bi"/><use transform="matrix(0.05,0,0,0.05,10.5,0)" xlink:href="#bj"/><use transform="matrix(0.05,0,0,0.05,15.5,0)" xlink:href="#aX"/><use transform="matrix(0.05,0,0,0.05,25.5,0)" xlink:href="#bd"/><use transform="matrix(0.05,0,0,0.05,31.450000000000003,0)" xlink:href="#bg"/><use transform="matrix(0.05,0,0,0.05,46.4,0)" xlink:href="#aT"/></g><path d="M24 0v-261h32V0H24" id="bt"/><g id="v"><use transform="matrix(0.05,0,0,0.05,0,0)" xlink:href="#bt"/><use transform="matrix(0.05,0,0,0.05,3.95,0)" xlink:href="#bk"/><use transform="matrix(0.05,0,0,0.05,7.9,0)" xlink:href="#bc"/><use transform="matrix(0.05,0,0,0.05,16.9,0)" xlink:href="#bj"/><use transform="matrix(0.05,0,0,0.05,21.9,0)" xlink:href="#br"/></g><path d="M108 0H70L1-190h34L89-25l56-165h34" id="bu"/><path d="M115-194c53 0 69 39 70 98 0 66-23 100-70 100C84 3 66-7 56-30L54 0H23l1-261h32v101c10-23 28-34 59-34zm-8 174c40 0 45-34 45-75 0-40-5-75-45-74-42 0-51 32-51 76 0 43 10 73 51 73" id="bv"/><g id="w"><use transform="matrix(0.05,0,0,0.05,0,0)" xlink:href="#bm"/><use transform="matrix(0.05,0,0,0.05,10,0)" xlink:href="#bu"/><use transform="matrix(0.05,0,0,0.05,19,0)" xlink:href="#bm"/><use transform="matrix(0.05,0,0,0.05,29,0)" xlink:href="#bk"/><use transform="matrix(0.05,0,0,0.05,32.95,0)" xlink:href="#bt"/><use transform="matrix(0.05,0,0,0.05,36.900000000000006,0)" xlink:href="#bm"/><use transform="matrix(0.05,0,0,0.05,46.900000000000006,0)" xlink:href="#bv"/><use transform="matrix(0.05,0,0,0.05,56.900000000000006,0)" xlink:href="#bt"/><use transform="matrix(0.05,0,0,0.05,60.85,0)" xlink:href="#aX"/><use transform="matrix(0.05,0,0,0.05,70.85000000000001,0)" xlink:href="#be"/><use transform="matrix(0.05,0,0,0.05,80.85000000000001,0)" xlink:href="#bm"/><use transform="matrix(0.05,0,0,0.05,90.85000000000001,0)" xlink:href="#bn"/><use transform="matrix(0.05,0,0,0.05,99.85000000000001,0)" xlink:href="#bj"/><use transform="matrix(0.05,0,0,0.05,104.85000000000001,0)" xlink:href="#bk"/><use transform="matrix(0.05,0,0,0.05,108.80000000000001,0)" xlink:href="#bf"/><use transform="matrix(0.05,0,0,0.05,118.80000000000001,0)" xlink:href="#aZ"/><use transform="matrix(0.05,0,0,0.05,128.8,0)" xlink:href="#bc"/><use transform="matrix(0.05,0,0,0.05,137.8,0)" xlink:href="#bh"/></g><path d="M39-94c74 12-11 154 75 146v23c-44 4-70-10-70-52C44-23 55-84 6-82v-22c81 4-7-162 84-157h24v23c-82-15-2 131-75 144" id="bw"/><use transform="matrix(0.05,0,0,0.05,0,0)" xlink:href="#bw" id="x"/><g id="y"><use transform="matrix(0.05,0,0,0.05,0,0)" xlink:href="#bm"/><use transform="matrix(0.05,0,0,0.05,10,0)" xlink:href="#bt"/><use transform="matrix(0.05,0,0,0.05,13.949999999999998,0)" xlink:href="#bt"/></g><use transform="matrix(0.05,0,0,0.05,0,0)" xlink:href="#bh" id="z"/><g id="A"><use transform="matrix(0.05,0,0,0.05,0,0)" xlink:href="#bi"/><use transform="matrix(0.05,0,0,0.05,10.5,0)" xlink:href="#bm"/><use transform="matrix(0.05,0,0,0.05,20.5,0)" xlink:href="#bu"/><use transform="matrix(0.05,0,0,0.05,29.5,0)" xlink:href="#bm"/><use transform="matrix(0.05,0,0,0.05,39.5,0)" xlink:href="#bk"/><use transform="matrix(0.05,0,0,0.05,43.45,0)" xlink:href="#bt"/><use transform="matrix(0.05,0,0,0.05,47.400000000000006,0)" xlink:href="#bm"/><use transform="matrix(0.05,0,0,0.05,57.400000000000006,0)" xlink:href="#bv"/><use transform="matrix(0.05,0,0,0.05,67.4,0)" xlink:href="#bt"/><use transform="matrix(0.05,0,0,0.05,71.35000000000001,0)" xlink:href="#aX"/><use transform="matrix(0.05,0,0,0.05,81.35000000000001,0)" xlink:href="#be"/><use transform="matrix(0.05,0,0,0.05,91.35000000000001,0)" xlink:href="#bm"/><use transform="matrix(0.05,0,0,0.05,101.35000000000001,0)" xlink:href="#bn"/><use transform="matrix(0.05,0,0,0.05,110.35000000000001,0)" xlink:href="#bj"/><use transform="matrix(0.05,0,0,0.05,115.35000000000001,0)" xlink:href="#bk"/><use transform="matrix(0.05,0,0,0.05,119.30000000000001,0)" xlink:href="#bf"/><use transform="matrix(0.05,0,0,0.05,129.3,0)" xlink:href="#aZ"/><use transform="matrix(0.05,0,0,0.05,139.3,0)" xlink:href="#aT"/></g><g id="B"><use transform="matrix(0.05,0,0,0.05,0,0)" xlink:href="#ba"/><use transform="matrix(0.05,0,0,0.05,10,0)" xlink:href="#aX"/><use transform="matrix(0.05,0,0,0.05,20,0)" xlink:href="#bs"/><use transform="matrix(0.05,0,0,0.05,25,0)" xlink:href="#bm"/><use transform="matrix(0.05,0,0,0.05,35,0)" xlink:href="#bb"/><use transform="matrix(0.05,0,0,0.05,45,0)" xlink:href="#bt"/><use transform="matrix(0.05,0,0,0.05,48.95,0)" xlink:href="#bj"/></g><g id="C"><use transform="matrix(0.05,0,0,0.05,0,0)" xlink:href="#bt"/><use transform="matrix(0.05,0,0,0.05,3.95,0)" xlink:href="#bk"/><use transform="matrix(0.05,0,0,0.05,7.9,0)" xlink:href="#bc"/><use transform="matrix(0.05,0,0,0.05,16.9,0)" xlink:href="#bj"/></g><path d="M76-40C78 24 84 88 6 75V52C86 64 9-79 80-94c-40-6-34-59-34-106 1-29-11-41-40-38v-23c44-4 70 10 70 52 0 47-12 108 38 105v22c-26 1-39 14-38 42" id="bx"/><use transform="matrix(0.05,0,0,0.05,0,0)" xlink:href="#bx" id="D"/><path d="M206 0h-36l-40-164L89 0H53L-1-190h32L70-26l43-164h34l41 164 42-164h31" id="by"/><g id="E"><use transform="matrix(0.05,0,0,0.05,0,0)" xlink:href="#aZ"/><use transform="matrix(0.05,0,0,0.05,10,0)" xlink:href="#aX"/><use transform="matrix(0.05,0,0,0.05,20,0)" xlink:href="#by"/><use transform="matrix(0.05,0,0,0.05,32.95,0)" xlink:href="#be"/><use transform="matrix(0.05,0,0,0.05,42.95,0)" xlink:href="#bm"/><use transform="matrix(0.05,0,0,0.05,52.95,0)" xlink:href="#bn"/><use transform="matrix(0.05,0,0,0.05,61.95,0)" xlink:href="#bj"/><use transform="matrix(0.05,0,0,0.05,66.95,0)" xlink:href="#bk"/><use transform="matrix(0.05,0,0,0.05,70.9,0)" xlink:href="#bf"/><use transform="matrix(0.05,0,0,0.05,80.9,0)" xlink:href="#aZ"/><use transform="matrix(0.05,0,0,0.05,90.9,0)" xlink:href="#bc"/><use transform="matrix(0.05,0,0,0.05,99.9,0)" xlink:href="#bh"/></g><g id="F"><use transform="matrix(0.05,0,0,0.05,0,0)" xlink:href="#bi"/><use transform="matrix(0.05,0,0,0.05,10.5,0)" xlink:href="#bm"/><use transform="matrix(0.05,0,0,0.05,20.5,0)" xlink:href="#bn"/><use transform="matrix(0.05,0,0,0.05,29.5,0)" xlink:href="#bj"/><use transform="matrix(0.05,0,0,0.05,34.5,0)" xlink:href="#bk"/><use transform="matrix(0.05,0,0,0.05,38.45,0)" xlink:href="#bf"/><use transform="matrix(0.05,0,0,0.05,48.45,0)" xlink:href="#aZ"/><use transform="matrix(0.05,0,0,0.05,58.45,0)" xlink:href="#aT"/></g><g id="G"><use transform="matrix(0.05,0,0,0.05,0,0)" xlink:href="#bt"/><use transform="matrix(0.05,0,0,0.05,3.95,0)" xlink:href="#bk"/><use transform="matrix(0.05,0,0,0.05,7.9,0)" xlink:href="#bc"/><use transform="matrix(0.05,0,0,0.05,16.9,0)" xlink:href="#bj"/></g><g id="H"><use transform="matrix(0.05,0,0,0.05,0,0)" xlink:href="#aY"/><use transform="matrix(0.05,0,0,0.05,10,0)" xlink:href="#bf"/><use transform="matrix(0.05,0,0,0.05,20,0)" xlink:href="#bj"/><use transform="matrix(0.05,0,0,0.05,25,0)" xlink:href="#bf"/><use transform="matrix(0.05,0,0,0.05,35,0)" xlink:href="#be"/><use transform="matrix(0.05,0,0,0.05,45,0)" xlink:href="#bc"/><use transform="matrix(0.05,0,0,0.05,54,0)" xlink:href="#bj"/><use transform="matrix(0.05,0,0,0.05,59,0)" xlink:href="#aX"/><use transform="matrix(0.05,0,0,0.05,69,0)" xlink:href="#bq"/></g><g id="I"><use transform="matrix(0.05,0,0,0.05,0,0)" xlink:href="#bk"/><use transform="matrix(0.05,0,0,0.05,3.95,0)" xlink:href="#ba"/><use transform="matrix(0.05,0,0,0.05,13.949999999999998,0)" xlink:href="#bh"/></g><g id="J"><use transform="matrix(0.05,0,0,0.05,0,0)" xlink:href="#bi"/><use transform="matrix(0.05,0,0,0.05,10.5,0)" xlink:href="#bk"/><use transform="matrix(0.05,0,0,0.05,14.449999999999998,0)" xlink:href="#aZ"/><use transform="matrix(0.05,0,0,0.05,24.45,0)" xlink:href="#bj"/><use transform="matrix(0.05,0,0,0.05,29.450000000000003,0)" xlink:href="#aT"/></g><path d="M141 0L90-78 38 0H4l68-98-65-92h35l48 74 47-74h35l-64 92 68 98h-35" id="bz"/><g id="K"><use transform="matrix(0.05,0,0,0.05,0,0)" xlink:href="#aZ"/><use transform="matrix(0.05,0,0,0.05,10,0)" xlink:href="#aX"/><use transform="matrix(0.05,0,0,0.05,20,0)" xlink:href="#bz"/><use transform="matrix(0.05,0,0,0.05,29,0)" xlink:href="#bj"/><use transform="matrix(0.05,0,0,0.05,34,0)" xlink:href="#be"/><use transform="matrix(0.05,0,0,0.05,44,0)" xlink:href="#bc"/><use transform="matrix(0.05,0,0,0.05,53,0)" xlink:href="#bj"/><use transform="matrix(0.05,0,0,0.05,58,0)" xlink:href="#aX"/><use transform="matrix(0.05,0,0,0.05,68,0)" xlink:href="#bq"/><use transform="matrix(0.05,0,0,0.05,78,0)" xlink:href="#be"/><use transform="matrix(0.05,0,0,0.05,88,0)" xlink:href="#bb"/><use transform="matrix(0.05,0,0,0.05,98,0)" xlink:href="#bc"/><use transform="matrix(0.05,0,0,0.05,107,0)" xlink:href="#aX"/><use transform="matrix(0.05,0,0,0.05,117,0)" xlink:href="#bd"/></g><g id="L"><use transform="matrix(0.05,0,0,0.05,0,0)" xlink:href="#bm"/><use transform="matrix(0.05,0,0,0.05,10,0)" xlink:href="#bn"/><use transform="matrix(0.05,0,0,0.05,19,0)" xlink:href="#bj"/><use transform="matrix(0.05,0,0,0.05,24,0)" xlink:href="#bk"/><use transform="matrix(0.05,0,0,0.05,27.950000000000003,0)" xlink:href="#bf"/><use transform="matrix(0.05,0,0,0.05,37.95,0)" xlink:href="#aZ"/><use transform="matrix(0.05,0,0,0.05,47.95,0)" xlink:href="#bh"/></g><g id="M"><use transform="matrix(0.05,0,0,0.05,0,0)" xlink:href="#bi"/><use transform="matrix(0.05,0,0,0.05,10.5,0)" xlink:href="#bc"/><use transform="matrix(0.05,0,0,0.05,19.5,0)" xlink:href="#aX"/><use transform="matrix(0.05,0,0,0.05,29.5,0)" xlink:href="#bt"/><use transform="matrix(0.05,0,0,0.05,33.45,0)" xlink:href="#aX"/><use transform="matrix(0.05,0,0,0.05,43.45,0)" xlink:href="#bn"/><use transform="matrix(0.05,0,0,0.05,52.45,0)" xlink:href="#bj"/><use transform="matrix(0.05,0,0,0.05,57.45,0)" xlink:href="#aX"/><use transform="matrix(0.05,0,0,0.05,67.45,0)" xlink:href="#ba"/><use transform="matrix(0.05,0,0,0.05,77.45,0)" xlink:href="#be"/><use transform="matrix(0.05,0,0,0.05,87.45,0)" xlink:href="#bm"/><use transform="matrix(0.05,0,0,0.05,97.45,0)" xlink:href="#bn"/><use transform="matrix(0.05,0,0,0.05,106.45,0)" xlink:href="#bj"/><use transform="matrix(0.05,0,0,0.05,111.45,0)" xlink:href="#bk"/><use transform="matrix(0.05,0,0,0.05,115.4,0)" xlink:href="#bf"/><use transform="matrix(0.05,0,0,0.05,125.4,0)" xlink:href="#aZ"/><use transform="matrix(0.05,0,0,0.05,135.4,0)" xlink:href="#aT"/></g><path d="M145-31C134-9 116 4 85 4 32 4 16-35 15-94c0-59 17-99 70-100 32-1 48 14 60 33 0-11-1-24 2-32h30l-1 268h-32zM93-21c41 0 51-33 51-76s-8-73-50-73c-40 0-46 35-46 75s5 74 45 74" id="bA"/><g id="N"><use transform="matrix(0.05,0,0,0.05,0,0)" xlink:href="#bs"/><use transform="matrix(0.05,0,0,0.05,5,0)" xlink:href="#bk"/><use transform="matrix(0.05,0,0,0.05,8.95,0)" xlink:href="#aZ"/><use transform="matrix(0.05,0,0,0.05,18.95,0)" xlink:href="#ba"/><use transform="matrix(0.05,0,0,0.05,28.950000000000003,0)" xlink:href="#be"/><use transform="matrix(0.05,0,0,0.05,38.95,0)" xlink:href="#aX"/><use transform="matrix(0.05,0,0,0.05,48.95,0)" xlink:href="#bA"/><use transform="matrix(0.05,0,0,0.05,58.95,0)" xlink:href="#bb"/><use transform="matrix(0.05,0,0,0.05,68.95,0)" xlink:href="#bk"/><use transform="matrix(0.05,0,0,0.05,72.9,0)" xlink:href="#bu"/><use transform="matrix(0.05,0,0,0.05,81.9,0)" xlink:href="#bm"/><use transform="matrix(0.05,0,0,0.05,91.9,0)" xlink:href="#bt"/><use transform="matrix(0.05,0,0,0.05,95.85000000000001,0)" xlink:href="#aX"/><use transform="matrix(0.05,0,0,0.05,105.85000000000001,0)" xlink:href="#aZ"/><use transform="matrix(0.05,0,0,0.05,115.85000000000001,0)" xlink:href="#bj"/><use transform="matrix(0.05,0,0,0.05,120.85000000000001,0)" xlink:href="#be"/><use transform="matrix(0.05,0,0,0.05,130.85000000000002,0)" xlink:href="#bj"/><use transform="matrix(0.05,0,0,0.05,135.85000000000002,0)" xlink:href="#bd"/><use transform="matrix(0.05,0,0,0.05,141.8,0)" xlink:href="#bm"/><use transform="matrix(0.05,0,0,0.05,151.8,0)" xlink:href="#bn"/><use transform="matrix(0.05,0,0,0.05,160.8,0)" xlink:href="#aX"/></g><g id="O"><use transform="matrix(0.05,0,0,0.05,0,0)" xlink:href="#ba"/><use transform="matrix(0.05,0,0,0.05,10,0)" xlink:href="#bk"/><use transform="matrix(0.05,0,0,0.05,13.949999999999998,0)" xlink:href="#aX"/></g><g id="P"><use transform="matrix(0.05,0,0,0.05,0,0)" xlink:href="#bq"/><use transform="matrix(0.05,0,0,0.05,10,0)" xlink:href="#bm"/><use transform="matrix(0.05,0,0,0.05,20,0)" xlink:href="#bd"/><use transform="matrix(0.05,0,0,0.05,25.950000000000003,0)" xlink:href="#bc"/><use transform="matrix(0.05,0,0,0.05,34.95,0)" xlink:href="#bk"/><use transform="matrix(0.05,0,0,0.05,38.900000000000006,0)" xlink:href="#aZ"/><use transform="matrix(0.05,0,0,0.05,48.900000000000006,0)" xlink:href="#aY"/></g><g id="Q"><use transform="matrix(0.05,0,0,0.05,0,0)" xlink:href="#aX"/><use transform="matrix(0.05,0,0,0.05,10,0)" xlink:href="#bd"/><use transform="matrix(0.05,0,0,0.05,15.949999999999998,0)" xlink:href="#bd"/><use transform="matrix(0.05,0,0,0.05,21.9,0)" xlink:href="#bf"/><use transform="matrix(0.05,0,0,0.05,31.899999999999995,0)" xlink:href="#bd"/></g><path d="M137-103V0h-34v-103L8-248h37l75 118 75-118h37" id="bB"/><g id="R"><use transform="matrix(0.05,0,0,0.05,0,0)" xlink:href="#bB"/><use transform="matrix(0.05,0,0,0.05,10.35,0)" xlink:href="#aX"/><use transform="matrix(0.05,0,0,0.05,20.35,0)" xlink:href="#bc"/></g><path d="M190 0L58-211 59 0H30v-248h39L202-35l-2-213h31V0h-41" id="bC"/><g id="S"><use transform="matrix(0.05,0,0,0.05,0,0)" xlink:href="#bC"/><use transform="matrix(0.05,0,0,0.05,12.950000000000001,0)" xlink:href="#bf"/></g><g id="T"><use transform="matrix(0.05,0,0,0.05,0,0)" xlink:href="#bs"/><use transform="matrix(0.05,0,0,0.05,5,0)" xlink:href="#bf"/><use transform="matrix(0.05,0,0,0.05,15,0)" xlink:href="#bb"/><use transform="matrix(0.05,0,0,0.05,25,0)" xlink:href="#aZ"/><use transform="matrix(0.05,0,0,0.05,35,0)" xlink:href="#ba"/><use transform="matrix(0.05,0,0,0.05,45,0)" xlink:href="#be"/><use transform="matrix(0.05,0,0,0.05,55,0)" xlink:href="#aX"/><use transform="matrix(0.05,0,0,0.05,65,0)" xlink:href="#bA"/><use transform="matrix(0.05,0,0,0.05,75,0)" xlink:href="#bb"/><use transform="matrix(0.05,0,0,0.05,85,0)" xlink:href="#bk"/><use transform="matrix(0.05,0,0,0.05,88.95,0)" xlink:href="#bu"/><use transform="matrix(0.05,0,0,0.05,97.95,0)" xlink:href="#bm"/><use transform="matrix(0.05,0,0,0.05,107.95,0)" xlink:href="#bt"/><use transform="matrix(0.05,0,0,0.05,111.9,0)" xlink:href="#aX"/><use transform="matrix(0.05,0,0,0.05,121.9,0)" xlink:href="#aZ"/><use transform="matrix(0.05,0,0,0.05,131.9,0)" xlink:href="#bj"/><use transform="matrix(0.05,0,0,0.05,136.9,0)" xlink:href="#be"/><use transform="matrix(0.05,0,0,0.05,146.9,0)" xlink:href="#bj"/><use transform="matrix(0.05,0,0,0.05,151.9,0)" xlink:href="#bd"/><use transform="matrix(0.05,0,0,0.05,157.85,0)" xlink:href="#bm"/><use transform="matrix(0.05,0,0,0.05,167.85,0)" xlink:href="#bn"/><use transform="matrix(0.05,0,0,0.05,176.85,0)" xlink:href="#aX"/></g><g id="U"><use transform="matrix(0.05,0,0,0.05,0,0)" xlink:href="#bm"/><use transform="matrix(0.05,0,0,0.05,10,0)" xlink:href="#bn"/><use transform="matrix(0.05,0,0,0.05,19,0)" xlink:href="#bj"/><use transform="matrix(0.05,0,0,0.05,24,0)" xlink:href="#bk"/><use transform="matrix(0.05,0,0,0.05,27.950000000000003,0)" xlink:href="#bf"/><use transform="matrix(0.05,0,0,0.05,37.95,0)" xlink:href="#aZ"/><use transform="matrix(0.05,0,0,0.05,47.95,0)" xlink:href="#be"/><use transform="matrix(0.05,0,0,0.05,57.95,0)" xlink:href="#bc"/><use transform="matrix(0.05,0,0,0.05,66.95,0)" xlink:href="#aX"/><use transform="matrix(0.05,0,0,0.05,76.95,0)" xlink:href="#bA"/><use transform="matrix(0.05,0,0,0.05,86.95,0)" xlink:href="#bb"/><use transform="matrix(0.05,0,0,0.05,96.95,0)" xlink:href="#aX"/><use transform="matrix(0.05,0,0,0.05,106.95,0)" xlink:href="#aZ"/><use transform="matrix(0.05,0,0,0.05,116.95,0)" xlink:href="#bn"/><use transform="matrix(0.05,0,0,0.05,125.95,0)" xlink:href="#aX"/><use transform="matrix(0.05,0,0,0.05,135.95,0)" xlink:href="#bh"/></g><path d="M26 75v-336h71v23H56V52h41v23H26" id="bD"/><path d="M3 75V52h41v-290H3v-23h71V75H3" id="bE"/><g id="V"><use transform="matrix(0.05,0,0,0.05,0,0)" xlink:href="#bD"/><use transform="matrix(0.05,0,0,0.05,5,0)" xlink:href="#bi"/><use transform="matrix(0.05,0,0,0.05,15.5,0)" xlink:href="#bm"/><use transform="matrix(0.05,0,0,0.05,25.5,0)" xlink:href="#bn"/><use transform="matrix(0.05,0,0,0.05,34.5,0)" xlink:href="#bj"/><use transform="matrix(0.05,0,0,0.05,39.5,0)" xlink:href="#bk"/><use transform="matrix(0.05,0,0,0.05,43.45,0)" xlink:href="#bf"/><use transform="matrix(0.05,0,0,0.05,53.45,0)" xlink:href="#aZ"/><use transform="matrix(0.05,0,0,0.05,63.45,0)" xlink:href="#aT"/><use transform="matrix(0.05,0,0,0.05,73.95,0)" xlink:href="#bE"/></g><path d="M101-251c82-7 93 87 43 132L82-64C71-53 59-42 53-27h129V0H18c2-99 128-94 128-182 0-28-16-43-45-43s-46 15-49 41l-32-3c6-41 34-60 81-64" id="bF"/><use transform="matrix(0.05,0,0,0.05,0,0)" xlink:href="#bF" id="W"/><g id="X"><use transform="matrix(0.05,0,0,0.05,0,0)" xlink:href="#bc"/><use transform="matrix(0.05,0,0,0.05,9,0)" xlink:href="#aX"/><use transform="matrix(0.05,0,0,0.05,19,0)" xlink:href="#bt"/><use transform="matrix(0.05,0,0,0.05,22.95,0)" xlink:href="#aX"/><use transform="matrix(0.05,0,0,0.05,32.95,0)" xlink:href="#bn"/><use transform="matrix(0.05,0,0,0.05,41.95,0)" xlink:href="#bj"/><use transform="matrix(0.05,0,0,0.05,46.95,0)" xlink:href="#be"/><use transform="matrix(0.05,0,0,0.05,56.95,0)" xlink:href="#bj"/><use transform="matrix(0.05,0,0,0.05,61.95,0)" xlink:href="#bd"/><use transform="matrix(0.05,0,0,0.05,67.9,0)" xlink:href="#bm"/><use transform="matrix(0.05,0,0,0.05,77.9,0)" xlink:href="#bn"/><use transform="matrix(0.05,0,0,0.05,86.9,0)" xlink:href="#aX"/></g><use transform="matrix(0.05,0,0,0.05,0,0)" xlink:href="#bp" id="Y"/><path d="M32 76v-337h29V76H32" id="bG"/><use transform="matrix(0.05,0,0,0.05,0,0)" xlink:href="#bG" id="Z"/><use transform="matrix(0.05,0,0,0.05,0,0)" xlink:href="#bF" id="aa"/><g id="ab"><use transform="matrix(0.05,0,0,0.05,0,0)" xlink:href="#aZ"/><use transform="matrix(0.05,0,0,0.05,10,0)" xlink:href="#aX"/><use transform="matrix(0.05,0,0,0.05,20,0)" xlink:href="#bz"/><use transform="matrix(0.05,0,0,0.05,29,0)" xlink:href="#bj"/><use transform="matrix(0.05,0,0,0.05,34,0)" xlink:href="#be"/><use transform="matrix(0.05,0,0,0.05,44,0)" xlink:href="#bc"/><use transform="matrix(0.05,0,0,0.05,53,0)" xlink:href="#bj"/><use transform="matrix(0.05,0,0,0.05,58,0)" xlink:href="#aX"/><use transform="matrix(0.05,0,0,0.05,68,0)" xlink:href="#bq"/><use transform="matrix(0.05,0,0,0.05,78,0)" xlink:href="#bc"/></g><g id="ac"><use transform="matrix(0.05,0,0,0.05,0,0)" xlink:href="#bm"/><use transform="matrix(0.05,0,0,0.05,10,0)" xlink:href="#bn"/><use transform="matrix(0.05,0,0,0.05,19,0)" xlink:href="#bj"/><use transform="matrix(0.05,0,0,0.05,24,0)" xlink:href="#bk"/><use transform="matrix(0.05,0,0,0.05,27.950000000000003,0)" xlink:href="#bf"/><use transform="matrix(0.05,0,0,0.05,37.95,0)" xlink:href="#aZ"/><use transform="matrix(0.05,0,0,0.05,47.95,0)" xlink:href="#bc"/><use transform="matrix(0.05,0,0,0.05,56.95,0)" xlink:href="#bh"/></g><use transform="matrix(0.05,0,0,0.05,0,0)" xlink:href="#bD" id="ad"/><g id="ae"><use transform="matrix(0.05,0,0,0.05,0,0)" xlink:href="#bi"/><use transform="matrix(0.05,0,0,0.05,10.5,0)" xlink:href="#bm"/><use transform="matrix(0.05,0,0,0.05,20.5,0)" xlink:href="#bn"/><use transform="matrix(0.05,0,0,0.05,29.5,0)" xlink:href="#bj"/><use transform="matrix(0.05,0,0,0.05,34.5,0)" xlink:href="#bk"/><use transform="matrix(0.05,0,0,0.05,38.45,0)" xlink:href="#bf"/><use transform="matrix(0.05,0,0,0.05,48.45,0)" xlink:href="#aZ"/><use transform="matrix(0.05,0,0,0.05,58.45,0)" xlink:href="#bc"/><use transform="matrix(0.05,0,0,0.05,67.45,0)" xlink:href="#aT"/></g><use transform="matrix(0.05,0,0,0.05,0,0)" xlink:href="#bE" id="af"/><path d="M179-190L93 31C79 59 56 82 12 73V49c39 6 53-20 64-50L1-190h34L92-34l54-156h33" id="bH"/><g id="ag"><use transform="matrix(0.05,0,0,0.05,0,0)" xlink:href="#bn"/><use transform="matrix(0.05,0,0,0.05,9,0)" xlink:href="#bb"/><use transform="matrix(0.05,0,0,0.05,19,0)" xlink:href="#bd"/><use transform="matrix(0.05,0,0,0.05,24.95,0)" xlink:href="#bd"/><use transform="matrix(0.05,0,0,0.05,30.899999999999995,0)" xlink:href="#aX"/><use transform="matrix(0.05,0,0,0.05,40.9,0)" xlink:href="#aZ"/><use transform="matrix(0.05,0,0,0.05,50.9,0)" xlink:href="#bj"/><use transform="matrix(0.05,0,0,0.05,55.900000000000006,0)" xlink:href="#be"/><use transform="matrix(0.05,0,0,0.05,65.9,0)" xlink:href="#bc"/><use transform="matrix(0.05,0,0,0.05,74.9,0)" xlink:href="#bj"/><use transform="matrix(0.05,0,0,0.05,79.9,0)" xlink:href="#aX"/><use transform="matrix(0.05,0,0,0.05,89.9,0)" xlink:href="#bq"/><use transform="matrix(0.05,0,0,0.05,99.9,0)" xlink:href="#be"/><use transform="matrix(0.05,0,0,0.05,109.9,0)" xlink:href="#ba"/><use transform="matrix(0.05,0,0,0.05,119.9,0)" xlink:href="#bk"/><use transform="matrix(0.05,0,0,0.05,123.85000000000001,0)" xlink:href="#bc"/><use transform="matrix(0.05,0,0,0.05,132.85000000000002,0)" xlink:href="#bq"/><use transform="matrix(0.05,0,0,0.05,142.85000000000002,0)" xlink:href="#bt"/><use transform="matrix(0.05,0,0,0.05,146.8,0)" xlink:href="#bm"/><use transform="matrix(0.05,0,0,0.05,156.8,0)" xlink:href="#bH"/><use transform="matrix(0.05,0,0,0.05,165.8,0)" xlink:href="#aX"/><use transform="matrix(0.05,0,0,0.05,175.8,0)" xlink:href="#ba"/></g><g id="ah"><use transform="matrix(0.05,0,0,0.05,0,0)" xlink:href="#bq"/><use transform="matrix(0.05,0,0,0.05,10,0)" xlink:href="#bd"/><use transform="matrix(0.05,0,0,0.05,15.949999999999998,0)" xlink:href="#bf"/><use transform="matrix(0.05,0,0,0.05,25.950000000000003,0)" xlink:href="#bn"/><use transform="matrix(0.05,0,0,0.05,34.95,0)" xlink:href="#aX"/><use transform="matrix(0.05,0,0,0.05,44.95,0)" xlink:href="#bc"/><use transform="matrix(0.05,0,0,0.05,53.95,0)" xlink:href="#bc"/><use transform="matrix(0.05,0,0,0.05,62.95,0)" xlink:href="#be"/><use transform="matrix(0.05,0,0,0.05,72.95,0)" xlink:href="#bk"/><use transform="matrix(0.05,0,0,0.05,76.9,0)" xlink:href="#ba"/><use transform="matrix(0.05,0,0,0.05,86.9,0)" xlink:href="#bh"/></g><g id="ai"><use transform="matrix(0.05,0,0,0.05,0,0)" xlink:href="#bi"/><use transform="matrix(0.05,0,0,0.05,10.5,0)" xlink:href="#bk"/><use transform="matrix(0.05,0,0,0.05,14.449999999999998,0)" xlink:href="#aZ"/><use transform="matrix(0.05,0,0,0.05,24.45,0)" xlink:href="#bj"/><use transform="matrix(0.05,0,0,0.05,29.450000000000003,0)" xlink:href="#aT"/><use transform="matrix(0.05,0,0,0.05,39.95,0)" xlink:href="#br"/></g><g id="aj"><use transform="matrix(0.05,0,0,0.05,0,0)" xlink:href="#bq"/><use transform="matrix(0.05,0,0,0.05,10,0)" xlink:href="#bd"/><use transform="matrix(0.05,0,0,0.05,15.949999999999998,0)" xlink:href="#bf"/><use transform="matrix(0.05,0,0,0.05,25.950000000000003,0)" xlink:href="#bn"/><use transform="matrix(0.05,0,0,0.05,34.95,0)" xlink:href="#aX"/><use transform="matrix(0.05,0,0,0.05,44.95,0)" xlink:href="#bc"/><use transform="matrix(0.05,0,0,0.05,53.95,0)" xlink:href="#bc"/><use transform="matrix(0.05,0,0,0.05,62.95,0)" xlink:href="#bh"/></g><g id="ak"><use transform="matrix(0.05,0,0,0.05,0,0)" xlink:href="#bi"/><use transform="matrix(0.05,0,0,0.05,10.5,0)" xlink:href="#bq"/><use transform="matrix(0.05,0,0,0.05,20.5,0)" xlink:href="#bd"/><use transform="matrix(0.05,0,0,0.05,26.450000000000003,0)" xlink:href="#bf"/><use transform="matrix(0.05,0,0,0.05,36.45,0)" xlink:href="#bn"/><use transform="matrix(0.05,0,0,0.05,45.45,0)" xlink:href="#aX"/><use transform="matrix(0.05,0,0,0.05,55.45,0)" xlink:href="#bc"/><use transform="matrix(0.05,0,0,0.05,64.45,0)" xlink:href="#bc"/><use transform="matrix(0.05,0,0,0.05,73.45,0)" xlink:href="#aT"/><use transform="matrix(0.05,0,0,0.05,83.95,0)" xlink:href="#br"/></g><g id="al"><use transform="matrix(0.05,0,0,0.05,0,0)" xlink:href="#bs"/><use transform="matrix(0.05,0,0,0.05,5,0)" xlink:href="#bd"/><use transform="matrix(0.05,0,0,0.05,10.95,0)" xlink:href="#bm"/><use transform="matrix(0.05,0,0,0.05,20.95,0)" xlink:href="#bg"/><use transform="matrix(0.05,0,0,0.05,35.9,0)" xlink:href="#aX"/><use transform="matrix(0.05,0,0,0.05,45.9,0)" xlink:href="#bh"/></g><g id="am"><use transform="matrix(0.05,0,0,0.05,0,0)" xlink:href="#bi"/><use transform="matrix(0.05,0,0,0.05,10.5,0)" xlink:href="#bj"/><use transform="matrix(0.05,0,0,0.05,15.5,0)" xlink:href="#aX"/><use transform="matrix(0.05,0,0,0.05,25.5,0)" xlink:href="#bd"/><use transform="matrix(0.05,0,0,0.05,31.450000000000003,0)" xlink:href="#bg"/><use transform="matrix(0.05,0,0,0.05,46.4,0)" xlink:href="#aT"/></g><g id="an"><use transform="matrix(0.05,0,0,0.05,0,0)" xlink:href="#bt"/><use transform="matrix(0.05,0,0,0.05,3.95,0)" xlink:href="#bk"/><use transform="matrix(0.05,0,0,0.05,7.9,0)" xlink:href="#bc"/><use transform="matrix(0.05,0,0,0.05,16.9,0)" xlink:href="#bj"/><use transform="matrix(0.05,0,0,0.05,21.9,0)" xlink:href="#br"/></g><g id="ao"><use transform="matrix(0.05,0,0,0.05,0,0)" xlink:href="#bn"/><use transform="matrix(0.05,0,0,0.05,9,0)" xlink:href="#bb"/><use transform="matrix(0.05,0,0,0.05,19,0)" xlink:href="#bd"/><use transform="matrix(0.05,0,0,0.05,24.95,0)" xlink:href="#bd"/><use transform="matrix(0.05,0,0,0.05,30.899999999999995,0)" xlink:href="#aX"/><use transform="matrix(0.05,0,0,0.05,40.9,0)" xlink:href="#aZ"/><use transform="matrix(0.05,0,0,0.05,50.9,0)" xlink:href="#bj"/><use transform="matrix(0.05,0,0,0.05,55.900000000000006,0)" xlink:href="#be"/><use transform="matrix(0.05,0,0,0.05,65.9,0)" xlink:href="#bm"/><use transform="matrix(0.05,0,0,0.05,75.9,0)" xlink:href="#bn"/><use transform="matrix(0.05,0,0,0.05,84.9,0)" xlink:href="#bj"/><use transform="matrix(0.05,0,0,0.05,89.9,0)" xlink:href="#bk"/><use transform="matrix(0.05,0,0,0.05,93.85000000000001,0)" xlink:href="#bf"/><use transform="matrix(0.05,0,0,0.05,103.85000000000001,0)" xlink:href="#aZ"/><use transform="matrix(0.05,0,0,0.05,113.85000000000001,0)" xlink:href="#be"/><use transform="matrix(0.05,0,0,0.05,123.85000000000001,0)" xlink:href="#bk"/><use transform="matrix(0.05,0,0,0.05,127.80000000000001,0)" xlink:href="#ba"/><use transform="matrix(0.05,0,0,0.05,137.8,0)" xlink:href="#bh"/></g><g id="ap"><use transform="matrix(0.05,0,0,0.05,0,0)" xlink:href="#bi"/><use transform="matrix(0.05,0,0,0.05,10.5,0)" xlink:href="#bk"/><use transform="matrix(0.05,0,0,0.05,14.449999999999998,0)" xlink:href="#aZ"/><use transform="matrix(0.05,0,0,0.05,24.45,0)" xlink:href="#bj"/><use transform="matrix(0.05,0,0,0.05,29.450000000000003,0)" xlink:href="#aT"/></g><g id="aq"><use transform="matrix(0.05,0,0,0.05,0,0)" xlink:href="#aY"/><use transform="matrix(0.05,0,0,0.05,10,0)" xlink:href="#bf"/><use transform="matrix(0.05,0,0,0.05,20,0)" xlink:href="#bj"/><use transform="matrix(0.05,0,0,0.05,25,0)" xlink:href="#bf"/><use transform="matrix(0.05,0,0,0.05,35,0)" xlink:href="#be"/><use transform="matrix(0.05,0,0,0.05,45,0)" xlink:href="#bc"/><use transform="matrix(0.05,0,0,0.05,54,0)" xlink:href="#bj"/><use transform="matrix(0.05,0,0,0.05,59,0)" xlink:href="#aX"/><use transform="matrix(0.05,0,0,0.05,69,0)" xlink:href="#bq"/></g><g id="ar"><use transform="matrix(0.05,0,0,0.05,0,0)" xlink:href="#bk"/><use transform="matrix(0.05,0,0,0.05,3.95,0)" xlink:href="#ba"/><use transform="matrix(0.05,0,0,0.05,13.949999999999998,0)" xlink:href="#bh"/></g><g id="as"><use transform="matrix(0.05,0,0,0.05,0,0)" xlink:href="#bq"/><use transform="matrix(0.05,0,0,0.05,10,0)" xlink:href="#bd"/><use transform="matrix(0.05,0,0,0.05,15.949999999999998,0)" xlink:href="#bf"/><use transform="matrix(0.05,0,0,0.05,25.950000000000003,0)" xlink:href="#bn"/><use transform="matrix(0.05,0,0,0.05,34.95,0)" xlink:href="#aX"/><use transform="matrix(0.05,0,0,0.05,44.95,0)" xlink:href="#bc"/><use transform="matrix(0.05,0,0,0.05,53.95,0)" xlink:href="#bc"/><use transform="matrix(0.05,0,0,0.05,62.95,0)" xlink:href="#be"/><use transform="matrix(0.05,0,0,0.05,72.95,0)" xlink:href="#bk"/><use transform="matrix(0.05,0,0,0.05,76.9,0)" xlink:href="#ba"/><use transform="matrix(0.05,0,0,0.05,86.9,0)" xlink:href="#bh"/></g><g id="at"><use transform="matrix(0.05,0,0,0.05,0,0)" xlink:href="#bc"/><use transform="matrix(0.05,0,0,0.05,9,0)" xlink:href="#bj"/><use transform="matrix(0.05,0,0,0.05,14,0)" xlink:href="#bm"/><use transform="matrix(0.05,0,0,0.05,24,0)" xlink:href="#bd"/><use transform="matrix(0.05,0,0,0.05,29.950000000000003,0)" xlink:href="#bj"/><use transform="matrix(0.05,0,0,0.05,34.95,0)" xlink:href="#be"/><use transform="matrix(0.05,0,0,0.05,44.95,0)" xlink:href="#aY"/><use transform="matrix(0.05,0,0,0.05,54.95,0)" xlink:href="#aX"/><use transform="matrix(0.05,0,0,0.05,64.95,0)" xlink:href="#aZ"/><use transform="matrix(0.05,0,0,0.05,74.95,0)" xlink:href="#aX"/><use transform="matrix(0.05,0,0,0.05,84.95,0)" xlink:href="#bd"/><use transform="matrix(0.05,0,0,0.05,90.9,0)" xlink:href="#bk"/><use transform="matrix(0.05,0,0,0.05,94.85000000000001,0)" xlink:href="#bn"/><use transform="matrix(0.05,0,0,0.05,103.85000000000001,0)" xlink:href="#be"/><use transform="matrix(0.05,0,0,0.05,113.85000000000001,0)" xlink:href="#bc"/><use transform="matrix(0.05,0,0,0.05,122.85000000000001,0)" xlink:href="#bk"/><use transform="matrix(0.05,0,0,0.05,126.80000000000001,0)" xlink:href="#bg"/><use transform="matrix(0.05,0,0,0.05,141.75,0)" xlink:href="#bb"/><use transform="matrix(0.05,0,0,0.05,151.75,0)" xlink:href="#bt"/><use transform="matrix(0.05,0,0,0.05,155.7,0)" xlink:href="#bm"/><use transform="matrix(0.05,0,0,0.05,165.7,0)" xlink:href="#bj"/><use transform="matrix(0.05,0,0,0.05,170.7,0)" xlink:href="#bf"/><use transform="matrix(0.05,0,0,0.05,180.7,0)" xlink:href="#bd"/></g><g id="au"><use transform="matrix(0.05,0,0,0.05,0,0)" xlink:href="#bs"/><use transform="matrix(0.05,0,0,0.05,5,0)" xlink:href="#bk"/><use transform="matrix(0.05,0,0,0.05,8.95,0)" xlink:href="#bt"/><use transform="matrix(0.05,0,0,0.05,12.899999999999999,0)" xlink:href="#aX"/><use transform="matrix(0.05,0,0,0.05,22.9,0)" xlink:href="#bh"/></g><g id="av"><use transform="matrix(0.05,0,0,0.05,0,0)" xlink:href="#bi"/><use transform="matrix(0.05,0,0,0.05,10.5,0)" xlink:href="#bc"/><use transform="matrix(0.05,0,0,0.05,19.5,0)" xlink:href="#bj"/><use transform="matrix(0.05,0,0,0.05,24.5,0)" xlink:href="#bd"/><use transform="matrix(0.05,0,0,0.05,30.450000000000003,0)" xlink:href="#bk"/><use transform="matrix(0.05,0,0,0.05,34.4,0)" xlink:href="#aZ"/><use transform="matrix(0.05,0,0,0.05,44.4,0)" xlink:href="#aY"/><use transform="matrix(0.05,0,0,0.05,54.400000000000006,0)" xlink:href="#aT"/><use transform="matrix(0.05,0,0,0.05,64.9,0)" xlink:href="#br"/></g><g id="aw"><use transform="matrix(0.05,0,0,0.05,0,0)" xlink:href="#bA"/><use transform="matrix(0.05,0,0,0.05,10,0)" xlink:href="#bb"/><use transform="matrix(0.05,0,0,0.05,20,0)" xlink:href="#aX"/><use transform="matrix(0.05,0,0,0.05,30,0)" xlink:href="#bd"/><use transform="matrix(0.05,0,0,0.05,35.95,0)" xlink:href="#bH"/><use transform="matrix(0.05,0,0,0.05,44.95,0)" xlink:href="#be"/><use transform="matrix(0.05,0,0,0.05,54.95,0)" xlink:href="#bk"/><use transform="matrix(0.05,0,0,0.05,58.900000000000006,0)" xlink:href="#ba"/></g><g id="ax"><use transform="matrix(0.05,0,0,0.05,0,0)" xlink:href="#aY"/><use transform="matrix(0.05,0,0,0.05,10,0)" xlink:href="#aX"/><use transform="matrix(0.05,0,0,0.05,20,0)" xlink:href="#aZ"/><use transform="matrix(0.05,0,0,0.05,30,0)" xlink:href="#aX"/><use transform="matrix(0.05,0,0,0.05,40,0)" xlink:href="#bd"/><use transform="matrix(0.05,0,0,0.05,45.95,0)" xlink:href="#bk"/><use transform="matrix(0.05,0,0,0.05,49.900000000000006,0)" xlink:href="#bn"/><use transform="matrix(0.05,0,0,0.05,58.900000000000006,0)" xlink:href="#be"/><use transform="matrix(0.05,0,0,0.05,68.9,0)" xlink:href="#bc"/><use transform="matrix(0.05,0,0,0.05,77.9,0)" xlink:href="#bk"/><use transform="matrix(0.05,0,0,0.05,81.85000000000001,0)" xlink:href="#bg"/><use transform="matrix(0.05,0,0,0.05,96.80000000000001,0)" xlink:href="#bb"/><use transform="matrix(0.05,0,0,0.05,106.80000000000001,0)" xlink:href="#bt"/><use transform="matrix(0.05,0,0,0.05,110.75,0)" xlink:href="#bm"/><use transform="matrix(0.05,0,0,0.05,120.75,0)" xlink:href="#bj"/><use transform="matrix(0.05,0,0,0.05,125.75,0)" xlink:href="#bf"/><use transform="matrix(0.05,0,0,0.05,135.75,0)" xlink:href="#bd"/><use transform="matrix(0.05,0,0,0.05,141.7,0)" xlink:href="#be"/><use transform="matrix(0.05,0,0,0.05,151.7,0)" xlink:href="#bc"/><use transform="matrix(0.05,0,0,0.05,160.7,0)" xlink:href="#bj"/><use transform="matrix(0.05,0,0,0.05,165.7,0)" xlink:href="#bm"/><use transform="matrix(0.05,0,0,0.05,175.7,0)" xlink:href="#bd"/><use transform="matrix(0.05,0,0,0.05,181.64999999999998,0)" xlink:href="#bj"/><use transform="matrix(0.05,0,0,0.05,186.64999999999998,0)" xlink:href="#aX"/><use transform="matrix(0.05,0,0,0.05,196.64999999999998,0)" xlink:href="#ba"/></g><g id="ay"><use transform="matrix(0.05,0,0,0.05,0,0)" xlink:href="#bA"/><use transform="matrix(0.05,0,0,0.05,10,0)" xlink:href="#bb"/><use transform="matrix(0.05,0,0,0.05,20,0)" xlink:href="#aX"/><use transform="matrix(0.05,0,0,0.05,30,0)" xlink:href="#bd"/><use transform="matrix(0.05,0,0,0.05,35.95,0)" xlink:href="#bH"/><use transform="matrix(0.05,0,0,0.05,44.95,0)" xlink:href="#be"/><use transform="matrix(0.05,0,0,0.05,54.95,0)" xlink:href="#bd"/><use transform="matrix(0.05,0,0,0.05,60.900000000000006,0)" xlink:href="#aX"/><use transform="matrix(0.05,0,0,0.05,70.9,0)" xlink:href="#bc"/><use transform="matrix(0.05,0,0,0.05,79.9,0)" xlink:href="#bb"/><use transform="matrix(0.05,0,0,0.05,89.9,0)" xlink:href="#bt"/><use transform="matrix(0.05,0,0,0.05,93.85000000000001,0)" xlink:href="#bj"/><use transform="matrix(0.05,0,0,0.05,98.85000000000001,0)" xlink:href="#bh"/></g><g id="az"><use transform="matrix(0.05,0,0,0.05,0,0)" xlink:href="#bi"/><use transform="matrix(0.05,0,0,0.05,10.5,0)" xlink:href="#bA"/><use transform="matrix(0.05,0,0,0.05,20.5,0)" xlink:href="#bb"/><use transform="matrix(0.05,0,0,0.05,30.5,0)" xlink:href="#aX"/><use transform="matrix(0.05,0,0,0.05,40.5,0)" xlink:href="#bd"/><use transform="matrix(0.05,0,0,0.05,46.45,0)" xlink:href="#bH"/><use transform="matrix(0.05,0,0,0.05,55.45,0)" xlink:href="#be"/><use transform="matrix(0.05,0,0,0.05,65.45,0)" xlink:href="#bd"/><use transform="matrix(0.05,0,0,0.05,71.4,0)" xlink:href="#aX"/><use transform="matrix(0.05,0,0,0.05,81.4,0)" xlink:href="#bc"/><use transform="matrix(0.05,0,0,0.05,90.4,0)" xlink:href="#bb"/><use transform="matrix(0.05,0,0,0.05,100.4,0)" xlink:href="#bt"/><use transform="matrix(0.05,0,0,0.05,104.35000000000001,0)" xlink:href="#bj"/><use transform="matrix(0.05,0,0,0.05,109.35000000000001,0)" xlink:href="#aT"/></g><g id="aA"><use transform="matrix(0.05,0,0,0.05,0,0)" xlink:href="#aZ"/><use transform="matrix(0.05,0,0,0.05,10,0)" xlink:href="#bf"/><use transform="matrix(0.05,0,0,0.05,20,0)" xlink:href="#be"/><use transform="matrix(0.05,0,0,0.05,30,0)" xlink:href="#aX"/><use transform="matrix(0.05,0,0,0.05,40,0)" xlink:href="#bA"/><use transform="matrix(0.05,0,0,0.05,50,0)" xlink:href="#bb"/><use transform="matrix(0.05,0,0,0.05,60,0)" xlink:href="#bk"/><use transform="matrix(0.05,0,0,0.05,63.95,0)" xlink:href="#bu"/><use transform="matrix(0.05,0,0,0.05,72.95,0)" xlink:href="#bm"/><use transform="matrix(0.05,0,0,0.05,82.95,0)" xlink:href="#bt"/><use transform="matrix(0.05,0,0,0.05,86.9,0)" xlink:href="#aX"/><use transform="matrix(0.05,0,0,0.05,96.9,0)" xlink:href="#aZ"/><use transform="matrix(0.05,0,0,0.05,106.9,0)" xlink:href="#bj"/><use transform="matrix(0.05,0,0,0.05,111.9,0)" xlink:href="#be"/><use transform="matrix(0.05,0,0,0.05,121.9,0)" xlink:href="#bj"/><use transform="matrix(0.05,0,0,0.05,126.9,0)" xlink:href="#bd"/><use transform="matrix(0.05,0,0,0.05,132.85,0)" xlink:href="#bm"/><use transform="matrix(0.05,0,0,0.05,142.85,0)" xlink:href="#bn"/><use transform="matrix(0.05,0,0,0.05,151.85,0)" xlink:href="#aX"/></g><g id="aB"><use transform="matrix(0.05,0,0,0.05,0,0)" xlink:href="#aQ"/><use transform="matrix(0.05,0,0,0.05,12.950000000000001,0)" xlink:href="#aR"/></g><g id="aC"><use transform="matrix(0.05,0,0,0.05,0,0)" xlink:href="#aQ"/><use transform="matrix(0.05,0,0,0.05,12.950000000000001,0)" xlink:href="#bc"/><use transform="matrix(0.05,0,0,0.05,21.950000000000003,0)" xlink:href="#aX"/><use transform="matrix(0.05,0,0,0.05,31.950000000000003,0)" xlink:href="#bd"/></g><g id="aD"><use transform="matrix(0.05,0,0,0.05,0,0)" xlink:href="#bd"/><use transform="matrix(0.05,0,0,0.05,5.95,0)" xlink:href="#aX"/><use transform="matrix(0.05,0,0,0.05,15.949999999999998,0)" xlink:href="#bA"/><use transform="matrix(0.05,0,0,0.05,25.950000000000003,0)" xlink:href="#bb"/><use transform="matrix(0.05,0,0,0.05,35.95,0)" xlink:href="#aX"/><use transform="matrix(0.05,0,0,0.05,45.95,0)" xlink:href="#bc"/><use transform="matrix(0.05,0,0,0.05,54.95,0)" xlink:href="#bj"/></g><g id="aE"><use transform="matrix(0.05,0,0,0.05,0,0)" xlink:href="#bj"/><use transform="matrix(0.05,0,0,0.05,5,0)" xlink:href="#bf"/></g><g id="aF"><use transform="matrix(0.05,0,0,0.05,0,0)" xlink:href="#bc"/><use transform="matrix(0.05,0,0,0.05,9,0)" xlink:href="#bk"/><use transform="matrix(0.05,0,0,0.05,12.949999999999998,0)" xlink:href="#bg"/><use transform="matrix(0.05,0,0,0.05,27.899999999999995,0)" xlink:href="#bb"/><use transform="matrix(0.05,0,0,0.05,37.9,0)" xlink:href="#bt"/><use transform="matrix(0.05,0,0,0.05,41.85,0)" xlink:href="#bm"/><use transform="matrix(0.05,0,0,0.05,51.85,0)" xlink:href="#bj"/><use transform="matrix(0.05,0,0,0.05,56.85,0)" xlink:href="#aX"/></g><path d="M143 0L79-87 56-68V0H24v-261h32v163l83-92h37l-77 82L181 0h-38" id="bI"/><g id="aG"><use transform="matrix(0.05,0,0,0.05,0,0)" xlink:href="#bm"/><use transform="matrix(0.05,0,0,0.05,10,0)" xlink:href="#bj"/><use transform="matrix(0.05,0,0,0.05,15,0)" xlink:href="#bj"/><use transform="matrix(0.05,0,0,0.05,20,0)" xlink:href="#bm"/><use transform="matrix(0.05,0,0,0.05,30,0)" xlink:href="#bn"/><use transform="matrix(0.05,0,0,0.05,39,0)" xlink:href="#bI"/></g><g id="aH"><use transform="matrix(0.05,0,0,0.05,0,0)" xlink:href="#bj"/><use transform="matrix(0.05,0,0,0.05,5,0)" xlink:href="#bd"/><use transform="matrix(0.05,0,0,0.05,10.95,0)" xlink:href="#bm"/><use transform="matrix(0.05,0,0,0.05,20.95,0)" xlink:href="#bn"/><use transform="matrix(0.05,0,0,0.05,29.950000000000003,0)" xlink:href="#aX"/></g><path d="M233-177c-1 41-23 64-60 70L243 0h-38l-65-103H63V0H30v-248c88 3 205-21 203 71zM63-129c60-2 137 13 137-47 0-61-80-42-137-45v92" id="bJ"/><g id="aI"><use transform="matrix(0.05,0,0,0.05,0,0)" xlink:href="#bJ"/><use transform="matrix(0.05,0,0,0.05,12.950000000000001,0)" xlink:href="#bb"/><use transform="matrix(0.05,0,0,0.05,22.950000000000003,0)" xlink:href="#aZ"/></g><g id="aJ"><use transform="matrix(0.05,0,0,0.05,0,0)" xlink:href="#bm"/><use transform="matrix(0.05,0,0,0.05,10,0)" xlink:href="#bj"/><use transform="matrix(0.05,0,0,0.05,15,0)" xlink:href="#bj"/><use transform="matrix(0.05,0,0,0.05,20,0)" xlink:href="#bm"/><use transform="matrix(0.05,0,0,0.05,30,0)" xlink:href="#bn"/><use transform="matrix(0.05,0,0,0.05,39,0)" xlink:href="#bI"/></g><g id="aK"><use transform="matrix(0.05,0,0,0.05,0,0)" xlink:href="#bc"/><use transform="matrix(0.05,0,0,0.05,9,0)" xlink:href="#bk"/><use transform="matrix(0.05,0,0,0.05,12.949999999999998,0)" xlink:href="#bg"/><use transform="matrix(0.05,0,0,0.05,27.899999999999995,0)" xlink:href="#bb"/><use transform="matrix(0.05,0,0,0.05,37.9,0)" xlink:href="#bt"/><use transform="matrix(0.05,0,0,0.05,41.85,0)" xlink:href="#bm"/><use transform="matrix(0.05,0,0,0.05,51.85,0)" xlink:href="#bj"/><use transform="matrix(0.05,0,0,0.05,56.85,0)" xlink:href="#bf"/><use transform="matrix(0.05,0,0,0.05,66.85,0)" xlink:href="#bd"/></g><g id="aL"><use transform="matrix(0.05,0,0,0.05,0,0)" xlink:href="#bf"/><use transform="matrix(0.05,0,0,0.05,10,0)" xlink:href="#aZ"/></g><g id="aM"><use transform="matrix(0.05,0,0,0.05,0,0)" xlink:href="#bj"/><use transform="matrix(0.05,0,0,0.05,5,0)" xlink:href="#bo"/><use transform="matrix(0.05,0,0,0.05,15,0)" xlink:href="#aX"/></g><g id="aN"><use transform="matrix(0.05,0,0,0.05,0,0)" xlink:href="#bj"/><use transform="matrix(0.05,0,0,0.05,5,0)" xlink:href="#bd"/><use transform="matrix(0.05,0,0,0.05,10.95,0)" xlink:href="#bm"/><use transform="matrix(0.05,0,0,0.05,20.95,0)" xlink:href="#bn"/><use transform="matrix(0.05,0,0,0.05,29.950000000000003,0)" xlink:href="#aX"/></g><g id="aO"><use transform="matrix(0.05,0,0,0.05,0,0)" xlink:href="#bc"/><use transform="matrix(0.05,0,0,0.05,9,0)" xlink:href="#bk"/><use transform="matrix(0.05,0,0,0.05,12.949999999999998,0)" xlink:href="#bg"/><use transform="matrix(0.05,0,0,0.05,27.899999999999995,0)" xlink:href="#bb"/><use transform="matrix(0.05,0,0,0.05,37.9,0)" xlink:href="#bt"/><use transform="matrix(0.05,0,0,0.05,41.85,0)" xlink:href="#bm"/><use transform="matrix(0.05,0,0,0.05,51.85,0)" xlink:href="#bj"/><use transform="matrix(0.05,0,0,0.05,56.85,0)" xlink:href="#aX"/><use transform="matrix(0.05,0,0,0.05,66.85,0)" xlink:href="#be"/><use transform="matrix(0.05,0,0,0.05,76.85,0)" xlink:href="#bm"/><use transform="matrix(0.05,0,0,0.05,86.85,0)" xlink:href="#bj"/><use transform="matrix(0.05,0,0,0.05,91.85,0)" xlink:href="#bj"/><use transform="matrix(0.05,0,0,0.05,96.85,0)" xlink:href="#bm"/><use transform="matrix(0.05,0,0,0.05,106.84999999999998,0)" xlink:href="#bn"/><use transform="matrix(0.05,0,0,0.05,115.84999999999998,0)" xlink:href="#bI"/></g><g id="aP"><use transform="matrix(0.05,0,0,0.05,0,0)" xlink:href="#bm"/><use transform="matrix(0.05,0,0,0.05,10,0)" xlink:href="#bj"/><use transform="matrix(0.05,0,0,0.05,15,0)" xlink:href="#bj"/><use transform="matrix(0.05,0,0,0.05,20,0)" xlink:href="#bm"/><use transform="matrix(0.05,0,0,0.05,30,0)" xlink:href="#bn"/><use transform="matrix(0.05,0,0,0.05,39,0)" xlink:href="#bI"/><use transform="matrix(0.05,0,0,0.05,48,0)" xlink:href="#be"/><use transform="matrix(0.05,0,0,0.05,58,0)" xlink:href="#bj"/><use transform="matrix(0.05,0,0,0.05,63,0)" xlink:href="#bd"/><use transform="matrix(0.05,0,0,0.05,68.95,0)" xlink:href="#bm"/><use transform="matrix(0.05,0,0,0.05,78.95,0)" xlink:href="#bn"/><use transform="matrix(0.05,0,0,0.05,87.95,0)" xlink:href="#aX"/><use transform="matrix(0.05,0,0,0.05,97.95,0)" xlink:href="#bh"/></g></defs></g></svg>