<svg xmlns="http://www.w3.org/2000/svg" xmlns:xlink="http://www.w3.org/1999/xlink" xmlns:lucid="lucid" width="680" height="440"><g transform="translate(-60 -60)" lucid:page-tab-id="Np803Kin~hld"><path d="M0 0h1870.4v1323.2H0z" fill="#fff"/><path d="M96 240c-8.84 0-16 7.16-16 16v48c0 8.84 7.16 16 16 16h128c8.84 0 16-7.16 16-16v-48c0-8.84-7.16-16-16-16z" stroke="#0c7cba" stroke-width="2" fill="#0c7cba" fill-opacity=".2"/><use xlink:href="#a" transform="matrix(1,0,0,1,88,248) translate(44.075 35.6)"/><path d="M242 280h58.5" stroke="#000" stroke-width="2" fill="none"/><path d="M242.03 281H241v-2h1.03z"/><path d="M315.76 280l-14.26 4.64v-9.28z" stroke="#000" stroke-width="2"/><path d="M336 240c-8.84 0-16 7.16-16 16v48c0 8.84 7.16 16 16 16h128c8.84 0 16-7.16 16-16v-48c0-8.84-7.16-16-16-16z" stroke="#0c7cba" stroke-width="2" fill="#0c7cba" fill-opacity=".2"/><use xlink:href="#b" transform="matrix(1,0,0,1,328,248) translate(25.074999999999996 35.6)"/><path d="M482 280h58.5" stroke="#000" stroke-width="2" fill="none"/><path d="M482.03 281H481v-2h1.03z"/><path d="M555.76 280l-14.26 4.64v-9.28z" stroke="#000" stroke-width="2"/><path d="M576 240c-8.84 0-16 7.16-16 16v48c0 8.84 7.16 16 16 16h128c8.84 0 16-7.16 16-16v-48c0-8.84-7.16-16-16-16z" stroke="#7ab648" stroke-width="2" fill="#7ab648" fill-opacity=".2"/><use xlink:href="#c" transform="matrix(1,0,0,1,568,248) translate(30.549999999999997 35.6)"/><path d="M160 322v58.5" stroke="#000" stroke-width="2" fill="none"/><path d="M161 322.03h-2V321h2z"/><path d="M160 395.76l-4.64-14.26h9.28z" stroke="#000" stroke-width="2"/><path d="M96 400c-8.84 0-16 7.16-16 16v48c0 8.84 7.16 16 16 16h128c8.84 0 16-7.16 16-16v-48c0-8.84-7.16-16-16-16z" stroke="#ef8d22" stroke-width="2" fill="#ef8d22" fill-opacity=".2"/><use xlink:href="#d" transform="matrix(1,0,0,1,88,408) translate(36.025 35.6)"/><path d="M400 322v110c0 4.42-3.58 8-8 8H259.5" stroke="#000" stroke-width="2" fill="none"/><path d="M401 322.03h-2V321h2z"/><path d="M244.24 440l14.26-4.64v9.28z" stroke="#000" stroke-width="2"/><path d="M400 238v-58.5" stroke="#000" stroke-width="2" fill="none"/><path d="M401 239h-2v-1.03h2z"/><path d="M400 164.24l4.64 14.26h-9.28z" stroke="#000" stroke-width="2"/><path d="M336 80c-8.84 0-16 7.16-16 16v48c0 8.84 7.16 16 16 16h128c8.84 0 16-7.16 16-16V96c0-8.84-7.16-16-16-16z" stroke="#c92d39" stroke-width="2" fill="#c92d39" fill-opacity=".2"/><use xlink:href="#e" transform="matrix(1,0,0,1,328,88) translate(18.65 35.6)"/><defs><path d="M206 0h-36l-40-164L89 0H53L-1-190h32L70-26l43-164h34l41 164 42-164h31" id="f"/><path d="M141-36C126-15 110 5 73 4 37 3 15-17 15-53c-1-64 63-63 125-63 3-35-9-54-41-54-24 1-41 7-42 31l-33-3c5-37 33-52 76-52 45 0 72 20 72 64v82c-1 20 7 32 28 27v20c-31 9-61-2-59-35zM48-53c0 20 12 33 32 33 41-3 63-29 60-74-43 2-92-5-92 41" id="g"/><path d="M24-231v-30h32v30H24zM24 0v-190h32V0H24" id="h"/><path d="M59-47c-2 24 18 29 38 22v24C64 9 27 4 27-40v-127H5v-23h24l9-43h21v43h35v23H59v120" id="i"/><path d="M117-194c89-4 53 116 60 194h-32v-121c0-31-8-49-39-48C34-167 62-67 57 0H25l-1-190h30c1 10-1 24 2 32 11-22 29-35 61-36" id="j"/><path d="M177-190C167-65 218 103 67 71c-23-6-38-20-44-43l32-5c15 47 100 32 89-28v-30C133-14 115 1 83 1 29 1 15-40 15-95c0-56 16-97 71-98 29-1 48 16 59 35 1-10 0-23 2-32h30zM94-22c36 0 50-32 50-73 0-42-14-75-50-75-39 0-46 34-46 75s6 73 46 73" id="k"/><g id="a"><use transform="matrix(0.05,0,0,0.05,0,0)" xlink:href="#f"/><use transform="matrix(0.05,0,0,0.05,12.950000000000001,0)" xlink:href="#g"/><use transform="matrix(0.05,0,0,0.05,22.950000000000003,0)" xlink:href="#h"/><use transform="matrix(0.05,0,0,0.05,26.900000000000002,0)" xlink:href="#i"/><use transform="matrix(0.05,0,0,0.05,31.900000000000002,0)" xlink:href="#h"/><use transform="matrix(0.05,0,0,0.05,35.85,0)" xlink:href="#j"/><use transform="matrix(0.05,0,0,0.05,45.85,0)" xlink:href="#k"/></g><path d="M-5 72V49h209v23H-5" id="l"/><path d="M115-194c55 1 70 41 70 98S169 2 115 4C84 4 66-9 55-30l1 105H24l-1-265h31l2 30c10-21 28-34 59-34zm-8 174c40 0 45-34 45-75s-6-73-45-74c-42 0-51 32-51 76 0 43 10 73 51 73" id="m"/><path d="M114-163C36-179 61-72 57 0H25l-1-190h30c1 12-1 29 2 39 6-27 23-49 58-41v29" id="n"/><path d="M100-194c62-1 85 37 85 99 1 63-27 99-86 99S16-35 15-95c0-66 28-99 85-99zM99-20c44 1 53-31 53-75 0-43-8-75-51-75s-53 32-53 75 10 74 51 75" id="o"/><path d="M100-194c63 0 86 42 84 106H49c0 40 14 67 53 68 26 1 43-12 49-29l28 8c-11 28-37 45-77 45C44 4 14-33 15-96c1-61 26-98 85-98zm52 81c6-60-76-77-97-28-3 7-6 17-6 28h103" id="p"/><path d="M135-143c-3-34-86-38-87 0 15 53 115 12 119 90S17 21 10-45l28-5c4 36 97 45 98 0-10-56-113-15-118-90-4-57 82-63 122-42 12 7 21 19 24 35" id="q"/><g id="b"><use transform="matrix(0.05,0,0,0.05,0,0)" xlink:href="#h"/><use transform="matrix(0.05,0,0,0.05,3.95,0)" xlink:href="#j"/><use transform="matrix(0.05,0,0,0.05,13.949999999999998,0)" xlink:href="#l"/><use transform="matrix(0.05,0,0,0.05,23.95,0)" xlink:href="#m"/><use transform="matrix(0.05,0,0,0.05,33.95,0)" xlink:href="#n"/><use transform="matrix(0.05,0,0,0.05,39.900000000000006,0)" xlink:href="#o"/><use transform="matrix(0.05,0,0,0.05,49.900000000000006,0)" xlink:href="#k"/><use transform="matrix(0.05,0,0,0.05,59.900000000000006,0)" xlink:href="#n"/><use transform="matrix(0.05,0,0,0.05,65.85000000000001,0)" xlink:href="#p"/><use transform="matrix(0.05,0,0,0.05,75.85000000000001,0)" xlink:href="#q"/><use transform="matrix(0.05,0,0,0.05,84.85000000000001,0)" xlink:href="#q"/></g><path d="M96-169c-40 0-48 33-48 73s9 75 48 75c24 0 41-14 43-38l32 2c-6 37-31 61-74 61-59 0-76-41-82-99-10-93 101-131 147-64 4 7 5 14 7 22l-32 3c-4-21-16-35-41-35" id="r"/><path d="M210-169c-67 3-38 105-44 169h-31v-121c0-29-5-50-35-48C34-165 62-65 56 0H25l-1-190h30c1 10-1 24 2 32 10-44 99-50 107 0 11-21 27-35 58-36 85-2 47 119 55 194h-31v-121c0-29-5-49-35-48" id="s"/><path d="M24 0v-261h32V0H24" id="t"/><path d="M85-194c31 0 48 13 60 33l-1-100h32l1 261h-30c-2-10 0-23-3-31C134-8 116 4 85 4 32 4 16-35 15-94c0-66 23-100 70-100zm9 24c-40 0-46 34-46 75 0 40 6 74 45 74 42 0 51-32 51-76 0-42-9-74-50-73" id="u"/><g id="c"><use transform="matrix(0.05,0,0,0.05,0,0)" xlink:href="#r"/><use transform="matrix(0.05,0,0,0.05,9,0)" xlink:href="#o"/><use transform="matrix(0.05,0,0,0.05,19,0)" xlink:href="#s"/><use transform="matrix(0.05,0,0,0.05,33.95,0)" xlink:href="#m"/><use transform="matrix(0.05,0,0,0.05,43.95,0)" xlink:href="#t"/><use transform="matrix(0.05,0,0,0.05,47.900000000000006,0)" xlink:href="#p"/><use transform="matrix(0.05,0,0,0.05,57.900000000000006,0)" xlink:href="#i"/><use transform="matrix(0.05,0,0,0.05,62.900000000000006,0)" xlink:href="#p"/><use transform="matrix(0.05,0,0,0.05,72.9,0)" xlink:href="#u"/></g><g id="d"><use transform="matrix(0.05,0,0,0.05,0,0)" xlink:href="#r"/><use transform="matrix(0.05,0,0,0.05,9,0)" xlink:href="#g"/><use transform="matrix(0.05,0,0,0.05,19,0)" xlink:href="#j"/><use transform="matrix(0.05,0,0,0.05,29,0)" xlink:href="#r"/><use transform="matrix(0.05,0,0,0.05,38,0)" xlink:href="#p"/><use transform="matrix(0.05,0,0,0.05,48,0)" xlink:href="#t"/><use transform="matrix(0.05,0,0,0.05,51.95,0)" xlink:href="#p"/><use transform="matrix(0.05,0,0,0.05,61.95,0)" xlink:href="#u"/></g><g id="e"><use transform="matrix(0.05,0,0,0.05,0,0)" xlink:href="#h"/><use transform="matrix(0.05,0,0,0.05,3.95,0)" xlink:href="#j"/><use transform="matrix(0.05,0,0,0.05,13.949999999999998,0)" xlink:href="#i"/><use transform="matrix(0.05,0,0,0.05,18.95,0)" xlink:href="#p"/><use transform="matrix(0.05,0,0,0.05,28.950000000000003,0)" xlink:href="#n"/><use transform="matrix(0.05,0,0,0.05,34.9,0)" xlink:href="#j"/><use transform="matrix(0.05,0,0,0.05,44.9,0)" xlink:href="#g"/><use transform="matrix(0.05,0,0,0.05,54.900000000000006,0)" xlink:href="#t"/><use transform="matrix(0.05,0,0,0.05,58.85,0)" xlink:href="#l"/><use transform="matrix(0.05,0,0,0.05,68.85,0)" xlink:href="#p"/><use transform="matrix(0.05,0,0,0.05,78.85,0)" xlink:href="#n"/><use transform="matrix(0.05,0,0,0.05,84.8,0)" xlink:href="#n"/><use transform="matrix(0.05,0,0,0.05,90.75,0)" xlink:href="#o"/><use transform="matrix(0.05,0,0,0.05,100.75,0)" xlink:href="#n"/></g></defs></g></svg>