<svg xmlns="http://www.w3.org/2000/svg" xmlns:xlink="http://www.w3.org/1999/xlink" xmlns:lucid="lucid" width="1620" height="920"><g transform="translate(-20 20)" lucid:page-tab-id="0_0"><path d="M0 0h1870.4v1323.2H0z" fill="#fff"/><path d="M390 60c0 11.05-8.95 20-20 20s-20-8.95-20-20 8.95-20 20-20 20 8.95 20 20z" stroke="#000" stroke-width="2"/><path d="M348 60H160v60.5" stroke="#000" stroke-width="2" fill="none"/><path d="M349 59.96l.03 1.04h-1.06v-2h1.15z"/><path d="M160 135.76l-4.64-14.26h9.28z" stroke="#000" stroke-width="2"/><path d="M392 60h168v60.5" stroke="#000" stroke-width="2" fill="none"/><path d="M392.03 61h-1.15l.12-.96-.03-1.04h1.06z"/><path d="M560 135.76l-4.64-14.26h9.28z" stroke="#000" stroke-width="2"/><path d="M180 360c0 11.05-8.95 20-20 20s-20-8.95-20-20 8.95-20 20-20 20 8.95 20 20z" stroke="#000" stroke-width="2" fill="#fff"/><path d="M145.86 345.86l28.28 28.28m0-28.28l-28.28 28.28M160 262v58.5" stroke="#000" stroke-width="2" fill="none"/><path d="M161 262.03h-2V261h2z"/><path d="M160 335.76l-4.64-14.26h9.28z" stroke="#000" stroke-width="2"/><path d="M300 0h140v40H300z" stroke="#000" stroke-opacity="0" stroke-width="2" fill="#fff" fill-opacity="0"/><use xlink:href="#a" transform="matrix(1,0,0,1,305,5) translate(27.049999999999997 18.15)"/><use xlink:href="#b" transform="matrix(1,0,0,1,305,5) translate(70 18.15)"/><path d="M478 200h-78v140.5" stroke="#000" stroke-width="2" fill="none"/><path d="M479 201h-1.03v-2H479z"/><path d="M400 355.76l-4.64-14.26h9.28z" stroke="#000" stroke-width="2"/><path d="M400 502v38.5" stroke="#000" stroke-width="2" fill="none"/><path d="M401 502.03h-2V501h2z"/><path d="M400 555.76l-4.64-14.26h9.28z" stroke="#000" stroke-width="2"/><path d="M420 580c0 11.05-8.95 20-20 20s-20-8.95-20-20 8.95-20 20-20 20 8.95 20 20z" stroke="#000" stroke-width="2" fill="#fff"/><path d="M385.86 565.86l28.28 28.28m0-28.28l-28.28 28.28M642 200h38.5" stroke="#000" stroke-width="2" fill="none"/><path d="M642.03 201H641v-2h1.03z"/><path d="M695.76 200l-14.26 4.64v-9.28z" stroke="#000" stroke-width="2"/><path d="M64 140c-13.25 0-24 10.75-24 24v72c0 13.25 10.75 24 24 24h192c13.25 0 24-10.75 24-24v-72c0-13.25-10.75-24-24-24z" stroke="#c92d39" stroke-width="2" fill="#c92d39" fill-opacity=".2"/><path d="M40 184h240" stroke="#c92d39" stroke-width="2" fill="none"/><use xlink:href="#c" transform="matrix(1,0,0,1,88,140) translate(-8.349999999999994 25.6)"/><use xlink:href="#d" transform="matrix(1,0,0,1,64,200) translate(15.149999999999991 25.6)"/><use xlink:href="#e" transform="matrix(1,0,0,1,64,200) translate(101.95 25.6)"/><use xlink:href="#f" transform="matrix(1,0,0,1,64,200) translate(111.95 25.6)"/><path d="M333 360c-15.46 0-28 12.54-28 28v84c0 15.46 12.54 28 28 28h134c15.46 0 28-12.54 28-28v-84c0-15.46-12.54-28-28-28z" stroke="#c92d39" stroke-width="2" fill="#c92d39" fill-opacity=".2"/><path d="M305 404h190" stroke="#c92d39" stroke-width="2" fill="none"/><use xlink:href="#g" transform="matrix(1,0,0,1,343,360) translate(15.599999999999994 25.6)"/><use xlink:href="#h" transform="matrix(1,0,0,1,324,420) translate(21.599999999999994 14.4)"/><use xlink:href="#e" transform="matrix(1,0,0,1,324,420) translate(109.4 14.4)"/><use xlink:href="#i" transform="matrix(1,0,0,1,324,420) translate(119.4 14.4)"/><use xlink:href="#j" transform="matrix(1,0,0,1,324,420) translate(7.125 36)"/><use xlink:href="#k" transform="matrix(1,0,0,1,324,420) translate(98.92500000000001 36)"/><use xlink:href="#l" transform="matrix(1,0,0,1,324,420) translate(31.075000000000003 57.6)"/><use xlink:href="#m" transform="matrix(1,0,0,1,324,420) translate(63.975 57.6)"/><use xlink:href="#n" transform="matrix(1,0,0,1,324,420) translate(109.925 57.6)"/><path d="M504 140c-13.25 0-24 10.75-24 24v72c0 13.25 10.75 24 24 24h112c13.25 0 24-10.75 24-24v-72c0-13.25-10.75-24-24-24z" stroke="#0c7cba" stroke-width="2" fill="#0c7cba" fill-opacity=".2"/><path d="M480 184h160" stroke="#0c7cba" stroke-width="2" fill="none"/><use xlink:href="#o" transform="matrix(1,0,0,1,512,140) translate(-6.475000000000001 25.6)"/><use xlink:href="#p" transform="matrix(1,0,0,1,496,200) translate(27.075000000000003 25.6)"/><use xlink:href="#q" transform="matrix(1,0,0,1,496,200) translate(59.975 25.6)"/><path d="M728 130c-15.46 0-28 12.54-28 28v84c0 15.46 12.54 28 28 28h144c15.46 0 28-12.54 28-28v-84c0-15.46-12.54-28-28-28z" stroke="#7ab648" stroke-width="2" fill="#7ab648" fill-opacity=".2"/><path d="M700 174h200" stroke="#7ab648" stroke-width="2" fill="none"/><use xlink:href="#r" transform="matrix(1,0,0,1,740,130) translate(1.5749999999999957 25.6)"/><use xlink:href="#s" transform="matrix(1,0,0,1,720,190) translate(13.099999999999994 14.4)"/><use xlink:href="#e" transform="matrix(1,0,0,1,720,190) translate(125.9 14.4)"/><use xlink:href="#i" transform="matrix(1,0,0,1,720,190) translate(135.9 14.4)"/><use xlink:href="#l" transform="matrix(1,0,0,1,720,190) translate(40.575 36)"/><use xlink:href="#k" transform="matrix(1,0,0,1,720,190) translate(73.475 36)"/><use xlink:href="#t" transform="matrix(1,0,0,1,720,190) translate(8.099999999999994 57.6)"/><use xlink:href="#u" transform="matrix(1,0,0,1,720,190) translate(89.95 57.6)"/><path d="M744 360c-13.25 0-24 10.75-24 24v72c0 13.25 10.75 24 24 24h112c13.25 0 24-10.75 24-24v-72c0-13.25-10.75-24-24-24z" stroke="#0c7cba" stroke-width="2" fill="#0c7cba" fill-opacity=".2"/><path d="M720 404h160" stroke="#0c7cba" stroke-width="2" fill="none"/><use xlink:href="#v" transform="matrix(1,0,0,1,752,360) translate(2.549999999999997 25.6)"/><use xlink:href="#p" transform="matrix(1,0,0,1,736,420) translate(27.075000000000003 25.6)"/><use xlink:href="#q" transform="matrix(1,0,0,1,736,420) translate(59.975 25.6)"/><path d="M800 272v68.5" stroke="#000" stroke-width="2" fill="none"/><path d="M801 272.03h-2V271h2z"/><path d="M800 355.76l-4.64-14.26h9.28z" stroke="#000" stroke-width="2"/><path d="M984 360c-13.25 0-24 10.75-24 24v72c0 13.25 10.75 24 24 24h112c13.25 0 24-10.75 24-24v-72c0-13.25-10.75-24-24-24z" stroke="#0c7cba" stroke-width="2" fill="#0c7cba" fill-opacity=".2"/><path d="M960 404h160" stroke="#0c7cba" stroke-width="2" fill="none"/><use xlink:href="#w" transform="matrix(1,0,0,1,992,360) translate(-6.950000000000003 25.6)"/><use xlink:href="#p" transform="matrix(1,0,0,1,976,420) translate(27.075000000000003 25.6)"/><use xlink:href="#q" transform="matrix(1,0,0,1,976,420) translate(59.975 25.6)"/><path d="M882 420h58.5" stroke="#000" stroke-width="2" fill="none"/><path d="M882.03 421H881v-2h1.03z"/><path d="M955.76 420l-14.26 4.64v-9.28z" stroke="#000" stroke-width="2"/><path d="M1224 360c-13.25 0-24 10.75-24 24v72c0 13.25 10.75 24 24 24h112c13.25 0 24-10.75 24-24v-72c0-13.25-10.75-24-24-24z" stroke="#7ab648" stroke-width="2" fill="#7ab648" fill-opacity=".2"/><path d="M1200 404h160" stroke="#7ab648" stroke-width="2" fill="none"/><use xlink:href="#x" transform="matrix(1,0,0,1,1232,360) translate(-4.475000000000001 25.6)"/><use xlink:href="#p" transform="matrix(1,0,0,1,1216,420) translate(27.075000000000003 14.799999999999999)"/><use xlink:href="#y" transform="matrix(1,0,0,1,1216,420) translate(59.975 14.799999999999999)"/><use xlink:href="#z" transform="matrix(1,0,0,1,1216,420) translate(14.524999999999999 36.4)"/><use xlink:href="#q" transform="matrix(1,0,0,1,1216,420) translate(72.525 36.4)"/><path d="M1122 420h58.5" stroke="#000" stroke-width="2" fill="none"/><path d="M1122.03 421H1121v-2h1.03z"/><path d="M1195.76 420l-14.26 4.64v-9.28z" stroke="#000" stroke-width="2"/><path d="M1246.67 358v-39H1072v21.5" stroke="#000" stroke-width="2" fill="none"/><path d="M1247.67 359h-2v-1.03h2z"/><path d="M1072 355.76l-4.64-14.26h9.28z" stroke="#000" stroke-width="2"/><path d="M1464 360c-13.25 0-24 10.75-24 24v72c0 13.25 10.75 24 24 24h112c13.25 0 24-10.75 24-24v-72c0-13.25-10.75-24-24-24z" stroke="#7ab648" stroke-width="2" fill="#7ab648" fill-opacity=".2"/><path d="M1440 404h160" stroke="#7ab648" stroke-width="2" fill="none"/><use xlink:href="#A" transform="matrix(1,0,0,1,1472,360) translate(5.024999999999999 25.6)"/><use xlink:href="#p" transform="matrix(1,0,0,1,1456,420) translate(27.075000000000003 14.799999999999999)"/><use xlink:href="#y" transform="matrix(1,0,0,1,1456,420) translate(59.975 14.799999999999999)"/><use xlink:href="#z" transform="matrix(1,0,0,1,1456,420) translate(14.524999999999999 36.4)"/><use xlink:href="#q" transform="matrix(1,0,0,1,1456,420) translate(72.525 36.4)"/><path d="M1362 420h58.5" stroke="#000" stroke-width="2" fill="none"/><path d="M1362.03 421H1361v-2h1.03z"/><path d="M1435.76 420l-14.26 4.64v-9.28z" stroke="#000" stroke-width="2"/><path d="M1484 482v39H800v-21.5" stroke="#000" stroke-width="2" fill="none"/><path d="M1485 482.03h-2V481h2z"/><path d="M800 484.24l4.64 14.26h-9.28z" stroke="#000" stroke-width="2"/><path d="M1484 600c-13.25 0-24 10.75-24 24v72c0 13.25 10.75 24 24 24h112c13.25 0 24-10.75 24-24v-72c0-13.25-10.75-24-24-24z" stroke="#7ab648" stroke-width="2" fill="#7ab648" fill-opacity=".2"/><path d="M1460 644h160" stroke="#7ab648" stroke-width="2" fill="none"/><use xlink:href="#B" transform="matrix(1,0,0,1,1492,600) translate(-4 25.6)"/><use xlink:href="#p" transform="matrix(1,0,0,1,1476,660) translate(27.075000000000003 25.6)"/><use xlink:href="#q" transform="matrix(1,0,0,1,1476,660) translate(59.975 25.6)"/><path d="M1540 482v98.5" stroke="#000" stroke-width="2" fill="none"/><path d="M1541 482.03h-2V481h2z"/><path d="M1540 595.76l-4.64-14.26h9.28z" stroke="#000" stroke-width="2"/><path d="M1540 722v58.5" stroke="#000" stroke-width="2" fill="none"/><path d="M1541 722.03h-2V721h2z"/><path d="M1540 795.76l-4.64-14.26h9.28z" stroke="#000" stroke-width="2"/><path d="M1560 820c0 11.05-8.95 20-20 20s-20-8.95-20-20 8.95-20 20-20 20 8.95 20 20z" stroke="#000" stroke-width="2" fill="#fff"/><path d="M1525.86 805.86l28.28 28.28m0-28.28l-28.28 28.28" stroke="#000" stroke-width="2" fill="none"/><path d="M984 140c-13.25 0-24 10.75-24 24v72c0 13.25 10.75 24 24 24h172c13.25 0 24-10.75 24-24v-72c0-13.25-10.75-24-24-24z" stroke="#c92d39" stroke-width="2" fill="#c92d39" fill-opacity=".2"/><path d="M960 184h220" stroke="#c92d39" stroke-width="2" fill="none"/><g><use xlink:href="#C" transform="matrix(1,0,0,1,1004,140) translate(-14.824999999999989 25.6)"/></g><g><use xlink:href="#p" transform="matrix(1,0,0,1,982,200) translate(51.075 14.799999999999999)"/><use xlink:href="#y" transform="matrix(1,0,0,1,982,200) translate(83.975 14.799999999999999)"/><use xlink:href="#j" transform="matrix(1,0,0,1,982,200) translate(21.625 36.4)"/><use xlink:href="#q" transform="matrix(1,0,0,1,982,200) translate(113.42500000000001 36.4)"/></g><path d="M1182 200h338v140.5" stroke="#000" stroke-width="2" fill="none"/><path d="M1182.03 201H1181v-2h1.03z"/><path d="M1520 355.76l-4.64-14.26h9.28z" stroke="#000" stroke-width="2"/><path d="M1006.67 358v-78.5" stroke="#000" stroke-width="2" fill="none"/><path d="M1007.67 359h-2v-1.03h2z"/><path d="M1006.67 264.24l4.63 14.26h-9.27z" stroke="#000" stroke-width="2"/><path d="M110 380h100v40H110z" stroke="#000" stroke-opacity="0" stroke-width="2" fill="#fff" fill-opacity="0"/><g><use xlink:href="#D" transform="matrix(1,0,0,1,115,385) translate(31.025 18.15)"/></g><path d="M350 600h100v40H350z" stroke="#000" stroke-opacity="0" stroke-width="2" fill="#fff" fill-opacity="0"/><g><use xlink:href="#D" transform="matrix(1,0,0,1,355,605) translate(31.025 18.15)"/></g><path d="M1490 840h100v40h-100z" stroke="#000" stroke-opacity="0" stroke-width="2" fill="#fff" fill-opacity="0"/><g><use xlink:href="#D" transform="matrix(1,0,0,1,1495,845) translate(31.025 18.15)"/></g><defs><path d="M185-189c-5-48-123-54-124 2 14 75 158 14 163 119 3 78-121 87-175 55-17-10-28-26-33-46l33-7c5 56 141 63 141-1 0-78-155-14-162-118-5-82 145-84 179-34 5 7 8 16 11 25" id="E"/><path d="M59-47c-2 24 18 29 38 22v24C64 9 27 4 27-40v-127H5v-23h24l9-43h21v43h35v23H59v120" id="F"/><path d="M141-36C126-15 110 5 73 4 37 3 15-17 15-53c-1-64 63-63 125-63 3-35-9-54-41-54-24 1-41 7-42 31l-33-3c5-37 33-52 76-52 45 0 72 20 72 64v82c-1 20 7 32 28 27v20c-31 9-61-2-59-35zM48-53c0 20 12 33 32 33 41-3 63-29 60-74-43 2-92-5-92 41" id="G"/><path d="M114-163C36-179 61-72 57 0H25l-1-190h30c1 12-1 29 2 39 6-27 23-49 58-41v29" id="H"/><g id="a"><use transform="matrix(0.05,0,0,0.05,0,0)" xlink:href="#E"/><use transform="matrix(0.05,0,0,0.05,12,0)" xlink:href="#F"/><use transform="matrix(0.05,0,0,0.05,17,0)" xlink:href="#G"/><use transform="matrix(0.05,0,0,0.05,27,0)" xlink:href="#H"/><use transform="matrix(0.05,0,0,0.05,32.95,0)" xlink:href="#F"/></g><path d="M233-177c-1 41-23 64-60 70L243 0h-38l-65-103H63V0H30v-248c88 3 205-21 203 71zM63-129c60-2 137 13 137-47 0-61-80-42-137-45v92" id="I"/><path d="M84 4C-5 8 30-112 23-190h32v120c0 31 7 50 39 49 72-2 45-101 50-169h31l1 190h-30c-1-10 1-25-2-33-11 22-28 36-60 37" id="J"/><path d="M117-194c89-4 53 116 60 194h-32v-121c0-31-8-49-39-48C34-167 62-67 57 0H25l-1-190h30c1 10-1 24 2 32 11-22 29-35 61-36" id="K"/><g id="b"><use transform="matrix(0.05,0,0,0.05,0,0)" xlink:href="#I"/><use transform="matrix(0.05,0,0,0.05,12.950000000000001,0)" xlink:href="#J"/><use transform="matrix(0.05,0,0,0.05,22.950000000000003,0)" xlink:href="#K"/></g><path d="M115-194c53 0 69 39 70 98 0 66-23 100-70 100C84 3 66-7 56-30L54 0H23l1-261h32v101c10-23 28-34 59-34zm-8 174c40 0 45-34 45-75 0-40-5-75-45-74-42 0-51 32-51 76 0 43 10 73 51 73" id="L"/><path d="M96-169c-40 0-48 33-48 73s9 75 48 75c24 0 41-14 43-38l32 2c-6 37-31 61-74 61-59 0-76-41-82-99-10-93 101-131 147-64 4 7 5 14 7 22l-32 3c-4-21-16-35-41-35" id="M"/><path d="M106-169C34-169 62-67 57 0H25v-261h32l-1 103c12-21 28-36 61-36 89 0 53 116 60 194h-32v-121c2-32-8-49-39-48" id="N"/><path d="M-5 72V49h209v23H-5" id="O"/><path d="M24-231v-30h32v30H24zM24 0v-190h32V0H24" id="P"/><path d="M100-194c63 0 86 42 84 106H49c0 40 14 67 53 68 26 1 43-12 49-29l28 8c-11 28-37 45-77 45C44 4 14-33 15-96c1-61 26-98 85-98zm52 81c6-60-76-77-97-28-3 7-6 17-6 28h103" id="Q"/><path d="M24 0v-261h32V0H24" id="R"/><path d="M100-194c62-1 85 37 85 99 1 63-27 99-86 99S16-35 15-95c0-66 28-99 85-99zM99-20c44 1 53-31 53-75 0-43-8-75-51-75s-53 32-53 75 10 74 51 75" id="S"/><g id="c"><use transform="matrix(0.05,0,0,0.05,0,0)" xlink:href="#L"/><use transform="matrix(0.05,0,0,0.05,10,0)" xlink:href="#G"/><use transform="matrix(0.05,0,0,0.05,20,0)" xlink:href="#F"/><use transform="matrix(0.05,0,0,0.05,25,0)" xlink:href="#M"/><use transform="matrix(0.05,0,0,0.05,34,0)" xlink:href="#N"/><use transform="matrix(0.05,0,0,0.05,44,0)" xlink:href="#O"/><use transform="matrix(0.05,0,0,0.05,54,0)" xlink:href="#P"/><use transform="matrix(0.05,0,0,0.05,57.95,0)" xlink:href="#K"/><use transform="matrix(0.05,0,0,0.05,67.95,0)" xlink:href="#F"/><use transform="matrix(0.05,0,0,0.05,72.95,0)" xlink:href="#Q"/><use transform="matrix(0.05,0,0,0.05,82.95,0)" xlink:href="#H"/><use transform="matrix(0.05,0,0,0.05,88.9,0)" xlink:href="#K"/><use transform="matrix(0.05,0,0,0.05,98.9,0)" xlink:href="#G"/><use transform="matrix(0.05,0,0,0.05,108.9,0)" xlink:href="#R"/><use transform="matrix(0.05,0,0,0.05,112.85000000000001,0)" xlink:href="#O"/><use transform="matrix(0.05,0,0,0.05,122.85000000000001,0)" xlink:href="#Q"/><use transform="matrix(0.05,0,0,0.05,132.85000000000002,0)" xlink:href="#H"/><use transform="matrix(0.05,0,0,0.05,138.8,0)" xlink:href="#H"/><use transform="matrix(0.05,0,0,0.05,144.75,0)" xlink:href="#S"/><use transform="matrix(0.05,0,0,0.05,154.75,0)" xlink:href="#H"/></g><path d="M210-169c-67 3-38 105-44 169h-31v-121c0-29-5-50-35-48C34-165 62-65 56 0H25l-1-190h30c1 10-1 24 2 32 10-44 99-50 107 0 11-21 27-35 58-36 85-2 47 119 55 194h-31v-121c0-29-5-49-35-48" id="T"/><path d="M135-143c-3-34-86-38-87 0 15 53 115 12 119 90S17 21 10-45l28-5c4 36 97 45 98 0-10-56-113-15-118-90-4-57 82-63 122-42 12 7 21 19 24 35" id="U"/><path d="M177-190C167-65 218 103 67 71c-23-6-38-20-44-43l32-5c15 47 100 32 89-28v-30C133-14 115 1 83 1 29 1 15-40 15-95c0-56 16-97 71-98 29-1 48 16 59 35 1-10 0-23 2-32h30zM94-22c36 0 50-32 50-73 0-42-14-75-50-75-39 0-46 34-46 75s6 73 46 73" id="V"/><g id="d"><use transform="matrix(0.05,0,0,0.05,0,0)" xlink:href="#Q"/><use transform="matrix(0.05,0,0,0.05,10,0)" xlink:href="#H"/><use transform="matrix(0.05,0,0,0.05,15.949999999999998,0)" xlink:href="#H"/><use transform="matrix(0.05,0,0,0.05,21.9,0)" xlink:href="#S"/><use transform="matrix(0.05,0,0,0.05,31.899999999999995,0)" xlink:href="#H"/><use transform="matrix(0.05,0,0,0.05,37.85,0)" xlink:href="#O"/><use transform="matrix(0.05,0,0,0.05,47.85,0)" xlink:href="#T"/><use transform="matrix(0.05,0,0,0.05,62.800000000000004,0)" xlink:href="#U"/><use transform="matrix(0.05,0,0,0.05,71.80000000000001,0)" xlink:href="#V"/></g><path d="M33-154v-36h34v36H33zM33 0v-36h34V0H33" id="W"/><use transform="matrix(0.05,0,0,0.05,0,0)" xlink:href="#W" id="e"/><path d="M18-100v-36l175-74v27L42-118l151 64v27" id="X"/><path d="M18-27v-27l151-64-151-65v-27l175 74v36" id="Y"/><g id="f"><use transform="matrix(0.05,0,0,0.05,0,0)" xlink:href="#X"/><use transform="matrix(0.05,0,0,0.05,10.5,0)" xlink:href="#U"/><use transform="matrix(0.05,0,0,0.05,19.5,0)" xlink:href="#F"/><use transform="matrix(0.05,0,0,0.05,24.5,0)" xlink:href="#H"/><use transform="matrix(0.05,0,0,0.05,30.450000000000003,0)" xlink:href="#P"/><use transform="matrix(0.05,0,0,0.05,34.4,0)" xlink:href="#K"/><use transform="matrix(0.05,0,0,0.05,44.4,0)" xlink:href="#V"/><use transform="matrix(0.05,0,0,0.05,54.400000000000006,0)" xlink:href="#Y"/></g><g id="g"><use transform="matrix(0.05,0,0,0.05,0,0)" xlink:href="#J"/><use transform="matrix(0.05,0,0,0.05,10,0)" xlink:href="#U"/><use transform="matrix(0.05,0,0,0.05,19,0)" xlink:href="#Q"/><use transform="matrix(0.05,0,0,0.05,29,0)" xlink:href="#H"/><use transform="matrix(0.05,0,0,0.05,34.95,0)" xlink:href="#O"/><use transform="matrix(0.05,0,0,0.05,44.95,0)" xlink:href="#Q"/><use transform="matrix(0.05,0,0,0.05,54.95,0)" xlink:href="#H"/><use transform="matrix(0.05,0,0,0.05,60.900000000000006,0)" xlink:href="#H"/><use transform="matrix(0.05,0,0,0.05,66.85000000000001,0)" xlink:href="#S"/><use transform="matrix(0.05,0,0,0.05,76.85000000000001,0)" xlink:href="#H"/></g><g id="h"><use transform="matrix(0.05,0,0,0.05,0,0)" xlink:href="#Q"/><use transform="matrix(0.05,0,0,0.05,10,0)" xlink:href="#H"/><use transform="matrix(0.05,0,0,0.05,15.949999999999998,0)" xlink:href="#H"/><use transform="matrix(0.05,0,0,0.05,21.9,0)" xlink:href="#S"/><use transform="matrix(0.05,0,0,0.05,31.899999999999995,0)" xlink:href="#H"/><use transform="matrix(0.05,0,0,0.05,37.85,0)" xlink:href="#O"/><use transform="matrix(0.05,0,0,0.05,47.85,0)" xlink:href="#H"/><use transform="matrix(0.05,0,0,0.05,53.800000000000004,0)" xlink:href="#J"/><use transform="matrix(0.05,0,0,0.05,63.800000000000004,0)" xlink:href="#K"/><use transform="matrix(0.05,0,0,0.05,73.80000000000001,0)" xlink:href="#U"/></g><path d="M26 75v-336h71v23H56V52h41v23H26" id="Z"/><path d="M39-94c74 12-11 154 75 146v23c-44 4-70-10-70-52C44-23 55-84 6-82v-22c81 4-7-162 84-157h24v23c-82-15-2 131-75 144" id="aa"/><g id="i"><use transform="matrix(0.05,0,0,0.05,0,0)" xlink:href="#Z"/><use transform="matrix(0.05,0,0,0.05,5,0)" xlink:href="#aa"/></g><g id="j"><use transform="matrix(0.05,0,0,0.05,0,0)" xlink:href="#Q"/><use transform="matrix(0.05,0,0,0.05,10,0)" xlink:href="#H"/><use transform="matrix(0.05,0,0,0.05,15.949999999999998,0)" xlink:href="#H"/><use transform="matrix(0.05,0,0,0.05,21.9,0)" xlink:href="#S"/><use transform="matrix(0.05,0,0,0.05,31.899999999999995,0)" xlink:href="#H"/><use transform="matrix(0.05,0,0,0.05,37.85,0)" xlink:href="#O"/><use transform="matrix(0.05,0,0,0.05,47.85,0)" xlink:href="#T"/><use transform="matrix(0.05,0,0,0.05,62.800000000000004,0)" xlink:href="#U"/><use transform="matrix(0.05,0,0,0.05,71.80000000000001,0)" xlink:href="#V"/><use transform="matrix(0.05,0,0,0.05,81.80000000000001,0)" xlink:href="#W"/></g><path d="M68-38c1 34 0 65-14 84H32c9-13 17-26 17-46H33v-38h35" id="ab"/><g id="k"><use transform="matrix(0.05,0,0,0.05,0,0)" xlink:href="#X"/><use transform="matrix(0.05,0,0,0.05,10.5,0)" xlink:href="#U"/><use transform="matrix(0.05,0,0,0.05,19.5,0)" xlink:href="#F"/><use transform="matrix(0.05,0,0,0.05,24.5,0)" xlink:href="#H"/><use transform="matrix(0.05,0,0,0.05,30.450000000000003,0)" xlink:href="#Y"/><use transform="matrix(0.05,0,0,0.05,40.95,0)" xlink:href="#ab"/></g><path d="M101-234c-31-9-42 10-38 44h38v23H63V0H32v-167H5v-23h27c-7-52 17-82 69-68v24" id="ac"/><g id="l"><use transform="matrix(0.05,0,0,0.05,0,0)" xlink:href="#ac"/><use transform="matrix(0.05,0,0,0.05,5,0)" xlink:href="#P"/><use transform="matrix(0.05,0,0,0.05,8.95,0)" xlink:href="#R"/><use transform="matrix(0.05,0,0,0.05,12.899999999999999,0)" xlink:href="#Q"/><use transform="matrix(0.05,0,0,0.05,22.9,0)" xlink:href="#W"/></g><g id="m"><use transform="matrix(0.05,0,0,0.05,0,0)" xlink:href="#X"/><use transform="matrix(0.05,0,0,0.05,10.5,0)" xlink:href="#U"/><use transform="matrix(0.05,0,0,0.05,19.5,0)" xlink:href="#F"/><use transform="matrix(0.05,0,0,0.05,24.5,0)" xlink:href="#H"/><use transform="matrix(0.05,0,0,0.05,30.450000000000003,0)" xlink:href="#Y"/></g><path d="M76-40C78 24 84 88 6 75V52C86 64 9-79 80-94c-40-6-34-59-34-106 1-29-11-41-40-38v-23c44-4 70 10 70 52 0 47-12 108 38 105v22c-26 1-39 14-38 42" id="ad"/><path d="M3 75V52h41v-290H3v-23h71V75H3" id="ae"/><g id="n"><use transform="matrix(0.05,0,0,0.05,0,0)" xlink:href="#ad"/><use transform="matrix(0.05,0,0,0.05,6,0)" xlink:href="#ae"/></g><path d="M85-194c31 0 48 13 60 33l-1-100h32l1 261h-30c-2-10 0-23-3-31C134-8 116 4 85 4 32 4 16-35 15-94c0-66 23-100 70-100zm9 24c-40 0-46 34-46 75 0 40 6 74 45 74 42 0 51-32 51-76 0-42-9-74-50-73" id="af"/><g id="o"><use transform="matrix(0.05,0,0,0.05,0,0)" xlink:href="#L"/><use transform="matrix(0.05,0,0,0.05,10,0)" xlink:href="#G"/><use transform="matrix(0.05,0,0,0.05,20,0)" xlink:href="#F"/><use transform="matrix(0.05,0,0,0.05,25,0)" xlink:href="#M"/><use transform="matrix(0.05,0,0,0.05,34,0)" xlink:href="#N"/><use transform="matrix(0.05,0,0,0.05,44,0)" xlink:href="#O"/><use transform="matrix(0.05,0,0,0.05,54,0)" xlink:href="#U"/><use transform="matrix(0.05,0,0,0.05,63,0)" xlink:href="#F"/><use transform="matrix(0.05,0,0,0.05,68,0)" xlink:href="#G"/><use transform="matrix(0.05,0,0,0.05,78,0)" xlink:href="#H"/><use transform="matrix(0.05,0,0,0.05,83.95,0)" xlink:href="#F"/><use transform="matrix(0.05,0,0,0.05,88.95,0)" xlink:href="#Q"/><use transform="matrix(0.05,0,0,0.05,98.95,0)" xlink:href="#af"/></g><g id="p"><use transform="matrix(0.05,0,0,0.05,0,0)" xlink:href="#ac"/><use transform="matrix(0.05,0,0,0.05,5,0)" xlink:href="#P"/><use transform="matrix(0.05,0,0,0.05,8.95,0)" xlink:href="#R"/><use transform="matrix(0.05,0,0,0.05,12.899999999999999,0)" xlink:href="#Q"/><use transform="matrix(0.05,0,0,0.05,22.9,0)" xlink:href="#W"/></g><g id="q"><use transform="matrix(0.05,0,0,0.05,0,0)" xlink:href="#X"/><use transform="matrix(0.05,0,0,0.05,10.5,0)" xlink:href="#U"/><use transform="matrix(0.05,0,0,0.05,19.5,0)" xlink:href="#F"/><use transform="matrix(0.05,0,0,0.05,24.5,0)" xlink:href="#H"/><use transform="matrix(0.05,0,0,0.05,30.450000000000003,0)" xlink:href="#Y"/></g><path d="M108 0H70L1-190h34L89-25l56-165h34" id="ag"/><g id="r"><use transform="matrix(0.05,0,0,0.05,0,0)" xlink:href="#H"/><use transform="matrix(0.05,0,0,0.05,5.95,0)" xlink:href="#J"/><use transform="matrix(0.05,0,0,0.05,15.949999999999998,0)" xlink:href="#K"/><use transform="matrix(0.05,0,0,0.05,25.950000000000003,0)" xlink:href="#U"/><use transform="matrix(0.05,0,0,0.05,34.95,0)" xlink:href="#O"/><use transform="matrix(0.05,0,0,0.05,44.95,0)" xlink:href="#ag"/><use transform="matrix(0.05,0,0,0.05,53.95,0)" xlink:href="#G"/><use transform="matrix(0.05,0,0,0.05,63.95,0)" xlink:href="#R"/><use transform="matrix(0.05,0,0,0.05,67.9,0)" xlink:href="#P"/><use transform="matrix(0.05,0,0,0.05,71.85000000000001,0)" xlink:href="#af"/><use transform="matrix(0.05,0,0,0.05,81.85000000000001,0)" xlink:href="#G"/><use transform="matrix(0.05,0,0,0.05,91.85000000000001,0)" xlink:href="#F"/><use transform="matrix(0.05,0,0,0.05,96.85000000000001,0)" xlink:href="#Q"/><use transform="matrix(0.05,0,0,0.05,106.85000000000001,0)" xlink:href="#af"/></g><path d="M206 0h-36l-40-164L89 0H53L-1-190h32L70-26l43-164h34l41 164 42-164h31" id="ah"/><g id="s"><use transform="matrix(0.05,0,0,0.05,0,0)" xlink:href="#ah"/><use transform="matrix(0.05,0,0,0.05,12.950000000000001,0)" xlink:href="#G"/><use transform="matrix(0.05,0,0,0.05,22.950000000000003,0)" xlink:href="#H"/><use transform="matrix(0.05,0,0,0.05,28.900000000000002,0)" xlink:href="#K"/><use transform="matrix(0.05,0,0,0.05,38.900000000000006,0)" xlink:href="#P"/><use transform="matrix(0.05,0,0,0.05,42.85000000000001,0)" xlink:href="#K"/><use transform="matrix(0.05,0,0,0.05,52.85,0)" xlink:href="#V"/><use transform="matrix(0.05,0,0,0.05,62.85,0)" xlink:href="#O"/><use transform="matrix(0.05,0,0,0.05,72.85000000000001,0)" xlink:href="#H"/><use transform="matrix(0.05,0,0,0.05,78.80000000000001,0)" xlink:href="#J"/><use transform="matrix(0.05,0,0,0.05,88.80000000000001,0)" xlink:href="#K"/><use transform="matrix(0.05,0,0,0.05,98.80000000000001,0)" xlink:href="#U"/></g><g id="t"><use transform="matrix(0.05,0,0,0.05,0,0)" xlink:href="#ah"/><use transform="matrix(0.05,0,0,0.05,12.950000000000001,0)" xlink:href="#G"/><use transform="matrix(0.05,0,0,0.05,22.950000000000003,0)" xlink:href="#H"/><use transform="matrix(0.05,0,0,0.05,28.900000000000002,0)" xlink:href="#K"/><use transform="matrix(0.05,0,0,0.05,38.900000000000006,0)" xlink:href="#P"/><use transform="matrix(0.05,0,0,0.05,42.85000000000001,0)" xlink:href="#K"/><use transform="matrix(0.05,0,0,0.05,52.85,0)" xlink:href="#V"/><use transform="matrix(0.05,0,0,0.05,62.85,0)" xlink:href="#U"/><use transform="matrix(0.05,0,0,0.05,71.85000000000001,0)" xlink:href="#W"/></g><g id="u"><use transform="matrix(0.05,0,0,0.05,0,0)" xlink:href="#Z"/><use transform="matrix(0.05,0,0,0.05,5,0)" xlink:href="#X"/><use transform="matrix(0.05,0,0,0.05,15.5,0)" xlink:href="#U"/><use transform="matrix(0.05,0,0,0.05,24.5,0)" xlink:href="#F"/><use transform="matrix(0.05,0,0,0.05,29.5,0)" xlink:href="#H"/><use transform="matrix(0.05,0,0,0.05,35.45,0)" xlink:href="#Y"/><use transform="matrix(0.05,0,0,0.05,45.95,0)" xlink:href="#ae"/><use transform="matrix(0.05,0,0,0.05,50.95,0)" xlink:href="#ad"/><use transform="matrix(0.05,0,0,0.05,56.95,0)" xlink:href="#ae"/></g><g id="v"><use transform="matrix(0.05,0,0,0.05,0,0)" xlink:href="#H"/><use transform="matrix(0.05,0,0,0.05,5.95,0)" xlink:href="#J"/><use transform="matrix(0.05,0,0,0.05,15.949999999999998,0)" xlink:href="#K"/><use transform="matrix(0.05,0,0,0.05,25.950000000000003,0)" xlink:href="#O"/><use transform="matrix(0.05,0,0,0.05,35.95,0)" xlink:href="#U"/><use transform="matrix(0.05,0,0,0.05,44.95,0)" xlink:href="#F"/><use transform="matrix(0.05,0,0,0.05,49.95,0)" xlink:href="#G"/><use transform="matrix(0.05,0,0,0.05,59.95,0)" xlink:href="#H"/><use transform="matrix(0.05,0,0,0.05,65.9,0)" xlink:href="#F"/><use transform="matrix(0.05,0,0,0.05,70.9,0)" xlink:href="#Q"/><use transform="matrix(0.05,0,0,0.05,80.9,0)" xlink:href="#af"/></g><path d="M145-31C134-9 116 4 85 4 32 4 16-35 15-94c0-59 17-99 70-100 32-1 48 14 60 33 0-11-1-24 2-32h30l-1 268h-32zM93-21c41 0 51-33 51-76s-8-73-50-73c-40 0-46 35-46 75s5 74 45 74" id="ai"/><path d="M179-190L93 31C79 59 56 82 12 73V49c39 6 53-20 64-50L1-190h34L92-34l54-156h33" id="aj"/><g id="w"><use transform="matrix(0.05,0,0,0.05,0,0)" xlink:href="#ai"/><use transform="matrix(0.05,0,0,0.05,10,0)" xlink:href="#J"/><use transform="matrix(0.05,0,0,0.05,20,0)" xlink:href="#Q"/><use transform="matrix(0.05,0,0,0.05,30,0)" xlink:href="#H"/><use transform="matrix(0.05,0,0,0.05,35.95,0)" xlink:href="#aj"/><use transform="matrix(0.05,0,0,0.05,44.95,0)" xlink:href="#O"/><use transform="matrix(0.05,0,0,0.05,54.95,0)" xlink:href="#U"/><use transform="matrix(0.05,0,0,0.05,63.95,0)" xlink:href="#F"/><use transform="matrix(0.05,0,0,0.05,68.95,0)" xlink:href="#G"/><use transform="matrix(0.05,0,0,0.05,78.95,0)" xlink:href="#H"/><use transform="matrix(0.05,0,0,0.05,84.9,0)" xlink:href="#F"/><use transform="matrix(0.05,0,0,0.05,89.9,0)" xlink:href="#Q"/><use transform="matrix(0.05,0,0,0.05,99.9,0)" xlink:href="#af"/></g><g id="x"><use transform="matrix(0.05,0,0,0.05,0,0)" xlink:href="#ai"/><use transform="matrix(0.05,0,0,0.05,10,0)" xlink:href="#J"/><use transform="matrix(0.05,0,0,0.05,20,0)" xlink:href="#Q"/><use transform="matrix(0.05,0,0,0.05,30,0)" xlink:href="#H"/><use transform="matrix(0.05,0,0,0.05,35.95,0)" xlink:href="#aj"/><use transform="matrix(0.05,0,0,0.05,44.95,0)" xlink:href="#O"/><use transform="matrix(0.05,0,0,0.05,54.95,0)" xlink:href="#Q"/><use transform="matrix(0.05,0,0,0.05,64.95,0)" xlink:href="#K"/><use transform="matrix(0.05,0,0,0.05,74.95,0)" xlink:href="#af"/><use transform="matrix(0.05,0,0,0.05,84.95,0)" xlink:href="#Q"/><use transform="matrix(0.05,0,0,0.05,94.95,0)" xlink:href="#af"/></g><g id="y"><use transform="matrix(0.05,0,0,0.05,0,0)" xlink:href="#X"/><use transform="matrix(0.05,0,0,0.05,10.5,0)" xlink:href="#U"/><use transform="matrix(0.05,0,0,0.05,19.5,0)" xlink:href="#F"/><use transform="matrix(0.05,0,0,0.05,24.5,0)" xlink:href="#H"/><use transform="matrix(0.05,0,0,0.05,30.450000000000003,0)" xlink:href="#Y"/></g><g id="z"><use transform="matrix(0.05,0,0,0.05,0,0)" xlink:href="#U"/><use transform="matrix(0.05,0,0,0.05,9,0)" xlink:href="#F"/><use transform="matrix(0.05,0,0,0.05,14,0)" xlink:href="#G"/><use transform="matrix(0.05,0,0,0.05,24,0)" xlink:href="#F"/><use transform="matrix(0.05,0,0,0.05,29,0)" xlink:href="#J"/><use transform="matrix(0.05,0,0,0.05,39,0)" xlink:href="#U"/><use transform="matrix(0.05,0,0,0.05,48,0)" xlink:href="#W"/></g><g id="A"><use transform="matrix(0.05,0,0,0.05,0,0)" xlink:href="#H"/><use transform="matrix(0.05,0,0,0.05,5.95,0)" xlink:href="#J"/><use transform="matrix(0.05,0,0,0.05,15.949999999999998,0)" xlink:href="#K"/><use transform="matrix(0.05,0,0,0.05,25.950000000000003,0)" xlink:href="#O"/><use transform="matrix(0.05,0,0,0.05,35.95,0)" xlink:href="#Q"/><use transform="matrix(0.05,0,0,0.05,45.95,0)" xlink:href="#K"/><use transform="matrix(0.05,0,0,0.05,55.95,0)" xlink:href="#af"/><use transform="matrix(0.05,0,0,0.05,65.95,0)" xlink:href="#Q"/><use transform="matrix(0.05,0,0,0.05,75.95,0)" xlink:href="#af"/></g><g id="B"><use transform="matrix(0.05,0,0,0.05,0,0)" xlink:href="#L"/><use transform="matrix(0.05,0,0,0.05,10,0)" xlink:href="#G"/><use transform="matrix(0.05,0,0,0.05,20,0)" xlink:href="#F"/><use transform="matrix(0.05,0,0,0.05,25,0)" xlink:href="#M"/><use transform="matrix(0.05,0,0,0.05,34,0)" xlink:href="#N"/><use transform="matrix(0.05,0,0,0.05,44,0)" xlink:href="#O"/><use transform="matrix(0.05,0,0,0.05,54,0)" xlink:href="#Q"/><use transform="matrix(0.05,0,0,0.05,64,0)" xlink:href="#K"/><use transform="matrix(0.05,0,0,0.05,74,0)" xlink:href="#af"/><use transform="matrix(0.05,0,0,0.05,84,0)" xlink:href="#Q"/><use transform="matrix(0.05,0,0,0.05,94,0)" xlink:href="#af"/></g><g id="C"><use transform="matrix(0.05,0,0,0.05,0,0)" xlink:href="#ai"/><use transform="matrix(0.05,0,0,0.05,10,0)" xlink:href="#J"/><use transform="matrix(0.05,0,0,0.05,20,0)" xlink:href="#Q"/><use transform="matrix(0.05,0,0,0.05,30,0)" xlink:href="#H"/><use transform="matrix(0.05,0,0,0.05,35.95,0)" xlink:href="#aj"/><use transform="matrix(0.05,0,0,0.05,44.95,0)" xlink:href="#O"/><use transform="matrix(0.05,0,0,0.05,54.95,0)" xlink:href="#P"/><use transform="matrix(0.05,0,0,0.05,58.900000000000006,0)" xlink:href="#K"/><use transform="matrix(0.05,0,0,0.05,68.9,0)" xlink:href="#F"/><use transform="matrix(0.05,0,0,0.05,73.9,0)" xlink:href="#Q"/><use transform="matrix(0.05,0,0,0.05,83.9,0)" xlink:href="#H"/><use transform="matrix(0.05,0,0,0.05,89.85000000000001,0)" xlink:href="#K"/><use transform="matrix(0.05,0,0,0.05,99.85000000000001,0)" xlink:href="#G"/><use transform="matrix(0.05,0,0,0.05,109.85000000000001,0)" xlink:href="#R"/><use transform="matrix(0.05,0,0,0.05,113.80000000000001,0)" xlink:href="#O"/><use transform="matrix(0.05,0,0,0.05,123.80000000000001,0)" xlink:href="#Q"/><use transform="matrix(0.05,0,0,0.05,133.8,0)" xlink:href="#H"/><use transform="matrix(0.05,0,0,0.05,139.75,0)" xlink:href="#H"/><use transform="matrix(0.05,0,0,0.05,145.7,0)" xlink:href="#S"/><use transform="matrix(0.05,0,0,0.05,155.7,0)" xlink:href="#H"/></g><path d="M141 0L90-78 38 0H4l68-98-65-92h35l48 74 47-74h35l-64 92 68 98h-35" id="ak"/><g id="D"><use transform="matrix(0.05,0,0,0.05,0,0)" xlink:href="#Q"/><use transform="matrix(0.05,0,0,0.05,10,0)" xlink:href="#ak"/><use transform="matrix(0.05,0,0,0.05,19,0)" xlink:href="#P"/><use transform="matrix(0.05,0,0,0.05,22.95,0)" xlink:href="#F"/></g></defs></g></svg>