<svg xmlns="http://www.w3.org/2000/svg" xmlns:xlink="http://www.w3.org/1999/xlink" xmlns:lucid="lucid" width="1660" height="940"><g transform="translate(-19.999999999999986 -20)" lucid:page-tab-id="0_0"><path d="M0 0h1870.4v1323.2H0z" fill="#fff"/><path d="M440 140h1220v640H440z" fill-opacity="0"/><path d="M459.84 140h19.83m9.92 0h19.83m9.92 0h19.84m9.9 0h19.84m9.92 0h19.84m9.92 0h19.84m9.9 0h19.85m9.93 0h19.84m9.92 0h19.82m9.92 0h19.84m9.92 0h19.84m9.9 0H807m9.9 0h19.85m9.92 0h19.83m9.92 0h19.84m9.92 0h19.84m9.9 0h19.85m9.92 0h19.83m9.92 0h19.83m9.92 0h19.84m9.92 0h19.84m9.92 0h19.83m9.92 0h19.84m9.93 0h19.84m9.9 0h19.85m9.92 0h19.84m9.92 0h19.83m9.92 0h19.84m9.9 0h19.85m9.9 0h19.85m9.92 0h19.84m9.92 0h19.83m9.93 0h19.84m9.92 0h19.83m9.9 0h19.85m9.92 0h19.84m9.92 0h19.83m9.9 0h19.85m9.92 0h19.84m9.93 0h19.83m9.92 0h9.92v10.16m0 10.16v20.3m0 10.17v20.3m0 10.17v20.32m0 10.15v20.3m0 10.17v20.32m0 10.16v20.32m0 10.15v20.32m0 10.15v20.32m0 10.16v20.3m0 10.17v20.32m0 10.16v20.32m0 10.16v20.3m0 10.17v20.32m0 10.16v20.33m0 10.15v20.32m0 10.16v20.32m0 10.16v20.3m0 10.17v20.33m0 10.16v20.3m0 10.17v20.3m0 10.17V780h-9.92m-9.92 0h-19.83m-9.92 0h-19.83m-9.92 0h-19.84m-9.9 0h-19.84m-9.92 0h-19.84m-9.92 0h-19.84m-9.9 0h-19.85m-9.93 0h-19.84m-9.92 0h-19.82m-9.92 0h-19.84m-9.92 0h-19.84m-9.9 0H1293m-9.9 0h-19.85m-9.92 0h-19.83m-9.92 0h-19.84m-9.92 0h-19.84m-9.9 0h-19.85m-9.92 0h-19.83m-9.92 0h-19.83m-9.92 0h-19.84m-9.92 0h-19.84m-9.92 0h-19.83m-9.92 0H965.7m-9.93 0h-19.84m-9.9 0h-19.85m-9.92 0h-19.84m-9.92 0h-19.83m-9.92 0H816.9m-9.9 0h-19.85m-9.9 0H757.4m-9.92 0h-19.84m-9.92 0H697.9m-9.93 0h-19.84m-9.92 0h-19.83m-9.9 0H608.6m-9.92 0h-19.84m-9.92 0H549.1m-9.9 0h-19.85m-9.92 0H489.6m-9.93 0h-19.83m-9.92 0H440v-10.16m0-10.16v-20.3m0-10.17v-20.3m0-10.17V678.4m0-10.15v-20.3m0-10.17v-20.32m0-10.16v-20.32m0-10.15V556.5m0-10.15v-20.32m0-10.16v-20.3m0-10.17v-20.32m0-10.16V434.6m0-10.16v-20.3m0-10.17v-20.32m0-10.16v-20.33m0-10.15V312.7m0-10.16v-20.32m0-10.16v-20.3m0-10.17v-20.33m0-10.16v-20.3m0-10.17v-20.3m0-10.17V140h9.92" stroke="#999" stroke-width="2" fill="none"/><path d="M370 100c0 11.05-8.95 20-20 20s-20-8.95-20-20 8.95-20 20-20 20 8.95 20 20z" stroke="#000" stroke-width="2"/><path d="M328 100H130v60.5" stroke="#000" stroke-width="2" fill="none"/><path d="M329 99.96l.03 1.04h-1.06v-2h1.15z"/><path d="M130 175.76l-4.64-14.26h9.28z" stroke="#000" stroke-width="2"/><path d="M372 100h188v60.5" stroke="#000" stroke-width="2" fill="none"/><path d="M372.03 101h-1.15l.12-.96-.03-1.04h1.06z"/><path d="M560 175.76l-4.64-14.26h9.28z" stroke="#000" stroke-width="2"/><path d="M150 400c0 11.05-8.95 20-20 20s-20-8.95-20-20 8.95-20 20-20 20 8.95 20 20z" stroke="#000" stroke-width="2" fill="#fff"/><path d="M115.86 385.86l28.28 28.28m0-28.28l-28.28 28.28M130 302v58.5" stroke="#000" stroke-width="2" fill="none"/><path d="M131 302.03h-2V301h2z"/><path d="M130 375.76l-4.64-14.26h9.28z" stroke="#000" stroke-width="2"/><path d="M280 40h140v40H280z" stroke="#000" stroke-opacity="0" stroke-width="2" fill="#fff" fill-opacity="0"/><use xlink:href="#a" transform="matrix(1,0,0,1,285,45) translate(27.049999999999997 18.15)"/><use xlink:href="#b" transform="matrix(1,0,0,1,285,45) translate(70 18.15)"/><path d="M478 240H310v140.5" stroke="#000" stroke-width="2" fill="none"/><path d="M479 241h-1.03v-2H479z"/><path d="M310 395.76l-4.64-14.26h9.28z" stroke="#000" stroke-width="2"/><path d="M310 542v58.5" stroke="#000" stroke-width="2" fill="none"/><path d="M311 542.03h-2V541h2z"/><path d="M310 615.76l-4.64-14.26h9.28z" stroke="#000" stroke-width="2"/><path d="M330 640c0 11.05-8.95 20-20 20s-20-8.95-20-20 8.95-20 20-20 20 8.95 20 20z" stroke="#000" stroke-width="2" fill="#fff"/><path d="M295.86 625.86l28.28 28.28m0-28.28l-28.28 28.28M642 240h58.5" stroke="#000" stroke-width="2" fill="none"/><path d="M642.03 241H641v-2h1.03z"/><path d="M715.76 240l-14.26 4.64v-9.28z" stroke="#000" stroke-width="2"/><path d="M64 180c-13.25 0-24 10.75-24 24v72c0 13.25 10.75 24 24 24h132c13.25 0 24-10.75 24-24v-72c0-13.25-10.75-24-24-24z" stroke="#c92d39" stroke-width="2" fill="#c92d39" fill-opacity=".2"/><path d="M40 224h180" stroke="#c92d39" stroke-width="2" fill="none"/><use xlink:href="#c" transform="matrix(1,0,0,1,76,180) translate(-15.299999999999997 25.6)"/><use xlink:href="#d" transform="matrix(1,0,0,1,57.999999999999986,240) translate(3.625 25.6)"/><use xlink:href="#e" transform="matrix(1,0,0,1,57.999999999999986,240) translate(90.42500000000001 25.6)"/><use xlink:href="#f" transform="matrix(1,0,0,1,57.999999999999986,240) translate(100.42500000000001 25.6)"/><path d="M248 400c-15.46 0-28 12.54-28 28v84c0 15.46 12.54 28 28 28h124c15.46 0 28-12.54 28-28v-84c0-15.46-12.54-28-28-28z" stroke="#c92d39" stroke-width="2" fill="#c92d39" fill-opacity=".2"/><path d="M220 444h180" stroke="#c92d39" stroke-width="2" fill="none"/><use xlink:href="#g" transform="matrix(1,0,0,1,256,400) translate(12.599999999999994 25.6)"/><use xlink:href="#h" transform="matrix(1,0,0,1,238.00000000000003,460) translate(17.599999999999994 14.4)"/><use xlink:href="#e" transform="matrix(1,0,0,1,238.00000000000003,460) translate(105.4 14.4)"/><use xlink:href="#i" transform="matrix(1,0,0,1,238.00000000000003,460) translate(115.4 14.4)"/><use xlink:href="#j" transform="matrix(1,0,0,1,238.00000000000003,460) translate(3.125 36)"/><use xlink:href="#k" transform="matrix(1,0,0,1,238.00000000000003,460) translate(94.92500000000001 36)"/><use xlink:href="#l" transform="matrix(1,0,0,1,238.00000000000003,460) translate(27.075000000000003 57.6)"/><use xlink:href="#m" transform="matrix(1,0,0,1,238.00000000000003,460) translate(59.975 57.6)"/><use xlink:href="#n" transform="matrix(1,0,0,1,238.00000000000003,460) translate(105.925 57.6)"/><path d="M504 180c-13.25 0-24 10.75-24 24v72c0 13.25 10.75 24 24 24h112c13.25 0 24-10.75 24-24v-72c0-13.25-10.75-24-24-24z" stroke="#0c7cba" stroke-width="2" fill="#0c7cba" fill-opacity=".2"/><path d="M480 224h160" stroke="#0c7cba" stroke-width="2" fill="none"/><use xlink:href="#o" transform="matrix(1,0,0,1,512,180) translate(-6.475000000000001 25.6)"/><use xlink:href="#p" transform="matrix(1,0,0,1,496,240) translate(27.075000000000003 25.6)"/><use xlink:href="#f" transform="matrix(1,0,0,1,496,240) translate(59.975 25.6)"/><path d="M748 170c-15.46 0-28 12.54-28 28v84c0 15.46 12.54 28 28 28h144c15.46 0 28-12.54 28-28v-84c0-15.46-12.54-28-28-28z" stroke="#7ab648" stroke-width="2" fill="#7ab648" fill-opacity=".2"/><path d="M720 214h200" stroke="#7ab648" stroke-width="2" fill="none"/><use xlink:href="#q" transform="matrix(1,0,0,1,760,170) translate(1.5749999999999957 25.6)"/><use xlink:href="#r" transform="matrix(1,0,0,1,740,230) translate(13.099999999999994 14.4)"/><use xlink:href="#e" transform="matrix(1,0,0,1,740,230) translate(125.9 14.4)"/><use xlink:href="#i" transform="matrix(1,0,0,1,740,230) translate(135.9 14.4)"/><use xlink:href="#l" transform="matrix(1,0,0,1,740,230) translate(40.575 36)"/><use xlink:href="#k" transform="matrix(1,0,0,1,740,230) translate(73.475 36)"/><use xlink:href="#s" transform="matrix(1,0,0,1,740,230) translate(8.099999999999994 57.6)"/><use xlink:href="#t" transform="matrix(1,0,0,1,740,230) translate(89.95 57.6)"/><path d="M764 400c-13.25 0-24 10.75-24 24v72c0 13.25 10.75 24 24 24h112c13.25 0 24-10.75 24-24v-72c0-13.25-10.75-24-24-24z" stroke="#0c7cba" stroke-width="2" fill="#0c7cba" fill-opacity=".2"/><path d="M740 444h160" stroke="#0c7cba" stroke-width="2" fill="none"/><use xlink:href="#u" transform="matrix(1,0,0,1,772,400) translate(2.549999999999997 25.6)"/><use xlink:href="#p" transform="matrix(1,0,0,1,756,460) translate(27.075000000000003 25.6)"/><use xlink:href="#f" transform="matrix(1,0,0,1,756,460) translate(59.975 25.6)"/><path d="M820 312v68.5" stroke="#000" stroke-width="2" fill="none"/><path d="M821 312.03h-2V311h2z"/><path d="M820 395.76l-4.64-14.26h9.28z" stroke="#000" stroke-width="2"/><path d="M1006.2 400c-13.27 0-24 10.75-24 24v72c0 13.25 10.73 24 24 24h112c13.24 0 24-10.75 24-24v-72c0-13.25-10.76-24-24-24z" stroke="#0c7cba" stroke-width="2" fill="#0c7cba" fill-opacity=".2"/><path d="M982.2 444h160" stroke="#0c7cba" stroke-width="2" fill="none"/><use xlink:href="#v" transform="matrix(1,0,0,1,1014.1875,400) translate(-6.950000000000003 25.6)"/><use xlink:href="#p" transform="matrix(1,0,0,1,998.1875,460) translate(27.075000000000003 25.6)"/><use xlink:href="#f" transform="matrix(1,0,0,1,998.1875,460) translate(59.975 25.6)"/><path d="M902 460h60.7" stroke="#000" stroke-width="2" fill="none"/><path d="M902.03 461H901v-2h1.03z"/><path d="M977.95 460l-14.26 4.64v-9.28z" stroke="#000" stroke-width="2"/><path d="M1245.1 400c-13.26 0-24 10.75-24 24v72c0 13.25 10.74 24 24 24h112c13.25 0 24-10.75 24-24v-72c0-13.25-10.75-24-24-24z" stroke="#7ab648" stroke-width="2" fill="#7ab648" fill-opacity=".2"/><path d="M1221.1 444h160" stroke="#7ab648" stroke-width="2" fill="none"/><use xlink:href="#w" transform="matrix(1,0,0,1,1253.09375,400) translate(-4.475000000000001 25.6)"/><use xlink:href="#p" transform="matrix(1,0,0,1,1237.09375,460) translate(27.075000000000003 14.799999999999999)"/><use xlink:href="#x" transform="matrix(1,0,0,1,1237.09375,460) translate(59.975 14.799999999999999)"/><use xlink:href="#y" transform="matrix(1,0,0,1,1237.09375,460) translate(14.524999999999999 36.4)"/><use xlink:href="#f" transform="matrix(1,0,0,1,1237.09375,460) translate(72.525 36.4)"/><path d="M1144.2 460h57.4" stroke="#000" stroke-width="2" fill="none"/><path d="M1144.2 461h-1v-2h1z"/><path d="M1216.86 460l-14.27 4.64v-9.28z" stroke="#000" stroke-width="2"/><path d="M1267.76 398v-39H1094.2v21.5" stroke="#000" stroke-width="2" fill="none"/><path d="M1268.76 399h-2v-1.03h2z"/><path d="M1094.2 395.76l-4.65-14.26h9.27z" stroke="#000" stroke-width="2"/><path d="M1484 400c-13.25 0-24 10.75-24 24v72c0 13.25 10.75 24 24 24h112c13.25 0 24-10.75 24-24v-72c0-13.25-10.75-24-24-24z" stroke="#7ab648" stroke-width="2" fill="#7ab648" fill-opacity=".2"/><path d="M1460 444h160" stroke="#7ab648" stroke-width="2" fill="none"/><use xlink:href="#z" transform="matrix(1,0,0,1,1492,400) translate(5.024999999999999 25.6)"/><use xlink:href="#p" transform="matrix(1,0,0,1,1476,460) translate(27.075000000000003 14.799999999999999)"/><use xlink:href="#x" transform="matrix(1,0,0,1,1476,460) translate(59.975 14.799999999999999)"/><use xlink:href="#y" transform="matrix(1,0,0,1,1476,460) translate(14.524999999999999 36.4)"/><use xlink:href="#f" transform="matrix(1,0,0,1,1476,460) translate(72.525 36.4)"/><path d="M1383.1 460h57.4" stroke="#000" stroke-width="2" fill="none"/><path d="M1383.12 461h-1.03v-2h1.02z"/><path d="M1455.76 460l-14.26 4.64v-9.28z" stroke="#000" stroke-width="2"/><path d="M1504 522v39H820v-21.5" stroke="#000" stroke-width="2" fill="none"/><path d="M1505 522.03h-2V521h2z"/><path d="M820 524.24l4.64 14.26h-9.28z" stroke="#000" stroke-width="2"/><path d="M1484 620c-13.25 0-24 10.75-24 24v72c0 13.25 10.75 24 24 24h112c13.25 0 24-10.75 24-24v-72c0-13.25-10.75-24-24-24z" stroke="#7ab648" stroke-width="2" fill="#7ab648" fill-opacity=".2"/><path d="M1460 664h160" stroke="#7ab648" stroke-width="2" fill="none"/><use xlink:href="#A" transform="matrix(1,0,0,1,1492,620) translate(-4 25.6)"/><use xlink:href="#p" transform="matrix(1,0,0,1,1476,680) translate(27.075000000000003 25.6)"/><use xlink:href="#f" transform="matrix(1,0,0,1,1476,680) translate(59.975 25.6)"/><path d="M1574 522v78.5" stroke="#000" stroke-width="2" fill="none"/><path d="M1575 522.03h-2V521h2z"/><path d="M1574 615.76l-4.64-14.26h9.28z" stroke="#000" stroke-width="2"/><path d="M1540 742v78.5" stroke="#000" stroke-width="2" fill="none"/><path d="M1541 742.03h-2V741h2z"/><path d="M1540 835.76l-4.64-14.26h9.28z" stroke="#000" stroke-width="2"/><path d="M1560 860c0 11.05-8.95 20-20 20s-20-8.95-20-20 8.95-20 20-20 20 8.95 20 20z" stroke="#000" stroke-width="2" fill="#fff"/><path d="M1525.86 845.86l28.28 28.28m0-28.28l-28.28 28.28" stroke="#000" stroke-width="2" fill="none"/><path d="M1006.2 180c-13.27 0-24 10.75-24 24v72c0 13.25 10.73 24 24 24h152c13.24 0 24-10.75 24-24v-72c0-13.25-10.76-24-24-24z" stroke="#c92d39" stroke-width="2" fill="#c92d39" fill-opacity=".2"/><path d="M982.2 224h200" stroke="#c92d39" stroke-width="2" fill="none"/><use xlink:href="#B" transform="matrix(1,0,0,1,1022.1875,180) translate(-20.82499999999999 25.6)"/><use xlink:href="#p" transform="matrix(1,0,0,1,1002.1875,240) translate(43.075 14.799999999999999)"/><use xlink:href="#x" transform="matrix(1,0,0,1,1002.1875,240) translate(75.975 14.799999999999999)"/><use xlink:href="#j" transform="matrix(1,0,0,1,1002.1875,240) translate(13.625 36.4)"/><use xlink:href="#f" transform="matrix(1,0,0,1,1002.1875,240) translate(105.42500000000001 36.4)"/><path d="M1184.2 240H1540v140.5" stroke="#000" stroke-width="2" fill="none"/><path d="M1184.2 241h-1v-2h1z"/><path d="M1540 395.76l-4.64-14.26h9.28z" stroke="#000" stroke-width="2"/><path d="M1028.85 398v-78.5" stroke="#000" stroke-width="2" fill="none"/><path d="M1029.85 399h-2v-1.03h2z"/><path d="M1028.85 304.24l4.64 14.26h-9.28z" stroke="#000" stroke-width="2"/><path d="M80 420h100v40H80z" stroke="#000" stroke-opacity="0" stroke-width="2" fill="#fff" fill-opacity="0"/><g><use xlink:href="#C" transform="matrix(1,0,0,1,85,425) translate(31.025 18.15)"/></g><path d="M260 660h100v40H260z" stroke="#000" stroke-opacity="0" stroke-width="2" fill="#fff" fill-opacity="0"/><g><use xlink:href="#C" transform="matrix(1,0,0,1,265,665) translate(31.025 18.15)"/></g><path d="M1490 880h100v40h-100z" stroke="#000" stroke-opacity="0" stroke-width="2" fill="#fff" fill-opacity="0"/><g><use xlink:href="#C" transform="matrix(1,0,0,1,1495,885) translate(31.025 18.15)"/></g><path d="M774 820c-13.25 0-24 10.75-24 24v72c0 13.25 10.75 24 24 24h132c13.25 0 24-10.75 24-24v-72c0-13.25-10.75-24-24-24z" stroke="#c92d39" stroke-width="2" fill="#c92d39" fill-opacity=".2"/><path d="M750 864h180" stroke="#c92d39" stroke-width="2" fill="none"/><g><use xlink:href="#D" transform="matrix(1,0,0,1,786,820) translate(-26.349999999999994 25.6)"/></g><g><use xlink:href="#d" transform="matrix(1,0,0,1,768,880) translate(3.125 25.6)"/><use xlink:href="#e" transform="matrix(1,0,0,1,768,880) translate(89.92500000000001 25.6)"/><use xlink:href="#f" transform="matrix(1,0,0,1,768,880) translate(99.92500000000001 25.6)"/></g><path d="M748 880h-78.5" stroke="#000" stroke-width="2" fill="none"/><path d="M749 881h-1.03v-2H749z"/><path d="M654.24 880l14.26-4.64v9.28z" stroke="#000" stroke-width="2"/><path d="M650 880c0 11.05-8.95 20-20 20s-20-8.95-20-20 8.95-20 20-20 20 8.95 20 20z" stroke="#000" stroke-width="2" fill="#fff"/><path d="M615.86 865.86l28.28 28.28m0-28.28l-28.28 28.28" stroke="#000" stroke-width="2" fill="none"/><path d="M580 900h100v40H580z" stroke="#000" stroke-opacity="0" stroke-width="2" fill="#fff" fill-opacity="0"/><g><use xlink:href="#C" transform="matrix(1,0,0,1,585,905) translate(31.025 18.15)"/></g><path d="M1050 782v98H949.5" stroke="#000" stroke-width="2" fill="none"/><path d="M1051 782.03h-2V781h2z"/><path d="M934.24 880l14.26-4.64v9.28z" stroke="#000" stroke-width="2"/><defs><path d="M185-189c-5-48-123-54-124 2 14 75 158 14 163 119 3 78-121 87-175 55-17-10-28-26-33-46l33-7c5 56 141 63 141-1 0-78-155-14-162-118-5-82 145-84 179-34 5 7 8 16 11 25" id="E"/><path d="M59-47c-2 24 18 29 38 22v24C64 9 27 4 27-40v-127H5v-23h24l9-43h21v43h35v23H59v120" id="F"/><path d="M141-36C126-15 110 5 73 4 37 3 15-17 15-53c-1-64 63-63 125-63 3-35-9-54-41-54-24 1-41 7-42 31l-33-3c5-37 33-52 76-52 45 0 72 20 72 64v82c-1 20 7 32 28 27v20c-31 9-61-2-59-35zM48-53c0 20 12 33 32 33 41-3 63-29 60-74-43 2-92-5-92 41" id="G"/><path d="M114-163C36-179 61-72 57 0H25l-1-190h30c1 12-1 29 2 39 6-27 23-49 58-41v29" id="H"/><g id="a"><use transform="matrix(0.05,0,0,0.05,0,0)" xlink:href="#E"/><use transform="matrix(0.05,0,0,0.05,12,0)" xlink:href="#F"/><use transform="matrix(0.05,0,0,0.05,17,0)" xlink:href="#G"/><use transform="matrix(0.05,0,0,0.05,27,0)" xlink:href="#H"/><use transform="matrix(0.05,0,0,0.05,32.95,0)" xlink:href="#F"/></g><path d="M233-177c-1 41-23 64-60 70L243 0h-38l-65-103H63V0H30v-248c88 3 205-21 203 71zM63-129c60-2 137 13 137-47 0-61-80-42-137-45v92" id="I"/><path d="M84 4C-5 8 30-112 23-190h32v120c0 31 7 50 39 49 72-2 45-101 50-169h31l1 190h-30c-1-10 1-25-2-33-11 22-28 36-60 37" id="J"/><path d="M117-194c89-4 53 116 60 194h-32v-121c0-31-8-49-39-48C34-167 62-67 57 0H25l-1-190h30c1 10-1 24 2 32 11-22 29-35 61-36" id="K"/><g id="b"><use transform="matrix(0.05,0,0,0.05,0,0)" xlink:href="#I"/><use transform="matrix(0.05,0,0,0.05,12.950000000000001,0)" xlink:href="#J"/><use transform="matrix(0.05,0,0,0.05,22.950000000000003,0)" xlink:href="#K"/></g><path d="M24-231v-30h32v30H24zM24 0v-190h32V0H24" id="L"/><path d="M-5 72V49h209v23H-5" id="M"/><path d="M100-194c63 0 86 42 84 106H49c0 40 14 67 53 68 26 1 43-12 49-29l28 8c-11 28-37 45-77 45C44 4 14-33 15-96c1-61 26-98 85-98zm52 81c6-60-76-77-97-28-3 7-6 17-6 28h103" id="N"/><path d="M24 0v-261h32V0H24" id="O"/><path d="M100-194c62-1 85 37 85 99 1 63-27 99-86 99S16-35 15-95c0-66 28-99 85-99zM99-20c44 1 53-31 53-75 0-43-8-75-51-75s-53 32-53 75 10 74 51 75" id="P"/><g id="c"><use transform="matrix(0.05,0,0,0.05,0,0)" xlink:href="#L"/><use transform="matrix(0.05,0,0,0.05,3.95,0)" xlink:href="#K"/><use transform="matrix(0.05,0,0,0.05,13.949999999999998,0)" xlink:href="#L"/><use transform="matrix(0.05,0,0,0.05,17.9,0)" xlink:href="#F"/><use transform="matrix(0.05,0,0,0.05,22.9,0)" xlink:href="#M"/><use transform="matrix(0.05,0,0,0.05,32.9,0)" xlink:href="#L"/><use transform="matrix(0.05,0,0,0.05,36.85,0)" xlink:href="#K"/><use transform="matrix(0.05,0,0,0.05,46.85,0)" xlink:href="#F"/><use transform="matrix(0.05,0,0,0.05,51.85,0)" xlink:href="#N"/><use transform="matrix(0.05,0,0,0.05,61.85,0)" xlink:href="#H"/><use transform="matrix(0.05,0,0,0.05,67.8,0)" xlink:href="#K"/><use transform="matrix(0.05,0,0,0.05,77.8,0)" xlink:href="#G"/><use transform="matrix(0.05,0,0,0.05,87.8,0)" xlink:href="#O"/><use transform="matrix(0.05,0,0,0.05,91.75,0)" xlink:href="#M"/><use transform="matrix(0.05,0,0,0.05,101.75,0)" xlink:href="#N"/><use transform="matrix(0.05,0,0,0.05,111.75,0)" xlink:href="#H"/><use transform="matrix(0.05,0,0,0.05,117.7,0)" xlink:href="#H"/><use transform="matrix(0.05,0,0,0.05,123.65,0)" xlink:href="#P"/><use transform="matrix(0.05,0,0,0.05,133.65,0)" xlink:href="#H"/></g><path d="M210-169c-67 3-38 105-44 169h-31v-121c0-29-5-50-35-48C34-165 62-65 56 0H25l-1-190h30c1 10-1 24 2 32 10-44 99-50 107 0 11-21 27-35 58-36 85-2 47 119 55 194h-31v-121c0-29-5-49-35-48" id="Q"/><path d="M135-143c-3-34-86-38-87 0 15 53 115 12 119 90S17 21 10-45l28-5c4 36 97 45 98 0-10-56-113-15-118-90-4-57 82-63 122-42 12 7 21 19 24 35" id="R"/><path d="M177-190C167-65 218 103 67 71c-23-6-38-20-44-43l32-5c15 47 100 32 89-28v-30C133-14 115 1 83 1 29 1 15-40 15-95c0-56 16-97 71-98 29-1 48 16 59 35 1-10 0-23 2-32h30zM94-22c36 0 50-32 50-73 0-42-14-75-50-75-39 0-46 34-46 75s6 73 46 73" id="S"/><g id="d"><use transform="matrix(0.05,0,0,0.05,0,0)" xlink:href="#N"/><use transform="matrix(0.05,0,0,0.05,10,0)" xlink:href="#H"/><use transform="matrix(0.05,0,0,0.05,15.949999999999998,0)" xlink:href="#H"/><use transform="matrix(0.05,0,0,0.05,21.9,0)" xlink:href="#P"/><use transform="matrix(0.05,0,0,0.05,31.899999999999995,0)" xlink:href="#H"/><use transform="matrix(0.05,0,0,0.05,37.85,0)" xlink:href="#M"/><use transform="matrix(0.05,0,0,0.05,47.85,0)" xlink:href="#Q"/><use transform="matrix(0.05,0,0,0.05,62.800000000000004,0)" xlink:href="#R"/><use transform="matrix(0.05,0,0,0.05,71.80000000000001,0)" xlink:href="#S"/></g><path d="M33-154v-36h34v36H33zM33 0v-36h34V0H33" id="T"/><use transform="matrix(0.05,0,0,0.05,0,0)" xlink:href="#T" id="e"/><path d="M18-100v-36l175-74v27L42-118l151 64v27" id="U"/><path d="M18-27v-27l151-64-151-65v-27l175 74v36" id="V"/><g id="f"><use transform="matrix(0.05,0,0,0.05,0,0)" xlink:href="#U"/><use transform="matrix(0.05,0,0,0.05,10.5,0)" xlink:href="#R"/><use transform="matrix(0.05,0,0,0.05,19.5,0)" xlink:href="#F"/><use transform="matrix(0.05,0,0,0.05,24.5,0)" xlink:href="#H"/><use transform="matrix(0.05,0,0,0.05,30.450000000000003,0)" xlink:href="#V"/></g><g id="g"><use transform="matrix(0.05,0,0,0.05,0,0)" xlink:href="#J"/><use transform="matrix(0.05,0,0,0.05,10,0)" xlink:href="#R"/><use transform="matrix(0.05,0,0,0.05,19,0)" xlink:href="#N"/><use transform="matrix(0.05,0,0,0.05,29,0)" xlink:href="#H"/><use transform="matrix(0.05,0,0,0.05,34.95,0)" xlink:href="#M"/><use transform="matrix(0.05,0,0,0.05,44.95,0)" xlink:href="#N"/><use transform="matrix(0.05,0,0,0.05,54.95,0)" xlink:href="#H"/><use transform="matrix(0.05,0,0,0.05,60.900000000000006,0)" xlink:href="#H"/><use transform="matrix(0.05,0,0,0.05,66.85000000000001,0)" xlink:href="#P"/><use transform="matrix(0.05,0,0,0.05,76.85000000000001,0)" xlink:href="#H"/></g><g id="h"><use transform="matrix(0.05,0,0,0.05,0,0)" xlink:href="#N"/><use transform="matrix(0.05,0,0,0.05,10,0)" xlink:href="#H"/><use transform="matrix(0.05,0,0,0.05,15.949999999999998,0)" xlink:href="#H"/><use transform="matrix(0.05,0,0,0.05,21.9,0)" xlink:href="#P"/><use transform="matrix(0.05,0,0,0.05,31.899999999999995,0)" xlink:href="#H"/><use transform="matrix(0.05,0,0,0.05,37.85,0)" xlink:href="#M"/><use transform="matrix(0.05,0,0,0.05,47.85,0)" xlink:href="#H"/><use transform="matrix(0.05,0,0,0.05,53.800000000000004,0)" xlink:href="#J"/><use transform="matrix(0.05,0,0,0.05,63.800000000000004,0)" xlink:href="#K"/><use transform="matrix(0.05,0,0,0.05,73.80000000000001,0)" xlink:href="#R"/></g><path d="M26 75v-336h71v23H56V52h41v23H26" id="W"/><path d="M39-94c74 12-11 154 75 146v23c-44 4-70-10-70-52C44-23 55-84 6-82v-22c81 4-7-162 84-157h24v23c-82-15-2 131-75 144" id="X"/><g id="i"><use transform="matrix(0.05,0,0,0.05,0,0)" xlink:href="#W"/><use transform="matrix(0.05,0,0,0.05,5,0)" xlink:href="#X"/></g><g id="j"><use transform="matrix(0.05,0,0,0.05,0,0)" xlink:href="#N"/><use transform="matrix(0.05,0,0,0.05,10,0)" xlink:href="#H"/><use transform="matrix(0.05,0,0,0.05,15.949999999999998,0)" xlink:href="#H"/><use transform="matrix(0.05,0,0,0.05,21.9,0)" xlink:href="#P"/><use transform="matrix(0.05,0,0,0.05,31.899999999999995,0)" xlink:href="#H"/><use transform="matrix(0.05,0,0,0.05,37.85,0)" xlink:href="#M"/><use transform="matrix(0.05,0,0,0.05,47.85,0)" xlink:href="#Q"/><use transform="matrix(0.05,0,0,0.05,62.800000000000004,0)" xlink:href="#R"/><use transform="matrix(0.05,0,0,0.05,71.80000000000001,0)" xlink:href="#S"/><use transform="matrix(0.05,0,0,0.05,81.80000000000001,0)" xlink:href="#T"/></g><path d="M68-38c1 34 0 65-14 84H32c9-13 17-26 17-46H33v-38h35" id="Y"/><g id="k"><use transform="matrix(0.05,0,0,0.05,0,0)" xlink:href="#U"/><use transform="matrix(0.05,0,0,0.05,10.5,0)" xlink:href="#R"/><use transform="matrix(0.05,0,0,0.05,19.5,0)" xlink:href="#F"/><use transform="matrix(0.05,0,0,0.05,24.5,0)" xlink:href="#H"/><use transform="matrix(0.05,0,0,0.05,30.450000000000003,0)" xlink:href="#V"/><use transform="matrix(0.05,0,0,0.05,40.95,0)" xlink:href="#Y"/></g><path d="M101-234c-31-9-42 10-38 44h38v23H63V0H32v-167H5v-23h27c-7-52 17-82 69-68v24" id="Z"/><g id="l"><use transform="matrix(0.05,0,0,0.05,0,0)" xlink:href="#Z"/><use transform="matrix(0.05,0,0,0.05,5,0)" xlink:href="#L"/><use transform="matrix(0.05,0,0,0.05,8.95,0)" xlink:href="#O"/><use transform="matrix(0.05,0,0,0.05,12.899999999999999,0)" xlink:href="#N"/><use transform="matrix(0.05,0,0,0.05,22.9,0)" xlink:href="#T"/></g><g id="m"><use transform="matrix(0.05,0,0,0.05,0,0)" xlink:href="#U"/><use transform="matrix(0.05,0,0,0.05,10.5,0)" xlink:href="#R"/><use transform="matrix(0.05,0,0,0.05,19.5,0)" xlink:href="#F"/><use transform="matrix(0.05,0,0,0.05,24.5,0)" xlink:href="#H"/><use transform="matrix(0.05,0,0,0.05,30.450000000000003,0)" xlink:href="#V"/></g><path d="M76-40C78 24 84 88 6 75V52C86 64 9-79 80-94c-40-6-34-59-34-106 1-29-11-41-40-38v-23c44-4 70 10 70 52 0 47-12 108 38 105v22c-26 1-39 14-38 42" id="aa"/><path d="M3 75V52h41v-290H3v-23h71V75H3" id="ab"/><g id="n"><use transform="matrix(0.05,0,0,0.05,0,0)" xlink:href="#aa"/><use transform="matrix(0.05,0,0,0.05,6,0)" xlink:href="#ab"/></g><path d="M115-194c53 0 69 39 70 98 0 66-23 100-70 100C84 3 66-7 56-30L54 0H23l1-261h32v101c10-23 28-34 59-34zm-8 174c40 0 45-34 45-75 0-40-5-75-45-74-42 0-51 32-51 76 0 43 10 73 51 73" id="ac"/><path d="M96-169c-40 0-48 33-48 73s9 75 48 75c24 0 41-14 43-38l32 2c-6 37-31 61-74 61-59 0-76-41-82-99-10-93 101-131 147-64 4 7 5 14 7 22l-32 3c-4-21-16-35-41-35" id="ad"/><path d="M106-169C34-169 62-67 57 0H25v-261h32l-1 103c12-21 28-36 61-36 89 0 53 116 60 194h-32v-121c2-32-8-49-39-48" id="ae"/><path d="M85-194c31 0 48 13 60 33l-1-100h32l1 261h-30c-2-10 0-23-3-31C134-8 116 4 85 4 32 4 16-35 15-94c0-66 23-100 70-100zm9 24c-40 0-46 34-46 75 0 40 6 74 45 74 42 0 51-32 51-76 0-42-9-74-50-73" id="af"/><g id="o"><use transform="matrix(0.05,0,0,0.05,0,0)" xlink:href="#ac"/><use transform="matrix(0.05,0,0,0.05,10,0)" xlink:href="#G"/><use transform="matrix(0.05,0,0,0.05,20,0)" xlink:href="#F"/><use transform="matrix(0.05,0,0,0.05,25,0)" xlink:href="#ad"/><use transform="matrix(0.05,0,0,0.05,34,0)" xlink:href="#ae"/><use transform="matrix(0.05,0,0,0.05,44,0)" xlink:href="#M"/><use transform="matrix(0.05,0,0,0.05,54,0)" xlink:href="#R"/><use transform="matrix(0.05,0,0,0.05,63,0)" xlink:href="#F"/><use transform="matrix(0.05,0,0,0.05,68,0)" xlink:href="#G"/><use transform="matrix(0.05,0,0,0.05,78,0)" xlink:href="#H"/><use transform="matrix(0.05,0,0,0.05,83.95,0)" xlink:href="#F"/><use transform="matrix(0.05,0,0,0.05,88.95,0)" xlink:href="#N"/><use transform="matrix(0.05,0,0,0.05,98.95,0)" xlink:href="#af"/></g><g id="p"><use transform="matrix(0.05,0,0,0.05,0,0)" xlink:href="#Z"/><use transform="matrix(0.05,0,0,0.05,5,0)" xlink:href="#L"/><use transform="matrix(0.05,0,0,0.05,8.95,0)" xlink:href="#O"/><use transform="matrix(0.05,0,0,0.05,12.899999999999999,0)" xlink:href="#N"/><use transform="matrix(0.05,0,0,0.05,22.9,0)" xlink:href="#T"/></g><path d="M108 0H70L1-190h34L89-25l56-165h34" id="ag"/><g id="q"><use transform="matrix(0.05,0,0,0.05,0,0)" xlink:href="#H"/><use transform="matrix(0.05,0,0,0.05,5.95,0)" xlink:href="#J"/><use transform="matrix(0.05,0,0,0.05,15.949999999999998,0)" xlink:href="#K"/><use transform="matrix(0.05,0,0,0.05,25.950000000000003,0)" xlink:href="#R"/><use transform="matrix(0.05,0,0,0.05,34.95,0)" xlink:href="#M"/><use transform="matrix(0.05,0,0,0.05,44.95,0)" xlink:href="#ag"/><use transform="matrix(0.05,0,0,0.05,53.95,0)" xlink:href="#G"/><use transform="matrix(0.05,0,0,0.05,63.95,0)" xlink:href="#O"/><use transform="matrix(0.05,0,0,0.05,67.9,0)" xlink:href="#L"/><use transform="matrix(0.05,0,0,0.05,71.85000000000001,0)" xlink:href="#af"/><use transform="matrix(0.05,0,0,0.05,81.85000000000001,0)" xlink:href="#G"/><use transform="matrix(0.05,0,0,0.05,91.85000000000001,0)" xlink:href="#F"/><use transform="matrix(0.05,0,0,0.05,96.85000000000001,0)" xlink:href="#N"/><use transform="matrix(0.05,0,0,0.05,106.85000000000001,0)" xlink:href="#af"/></g><path d="M206 0h-36l-40-164L89 0H53L-1-190h32L70-26l43-164h34l41 164 42-164h31" id="ah"/><g id="r"><use transform="matrix(0.05,0,0,0.05,0,0)" xlink:href="#ah"/><use transform="matrix(0.05,0,0,0.05,12.950000000000001,0)" xlink:href="#G"/><use transform="matrix(0.05,0,0,0.05,22.950000000000003,0)" xlink:href="#H"/><use transform="matrix(0.05,0,0,0.05,28.900000000000002,0)" xlink:href="#K"/><use transform="matrix(0.05,0,0,0.05,38.900000000000006,0)" xlink:href="#L"/><use transform="matrix(0.05,0,0,0.05,42.85000000000001,0)" xlink:href="#K"/><use transform="matrix(0.05,0,0,0.05,52.85,0)" xlink:href="#S"/><use transform="matrix(0.05,0,0,0.05,62.85,0)" xlink:href="#M"/><use transform="matrix(0.05,0,0,0.05,72.85000000000001,0)" xlink:href="#H"/><use transform="matrix(0.05,0,0,0.05,78.80000000000001,0)" xlink:href="#J"/><use transform="matrix(0.05,0,0,0.05,88.80000000000001,0)" xlink:href="#K"/><use transform="matrix(0.05,0,0,0.05,98.80000000000001,0)" xlink:href="#R"/></g><g id="s"><use transform="matrix(0.05,0,0,0.05,0,0)" xlink:href="#ah"/><use transform="matrix(0.05,0,0,0.05,12.950000000000001,0)" xlink:href="#G"/><use transform="matrix(0.05,0,0,0.05,22.950000000000003,0)" xlink:href="#H"/><use transform="matrix(0.05,0,0,0.05,28.900000000000002,0)" xlink:href="#K"/><use transform="matrix(0.05,0,0,0.05,38.900000000000006,0)" xlink:href="#L"/><use transform="matrix(0.05,0,0,0.05,42.85000000000001,0)" xlink:href="#K"/><use transform="matrix(0.05,0,0,0.05,52.85,0)" xlink:href="#S"/><use transform="matrix(0.05,0,0,0.05,62.85,0)" xlink:href="#R"/><use transform="matrix(0.05,0,0,0.05,71.85000000000001,0)" xlink:href="#T"/></g><g id="t"><use transform="matrix(0.05,0,0,0.05,0,0)" xlink:href="#W"/><use transform="matrix(0.05,0,0,0.05,5,0)" xlink:href="#U"/><use transform="matrix(0.05,0,0,0.05,15.5,0)" xlink:href="#R"/><use transform="matrix(0.05,0,0,0.05,24.5,0)" xlink:href="#F"/><use transform="matrix(0.05,0,0,0.05,29.5,0)" xlink:href="#H"/><use transform="matrix(0.05,0,0,0.05,35.45,0)" xlink:href="#V"/><use transform="matrix(0.05,0,0,0.05,45.95,0)" xlink:href="#ab"/><use transform="matrix(0.05,0,0,0.05,50.95,0)" xlink:href="#aa"/><use transform="matrix(0.05,0,0,0.05,56.95,0)" xlink:href="#ab"/></g><g id="u"><use transform="matrix(0.05,0,0,0.05,0,0)" xlink:href="#H"/><use transform="matrix(0.05,0,0,0.05,5.95,0)" xlink:href="#J"/><use transform="matrix(0.05,0,0,0.05,15.949999999999998,0)" xlink:href="#K"/><use transform="matrix(0.05,0,0,0.05,25.950000000000003,0)" xlink:href="#M"/><use transform="matrix(0.05,0,0,0.05,35.95,0)" xlink:href="#R"/><use transform="matrix(0.05,0,0,0.05,44.95,0)" xlink:href="#F"/><use transform="matrix(0.05,0,0,0.05,49.95,0)" xlink:href="#G"/><use transform="matrix(0.05,0,0,0.05,59.95,0)" xlink:href="#H"/><use transform="matrix(0.05,0,0,0.05,65.9,0)" xlink:href="#F"/><use transform="matrix(0.05,0,0,0.05,70.9,0)" xlink:href="#N"/><use transform="matrix(0.05,0,0,0.05,80.9,0)" xlink:href="#af"/></g><path d="M145-31C134-9 116 4 85 4 32 4 16-35 15-94c0-59 17-99 70-100 32-1 48 14 60 33 0-11-1-24 2-32h30l-1 268h-32zM93-21c41 0 51-33 51-76s-8-73-50-73c-40 0-46 35-46 75s5 74 45 74" id="ai"/><path d="M179-190L93 31C79 59 56 82 12 73V49c39 6 53-20 64-50L1-190h34L92-34l54-156h33" id="aj"/><g id="v"><use transform="matrix(0.05,0,0,0.05,0,0)" xlink:href="#ai"/><use transform="matrix(0.05,0,0,0.05,10,0)" xlink:href="#J"/><use transform="matrix(0.05,0,0,0.05,20,0)" xlink:href="#N"/><use transform="matrix(0.05,0,0,0.05,30,0)" xlink:href="#H"/><use transform="matrix(0.05,0,0,0.05,35.95,0)" xlink:href="#aj"/><use transform="matrix(0.05,0,0,0.05,44.95,0)" xlink:href="#M"/><use transform="matrix(0.05,0,0,0.05,54.95,0)" xlink:href="#R"/><use transform="matrix(0.05,0,0,0.05,63.95,0)" xlink:href="#F"/><use transform="matrix(0.05,0,0,0.05,68.95,0)" xlink:href="#G"/><use transform="matrix(0.05,0,0,0.05,78.95,0)" xlink:href="#H"/><use transform="matrix(0.05,0,0,0.05,84.9,0)" xlink:href="#F"/><use transform="matrix(0.05,0,0,0.05,89.9,0)" xlink:href="#N"/><use transform="matrix(0.05,0,0,0.05,99.9,0)" xlink:href="#af"/></g><g id="w"><use transform="matrix(0.05,0,0,0.05,0,0)" xlink:href="#ai"/><use transform="matrix(0.05,0,0,0.05,10,0)" xlink:href="#J"/><use transform="matrix(0.05,0,0,0.05,20,0)" xlink:href="#N"/><use transform="matrix(0.05,0,0,0.05,30,0)" xlink:href="#H"/><use transform="matrix(0.05,0,0,0.05,35.95,0)" xlink:href="#aj"/><use transform="matrix(0.05,0,0,0.05,44.95,0)" xlink:href="#M"/><use transform="matrix(0.05,0,0,0.05,54.95,0)" xlink:href="#N"/><use transform="matrix(0.05,0,0,0.05,64.95,0)" xlink:href="#K"/><use transform="matrix(0.05,0,0,0.05,74.95,0)" xlink:href="#af"/><use transform="matrix(0.05,0,0,0.05,84.95,0)" xlink:href="#N"/><use transform="matrix(0.05,0,0,0.05,94.95,0)" xlink:href="#af"/></g><g id="x"><use transform="matrix(0.05,0,0,0.05,0,0)" xlink:href="#U"/><use transform="matrix(0.05,0,0,0.05,10.5,0)" xlink:href="#R"/><use transform="matrix(0.05,0,0,0.05,19.5,0)" xlink:href="#F"/><use transform="matrix(0.05,0,0,0.05,24.5,0)" xlink:href="#H"/><use transform="matrix(0.05,0,0,0.05,30.450000000000003,0)" xlink:href="#V"/></g><g id="y"><use transform="matrix(0.05,0,0,0.05,0,0)" xlink:href="#R"/><use transform="matrix(0.05,0,0,0.05,9,0)" xlink:href="#F"/><use transform="matrix(0.05,0,0,0.05,14,0)" xlink:href="#G"/><use transform="matrix(0.05,0,0,0.05,24,0)" xlink:href="#F"/><use transform="matrix(0.05,0,0,0.05,29,0)" xlink:href="#J"/><use transform="matrix(0.05,0,0,0.05,39,0)" xlink:href="#R"/><use transform="matrix(0.05,0,0,0.05,48,0)" xlink:href="#T"/></g><g id="z"><use transform="matrix(0.05,0,0,0.05,0,0)" xlink:href="#H"/><use transform="matrix(0.05,0,0,0.05,5.95,0)" xlink:href="#J"/><use transform="matrix(0.05,0,0,0.05,15.949999999999998,0)" xlink:href="#K"/><use transform="matrix(0.05,0,0,0.05,25.950000000000003,0)" xlink:href="#M"/><use transform="matrix(0.05,0,0,0.05,35.95,0)" xlink:href="#N"/><use transform="matrix(0.05,0,0,0.05,45.95,0)" xlink:href="#K"/><use transform="matrix(0.05,0,0,0.05,55.95,0)" xlink:href="#af"/><use transform="matrix(0.05,0,0,0.05,65.95,0)" xlink:href="#N"/><use transform="matrix(0.05,0,0,0.05,75.95,0)" xlink:href="#af"/></g><g id="A"><use transform="matrix(0.05,0,0,0.05,0,0)" xlink:href="#ac"/><use transform="matrix(0.05,0,0,0.05,10,0)" xlink:href="#G"/><use transform="matrix(0.05,0,0,0.05,20,0)" xlink:href="#F"/><use transform="matrix(0.05,0,0,0.05,25,0)" xlink:href="#ad"/><use transform="matrix(0.05,0,0,0.05,34,0)" xlink:href="#ae"/><use transform="matrix(0.05,0,0,0.05,44,0)" xlink:href="#M"/><use transform="matrix(0.05,0,0,0.05,54,0)" xlink:href="#N"/><use transform="matrix(0.05,0,0,0.05,64,0)" xlink:href="#K"/><use transform="matrix(0.05,0,0,0.05,74,0)" xlink:href="#af"/><use transform="matrix(0.05,0,0,0.05,84,0)" xlink:href="#N"/><use transform="matrix(0.05,0,0,0.05,94,0)" xlink:href="#af"/></g><g id="B"><use transform="matrix(0.05,0,0,0.05,0,0)" xlink:href="#ai"/><use transform="matrix(0.05,0,0,0.05,10,0)" xlink:href="#J"/><use transform="matrix(0.05,0,0,0.05,20,0)" xlink:href="#N"/><use transform="matrix(0.05,0,0,0.05,30,0)" xlink:href="#H"/><use transform="matrix(0.05,0,0,0.05,35.95,0)" xlink:href="#aj"/><use transform="matrix(0.05,0,0,0.05,44.95,0)" xlink:href="#M"/><use transform="matrix(0.05,0,0,0.05,54.95,0)" xlink:href="#L"/><use transform="matrix(0.05,0,0,0.05,58.900000000000006,0)" xlink:href="#K"/><use transform="matrix(0.05,0,0,0.05,68.9,0)" xlink:href="#F"/><use transform="matrix(0.05,0,0,0.05,73.9,0)" xlink:href="#N"/><use transform="matrix(0.05,0,0,0.05,83.9,0)" xlink:href="#H"/><use transform="matrix(0.05,0,0,0.05,89.85000000000001,0)" xlink:href="#K"/><use transform="matrix(0.05,0,0,0.05,99.85000000000001,0)" xlink:href="#G"/><use transform="matrix(0.05,0,0,0.05,109.85000000000001,0)" xlink:href="#O"/><use transform="matrix(0.05,0,0,0.05,113.80000000000001,0)" xlink:href="#M"/><use transform="matrix(0.05,0,0,0.05,123.80000000000001,0)" xlink:href="#N"/><use transform="matrix(0.05,0,0,0.05,133.8,0)" xlink:href="#H"/><use transform="matrix(0.05,0,0,0.05,139.75,0)" xlink:href="#H"/><use transform="matrix(0.05,0,0,0.05,145.7,0)" xlink:href="#P"/><use transform="matrix(0.05,0,0,0.05,155.7,0)" xlink:href="#H"/></g><path d="M141 0L90-78 38 0H4l68-98-65-92h35l48 74 47-74h35l-64 92 68 98h-35" id="ak"/><g id="C"><use transform="matrix(0.05,0,0,0.05,0,0)" xlink:href="#N"/><use transform="matrix(0.05,0,0,0.05,10,0)" xlink:href="#ak"/><use transform="matrix(0.05,0,0,0.05,19,0)" xlink:href="#L"/><use transform="matrix(0.05,0,0,0.05,22.95,0)" xlink:href="#F"/></g><g id="D"><use transform="matrix(0.05,0,0,0.05,0,0)" xlink:href="#ac"/><use transform="matrix(0.05,0,0,0.05,10,0)" xlink:href="#G"/><use transform="matrix(0.05,0,0,0.05,20,0)" xlink:href="#F"/><use transform="matrix(0.05,0,0,0.05,25,0)" xlink:href="#ad"/><use transform="matrix(0.05,0,0,0.05,34,0)" xlink:href="#ae"/><use transform="matrix(0.05,0,0,0.05,44,0)" xlink:href="#M"/><use transform="matrix(0.05,0,0,0.05,54,0)" xlink:href="#L"/><use transform="matrix(0.05,0,0,0.05,57.95,0)" xlink:href="#K"/><use transform="matrix(0.05,0,0,0.05,67.95,0)" xlink:href="#F"/><use transform="matrix(0.05,0,0,0.05,72.95,0)" xlink:href="#N"/><use transform="matrix(0.05,0,0,0.05,82.95,0)" xlink:href="#H"/><use transform="matrix(0.05,0,0,0.05,88.9,0)" xlink:href="#K"/><use transform="matrix(0.05,0,0,0.05,98.9,0)" xlink:href="#G"/><use transform="matrix(0.05,0,0,0.05,108.9,0)" xlink:href="#O"/><use transform="matrix(0.05,0,0,0.05,112.85000000000001,0)" xlink:href="#M"/><use transform="matrix(0.05,0,0,0.05,122.85000000000001,0)" xlink:href="#N"/><use transform="matrix(0.05,0,0,0.05,132.85000000000002,0)" xlink:href="#H"/><use transform="matrix(0.05,0,0,0.05,138.8,0)" xlink:href="#H"/><use transform="matrix(0.05,0,0,0.05,144.75,0)" xlink:href="#P"/><use transform="matrix(0.05,0,0,0.05,154.75,0)" xlink:href="#H"/></g></defs></g></svg>