<svg xmlns="http://www.w3.org/2000/svg" xmlns:xlink="http://www.w3.org/1999/xlink" xmlns:lucid="lucid" width="1240" height="641.6">
    <g transform="translate(-60 -60)" lucid:page-tab-id="0_0">
        <path d="M0 0h1870.4v1323.2H0z" fill="#fff"/>
        <path d="M256 80c-8.84 0-16 7.16-16 16v48c0 8.84 7.16 16 16 16h128c8.84 0 16-7.16 16-16V96c0-8.84-7.16-16-16-16z" stroke="#3aa6dd" stroke-width="2"
              fill="#c1e4f7" fill-opacity=".75"/>
        <use xlink:href="#a" transform="matrix(1,0,0,1,248,88) translate(34.525 24.799999999999997)"/>
        <use xlink:href="#b" transform="matrix(1,0,0,1,248,88) translate(89.475 24.799999999999997)"/>
        <use xlink:href="#c" transform="matrix(1,0,0,1,248,88) translate(10.099999999999994 46.4)"/>
        <use xlink:href="#d" transform="matrix(1,0,0,1,248,88) translate(85.95 46.4)"/>
        <path d="M320 240l80 70-80 70-80-70z" stroke="#ef8d22" stroke-width="2" fill="#ffdba9" fill-opacity=".75"/>
        <use xlink:href="#e" transform="matrix(1,0,0,1,240,240) translate(33.05499999999999 75.65)"/>
        <use xlink:href="#f" transform="matrix(1,0,0,1,240,240) translate(88.005 75.65)"/>
        <path d="M320 162v58.17" stroke="#000" stroke-width="2" fill="none"/>
        <path d="M321 162.03h-2V161h2z"/>
        <path d="M320 235.44l-4.64-14.27h9.28zM120 120c0 11.05-8.95 20-20 20s-20-8.95-20-20 8.95-20 20-20 20 8.95 20 20z" stroke="#000" stroke-width="2"/>
        <path d="M122 120h98.5" stroke="#000" stroke-width="2" fill="none"/>
        <path d="M122.03 121h-1.15l.12-.96-.03-1.04h1.06z"/>
        <path d="M235.76 120l-14.26 4.64v-9.28z" stroke="#000" stroke-width="2"/>
        <path d="M120 310c0 11.05-8.95 20-20 20s-20-8.95-20-20 8.95-20 20-20 20 8.95 20 20z" stroke="#000" stroke-width="2" fill="#fff"/>
        <path d="M85.86 295.86l28.28 28.28m0-28.28l-28.28 28.28" stroke="#000" stroke-width="2" fill="none"/>
        <path d="M177.15 311H139.5v-2h37.65zm60.33 0h-35.33v-2h35.33z"/>
        <path d="M238.48 310l1.14 1h-2.16v-2h2.16zM138.5 314.64L124.24 310l14.26-4.64z"/>
        <path d="M139.5 316l-18.5-6 18.5-6zm-12.03-6l10.03 3.26v-6.52z"/>
        <use xlink:href="#g" transform="matrix(1,0,0,1,177.14694236743625,299.2) translate(0 14.4)"/>
        <path d="M576 270c-8.84 0-16 7.16-16 16v48c0 8.84 7.16 16 16 16h128c8.84 0 16-7.16 16-16v-48c0-8.84-7.16-16-16-16z" stroke="#3aa6dd" stroke-width="2"
              fill="#c1e4f7" fill-opacity=".75"/>
        <use xlink:href="#h" transform="matrix(1,0,0,1,568,278) translate(47.025 24.799999999999997)"/>
        <use xlink:href="#i" transform="matrix(1,0,0,1,568,278) translate(16.074999999999996 46.4)"/>
        <use xlink:href="#j" transform="matrix(1,0,0,1,568,278) translate(93.92500000000001 46.4)"/>
        <path d="M418.7 311H402.5v-2h16.17zm121.8 0h-17.86v-2h17.86z"/>
        <path d="M402.54 311h-2.16l1.14-1-1.14-1h2.16zM555.76 310l-14.26 4.64v-9.28z"/>
        <path d="M559 310l-18.5 6v-12zm-16.5 3.26l10.03-3.26-10.03-3.26z"/>
        <use xlink:href="#k" transform="matrix(1,0,0,1,418.6916666666666,299.2) translate(0 14.4)"/>
        <use xlink:href="#l" transform="matrix(1,0,0,1,418.6916666666666,299.2) translate(43.95 14.4)"/>
        <use xlink:href="#m" transform="matrix(1,0,0,1,418.6916666666666,299.2) translate(53.95 14.4)"/>
        <path d="M96 480c-8.84 0-16 7.16-16 16v48c0 8.84 7.16 16 16 16h128c8.84 0 16-7.16 16-16v-48c0-8.84-7.16-16-16-16z" stroke="#3aa6dd" stroke-width="2"
              fill="#c1e4f7" fill-opacity=".75"/>
        <use xlink:href="#a" transform="matrix(1,0,0,1,88,488) translate(34.525 24.799999999999997)"/>
        <use xlink:href="#n" transform="matrix(1,0,0,1,88,488) translate(89.475 24.799999999999997)"/>
        <use xlink:href="#o" transform="matrix(1,0,0,1,88,488) translate(37.525 46.4)"/>
        <path d="M199.28 413.04H161v47.46h-2v-49.46h40.28zm80.28 0h-40.28v-2h38.28v-64.97h2z"/>
        <path d="M279.56 345.95v.15h-2v-1.9zM160 475.76l-4.64-14.26h9.28z"/>
        <path d="M160 479l-6-18.5h12zm-3.26-16.5l3.26 10.03 3.26-10.03z"/>
        <use xlink:href="#p" transform="matrix(1,0,0,1,199.2813671650923,401.23558038275166) translate(0 14.4)"/>
        <path d="M416 480c-8.84 0-16 7.16-16 16v48c0 8.84 7.16 16 16 16h128c8.84 0 16-7.16 16-16v-48c0-8.84-7.16-16-16-16z" stroke="#3aa6dd" stroke-width="2"
              fill="#c1e4f7" fill-opacity=".75"/>
        <use xlink:href="#h" transform="matrix(1,0,0,1,408,488) translate(47.025 24.799999999999997)"/>
        <use xlink:href="#q" transform="matrix(1,0,0,1,408,488) translate(38.525 46.4)"/>
        <use xlink:href="#r" transform="matrix(1,0,0,1,408,488) translate(53.525 46.4)"/>
        <path d="M481 410.87v49.63h-2v-47.63h-32.12v-2zm-86.07 0v2H360.8v-67.13h2v65.13z"/>
        <path d="M362.8 345.77h-2v-.15l2-1.75zM480 475.76l-4.64-14.26h9.28z"/>
        <path d="M480 479l-6-18.5h12zm-3.26-16.5l3.26 10.03 3.26-10.03z"/>
        <use xlink:href="#s" transform="matrix(1,0,0,1,394.9324233953797,401.0703886423386) translate(0 14.4)"/>
        <path d="M180 661.6c0 11.05-8.95 20-20 20s-20-8.95-20-20 8.95-20 20-20 20 8.95 20 20z" stroke="#000" stroke-width="2" fill="#fff"/>
        <path d="M145.86 647.46l28.28 28.28m0-28.28l-28.28 28.28M160 562v60.1" stroke="#000" stroke-width="2" fill="none"/>
        <path d="M161 562.03h-2V561h2z"/>
        <path d="M160 637.36l-4.64-14.26h9.28z" stroke="#000" stroke-width="2"/>
        <path d="M500 661.6c0 11.05-8.95 20-20 20s-20-8.95-20-20 8.95-20 20-20 20 8.95 20 20z" stroke="#000" stroke-width="2" fill="#fff"/>
        <path d="M465.86 647.46l28.28 28.28m0-28.28l-28.28 28.28M480 562v60.1" stroke="#000" stroke-width="2" fill="none"/>
        <path d="M481 562.03h-2V561h2z"/>
        <path d="M480 637.36l-4.64-14.26h9.28z" stroke="#000" stroke-width="2"/>
        <path d="M880 240l80 70-80 70-80-70z" stroke="#ef8d22" stroke-width="2" fill="#ffdba9" fill-opacity=".75"/>
        <use xlink:href="#t" transform="matrix(1,0,0,1,800,240) translate(40.93 62.525)"/>
        <use xlink:href="#f" transform="matrix(1,0,0,1,800,240) translate(60.529999999999994 84.125)"/>
        <path d="M722 310h57.98" stroke="#000" stroke-width="2" fill="none"/>
        <path d="M722.03 311H721v-2h1.03z"/>
        <path d="M795.25 310l-14.27 4.64v-9.28z" stroke="#000" stroke-width="2"/>
        <path d="M881 237.67h-2v-20.7h2zm0-42.3h-2V179.5h2z"/>
        <path d="M881 239.55l-1-.88-1 .88v-1.9h2zM884.64 178.5h-9.28l4.64-14.26z"/>
        <path d="M886 179.5h-12l6-18.5zm-9.26-2h6.52L880 167.47z"/>
        <use xlink:href="#u" transform="matrix(1,0,0,1,858.05,195.37765213438868) translate(0 14.4)"/>
        <path d="M816 480c-8.84 0-16 7.16-16 16v48c0 8.84 7.16 16 16 16h128c8.84 0 16-7.16 16-16v-48c0-8.84-7.16-16-16-16z" stroke="#3aa6dd" stroke-width="2"
              fill="#c1e4f7" fill-opacity=".75"/>
        <use xlink:href="#h" transform="matrix(1,0,0,1,808,488) translate(47.025 24.799999999999997)"/>
        <use xlink:href="#v" transform="matrix(1,0,0,1,808,488) translate(0.125 46.4)"/>
        <use xlink:href="#d" transform="matrix(1,0,0,1,808,488) translate(95.92500000000001 46.4)"/>
        <path d="M900 661.6c0 11.05-8.95 20-20 20s-20-8.95-20-20 8.95-20 20-20 20 8.95 20 20z" stroke="#000" stroke-width="2" fill="#fff"/>
        <path d="M865.86 647.46l28.28 28.28m0-28.28l-28.28 28.28M880 562v60.1" stroke="#000" stroke-width="2" fill="none"/>
        <path d="M881 562.03h-2V561h2z"/>
        <path d="M880 637.36l-4.64-14.26h9.28z" stroke="#000" stroke-width="2"/>
        <path d="M816 80c-8.84 0-16 7.16-16 16v48c0 8.84 7.16 16 16 16h128c8.84 0 16-7.16 16-16V96c0-8.84-7.16-16-16-16z" stroke="#834187" stroke-width="2"
              fill="#d1bcd2" fill-opacity=".75"/>
        <use xlink:href="#w" transform="matrix(1,0,0,1,808,88) translate(2.2750000000000057 24.799999999999997)"/>
        <use xlink:href="#x" transform="matrix(1,0,0,1,808,88) translate(48.775000000000006 24.799999999999997)"/>
        <use xlink:href="#y" transform="matrix(1,0,0,1,808,88) translate(78.775 24.799999999999997)"/>
        <use xlink:href="#z" transform="matrix(1,0,0,1,808,88) translate(21.549999999999997 46.4)"/>
        <use xlink:href="#x" transform="matrix(1,0,0,1,808,88) translate(56.55 46.4)"/>
        <use xlink:href="#A" transform="matrix(1,0,0,1,808,88) translate(86.55 46.4)"/>
        <path d="M1136 270c-8.84 0-16 7.16-16 16v48c0 8.84 7.16 16 16 16h128c8.84 0 16-7.16 16-16v-48c0-8.84-7.16-16-16-16z" stroke="#834187" stroke-width="2"
              fill="#d1bcd2" fill-opacity=".75"/>
        <g>
            <use xlink:href="#w" transform="matrix(1,0,0,1,1128,278) translate(36.25 24.799999999999997)"/>
            <use xlink:href="#B" transform="matrix(1,0,0,1,1128,278) translate(82.75 24.799999999999997)"/>
            <use xlink:href="#C" transform="matrix(1,0,0,1,1128,278) translate(40.525 46.4)"/>
        </g>
        <path d="M1080 120c0 11.05-8.95 20-20 20s-20-8.95-20-20 8.95-20 20-20 20 8.95 20 20z" stroke="#000" stroke-width="2" fill="#fff"/>
        <path d="M1045.86 105.86l28.28 28.28m0-28.28l-28.28 28.28M962 120h58.5" stroke="#000" stroke-width="2" fill="none"/>
        <path d="M962.03 121H961v-2h1.03z"/>
        <path d="M1035.76 120l-14.26 4.64v-9.28z" stroke="#000" stroke-width="2"/>
        <path d="M998.28 311h-35.76v-2h35.76zm102.22 0h-18.27v-2h18.27z"/>
        <path d="M962.54 311h-2.16l1.14-1-1.14-1h2.16zM1115.76 310l-14.26 4.64v-9.28z"/>
        <path d="M1119 310l-18.5 6v-12zm-16.5 3.26l10.03-3.26-10.03-3.26z"/>
        <g>
            <use xlink:href="#D" transform="matrix(1,0,0,1,998.284296129481,299.2) translate(0 14.4)"/>
        </g>
        <path d="M1200 352v168H979.5" stroke="#000" stroke-width="2" fill="none"/>
        <path d="M1201 352.03h-2V351h2z"/>
        <path d="M964.24 520l14.26-4.64v9.28z" stroke="#000" stroke-width="2"/>
        <path d="M881 460.5h-2v-29.03h2zm0-50.63h-2v-27.54h2z"/>
        <path d="M881 382.35h-2v-1.9l1 .88 1-.88zM880 475.76l-4.64-14.26h9.28z"/>
        <path d="M880 479l-6-18.5h12zm-3.26-16.5l3.26 10.03 3.26-10.03z"/>
        <g>
            <use xlink:href="#E" transform="matrix(1,0,0,1,855.55,409.8666666666667) translate(0 14.4)"/>
        </g>
        <defs>
            <path d="M185-189c-5-48-123-54-124 2 14 75 158 14 163 119 3 78-121 87-175 55-17-10-28-26-33-46l33-7c5 56 141 63 141-1 0-78-155-14-162-118-5-82 145-84 179-34 5 7 8 16 11 25"
                  id="F"/>
            <path d="M100-194c63 0 86 42 84 106H49c0 40 14 67 53 68 26 1 43-12 49-29l28 8c-11 28-37 45-77 45C44 4 14-33 15-96c1-61 26-98 85-98zm52 81c6-60-76-77-97-28-3 7-6 17-6 28h103"
                  id="G"/>
            <path d="M24 0v-261h32V0H24" id="H"/>
            <path d="M96-169c-40 0-48 33-48 73s9 75 48 75c24 0 41-14 43-38l32 2c-6 37-31 61-74 61-59 0-76-41-82-99-10-93 101-131 147-64 4 7 5 14 7 22l-32 3c-4-21-16-35-41-35"
                  id="I"/>
            <path d="M59-47c-2 24 18 29 38 22v24C64 9 27 4 27-40v-127H5v-23h24l9-43h21v43h35v23H59v120" id="J"/>
            <g id="a">
                <use transform="matrix(0.05,0,0,0.05,0,0)" xlink:href="#F"/>
                <use transform="matrix(0.05,0,0,0.05,12,0)" xlink:href="#G"/>
                <use transform="matrix(0.05,0,0,0.05,22,0)" xlink:href="#H"/>
                <use transform="matrix(0.05,0,0,0.05,25.950000000000003,0)" xlink:href="#G"/>
                <use transform="matrix(0.05,0,0,0.05,35.95,0)" xlink:href="#I"/>
                <use transform="matrix(0.05,0,0,0.05,44.95,0)" xlink:href="#J"/>
            </g>
            <path d="M141-36C126-15 110 5 73 4 37 3 15-17 15-53c-1-64 63-63 125-63 3-35-9-54-41-54-24 1-41 7-42 31l-33-3c5-37 33-52 76-52 45 0 72 20 72 64v82c-1 20 7 32 28 27v20c-31 9-61-2-59-35zM48-53c0 20 12 33 32 33 41-3 63-29 60-74-43 2-92-5-92 41"
                  id="K"/>
            <path d="M117-194c89-4 53 116 60 194h-32v-121c0-31-8-49-39-48C34-167 62-67 57 0H25l-1-190h30c1 10-1 24 2 32 11-22 29-35 61-36" id="L"/>
            <g id="b">
                <use transform="matrix(0.05,0,0,0.05,0,0)" xlink:href="#K"/>
                <use transform="matrix(0.05,0,0,0.05,10,0)" xlink:href="#L"/>
            </g>
            <path d="M108 0H70L1-190h34L89-25l56-165h34" id="M"/>
            <path d="M24-231v-30h32v30H24zM24 0v-190h32V0H24" id="N"/>
            <path d="M115-194c53 0 69 39 70 98 0 66-23 100-70 100C84 3 66-7 56-30L54 0H23l1-261h32v101c10-23 28-34 59-34zm-8 174c40 0 45-34 45-75 0-40-5-75-45-74-42 0-51 32-51 76 0 43 10 73 51 73"
                  id="O"/>
            <g id="c">
                <use transform="matrix(0.05,0,0,0.05,0,0)" xlink:href="#K"/>
                <use transform="matrix(0.05,0,0,0.05,10,0)" xlink:href="#M"/>
                <use transform="matrix(0.05,0,0,0.05,19,0)" xlink:href="#K"/>
                <use transform="matrix(0.05,0,0,0.05,29,0)" xlink:href="#N"/>
                <use transform="matrix(0.05,0,0,0.05,32.95,0)" xlink:href="#H"/>
                <use transform="matrix(0.05,0,0,0.05,36.900000000000006,0)" xlink:href="#K"/>
                <use transform="matrix(0.05,0,0,0.05,46.900000000000006,0)" xlink:href="#O"/>
                <use transform="matrix(0.05,0,0,0.05,56.900000000000006,0)" xlink:href="#H"/>
                <use transform="matrix(0.05,0,0,0.05,60.85,0)" xlink:href="#G"/>
            </g>
            <path d="M100-194c62-1 85 37 85 99 1 63-27 99-86 99S16-35 15-95c0-66 28-99 85-99zM99-20c44 1 53-31 53-75 0-43-8-75-51-75s-53 32-53 75 10 74 51 75"
                  id="P"/>
            <g id="d">
                <use transform="matrix(0.05,0,0,0.05,0,0)" xlink:href="#K"/>
                <use transform="matrix(0.05,0,0,0.05,10,0)" xlink:href="#I"/>
                <use transform="matrix(0.05,0,0,0.05,19,0)" xlink:href="#J"/>
                <use transform="matrix(0.05,0,0,0.05,24,0)" xlink:href="#N"/>
                <use transform="matrix(0.05,0,0,0.05,27.950000000000003,0)" xlink:href="#P"/>
                <use transform="matrix(0.05,0,0,0.05,37.95,0)" xlink:href="#L"/>
            </g>
            <path d="M205 0l-28-72H64L36 0H1l101-248h38L239 0h-34zm-38-99l-47-123c-12 45-31 82-46 123h93" id="Q"/>
            <g id="e">
                <use transform="matrix(0.05,0,0,0.05,0,0)" xlink:href="#Q"/>
                <use transform="matrix(0.05,0,0,0.05,12,0)" xlink:href="#I"/>
                <use transform="matrix(0.05,0,0,0.05,21,0)" xlink:href="#J"/>
                <use transform="matrix(0.05,0,0,0.05,26,0)" xlink:href="#N"/>
                <use transform="matrix(0.05,0,0,0.05,29.950000000000003,0)" xlink:href="#P"/>
                <use transform="matrix(0.05,0,0,0.05,39.95,0)" xlink:href="#L"/>
            </g>
            <path d="M127-220V0H93v-220H8v-28h204v28h-85" id="R"/>
            <path d="M179-190L93 31C79 59 56 82 12 73V49c39 6 53-20 64-50L1-190h34L92-34l54-156h33" id="S"/>
            <path d="M115-194c55 1 70 41 70 98S169 2 115 4C84 4 66-9 55-30l1 105H24l-1-265h31l2 30c10-21 28-34 59-34zm-8 174c40 0 45-34 45-75s-6-73-45-74c-42 0-51 32-51 76 0 43 10 73 51 73"
                  id="T"/>
            <g id="f">
                <use transform="matrix(0.05,0,0,0.05,0,0)" xlink:href="#R"/>
                <use transform="matrix(0.05,0,0,0.05,9.950000000000001,0)" xlink:href="#S"/>
                <use transform="matrix(0.05,0,0,0.05,18.950000000000003,0)" xlink:href="#T"/>
                <use transform="matrix(0.05,0,0,0.05,28.950000000000003,0)" xlink:href="#G"/>
            </g>
            <path d="M84 4C-5 8 30-112 23-190h32v120c0 31 7 50 39 49 72-2 45-101 50-169h31l1 190h-30c-1-10 1-25-2-33-11 22-28 36-60 37" id="U"/>
            <g id="g">
                <use transform="matrix(0.05,0,0,0.05,0,0)" xlink:href="#J"/>
                <use transform="matrix(0.05,0,0,0.05,5,0)" xlink:href="#K"/>
                <use transform="matrix(0.05,0,0,0.05,15,0)" xlink:href="#U"/>
            </g>
            <g id="h">
                <use transform="matrix(0.05,0,0,0.05,0,0)" xlink:href="#F"/>
                <use transform="matrix(0.05,0,0,0.05,12,0)" xlink:href="#G"/>
                <use transform="matrix(0.05,0,0,0.05,22,0)" xlink:href="#H"/>
                <use transform="matrix(0.05,0,0,0.05,25.950000000000003,0)" xlink:href="#G"/>
                <use transform="matrix(0.05,0,0,0.05,35.95,0)" xlink:href="#I"/>
                <use transform="matrix(0.05,0,0,0.05,44.95,0)" xlink:href="#J"/>
            </g>
            <path d="M114-163C36-179 61-72 57 0H25l-1-190h30c1 12-1 29 2 39 6-27 23-49 58-41v29" id="V"/>
            <path d="M135-143c-3-34-86-38-87 0 15 53 115 12 119 90S17 21 10-45l28-5c4 36 97 45 98 0-10-56-113-15-118-90-4-57 82-63 122-42 12 7 21 19 24 35"
                  id="W"/>
            <g id="i">
                <use transform="matrix(0.05,0,0,0.05,0,0)" xlink:href="#J"/>
                <use transform="matrix(0.05,0,0,0.05,5,0)" xlink:href="#V"/>
                <use transform="matrix(0.05,0,0,0.05,10.95,0)" xlink:href="#K"/>
                <use transform="matrix(0.05,0,0,0.05,20.95,0)" xlink:href="#L"/>
                <use transform="matrix(0.05,0,0,0.05,30.950000000000003,0)" xlink:href="#W"/>
                <use transform="matrix(0.05,0,0,0.05,39.95,0)" xlink:href="#N"/>
                <use transform="matrix(0.05,0,0,0.05,43.900000000000006,0)" xlink:href="#J"/>
                <use transform="matrix(0.05,0,0,0.05,48.900000000000006,0)" xlink:href="#N"/>
                <use transform="matrix(0.05,0,0,0.05,52.85,0)" xlink:href="#P"/>
                <use transform="matrix(0.05,0,0,0.05,62.85,0)" xlink:href="#L"/>
            </g>
            <g id="j">
                <use transform="matrix(0.05,0,0,0.05,0,0)" xlink:href="#J"/>
                <use transform="matrix(0.05,0,0,0.05,5,0)" xlink:href="#S"/>
                <use transform="matrix(0.05,0,0,0.05,14,0)" xlink:href="#T"/>
                <use transform="matrix(0.05,0,0,0.05,24,0)" xlink:href="#G"/>
            </g>
            <g id="k">
                <use transform="matrix(0.05,0,0,0.05,0,0)" xlink:href="#N"/>
                <use transform="matrix(0.05,0,0,0.05,3.95,0)" xlink:href="#L"/>
                <use transform="matrix(0.05,0,0,0.05,13.949999999999998,0)" xlink:href="#T"/>
                <use transform="matrix(0.05,0,0,0.05,23.95,0)" xlink:href="#U"/>
                <use transform="matrix(0.05,0,0,0.05,33.95,0)" xlink:href="#J"/>
            </g>
            <path d="M0 4l72-265h28L28 4H0" id="X"/>
            <use transform="matrix(0.05,0,0,0.05,0,0)" xlink:href="#X" id="l"/>
            <g id="m">
                <use transform="matrix(0.05,0,0,0.05,0,0)" xlink:href="#P"/>
                <use transform="matrix(0.05,0,0,0.05,10,0)" xlink:href="#U"/>
                <use transform="matrix(0.05,0,0,0.05,20,0)" xlink:href="#J"/>
                <use transform="matrix(0.05,0,0,0.05,25,0)" xlink:href="#T"/>
                <use transform="matrix(0.05,0,0,0.05,35,0)" xlink:href="#U"/>
                <use transform="matrix(0.05,0,0,0.05,45,0)" xlink:href="#J"/>
            </g>
            <g id="n">
                <use transform="matrix(0.05,0,0,0.05,0,0)" xlink:href="#L"/>
                <use transform="matrix(0.05,0,0,0.05,10,0)" xlink:href="#O"/>
            </g>
            <path d="M101-234c-31-9-42 10-38 44h38v23H63V0H32v-167H5v-23h27c-7-52 17-82 69-68v24" id="Y"/>
            <path d="M85-194c31 0 48 13 60 33l-1-100h32l1 261h-30c-2-10 0-23-3-31C134-8 116 4 85 4 32 4 16-35 15-94c0-66 23-100 70-100zm9 24c-40 0-46 34-46 75 0 40 6 74 45 74 42 0 51-32 51-76 0-42-9-74-50-73"
                  id="Z"/>
            <g id="o">
                <use transform="matrix(0.05,0,0,0.05,0,0)" xlink:href="#U"/>
                <use transform="matrix(0.05,0,0,0.05,10,0)" xlink:href="#L"/>
                <use transform="matrix(0.05,0,0,0.05,20,0)" xlink:href="#Y"/>
                <use transform="matrix(0.05,0,0,0.05,25,0)" xlink:href="#P"/>
                <use transform="matrix(0.05,0,0,0.05,35,0)" xlink:href="#H"/>
                <use transform="matrix(0.05,0,0,0.05,38.95,0)" xlink:href="#Z"/>
                <use transform="matrix(0.05,0,0,0.05,48.95,0)" xlink:href="#G"/>
                <use transform="matrix(0.05,0,0,0.05,58.95,0)" xlink:href="#Z"/>
            </g>
            <path d="M177-190C167-65 218 103 67 71c-23-6-38-20-44-43l32-5c15 47 100 32 89-28v-30C133-14 115 1 83 1 29 1 15-40 15-95c0-56 16-97 71-98 29-1 48 16 59 35 1-10 0-23 2-32h30zM94-22c36 0 50-32 50-73 0-42-14-75-50-75-39 0-46 34-46 75s6 73 46 73"
                  id="aa"/>
            <g id="p">
                <use transform="matrix(0.05,0,0,0.05,0,0)" xlink:href="#O"/>
                <use transform="matrix(0.05,0,0,0.05,10,0)" xlink:href="#K"/>
                <use transform="matrix(0.05,0,0,0.05,20,0)" xlink:href="#L"/>
                <use transform="matrix(0.05,0,0,0.05,30,0)" xlink:href="#aa"/>
            </g>
            <use transform="matrix(0.05,0,0,0.05,0,0)" xlink:href="#K" id="q"/>
            <path d="M106-169C34-169 62-67 57 0H25v-261h32l-1 103c12-21 28-36 61-36 89 0 53 116 60 194h-32v-121c2-32-8-49-39-48" id="ab"/>
            <g id="r">
                <use transform="matrix(0.05,0,0,0.05,0,0)" xlink:href="#I"/>
                <use transform="matrix(0.05,0,0,0.05,9,0)" xlink:href="#ab"/>
                <use transform="matrix(0.05,0,0,0.05,19,0)" xlink:href="#P"/>
                <use transform="matrix(0.05,0,0,0.05,29,0)" xlink:href="#N"/>
                <use transform="matrix(0.05,0,0,0.05,32.95,0)" xlink:href="#I"/>
                <use transform="matrix(0.05,0,0,0.05,41.95,0)" xlink:href="#G"/>
            </g>
            <g id="s">
                <use transform="matrix(0.05,0,0,0.05,0,0)" xlink:href="#I"/>
                <use transform="matrix(0.05,0,0,0.05,9,0)" xlink:href="#ab"/>
                <use transform="matrix(0.05,0,0,0.05,19,0)" xlink:href="#P"/>
                <use transform="matrix(0.05,0,0,0.05,29,0)" xlink:href="#N"/>
                <use transform="matrix(0.05,0,0,0.05,32.95,0)" xlink:href="#I"/>
                <use transform="matrix(0.05,0,0,0.05,41.95,0)" xlink:href="#G"/>
            </g>
            <g id="t">
                <use transform="matrix(0.05,0,0,0.05,0,0)" xlink:href="#R"/>
                <use transform="matrix(0.05,0,0,0.05,10.3,0)" xlink:href="#V"/>
                <use transform="matrix(0.05,0,0,0.05,16.25,0)" xlink:href="#K"/>
                <use transform="matrix(0.05,0,0,0.05,26.25,0)" xlink:href="#L"/>
                <use transform="matrix(0.05,0,0,0.05,36.25,0)" xlink:href="#W"/>
                <use transform="matrix(0.05,0,0,0.05,45.25,0)" xlink:href="#N"/>
                <use transform="matrix(0.05,0,0,0.05,49.2,0)" xlink:href="#J"/>
                <use transform="matrix(0.05,0,0,0.05,54.2,0)" xlink:href="#N"/>
                <use transform="matrix(0.05,0,0,0.05,58.150000000000006,0)" xlink:href="#P"/>
                <use transform="matrix(0.05,0,0,0.05,68.15,0)" xlink:href="#L"/>
            </g>
            <g id="u">
                <use transform="matrix(0.05,0,0,0.05,0,0)" xlink:href="#Z"/>
                <use transform="matrix(0.05,0,0,0.05,10,0)" xlink:href="#N"/>
                <use transform="matrix(0.05,0,0,0.05,13.949999999999998,0)" xlink:href="#V"/>
                <use transform="matrix(0.05,0,0,0.05,19.9,0)" xlink:href="#G"/>
                <use transform="matrix(0.05,0,0,0.05,29.899999999999995,0)" xlink:href="#I"/>
                <use transform="matrix(0.05,0,0,0.05,38.9,0)" xlink:href="#J"/>
            </g>
            <path d="M212-179c-10-28-35-45-73-45-59 0-87 40-87 99 0 60 29 101 89 101 43 0 62-24 78-52l27 14C228-24 195 4 139 4 59 4 22-46 18-125c-6-104 99-153 187-111 19 9 31 26 39 46"
                  id="ac"/>
            <path d="M210-169c-67 3-38 105-44 169h-31v-121c0-29-5-50-35-48C34-165 62-65 56 0H25l-1-190h30c1 10-1 24 2 32 10-44 99-50 107 0 11-21 27-35 58-36 85-2 47 119 55 194h-31v-121c0-29-5-49-35-48"
                  id="ad"/>
            <g id="v">
                <use transform="matrix(0.05,0,0,0.05,0,0)" xlink:href="#ac"/>
                <use transform="matrix(0.05,0,0,0.05,12.950000000000001,0)" xlink:href="#P"/>
                <use transform="matrix(0.05,0,0,0.05,22.950000000000003,0)" xlink:href="#ad"/>
                <use transform="matrix(0.05,0,0,0.05,37.900000000000006,0)" xlink:href="#T"/>
                <use transform="matrix(0.05,0,0,0.05,47.900000000000006,0)" xlink:href="#K"/>
                <use transform="matrix(0.05,0,0,0.05,57.900000000000006,0)" xlink:href="#J"/>
                <use transform="matrix(0.05,0,0,0.05,62.900000000000006,0)" xlink:href="#N"/>
                <use transform="matrix(0.05,0,0,0.05,66.85000000000001,0)" xlink:href="#O"/>
                <use transform="matrix(0.05,0,0,0.05,76.85000000000001,0)" xlink:href="#H"/>
                <use transform="matrix(0.05,0,0,0.05,80.80000000000001,0)" xlink:href="#G"/>
            </g>
            <path d="M266 0h-40l-56-210L115 0H75L2-248h35L96-30l15-64 43-154h32l59 218 59-218h35" id="ae"/>
            <g id="w">
                <use transform="matrix(0.05,0,0,0.05,0,0)" xlink:href="#ae"/>
                <use transform="matrix(0.05,0,0,0.05,16.599999999999998,0)" xlink:href="#V"/>
                <use transform="matrix(0.05,0,0,0.05,22.549999999999997,0)" xlink:href="#N"/>
                <use transform="matrix(0.05,0,0,0.05,26.499999999999996,0)" xlink:href="#J"/>
                <use transform="matrix(0.05,0,0,0.05,31.499999999999996,0)" xlink:href="#G"/>
            </g>
            <g id="x">
                <use transform="matrix(0.05,0,0,0.05,0,0)" xlink:href="#J"/>
                <use transform="matrix(0.05,0,0,0.05,5,0)" xlink:href="#ab"/>
                <use transform="matrix(0.05,0,0,0.05,15,0)" xlink:href="#G"/>
            </g>
            <g id="y">
                <use transform="matrix(0.05,0,0,0.05,0,0)" xlink:href="#I"/>
                <use transform="matrix(0.05,0,0,0.05,9,0)" xlink:href="#ab"/>
                <use transform="matrix(0.05,0,0,0.05,19,0)" xlink:href="#K"/>
                <use transform="matrix(0.05,0,0,0.05,29,0)" xlink:href="#L"/>
                <use transform="matrix(0.05,0,0,0.05,39,0)" xlink:href="#L"/>
                <use transform="matrix(0.05,0,0,0.05,49,0)" xlink:href="#G"/>
                <use transform="matrix(0.05,0,0,0.05,59,0)" xlink:href="#H"/>
            </g>
            <g id="z">
                <use transform="matrix(0.05,0,0,0.05,0,0)" xlink:href="#K"/>
                <use transform="matrix(0.05,0,0,0.05,10,0)" xlink:href="#L"/>
                <use transform="matrix(0.05,0,0,0.05,20,0)" xlink:href="#Z"/>
            </g>
            <g id="A">
                <use transform="matrix(0.05,0,0,0.05,0,0)" xlink:href="#J"/>
                <use transform="matrix(0.05,0,0,0.05,5,0)" xlink:href="#G"/>
                <use transform="matrix(0.05,0,0,0.05,15,0)" xlink:href="#V"/>
                <use transform="matrix(0.05,0,0,0.05,20.95,0)" xlink:href="#ad"/>
            </g>
            <g id="B">
                <use transform="matrix(0.05,0,0,0.05,0,0)" xlink:href="#J"/>
                <use transform="matrix(0.05,0,0,0.05,5,0)" xlink:href="#ab"/>
                <use transform="matrix(0.05,0,0,0.05,15,0)" xlink:href="#G"/>
            </g>
            <g id="C">
                <use transform="matrix(0.05,0,0,0.05,0,0)" xlink:href="#I"/>
                <use transform="matrix(0.05,0,0,0.05,9,0)" xlink:href="#ab"/>
                <use transform="matrix(0.05,0,0,0.05,19,0)" xlink:href="#K"/>
                <use transform="matrix(0.05,0,0,0.05,29,0)" xlink:href="#L"/>
                <use transform="matrix(0.05,0,0,0.05,39,0)" xlink:href="#L"/>
                <use transform="matrix(0.05,0,0,0.05,49,0)" xlink:href="#G"/>
                <use transform="matrix(0.05,0,0,0.05,59,0)" xlink:href="#H"/>
            </g>
            <g id="D">
                <use transform="matrix(0.05,0,0,0.05,0,0)" xlink:href="#G"/>
                <use transform="matrix(0.05,0,0,0.05,10,0)" xlink:href="#K"/>
                <use transform="matrix(0.05,0,0,0.05,20,0)" xlink:href="#M"/>
                <use transform="matrix(0.05,0,0,0.05,29,0)" xlink:href="#G"/>
                <use transform="matrix(0.05,0,0,0.05,39,0)" xlink:href="#W"/>
                <use transform="matrix(0.05,0,0,0.05,48,0)" xlink:href="#Z"/>
                <use transform="matrix(0.05,0,0,0.05,58,0)" xlink:href="#V"/>
                <use transform="matrix(0.05,0,0,0.05,63.95,0)" xlink:href="#P"/>
                <use transform="matrix(0.05,0,0,0.05,73.95,0)" xlink:href="#T"/>
            </g>
            <g id="E">
                <use transform="matrix(0.05,0,0,0.05,0,0)" xlink:href="#I"/>
                <use transform="matrix(0.05,0,0,0.05,9,0)" xlink:href="#P"/>
                <use transform="matrix(0.05,0,0,0.05,19,0)" xlink:href="#ad"/>
                <use transform="matrix(0.05,0,0,0.05,33.95,0)" xlink:href="#ad"/>
            </g>
        </defs>
    </g>
</svg>